<svg width="239" height="226" viewBox="0 0 239 226" fill="none" xmlns="http://www.w3.org/2000/svg">
<g filter="url(#filter0_f_4050_5411)">
<ellipse cx="116.769" cy="185.727" rx="94.2811" ry="18.1881" fill="#C8CFDA"/>
</g>
<path d="M120.259 207.944C174.257 207.944 218.03 164.171 218.03 110.173C218.03 56.1759 174.257 12.4023 120.259 12.4023C66.2618 12.4023 22.4883 56.1759 22.4883 110.173C22.4883 164.171 66.2618 207.944 120.259 207.944Z" fill="url(#paint0_linear_4050_5411)"/>
<path d="M195.893 51.9243H71.707V113.209H195.893V51.9243Z" fill="url(#paint1_linear_4050_5411)"/>
<path d="M195.895 51.9243H208.359C216.485 51.9243 224.278 55.1523 230.024 60.8982C235.77 66.644 238.998 74.4371 238.998 82.563C238.998 90.6888 235.77 98.4819 230.024 104.228C224.278 109.974 216.485 113.202 208.359 113.202H195.895V51.9243Z" fill="url(#paint2_linear_4050_5411)"/>
<path d="M203.957 60.939H211.088C216.572 60.939 221.832 63.1176 225.71 66.9955C229.588 70.8735 231.766 76.1331 231.766 81.6173V83.5156C231.766 88.9998 229.588 94.2594 225.71 98.1374C221.832 102.015 216.572 104.194 211.088 104.194H203.957V60.939Z" fill="url(#paint3_linear_4050_5411)"/>
<path d="M203.957 60.939H211.088C216.572 60.939 221.832 63.1176 225.71 66.9955C229.588 70.8735 231.766 76.1331 231.766 81.6173V83.5156C231.766 88.9998 229.588 94.2594 225.71 98.1374C221.832 102.015 216.572 104.194 211.088 104.194H203.957V60.939Z" fill="url(#paint4_linear_4050_5411)"/>
<path d="M195.893 62.2095H82.1367V113.209H195.893V62.2095Z" fill="url(#paint5_linear_4050_5411)"/>
<rect x="42.0391" y="123.412" width="46.121" height="59.0672" fill="url(#paint6_linear_4050_5411)"/>
<rect x="42.0391" y="123.412" width="46.121" height="59.0672" fill="url(#paint7_linear_4050_5411)"/>
<rect x="98.6797" y="123.412" width="46.121" height="59.0672" fill="url(#paint8_linear_4050_5411)"/>
<rect x="155.32" y="123.412" width="29.9382" height="59.0672" fill="url(#paint9_linear_4050_5411)"/>
<path d="M195.896 51.9243H185.293V113.209H195.896V51.9243Z" fill="url(#paint10_linear_4050_5411)"/>
<path d="M98.679 112.893L88.1602 112.893L88.1601 192.997L98.679 192.997L98.679 112.893Z" fill="url(#paint11_linear_4050_5411)"/>
<path fill-rule="evenodd" clip-rule="evenodd" d="M149.653 123.411V112.893H42.4885V112.893L36.2658 112.893C33.6445 112.893 31.5195 115.018 31.5195 117.639L31.5195 188.251C31.5195 190.872 33.6445 192.997 36.2658 192.997H42.4885V192.998H149.653V182.479H42.4892L42.4892 123.411H149.653Z" fill="url(#paint12_linear_4050_5411)"/>
<path fill-rule="evenodd" clip-rule="evenodd" d="M155.314 112.893H149.543C146.922 112.893 144.797 115.018 144.797 117.639L144.797 192.997H155.314V192.998H185.253L185.252 192.997H191.025C193.646 192.997 195.771 190.872 195.771 188.251L195.771 112.893H185.253H155.316H155.314ZM185.253 123.411H155.316L155.316 182.479H185.253V123.411Z" fill="url(#paint13_linear_4050_5411)"/>
<path d="M80.0312 113.339V113.454V117.099V143.653H108.869C109.393 143.653 109.818 143.228 109.818 142.703V117.099V114.288C109.818 113.764 109.393 113.339 108.869 113.339H80.0312Z" fill="url(#paint14_linear_4050_5411)"/>
<path d="M78.418 113.339C77.8937 113.339 77.4688 113.764 77.4688 114.288V142.703C77.4688 143.228 77.8937 143.653 78.418 143.653H107.256V113.339H78.418Z" fill="url(#paint15_linear_4050_5411)"/>
<path d="M102.008 116.24H82.7227C81.6742 116.24 80.8242 117.09 80.8242 118.139V138.607C80.8242 139.656 81.6742 140.506 82.7227 140.506H102.008C103.056 140.506 103.906 139.656 103.906 138.607V118.139C103.906 117.09 103.056 116.24 102.008 116.24Z" fill="url(#paint16_linear_4050_5411)"/>
<path d="M102.008 116.24H82.7227C81.6742 116.24 80.8242 117.09 80.8242 118.139V138.607C80.8242 139.656 81.6742 140.506 82.7227 140.506H102.008C103.056 140.506 103.906 139.656 103.906 138.607V118.139C103.906 117.09 103.056 116.24 102.008 116.24Z" fill="url(#paint17_linear_4050_5411)"/>
<g filter="url(#filter1_d_4050_5411)">
<path d="M25.0469 92.8239L36.2486 120.373C36.4016 120.751 36.6276 121.095 36.9137 121.385C37.1998 121.675 37.5404 121.906 37.9159 122.064C38.2914 122.222 38.6944 122.305 39.1019 122.307C39.5094 122.309 39.9133 122.231 40.2904 122.077L65.3932 111.878C66.1565 111.568 66.7653 110.967 67.086 110.208C67.4067 109.448 67.4131 108.593 67.1037 107.829L54.1554 75.9853C53.8448 75.2238 53.2447 74.6167 52.4869 74.2973C51.7291 73.9779 50.8755 73.9724 50.1135 74.2819L29.2547 82.7626L25.0469 92.8239Z" fill="url(#paint18_linear_4050_5411)"/>
</g>
<g filter="url(#filter2_d_4050_5411)">
<path d="M202.457 76.6408L191.255 104.19C191.102 104.568 190.876 104.912 190.59 105.202C190.304 105.492 189.964 105.723 189.588 105.881C189.213 106.039 188.809 106.122 188.402 106.124C187.995 106.126 187.591 106.048 187.213 105.894L162.111 95.6952C161.347 95.3845 160.739 94.7837 160.418 94.0245C160.097 93.2654 160.091 92.41 160.4 91.6461L173.349 59.8022C173.659 59.0407 174.259 58.4336 175.017 58.1142C175.775 57.7948 176.628 57.7893 177.39 58.0988L198.249 66.5795L202.457 76.6408Z" fill="url(#paint19_linear_4050_5411)"/>
</g>
<path d="M25.0469 92.824L32.1706 89.9298L29.2619 82.7627L25.0469 92.824Z" fill="url(#paint20_linear_4050_5411)"/>
<path d="M202.457 76.6409L195.333 73.7467L198.242 66.5796L202.457 76.6409Z" fill="url(#paint21_linear_4050_5411)"/>
<path d="M202.457 76.6409L195.333 73.7467L198.242 66.5796L202.457 76.6409Z" fill="url(#paint22_linear_4050_5411)"/>
<path d="M95.406 129.39C96.3245 128.745 97.0134 127.823 97.3727 126.76C97.7321 125.696 97.7433 124.545 97.4047 123.475C97.066 122.404 96.3952 121.47 95.4894 120.806C94.5837 120.143 93.4902 119.785 92.3674 119.785C91.2447 119.785 90.1511 120.143 89.2454 120.806C88.3397 121.47 87.6688 122.404 87.3302 123.475C86.9916 124.545 87.0027 125.696 87.3621 126.76C87.7215 127.823 88.4104 128.745 89.3288 129.39L87.0625 137.193H97.6651L95.406 129.39Z" fill="url(#paint23_linear_4050_5411)"/>
<path d="M160.711 47.5146C160.711 48.6499 160.54 49.7788 160.205 50.8636C159.663 52.6029 158.704 54.1836 157.412 55.4684C157.033 55.8523 156.625 56.2069 156.192 56.5294C155.908 56.7511 155.609 56.9536 155.297 57.1356C154.987 57.326 154.667 57.4994 154.338 57.6553C153.847 57.8975 153.338 58.1003 152.815 58.2616C151.73 58.5964 150.601 58.7667 149.466 58.7668H147.373V113.007H88.9102V46.3381C88.9197 43.6707 89.9835 41.1153 91.8697 39.2291C93.7558 37.343 96.3113 36.2791 98.9787 36.2696H149.437C150.842 36.2642 152.236 36.5263 153.544 37.0419C153.906 37.1825 154.261 37.344 154.605 37.5255C154.778 37.6121 154.944 37.7059 155.11 37.807C155.246 37.8819 155.379 37.9638 155.507 38.0524C156.189 38.4837 156.821 38.9896 157.391 39.5608C158.156 40.3277 158.807 41.2003 159.325 42.1519C159.675 42.7933 159.96 43.4678 160.177 44.1656L160.328 44.707C160.421 45.0686 160.496 45.4348 160.552 45.804C160.649 46.3693 160.702 46.9412 160.711 47.5146Z" fill="url(#paint24_linear_4050_5411)"/>
<path d="M160.709 47.5147C160.709 48.65 160.539 49.7789 160.204 50.8637C159.983 51.5597 159.697 52.2338 159.352 52.8774C158.83 53.8277 158.176 54.6999 157.411 55.4685C157.031 55.8524 156.624 56.207 156.191 56.5295C155.902 56.746 155.606 56.9409 155.296 57.1357C154.986 57.326 154.665 57.4995 154.336 57.6554C153.844 57.8946 153.335 58.0972 152.813 58.2617C151.728 58.5965 150.599 58.7668 149.464 58.7669H147.371V46.3382C147.376 44.3507 147.966 42.4087 149.069 40.7551C150.172 39.1016 151.738 37.81 153.571 37.042C153.932 37.1863 154.293 37.3451 154.632 37.5256C154.805 37.6122 154.971 37.706 155.137 37.8071C155.274 37.882 155.406 37.9639 155.534 38.0525C156.216 38.4837 156.848 38.9897 157.418 39.5609C158.183 40.3278 158.835 41.2004 159.352 42.152C159.699 42.7948 159.984 43.4691 160.204 44.1657L160.356 44.7071C160.45 45.0685 160.524 45.4347 160.579 45.8041C160.667 46.3701 160.71 46.942 160.709 47.5147Z" fill="url(#paint25_linear_4050_5411)"/>
<path d="M160.709 47.5147C160.709 48.65 160.539 49.7789 160.204 50.8637C159.983 51.5597 159.697 52.2338 159.352 52.8774C158.83 53.8277 158.176 54.6999 157.411 55.4685C157.031 55.8524 156.624 56.207 156.191 56.5295C155.902 56.746 155.606 56.9409 155.296 57.1357C154.986 57.326 154.665 57.4995 154.336 57.6554C153.844 57.8946 153.335 58.0972 152.813 58.2617C151.728 58.5965 150.599 58.7668 149.464 58.7669H147.371V46.3382C147.376 44.3507 147.966 42.4087 149.069 40.7551C150.172 39.1016 151.738 37.81 153.571 37.042C153.932 37.1863 154.293 37.3451 154.632 37.5256C154.805 37.6122 154.971 37.706 155.137 37.8071C155.274 37.882 155.406 37.9639 155.534 38.0525C156.216 38.4837 156.848 38.9897 157.418 39.5609C158.183 40.3278 158.835 41.2004 159.352 42.152C159.699 42.7948 159.984 43.4691 160.204 44.1657L160.356 44.7071C160.45 45.0685 160.524 45.4347 160.579 45.8041C160.667 46.3701 160.71 46.942 160.709 47.5147Z" fill="url(#paint26_linear_4050_5411)"/>
<path d="M135.701 93.2593H98.7828C98.1649 93.2593 97.6641 93.7585 97.6641 94.3744C97.6641 94.9903 98.1649 95.4895 98.7828 95.4895H135.701C136.319 95.4895 136.819 94.9903 136.819 94.3744C136.819 93.7585 136.319 93.2593 135.701 93.2593Z" fill="#E2E2E2"/>
<path d="M135.701 81.8193H98.7828C98.1649 81.8193 97.6641 82.3186 97.6641 82.9345C97.6641 83.5503 98.1649 84.0496 98.7828 84.0496H135.701C136.319 84.0496 136.819 83.5503 136.819 82.9345C136.819 82.3186 136.319 81.8193 135.701 81.8193Z" fill="#E2E2E2"/>
<path d="M135.698 70.3726H111.923C111.306 70.3726 110.805 70.8718 110.805 71.4877C110.805 72.1035 111.306 72.6028 111.923 72.6028H135.698C136.316 72.6028 136.817 72.1035 136.817 71.4877C136.817 70.8718 136.316 70.3726 135.698 70.3726Z" fill="#E2E2E2"/>
<path d="M120.104 58.9253H98.523C98.0486 58.9253 97.6641 59.3098 97.6641 59.7842V60.2966C97.6641 60.771 98.0486 61.1555 98.523 61.1555H120.104C120.578 61.1555 120.962 60.771 120.962 60.2966V59.7842C120.962 59.3098 120.578 58.9253 120.104 58.9253Z" fill="#E2E2E2"/>
<path d="M106.722 70.3726H98.7828C98.1649 70.3726 97.6641 70.8718 97.6641 71.4877C97.6641 72.1035 98.1649 72.6028 98.7828 72.6028H106.722C107.34 72.6028 107.841 72.1035 107.841 71.4877C107.841 70.8718 107.34 70.3726 106.722 70.3726Z" fill="#E2E2E2"/>
<path d="M42.4453 123.412H46.0864V182.479H42.4453V123.412Z" fill="#96A3B7"/>
<path d="M98.6797 143.64H101.916V182.478H98.6797V143.64Z" fill="#96A3B7"/>
<path d="M155.32 123.412H158.961V182.479H155.32V123.412Z" fill="url(#paint27_linear_4050_5411)"/>
<g filter="url(#filter3_f_4050_5411)">
<ellipse cx="56.2264" cy="73.5684" rx="31.1796" ry="10.022" fill="white"/>
</g>
<path d="M47.1299 23.5L47.1643 23.5048C47.4803 23.5489 47.8047 23.5883 48.1338 23.6283C48.8883 23.7201 49.6671 23.8148 50.4253 23.9753L50.4281 23.9759L50.4281 23.9759C54.0823 24.7722 57.4174 26.6365 60.0098 29.3319C62.6015 32.0267 64.334 35.4307 64.9874 39.1117C65.4661 41.651 65.4093 44.2622 64.8208 46.7783C64.2392 49.2645 63.1511 51.6036 61.6248 53.6497C61.6165 53.6706 61.6076 53.6898 61.5986 53.7073C61.6226 53.7254 61.6464 53.7439 61.6699 53.7627L61.691 53.7797L61.7101 53.7988L74.5695 66.6318C74.9408 66.9686 75.2163 67.3978 75.3677 67.8759C75.5205 68.3583 75.5413 68.8728 75.4281 69.366L75.4272 69.37C75.3146 69.8426 75.0798 70.2774 74.7463 70.6307C74.4128 70.984 73.9923 71.2435 73.5269 71.3831C73.0615 71.5227 72.5676 71.5376 72.0946 71.4262C71.6217 71.3148 71.1863 71.0811 70.8322 70.7484L70.825 70.7416L70.825 70.7416C70.194 70.1249 69.5685 69.4975 68.9464 68.8734C68.4823 68.4079 68.0201 67.9442 67.5588 67.4883L67.5563 67.4858L57.7488 57.6542C57.5865 57.7582 57.4232 57.8642 57.2589 57.9708C56.6435 58.3703 56.0138 58.7791 55.3657 59.1253C52.7736 60.5112 49.8946 61.2749 46.9563 61.356C44.018 61.437 41.1012 60.8332 38.4366 59.5924C35.772 58.3515 33.4328 56.5077 31.604 54.2067C29.7753 51.9057 28.5071 49.2107 27.9 46.3349L27.8998 46.3339C27.7773 45.7478 27.6943 45.142 27.6156 44.5677C27.5792 44.3024 27.5438 44.0438 27.5058 43.797L27.5 43.7593V43.721V41.2104V41.1444L27.5171 41.0807C27.5422 40.9871 27.5628 40.8923 27.5788 40.7967C27.9369 36.6895 29.628 32.8118 32.3949 29.7546C35.166 26.6927 38.8636 24.6224 42.9225 23.8601L47.1299 23.5ZM47.1299 23.5H47.0952M47.1299 23.5H47.0952M47.0952 23.5H45.6138H45.5813M47.0952 23.5H45.5813M45.5813 23.5L45.5491 23.5042M45.5813 23.5L45.5491 23.5042M45.5491 23.5042C45.3028 23.5363 45.0507 23.5659 44.795 23.5959M45.5491 23.5042L44.795 23.5959M44.795 23.5959C44.1813 23.668 43.5468 23.7425 42.9227 23.8601L44.795 23.5959ZM57.4965 35.0594C58.9587 37.2475 59.7393 39.8199 59.7396 42.4515C59.717 45.9746 58.3073 49.3469 55.8158 51.8382C53.3243 54.3295 49.9516 55.739 46.4282 55.7617C43.7963 55.7613 41.2236 54.9808 39.0353 53.5187C36.8465 52.0564 35.1405 49.9779 34.1331 47.5461C33.1257 45.1143 32.8622 42.4384 33.3757 39.8568C33.8893 37.2752 35.1569 34.9039 37.0183 33.0426C38.8798 31.1814 41.2513 29.9139 43.8332 29.4004C46.415 28.8869 49.0912 29.1504 51.5233 30.1577C53.9553 31.165 56.0341 32.8708 57.4965 35.0594Z" fill="url(#paint28_linear_4050_5411)" stroke="url(#paint29_linear_4050_5411)"/>
<path d="M186.712 39.761C186.712 41.9096 184.97 43.6513 182.822 43.6513C180.673 43.6513 178.931 41.9096 178.931 39.761C178.931 37.6125 180.673 35.8708 182.822 35.8708C184.97 35.8708 186.712 37.6125 186.712 39.761Z" stroke="#686D76" stroke-width="2.61276"/>
<circle cx="158.954" cy="202.569" r="3.89021" stroke="#686D76" stroke-width="2.61276"/>
<path d="M21.2262 149.91C22.5502 149.698 23.6072 150.999 23.1289 152.252L20.6942 158.627C20.2158 159.879 18.5608 160.144 17.7152 159.104L13.4114 153.808C12.5658 152.767 13.1638 151.201 14.4877 150.989L21.2262 149.91Z" fill="url(#paint30_linear_4050_5411)"/>
<path d="M210.109 144.109C209.778 142.81 210.977 141.639 212.268 142.002L218.838 143.848C220.129 144.211 220.543 145.835 219.583 146.771L214.699 151.538C213.74 152.474 212.126 152.021 211.795 150.722L210.109 144.109Z" fill="url(#paint31_linear_4050_5411)"/>
<path d="M110.726 8.88587C111.241 6.75289 114.275 6.75289 114.79 8.88586L115.923 13.5794C116.107 14.3417 116.702 14.9368 117.465 15.1208L122.158 16.2538C124.291 16.7687 124.291 19.8026 122.158 20.3175L117.465 21.4505C116.702 21.6345 116.107 22.2296 115.923 22.9919L114.79 27.6854C114.275 29.8184 111.241 29.8184 110.726 27.6854L109.593 22.9919C109.409 22.2296 108.814 21.6345 108.052 21.4505L103.359 20.3175C101.226 19.8026 101.226 16.7687 103.359 16.2538L108.052 15.1208C108.814 14.9368 109.409 14.3417 109.593 13.5794L110.726 8.88587Z" fill="url(#paint32_linear_4050_5411)"/>
<path d="M65.5507 198.118C66.0656 195.985 69.0995 195.985 69.6144 198.118L70.7474 202.812C70.9314 203.574 71.5265 204.169 72.2887 204.353L76.9823 205.486C79.1153 206.001 79.1153 209.035 76.9823 209.55L72.2887 210.683C71.5265 210.867 70.9314 211.462 70.7474 212.224L69.6144 216.918C69.0995 219.051 66.0656 219.051 65.5507 216.918L64.4177 212.224C64.2337 211.462 63.6385 210.867 62.8763 210.683L58.1827 209.55C56.0498 209.035 56.0498 206.001 58.1827 205.486L62.8763 204.353C63.6385 204.169 64.2337 203.574 64.4177 202.812L65.5507 198.118Z" fill="url(#paint33_linear_4050_5411)"/>
<defs>
<filter id="filter0_f_4050_5411" x="0.715286" y="145.766" width="232.108" height="79.922" filterUnits="userSpaceOnUse" color-interpolation-filters="sRGB">
<feFlood flood-opacity="0" result="BackgroundImageFix"/>
<feBlend mode="normal" in="SourceGraphic" in2="BackgroundImageFix" result="shape"/>
<feGaussianBlur stdDeviation="10.8865" result="effect1_foregroundBlur_4050_5411"/>
</filter>
<filter id="filter1_d_4050_5411" x="22.1991" y="74.0537" width="61.2702" height="68.1877" filterUnits="userSpaceOnUse" color-interpolation-filters="sRGB">
<feFlood flood-opacity="0" result="BackgroundImageFix"/>
<feColorMatrix in="SourceAlpha" type="matrix" values="0 0 0 0 0 0 0 0 0 0 0 0 0 0 0 0 0 0 127 0" result="hardAlpha"/>
<feOffset dx="6.64476" dy="10.4418"/>
<feGaussianBlur stdDeviation="4.74626"/>
<feComposite in2="hardAlpha" operator="out"/>
<feColorMatrix type="matrix" values="0 0 0 0 0.184314 0 0 0 0 0.254902 0 0 0 0 0.443137 0 0 0 0.15 0"/>
<feBlend mode="normal" in2="BackgroundImageFix" result="effect1_dropShadow_4050_5411"/>
<feBlend mode="normal" in="SourceGraphic" in2="effect1_dropShadow_4050_5411" result="shape"/>
</filter>
<filter id="filter2_d_4050_5411" x="157.324" y="57.8706" width="61.2702" height="68.1877" filterUnits="userSpaceOnUse" color-interpolation-filters="sRGB">
<feFlood flood-opacity="0" result="BackgroundImageFix"/>
<feColorMatrix in="SourceAlpha" type="matrix" values="0 0 0 0 0 0 0 0 0 0 0 0 0 0 0 0 0 0 127 0" result="hardAlpha"/>
<feOffset dx="6.64476" dy="10.4418"/>
<feGaussianBlur stdDeviation="4.74626"/>
<feComposite in2="hardAlpha" operator="out"/>
<feColorMatrix type="matrix" values="0 0 0 0 0.184314 0 0 0 0 0.254902 0 0 0 0 0.443137 0 0 0 0.15 0"/>
<feBlend mode="normal" in2="BackgroundImageFix" result="effect1_dropShadow_4050_5411"/>
<feBlend mode="normal" in="SourceGraphic" in2="effect1_dropShadow_4050_5411" result="shape"/>
</filter>
<filter id="filter3_f_4050_5411" x="3.27388" y="41.7734" width="105.905" height="63.5899" filterUnits="userSpaceOnUse" color-interpolation-filters="sRGB">
<feFlood flood-opacity="0" result="BackgroundImageFix"/>
<feBlend mode="normal" in="SourceGraphic" in2="BackgroundImageFix" result="shape"/>
<feGaussianBlur stdDeviation="10.8865" result="effect1_foregroundBlur_4050_5411"/>
</filter>
<linearGradient id="paint0_linear_4050_5411" x1="119.506" y1="-19.4343" x2="121.508" y2="323.923" gradientUnits="userSpaceOnUse">
<stop stop-color="#CAE0FF" stop-opacity="0"/>
<stop offset="1" stop-color="#EAECF3"/>
</linearGradient>
<linearGradient id="paint1_linear_4050_5411" x1="133.8" y1="51.9243" x2="133.8" y2="113.209" gradientUnits="userSpaceOnUse">
<stop stop-color="#E2E2E2"/>
<stop offset="1" stop-color="#BDC8D9"/>
</linearGradient>
<linearGradient id="paint2_linear_4050_5411" x1="272.865" y1="89.9905" x2="211.646" y2="92.2588" gradientUnits="userSpaceOnUse">
<stop stop-color="#E6E9F3"/>
<stop offset="1" stop-color="#CED1D7"/>
</linearGradient>
<linearGradient id="paint3_linear_4050_5411" x1="235.827" y1="105.61" x2="208.317" y2="69.1985" gradientUnits="userSpaceOnUse">
<stop stop-color="#EDF4FF"/>
<stop offset="1" stop-color="#ABCCFF"/>
</linearGradient>
<linearGradient id="paint4_linear_4050_5411" x1="243.04" y1="108.934" x2="205.1" y2="63.3997" gradientUnits="userSpaceOnUse">
<stop stop-color="#F5F5F5"/>
<stop offset="1" stop-color="#B6C0CF"/>
</linearGradient>
<linearGradient id="paint5_linear_4050_5411" x1="139.015" y1="62.2095" x2="139.015" y2="113.209" gradientUnits="userSpaceOnUse">
<stop stop-color="#96A3B6"/>
<stop offset="1" stop-color="#BDC4D6"/>
</linearGradient>
<linearGradient id="paint6_linear_4050_5411" x1="100.702" y1="204.326" x2="44.0619" y2="150.922" gradientUnits="userSpaceOnUse">
<stop stop-color="#EDF4FF"/>
<stop offset="1" stop-color="#ABCCFF"/>
</linearGradient>
<linearGradient id="paint7_linear_4050_5411" x1="106.858" y1="188.952" x2="57.713" y2="117.319" gradientUnits="userSpaceOnUse">
<stop stop-color="#F5F5F5"/>
<stop offset="1" stop-color="#B6C0CF"/>
</linearGradient>
<linearGradient id="paint8_linear_4050_5411" x1="163.498" y1="188.952" x2="114.354" y2="117.319" gradientUnits="userSpaceOnUse">
<stop stop-color="#F5F5F5"/>
<stop offset="1" stop-color="#B6C0CF"/>
</linearGradient>
<linearGradient id="paint9_linear_4050_5411" x1="197.396" y1="188.952" x2="144.801" y2="139.19" gradientUnits="userSpaceOnUse">
<stop stop-color="#F5F5F5"/>
<stop offset="1" stop-color="#B6C0CF"/>
</linearGradient>
<linearGradient id="paint10_linear_4050_5411" x1="185" y1="48" x2="188.982" y2="112.755" gradientUnits="userSpaceOnUse">
<stop offset="0.05" stop-color="#E5E8F3"/>
<stop offset="1" stop-color="#E7EBF1"/>
</linearGradient>
<linearGradient id="paint11_linear_4050_5411" x1="93" y1="103.5" x2="82.6826" y2="163.479" gradientUnits="userSpaceOnUse">
<stop stop-color="#E6E9F3"/>
<stop offset="1" stop-color="#A4B1C5"/>
</linearGradient>
<linearGradient id="paint12_linear_4050_5411" x1="16" y1="141.5" x2="170.945" y2="132.716" gradientUnits="userSpaceOnUse">
<stop stop-color="#E5E8F3"/>
<stop offset="1" stop-color="#A4B1C5"/>
</linearGradient>
<linearGradient id="paint13_linear_4050_5411" x1="235.823" y1="162.655" x2="163.407" y2="165.082" gradientUnits="userSpaceOnUse">
<stop stop-color="#E6E9F3"/>
<stop offset="1" stop-color="#A4B1C5"/>
</linearGradient>
<linearGradient id="paint14_linear_4050_5411" x1="-128.478" y1="142.199" x2="46.5487" y2="387.019" gradientUnits="userSpaceOnUse">
<stop offset="0.09375" stop-color="#9199A4"/>
<stop offset="1" stop-color="#A3BBE0"/>
</linearGradient>
<linearGradient id="paint15_linear_4050_5411" x1="119.332" y1="146.975" x2="96.6094" y2="105.296" gradientUnits="userSpaceOnUse">
<stop stop-color="#F5F5F5"/>
<stop offset="1" stop-color="#B6C0CF"/>
</linearGradient>
<linearGradient id="paint16_linear_4050_5411" x1="92.3651" y1="116.24" x2="92.3651" y2="140.506" gradientUnits="userSpaceOnUse">
<stop stop-color="#E0E0E0"/>
<stop offset="1" stop-color="#646972"/>
</linearGradient>
<linearGradient id="paint17_linear_4050_5411" x1="92.3651" y1="116.24" x2="92.3651" y2="140.506" gradientUnits="userSpaceOnUse">
<stop stop-color="#96A3B6"/>
<stop offset="1" stop-color="#BDC4D6"/>
</linearGradient>
<linearGradient id="paint18_linear_4050_5411" x1="84.4736" y1="127.595" x2="46.1748" y2="64.9454" gradientUnits="userSpaceOnUse">
<stop stop-color="white"/>
<stop offset="1" stop-color="#E7EFFB"/>
</linearGradient>
<linearGradient id="paint19_linear_4050_5411" x1="143.03" y1="111.412" x2="181.329" y2="48.7623" gradientUnits="userSpaceOnUse">
<stop stop-color="white"/>
<stop offset="1" stop-color="#E7EFFB"/>
</linearGradient>
<linearGradient id="paint20_linear_4050_5411" x1="28.6088" y1="82.7627" x2="28.6088" y2="92.824" gradientUnits="userSpaceOnUse">
<stop stop-color="#EDF4FF"/>
<stop offset="1" stop-color="#C3CCDC"/>
</linearGradient>
<linearGradient id="paint21_linear_4050_5411" x1="198.895" y1="66.5796" x2="198.895" y2="76.6409" gradientUnits="userSpaceOnUse">
<stop stop-color="#EDF4FF"/>
<stop offset="1" stop-color="#ABCCFF"/>
</linearGradient>
<linearGradient id="paint22_linear_4050_5411" x1="198.895" y1="66.5796" x2="198.895" y2="76.6409" gradientUnits="userSpaceOnUse">
<stop stop-color="#EDF4FF"/>
<stop offset="1" stop-color="#C3CCDC"/>
</linearGradient>
<linearGradient id="paint23_linear_4050_5411" x1="92.3638" y1="119.785" x2="92.3638" y2="137.193" gradientUnits="userSpaceOnUse">
<stop stop-color="#5B6067"/>
<stop offset="1" stop-color="#99A0B1"/>
</linearGradient>
<linearGradient id="paint24_linear_4050_5411" x1="124.81" y1="36.2695" x2="124.81" y2="113.007" gradientUnits="userSpaceOnUse">
<stop stop-color="#E9ECF5"/>
<stop offset="1" stop-color="#A1AFC6"/>
</linearGradient>
<linearGradient id="paint25_linear_4050_5411" x1="155.722" y1="55.8482" x2="139.944" y2="43.7111" gradientUnits="userSpaceOnUse">
<stop stop-color="#EDF4FF"/>
<stop offset="1" stop-color="#ABCCFF"/>
</linearGradient>
<linearGradient id="paint26_linear_4050_5411" x1="154.04" y1="37.042" x2="154.04" y2="58.7669" gradientUnits="userSpaceOnUse">
<stop stop-color="#EDF4FF"/>
<stop offset="1" stop-color="#C3CCDC"/>
</linearGradient>
<linearGradient id="paint27_linear_4050_5411" x1="129.832" y1="179.647" x2="192.604" y2="185.155" gradientUnits="userSpaceOnUse">
<stop offset="0.09375" stop-color="#9199A4"/>
<stop offset="1" stop-color="#A3BBE0"/>
</linearGradient>
<linearGradient id="paint28_linear_4050_5411" x1="28.2247" y1="27.1622" x2="75.0288" y2="71.158" gradientUnits="userSpaceOnUse">
<stop stop-color="#FF698D"/>
<stop offset="1" stop-color="#FF3868"/>
</linearGradient>
<linearGradient id="paint29_linear_4050_5411" x1="28.2247" y1="27.1622" x2="75.0288" y2="71.158" gradientUnits="userSpaceOnUse">
<stop stop-color="#FF698D"/>
<stop offset="1" stop-color="#FF3868"/>
</linearGradient>
<linearGradient id="paint30_linear_4050_5411" x1="24.2052" y1="149.433" x2="12.6826" y2="158.797" gradientUnits="userSpaceOnUse">
<stop stop-color="#E0E0E0"/>
<stop offset="1" stop-color="#646972"/>
</linearGradient>
<linearGradient id="paint31_linear_4050_5411" x1="209.364" y1="141.185" x2="219.734" y2="151.811" gradientUnits="userSpaceOnUse">
<stop stop-color="#E0E0E0"/>
<stop offset="1" stop-color="#646972"/>
</linearGradient>
<linearGradient id="paint32_linear_4050_5411" x1="112.758" y1="0.46875" x2="112.758" y2="36.1025" gradientUnits="userSpaceOnUse">
<stop stop-color="#E0E0E0"/>
<stop offset="1" stop-color="#646972"/>
</linearGradient>
<linearGradient id="paint33_linear_4050_5411" x1="67.5825" y1="189.701" x2="67.5825" y2="225.335" gradientUnits="userSpaceOnUse">
<stop stop-color="#E0E0E0"/>
<stop offset="1" stop-color="#646972"/>
</linearGradient>
</defs>
</svg>
