<svg width="28" height="28" viewBox="0 0 28 28" fill="none" xmlns="http://www.w3.org/2000/svg">
<g clip-path="url(#clip0_3370_694)">
<path d="M10.9922 0C11.6266 0.243275 11.8585 0.717411 11.814 1.37564C11.7877 1.7643 11.8096 2.15588 11.8096 2.58837H12.1698C14.8765 2.58837 17.5829 2.58837 20.2891 2.58837C20.9147 2.58837 21.3245 2.88423 21.4514 3.41462C21.4878 3.56577 21.4901 3.72317 21.458 3.87532C21.426 4.02746 21.3603 4.17051 21.266 4.29398C21.1716 4.41744 21.0509 4.51821 20.9127 4.58891C20.7744 4.65961 20.6221 4.69845 20.467 4.70259C19.7932 4.71574 19.118 4.71282 18.4443 4.70259C18.2642 4.70259 18.1716 4.74789 18.1008 4.92176C16.784 8.17275 14.8648 11.1446 12.4447 13.6804C12.3951 13.7323 12.3528 13.79 12.2945 13.8594L13.9913 15.254C14.0824 15.3271 14.1765 15.4001 14.2647 15.4812C14.7226 15.8932 14.7824 16.5193 14.4105 16.973C14.3223 17.0811 14.2135 17.1706 14.0904 17.2363C13.9674 17.3019 13.8325 17.3424 13.6937 17.3554C13.5549 17.3684 13.4149 17.3536 13.2819 17.3119C13.1488 17.2702 13.0253 17.2024 12.9187 17.1125C12.2362 16.5661 11.5668 16.0021 10.8923 15.4461L10.7465 15.3285C10.309 15.6938 9.8671 16.0591 9.42595 16.4178C7.90442 17.6651 6.38265 18.9124 4.86063 20.1597C4.54199 20.4227 4.19418 20.5366 3.79533 20.4198C3.61234 20.3733 3.44643 20.2754 3.31722 20.1375C3.18801 19.9997 3.1009 19.8276 3.06616 19.6417C3.01629 19.4454 3.02554 19.2386 3.09276 19.0475C3.15997 18.8564 3.28214 18.6895 3.44387 18.5678C4.19637 17.9483 4.94984 17.3305 5.70428 16.7144L9.18897 13.8594C8.8572 13.4941 8.53271 13.139 8.2148 12.7789C7.19446 11.615 6.27575 10.3656 5.46876 9.04428C5.20553 8.61398 5.23398 8.12742 5.53148 7.77164C5.82898 7.41586 6.30804 7.26025 6.71273 7.46335C6.96013 7.5916 7.17014 7.78188 7.3223 8.01565C8.2553 9.49681 9.32797 10.8849 10.5255 12.1608C10.5934 12.2339 10.6539 12.3121 10.729 12.4004C12.8948 10.1668 14.6416 7.56075 15.8856 4.70696H15.5313C10.8019 4.70696 6.07251 4.7004 1.34313 4.71501C0.690528 4.71501 0.23335 4.50971 0.00366211 3.8829V3.3905C0.25887 2.76661 0.732829 2.57448 1.38908 2.5796C4.0272 2.60078 6.66606 2.58837 9.30492 2.58837H9.68116C9.68116 2.15004 9.70303 1.74238 9.67678 1.33765C9.63376 0.680152 9.8795 0.230125 10.5044 0H10.9922Z" fill="white"/>
<path d="M28 27.0147C27.8395 27.4252 27.6084 27.7708 27.168 27.9264C26.4979 28.1624 25.8037 27.8183 25.5507 27.1104C25.3181 26.4595 25.0935 25.8056 24.882 25.1474C24.8171 24.9472 24.7187 24.8902 24.5123 24.8909C22.1066 24.8982 19.7003 24.8982 17.2936 24.8909C17.0894 24.8909 16.9932 24.9414 16.929 25.1466C16.7103 25.8224 16.4798 26.4923 16.2378 27.1593C16.1492 27.4111 15.9823 27.6277 15.7616 27.7774C15.541 27.927 15.2782 28.0018 15.012 27.9907C14.4761 27.9644 13.9839 27.6101 13.8789 27.0848C13.8232 26.7922 13.844 26.4902 13.9394 26.2081C15.0332 23.1398 16.1459 20.0802 17.2542 17.0185C17.8828 15.2822 18.5115 13.5459 19.1406 11.8096C19.4461 10.9666 20.095 10.4844 20.9183 10.4873C21.7415 10.4902 22.3868 10.9636 22.6843 11.7892C24.4207 16.5977 26.1552 21.4067 27.8877 26.2162C27.9248 26.3185 27.9606 26.42 28.0007 26.5215L28 27.0147ZM23.9801 22.6036C23.9487 22.4998 23.9319 22.4385 23.9115 22.3793L21.4068 15.1957C21.2843 14.8436 21.1662 14.49 21.0371 14.1401C21.0153 14.0817 20.9496 14.0393 20.9044 13.9896C20.8566 14.0365 20.8124 14.0871 20.7724 14.1408C20.7476 14.1896 20.7285 14.241 20.7156 14.2942L17.8995 22.3537C17.8718 22.4341 17.8499 22.5166 17.823 22.6065L23.9801 22.6036Z" fill="white"/>
</g>
<defs>
<clipPath id="clip0_3370_694">
<rect width="28" height="28" fill="white"/>
</clipPath>
</defs>
</svg>
