<svg width="990" height="334" viewBox="0 0 990 334" fill="none" xmlns="http://www.w3.org/2000/svg">
<g clip-path="url(#clip0_823_4010)">
<g style="mix-blend-mode:soft-light">
<path d="M583.439 334C732.453 334 853.253 331.119 853.253 327.566C853.253 324.012 732.453 321.131 583.439 321.131C434.425 321.131 313.625 324.012 313.625 327.566C313.625 331.119 434.425 334 583.439 334Z" fill="#292B41"/>
</g>
<path d="M748.401 15.7589C746.63 15.7589 745.576 14.4738 744.69 13.4279C744.333 12.9814 743.939 12.5662 743.512 12.1871C743.202 11.8982 742.825 11.6911 742.415 11.5843C742.005 11.4775 741.575 11.4745 741.164 11.5755C740.784 11.7104 740.442 11.937 740.17 12.2354C739.899 12.5338 739.704 12.8947 739.605 13.2861C739.546 13.4637 739.421 13.612 739.257 13.7009C739.092 13.7898 738.9 13.8127 738.719 13.7647C738.542 13.7057 738.395 13.5806 738.307 13.4156C738.22 13.2506 738.199 13.0582 738.25 12.8784C738.417 12.262 738.735 11.6966 739.174 11.2327C739.613 10.7688 740.16 10.4207 740.766 10.2195C741.403 10.0479 742.074 10.0391 742.716 10.194C743.359 10.3488 743.952 10.6623 744.442 11.1058C744.946 11.54 745.409 12.0208 745.824 12.5416C746.851 13.747 747.551 14.4738 748.685 14.3142C750.244 14.137 750.669 12.5948 750.784 11.6553C750.795 11.5607 750.825 11.4693 750.871 11.3863C750.918 11.3033 750.981 11.2304 751.056 11.1718C751.131 11.1132 751.217 11.0702 751.308 11.0452C751.4 11.0201 751.496 11.0136 751.59 11.026C751.782 11.0461 751.957 11.1414 752.079 11.291C752.2 11.4405 752.257 11.6321 752.237 11.8237C751.962 14.0483 750.696 15.5019 748.871 15.7058C748.716 15.7343 748.559 15.752 748.401 15.7589Z" fill="#EFC13F"/>
<path d="M926.221 320.333C924.653 319.58 924.228 317.949 923.883 316.619C923.756 316.06 923.578 315.514 923.351 314.988C923.196 314.595 922.945 314.245 922.622 313.972C922.299 313.698 921.914 313.508 921.5 313.42C921.097 313.381 920.691 313.441 920.318 313.596C919.944 313.75 919.614 313.994 919.356 314.306C919.225 314.447 919.042 314.53 918.85 314.537C918.657 314.543 918.47 314.473 918.329 314.341C918.188 314.21 918.105 314.028 918.098 313.835C918.091 313.642 918.162 313.454 918.293 313.313C918.714 312.832 919.247 312.46 919.845 312.232C920.442 312.003 921.086 311.924 921.721 312.002C922.37 312.123 922.978 312.404 923.491 312.818C924.004 313.233 924.407 313.768 924.662 314.377C924.931 314.987 925.139 315.622 925.282 316.274C925.69 317.798 926 318.764 927.054 319.136C928.533 319.65 929.579 318.445 930.075 317.674C930.126 317.594 930.193 317.524 930.271 317.47C930.349 317.416 930.437 317.377 930.531 317.358C930.624 317.338 930.72 317.337 930.814 317.355C930.907 317.372 930.996 317.409 931.076 317.461C931.237 317.565 931.352 317.729 931.393 317.916C931.435 318.104 931.4 318.3 931.297 318.463C930.084 320.351 928.321 321.122 926.576 320.51L926.221 320.333Z" fill="#EFC13F"/>
<path d="M238.304 309.219C237.294 310.637 235.647 310.778 234.247 310.894C233.676 310.917 233.11 310.997 232.555 311.133C232.14 311.218 231.753 311.404 231.427 311.674C231.101 311.945 230.846 312.292 230.686 312.684C230.58 313.074 230.569 313.484 230.656 313.879C230.742 314.275 230.923 314.643 231.182 314.953C231.299 315.107 231.351 315.301 231.325 315.493C231.3 315.685 231.199 315.859 231.045 315.977C230.891 316.094 230.697 316.146 230.505 316.12C230.313 316.094 230.139 315.993 230.022 315.839C229.618 315.344 229.342 314.756 229.218 314.129C229.094 313.501 229.127 312.853 229.313 312.241C229.543 311.622 229.924 311.071 230.42 310.636C230.917 310.201 231.513 309.897 232.156 309.75C232.801 309.591 233.46 309.493 234.123 309.458C235.7 309.325 236.701 309.183 237.259 308.173C238.021 306.808 237.011 305.567 236.373 304.946C236.305 304.879 236.252 304.799 236.215 304.711C236.179 304.622 236.16 304.528 236.16 304.432C236.16 304.337 236.179 304.242 236.215 304.154C236.252 304.066 236.305 303.986 236.373 303.918C236.44 303.851 236.519 303.798 236.606 303.761C236.694 303.725 236.788 303.706 236.882 303.706C236.977 303.706 237.071 303.725 237.158 303.761C237.246 303.798 237.325 303.851 237.392 303.918C239.039 305.434 239.491 307.304 238.596 308.917C238.455 308.988 238.384 309.103 238.304 309.219Z" fill="#EFC13F"/>
<g style="mix-blend-mode:soft-light">
<path d="M284.803 4.54682C284.803 3.64754 284.537 2.76846 284.038 2.02074C283.538 1.27302 282.829 0.690248 281.998 0.34611C281.168 0.00197312 280.254 -0.088073 279.373 0.0873667C278.491 0.262806 277.681 0.695853 277.046 1.33174C276.41 1.96762 275.978 2.77778 275.802 3.65977C275.627 4.54177 275.717 5.45598 276.061 6.2868C276.405 7.11762 276.987 7.82774 277.734 8.32735C278.482 8.82696 279.36 9.09362 280.259 9.09362C281.464 9.09362 282.62 8.61459 283.472 7.76189C284.325 6.9092 284.803 5.7527 284.803 4.54682Z" fill="#292B41"/>
</g>
<g style="mix-blend-mode:soft-light">
<path d="M931.173 33.1924C931.173 32.5561 930.985 31.9341 930.631 31.405C930.278 30.8759 929.776 30.4635 929.188 30.22C928.601 29.9765 927.954 29.9128 927.33 30.0369C926.707 30.1611 926.134 30.4675 925.684 30.9174C925.234 31.3674 924.928 31.9407 924.804 32.5648C924.68 33.1889 924.744 33.8358 924.987 34.4236C925.23 35.0115 925.643 35.514 926.171 35.8675C926.7 36.2211 927.322 36.4098 927.958 36.4098C928.811 36.4098 929.628 36.0708 930.231 35.4674C930.835 34.8641 931.173 34.0457 931.173 33.1924Z" fill="#292B41"/>
</g>
<g style="mix-blend-mode:soft-light">
<path d="M159.119 329.834C160.372 329.834 161.387 328.818 161.387 327.565C161.387 326.312 160.372 325.296 159.119 325.296C157.867 325.296 156.852 326.312 156.852 327.565C156.852 328.818 157.867 329.834 159.119 329.834Z" fill="#292B41"/>
</g>
<g style="mix-blend-mode:soft-light">
<path d="M778.392 211.245C778.392 210.609 778.203 209.987 777.85 209.458C777.497 208.929 776.995 208.516 776.407 208.273C775.819 208.029 775.173 207.966 774.549 208.09C773.925 208.214 773.352 208.52 772.903 208.97C772.453 209.42 772.147 209.993 772.023 210.617C771.899 211.242 771.962 211.888 772.206 212.476C772.449 213.064 772.861 213.567 773.39 213.92C773.919 214.274 774.541 214.462 775.177 214.462C775.599 214.464 776.018 214.381 776.408 214.22C776.799 214.059 777.154 213.822 777.453 213.523C777.752 213.224 777.988 212.869 778.15 212.478C778.311 212.087 778.393 211.668 778.392 211.245Z" fill="#292B41"/>
</g>
<path d="M31.9345 314.944C30.894 314.944 29.8768 314.636 29.011 314.058C28.1452 313.481 27.4697 312.66 27.0695 311.699C26.6693 310.738 26.5623 309.68 26.7621 308.658C26.962 307.636 27.4596 306.696 28.1922 305.957C28.9249 305.218 29.8599 304.712 30.8794 304.504C31.8989 304.295 32.9572 304.393 33.921 304.786C34.8849 305.178 35.7111 305.847 36.2955 306.709C36.8799 307.57 37.1965 308.585 37.2052 309.626C37.2053 311.029 36.6514 312.375 35.6642 313.371C34.677 314.367 33.3365 314.932 31.9345 314.944ZM31.9345 305.851C31.1794 305.851 30.4413 306.075 29.8134 306.494C29.1856 306.914 28.6962 307.511 28.4073 308.209C28.1183 308.907 28.0427 309.675 28.19 310.416C28.3373 311.157 28.7009 311.837 29.2349 312.372C29.7688 312.906 30.4491 313.27 31.1897 313.417C31.9303 313.565 32.698 313.489 33.3956 313.2C34.0932 312.911 34.6895 312.421 35.109 311.793C35.5285 311.165 35.7525 310.426 35.7525 309.671C35.7408 308.664 35.3337 307.703 34.6192 306.995C33.9047 306.287 32.9403 305.888 31.9345 305.886V305.851Z" fill="#7FA7F3"/>
<path d="M184.419 33.1928C183.664 33.1928 182.925 32.9685 182.297 32.5484C181.669 32.1282 181.18 31.5311 180.891 30.8326C180.603 30.134 180.528 29.3655 180.676 28.6242C180.824 27.883 181.188 27.2023 181.723 26.6685C182.258 26.1346 182.939 25.7715 183.68 25.6251C184.421 25.4787 185.189 25.5556 185.887 25.8461C186.584 26.1366 187.18 26.6276 187.598 27.2569C188.017 27.8863 188.239 28.6257 188.237 29.3816C188.235 30.3932 187.832 31.3626 187.116 32.0771C186.4 32.7915 185.431 33.1928 184.419 33.1928ZM184.419 26.6163C183.873 26.6163 183.339 26.7785 182.884 27.0824C182.43 27.3862 182.075 27.8181 181.866 28.3234C181.657 28.8287 181.602 29.3847 181.709 29.9211C181.815 30.4575 182.079 30.9503 182.465 31.337C182.852 31.7237 183.344 31.9871 183.88 32.0938C184.416 32.2005 184.972 32.1457 185.477 31.9364C185.982 31.7271 186.414 31.3727 186.717 30.918C187.021 30.4632 187.183 29.9286 187.183 29.3816C187.183 28.6482 186.892 27.9449 186.374 27.4263C185.855 26.9077 185.152 26.6163 184.419 26.6163Z" fill="#7FA7F3"/>
<path d="M794.356 146.154L787.207 139.01L794.356 131.857L801.495 139.01L794.356 146.154ZM788.651 139.01L794.356 144.709L800.052 139.01L794.356 133.302L788.651 139.01Z" fill="#D9674D"/>
<path d="M7.13976 29.018L0 21.8654L7.13976 14.7217L14.2884 21.8654L7.13976 29.018ZM1.4439 21.8654L7.13976 27.5733L12.8445 21.8654L7.13976 16.1664L1.4439 21.8654Z" fill="#D9674D"/>
<path d="M291.941 240.954L284.801 233.811L291.941 226.658L299.089 233.811L291.941 240.954ZM286.289 233.811L291.985 239.51L297.69 233.811L291.941 228.085L286.289 233.811Z" fill="#D9674D"/>
<path d="M565.77 13.9952V302.385H572.856V13.9952H565.77Z" fill="#7FA7F3"/>
<path d="M610.52 13.9952V302.385H617.606V13.9952H610.52Z" fill="#7FA7F3"/>
<path d="M617.589 301.118C617.589 304.523 616.918 307.896 615.616 311.042C614.313 314.188 612.404 317.047 609.997 319.456C607.59 321.864 604.733 323.774 601.588 325.077C598.444 326.381 595.073 327.051 591.669 327.051C588.266 327.051 584.895 326.381 581.75 325.077C578.606 323.774 575.748 321.864 573.342 319.456C570.935 317.047 569.026 314.188 567.723 311.042C566.42 307.896 565.75 304.523 565.75 301.118" fill="#7FA7F3"/>
<path d="M610.501 301.118C610.501 306.115 608.517 310.908 604.985 314.442C601.454 317.976 596.663 319.961 591.669 319.961C586.674 319.961 581.884 317.976 578.352 314.442C574.82 310.908 572.836 306.115 572.836 301.118" fill="#292B41"/>
<path d="M610.52 301.118V24.9058L572.863 24.9058V301.118H610.52Z" fill="white"/>
<path d="M583.441 24.9058V165.378" stroke="#949494" stroke-width="0.92" stroke-miterlimit="10"/>
<path d="M591.695 301.117C591.695 295.543 591.695 236.797 591.695 236.797" stroke="#949494" stroke-width="0.92" stroke-miterlimit="10"/>
<path d="M599.172 301.117C599.172 295.543 599.172 266.454 599.172 266.454" stroke="#949494" stroke-width="0.92" stroke-miterlimit="10"/>
<path d="M601.867 59.0287C601.867 53.4537 601.867 24.8257 601.867 24.8257" stroke="#949494" stroke-width="0.92" stroke-miterlimit="10"/>
<path d="M592.645 41.4441C592.645 35.8692 592.645 24.8257 592.645 24.8257" stroke="#949494" stroke-width="0.92" stroke-miterlimit="10"/>
<path d="M488.95 328.903L508.203 41.1567L501.132 40.6831L481.88 328.429L488.95 328.903Z" fill="#EFC13F"/>
<path d="M444.306 325.914L463.559 38.168L456.488 37.6943L437.235 325.44L444.306 325.914Z" fill="#EFC13F"/>
<path d="M456.414 38.9801C456.58 35.5383 457.431 32.1643 458.915 29.055C460.399 25.9458 462.488 23.1637 465.059 20.8713C467.63 18.5788 470.632 16.8221 473.89 15.7036C477.147 14.5851 480.595 14.1273 484.031 14.357C487.467 14.5867 490.823 15.4992 493.903 17.0413C496.982 18.5833 499.724 20.724 501.968 23.3382C504.211 25.9525 505.911 28.9879 506.969 32.267C508.027 35.5462 508.421 39.0034 508.129 42.4367" fill="#EFC13F"/>
<path d="M463.457 39.4498C463.622 36.9794 464.271 34.5656 465.368 32.3462C466.465 30.1268 467.988 28.1454 469.85 26.515C471.713 24.8846 473.878 23.6371 476.222 22.8439C478.566 22.0507 481.043 21.7272 483.512 21.8919C485.981 22.0566 488.394 22.7062 490.612 23.8038C492.83 24.9013 494.81 26.4253 496.44 28.2886C498.069 30.1519 499.316 32.3181 500.109 34.6636C500.902 37.009 501.225 39.4876 501.06 41.9581" fill="#292B41"/>
<path d="M466.34 38.5072L447.016 314.719L484.672 317.357L503.996 41.1446L466.34 38.5072Z" fill="white"/>
<path d="M472.074 316.85L481.446 176.696" stroke="#949494" stroke-width="0.92" stroke-miterlimit="10"/>
<path d="M482.26 40.7085C481.853 46.2657 477.973 104.887 477.973 104.887" stroke="#949494" stroke-width="0.92" stroke-miterlimit="10"/>
<path d="M474.804 40.1855C474.397 45.7428 472.492 74.7519 472.492 74.7519" stroke="#949494" stroke-width="0.92" stroke-miterlimit="10"/>
<path d="M455.961 281.574C455.554 287.131 453.676 315.706 453.676 315.706" stroke="#949494" stroke-width="0.92" stroke-miterlimit="10"/>
<path d="M463.986 299.735C463.579 305.301 462.879 316.318 462.879 316.318" stroke="#949494" stroke-width="0.92" stroke-miterlimit="10"/>
<path d="M462.781 259.266L470.045 150.647" stroke="#949494" stroke-width="0.92" stroke-miterlimit="10"/>
<path d="M562.491 13.9238H510.652V326.971H562.491V13.9238Z" fill="#B85742"/>
<path d="M565.616 13.9238H562.48V326.971H565.616V13.9238Z" fill="#B85742"/>
<path d="M510.644 13.9238H507.508V326.971H510.644V13.9238Z" fill="#B85742"/>
<path d="M562.491 13.9238H510.652V44.8297H562.491V13.9238Z" fill="#D9674D"/>
<path d="M562.491 84.1206H510.652V256.775H562.491V84.1206Z" fill="#D9674D"/>
<path d="M536.571 198.553C543.738 198.553 549.548 185.97 549.548 170.448C549.548 154.926 543.738 142.343 536.571 142.343C529.404 142.343 523.594 154.926 523.594 170.448C523.594 185.97 529.404 198.553 536.571 198.553Z" fill="#B85742"/>
<path d="M562.491 59.8354H510.652V68.8759H562.491V59.8354Z" fill="#D9674D"/>
<path d="M510.642 326.972H562.48V296.066H510.642V326.972Z" fill="#D9674D"/>
<path d="M510.642 281.06H562.48V272.02H510.642V281.06Z" fill="#D9674D"/>
<mask id="mask0_823_4010" style="mask-type:luminance" maskUnits="userSpaceOnUse" x="617" y="8" width="117" height="163">
<path d="M617.59 8.05664V170.971C617.59 170.971 753.369 174.339 731.472 8.18072L617.59 8.05664Z" fill="white"/>
</mask>
<g mask="url(#mask0_823_4010)">
<path d="M686.119 107.271L684.4 126.646L660.527 133.231L660.855 100.952L686.119 107.271Z" fill="#B85742"/>
<path d="M685.245 142.501C690.352 136.675 689.771 127.811 683.948 122.702C678.126 117.592 669.266 118.173 664.16 123.999C659.054 129.825 659.634 138.69 665.457 143.799C671.279 148.908 680.139 148.327 685.245 142.501Z" fill="#B85742"/>
<path d="M685.666 112.421L660.845 114.229L660.668 117.81L685.666 112.421Z" fill="#292B41"/>
<path d="M665.586 63.0352L688.193 61.4575C688.193 61.4575 692.445 71.792 689.964 112.164L660.156 114.273L665.586 63.0352Z" fill="white"/>
<path d="M675.827 68.1401C674.56 63.5578 674.188 56.6889 667.987 56.742C663.948 56.742 659.899 57.0434 655.869 57.1941L651.298 57.3713L632.651 46.6558L620.347 99.2764C620.347 99.2764 612.047 126.265 617.584 151.622C665.737 131.264 677.244 73.2453 675.827 68.1401Z" fill="white"/>
<path d="M632.598 68.1024C638.533 62.8035 639.052 53.6935 633.756 47.7545C628.46 41.8155 619.355 41.2965 613.419 46.5954C607.484 51.8943 606.965 61.0044 612.261 66.9434C617.557 72.8824 626.662 73.4013 632.598 68.1024Z" fill="white"/>
<path d="M636.193 57.3536L613.56 47.1255C613.56 47.1255 603.887 53.702 591.113 96.1477L621.161 100.579L636.193 57.3536Z" fill="white"/>
<path d="M619.245 125.423C618.872 127.522 617.884 129.464 616.408 131.002C614.932 132.54 613.033 133.606 610.952 134.065C608.87 134.524 606.7 134.355 604.714 133.58C602.729 132.805 601.017 131.459 599.796 129.711C598.575 127.963 597.899 125.892 597.854 123.76C597.809 121.628 598.396 119.531 599.542 117.733C600.688 115.934 602.34 114.516 604.291 113.658C606.242 112.799 608.403 112.538 610.502 112.908C611.898 113.154 613.232 113.673 614.427 114.436C615.623 115.198 616.656 116.189 617.468 117.351C618.28 118.514 618.855 119.825 619.16 121.21C619.465 122.595 619.494 124.027 619.245 125.423Z" fill="#C76F5A"/>
<path d="M595.241 96.7505C594.462 101.129 594.453 119.99 599.077 128.525L617.342 118.997L621.178 100.579L595.241 96.7505Z" fill="#C76F5A"/>
<path d="M595.241 96.7505L621.045 100.535L594.957 99.5158L595.241 96.7505Z" fill="#292B41"/>
<path d="M644.04 53.1968C642.528 55.994 642.105 59.2527 642.853 62.3436C642.899 62.5264 642.983 62.6973 643.101 62.8444C643.218 62.9914 643.367 63.1112 643.535 63.1955C643.703 63.2797 643.888 63.3264 644.076 63.3324C644.264 63.3383 644.452 63.3034 644.625 63.2299L650.826 59.9062L655.344 64.5771C655.413 64.6517 655.501 64.7066 655.598 64.7361C655.695 64.7657 655.799 64.769 655.898 64.7456C655.997 64.7222 656.088 64.6729 656.162 64.6028C656.235 64.5328 656.289 64.4444 656.318 64.3467C656.787 62.7247 657.656 59.4099 657.443 57.3802" stroke="#949494" stroke-width="0.63" stroke-miterlimit="10"/>
<path d="M650.846 59.9062C650.714 65.5441 650.231 71.1682 649.402 76.7463" stroke="#949494" stroke-width="0.63" stroke-miterlimit="10"/>
<path d="M625.34 97.9204L629.928 78.4746" stroke="#949494" stroke-width="0.63" stroke-miterlimit="10"/>
<path d="M663.762 109.381C663.762 109.381 670.299 97.8586 673.594 88.1978" stroke="#949494" stroke-width="0.63" stroke-miterlimit="10"/>
<path d="M651.109 17.1413C650.689 17.3448 650.291 17.5913 649.922 17.877C648.251 19.3142 647.048 21.2187 646.467 23.3455C646.121 24.3636 645.884 25.4152 645.758 26.4831C645.674 27.4947 645.674 28.5116 645.758 29.5232C645.936 32.476 646.475 35.396 647.362 38.2179C647.814 39.6715 648.434 41.0276 648.974 42.4457C649.328 43.3852 649.594 44.2183 650.692 43.332C651.658 42.5255 652.145 40.3717 652.632 39.2372C653.518 37.2253 655.821 34.9297 656.69 32.9178L657.354 28.2912C657.496 27.3162 657.558 26.2881 657.779 25.322C657.921 24.7016 658.399 24.223 658.603 23.5494C658.828 22.8455 658.883 22.0982 658.762 21.369C658.567 20.4114 658.17 19.5064 657.597 18.7147C657.024 17.923 656.289 17.2627 655.44 16.7779C654.735 16.5222 653.983 16.4223 653.235 16.485C652.487 16.5477 651.762 16.7716 651.109 17.1413Z" fill="#242932"/>
<path d="M645.105 53.8084L652.245 39.2993C651.895 39.2542 651.566 39.1051 651.3 38.8713C651.035 38.6376 650.846 38.3298 650.757 37.9876C650.332 36.7822 650.589 34.3448 650.872 33.104C651.156 31.8631 651.696 30.9148 652.972 31.1275C653.618 31.2739 654.204 31.6149 654.65 32.1046C655.097 32.5942 655.383 33.209 655.47 33.8662L658.207 24.2319L677.199 29.8069C677.199 29.8069 675.427 37.6508 672.274 48.9336C672.121 49.5828 671.905 50.2152 671.627 50.8215C667.845 58.5058 658.8 51.6457 658.34 51.238L656.444 57.4423C655.408 59.2592 648.418 61.2003 645.105 53.8084Z" fill="#B85742"/>
<path d="M655.316 33.3521C655.398 33.9823 655.615 34.5873 655.954 35.1247C656.05 35.2804 656.196 35.3992 656.368 35.4619C656.54 35.5246 656.728 35.5276 656.902 35.4704C658.036 34.9475 663.333 25.6057 659.418 24.356C659.267 24.3028 657.646 23.7976 657.646 23.6558C657.274 25.3752 656.905 27.0947 656.539 28.8141C656.282 29.9752 656.034 31.1363 655.786 32.2974C655.68 32.8646 655.316 32.8557 655.316 33.3521Z" fill="#242932"/>
<path d="M652.668 32.3242C652.668 32.3242 655.219 33.955 652.996 37.9701" stroke="black" stroke-width="0.53" stroke-miterlimit="10"/>
<path d="M653.733 34.1324C653.733 34.1324 651.722 33.3879 651.961 36.3836" stroke="black" stroke-width="0.53" stroke-miterlimit="10"/>
<path d="M665.489 38.3243C665.294 38.8827 665.427 39.4322 665.764 39.5474C666.1 39.6626 666.543 39.3081 666.729 38.7497C666.915 38.1913 666.791 37.6418 666.454 37.5266C666.118 37.4114 665.675 37.7659 665.489 38.3243Z" fill="#1D1D1B"/>
<path d="M672.262 40.6202C672.067 41.1786 672.2 41.7281 672.537 41.8433C672.874 41.9585 673.316 41.604 673.503 41.0456C673.689 40.4872 673.565 39.9377 673.228 39.8225C672.891 39.7073 672.448 40.0618 672.262 40.6202Z" fill="#1D1D1B"/>
<path d="M668.305 43.4743C668.305 43.4743 670.599 44.6619 669.607 41.356" stroke="black" stroke-width="0.53" stroke-miterlimit="10"/>
<path d="M668.137 36.5518C667.755 36.0816 667.217 35.7659 666.62 35.6632C666.024 35.5605 665.411 35.6778 664.895 35.9934V36.0643C665.701 36.2416 667.322 36.5163 668.137 36.6227V36.5518Z" fill="black"/>
<path d="M675.097 39.0423C674.88 38.4784 674.466 38.0125 673.931 37.7306C673.397 37.4487 672.779 37.3699 672.191 37.5089V37.5798C672.9 37.9875 674.362 38.7498 675.106 39.1043V39.0423H675.097Z" fill="black"/>
<path d="M658.34 51.2203C656.9 50.0793 655.59 48.7834 654.434 47.356C654.434 47.356 655.638 52.1775 657.534 53.8615L658.34 51.2203Z" fill="#292B41"/>
<path d="M665.268 46.2571C665.268 46.2571 662.814 46.6205 662.504 43.5981" stroke="black" stroke-width="0.53" stroke-miterlimit="10"/>
<path d="M679.352 31.8189C678.508 31.9473 677.648 31.9293 676.81 31.7658C672.177 31.0656 667.668 29.5677 663.15 28.38C660.404 27.6532 655.904 27.3608 654.832 24.108C654.451 22.9735 654.877 21.8301 654.832 20.6779C654.699 17.9126 651.466 16.9111 653.725 13.8444C655.984 10.7778 660.812 11.602 663.903 12.3199C668.659 13.4118 672.99 15.8774 676.358 19.4105C678.298 21.449 685.012 29.9045 679.901 31.7214C679.721 31.769 679.537 31.8016 679.352 31.8189Z" fill="#242932"/>
<path d="M660.11 26.7847C660.11 26.7847 654.556 22.9026 653.289 17.7886" stroke="#3C424F" stroke-width="0.56" stroke-miterlimit="10"/>
<path d="M654.797 21.2276C654.797 21.2276 660.626 10.7602 672.868 19.0384" stroke="#3C424F" stroke-width="0.56" stroke-miterlimit="10"/>
<path d="M658.109 24.6223C658.109 24.6223 662.538 13.9333 678.359 24.9502" stroke="#3C424F" stroke-width="0.56" stroke-miterlimit="10"/>
<path d="M648.363 30.5605C648.363 30.5605 649.692 21.7859 656.336 23.2926" stroke="#3C424F" stroke-width="0.56" stroke-miterlimit="10"/>
<path d="M706.688 59.6049C706.688 59.6049 704.384 48.0827 679.555 45.9556L681.105 48.6854L700.699 59.5162L706.688 59.6049Z" fill="#FAECC6"/>
<path d="M706.617 59.9862C706.617 59.9862 710.16 52.5145 721.455 57.664C721.455 57.664 713.482 60.97 713.119 60.9345C712.756 60.8991 706.617 59.9862 706.617 59.9862Z" fill="#FAECC6"/>
<path d="M709.531 59.9508L703.499 58.3022L686.039 92.0355L692.063 93.6841L709.531 59.9508Z" fill="#FFB236"/>
<path d="M709.531 59.9505L722.81 57.4067L705.341 91.14L692.062 93.6837L709.531 59.9505Z" fill="#F5A82B"/>
<path d="M677.996 45.1489L703.499 58.3019L686.039 92.0351L660.527 78.891L677.996 45.1489Z" fill="#EFC13F"/>
<path d="M679.855 120.983L703.613 96.9102L713.96 102.352C713.96 102.352 700.672 133.506 681.379 145.542L679.855 120.983Z" fill="#B85742"/>
<path d="M716.661 94.6232C719.673 89.0604 721.39 82.8887 721.684 76.5689C721.684 75.3281 720.373 74.0784 719.593 73.1123C717.494 70.5154 714.154 65.4102 713.153 65.4722C711.807 65.552 711.098 67.4842 716.041 75.5674L712.32 87.834L716.661 94.6232Z" fill="#B85742"/>
<path d="M714.148 84.5902L711.8 89.2079C711.8 89.2079 702.942 80.7702 703.225 79.1482C703.239 78.9982 703.282 78.8523 703.352 78.719C703.422 78.5858 703.518 78.4679 703.634 78.3721C703.751 78.2764 703.885 78.2049 704.029 78.1616C704.173 78.1183 704.325 78.1042 704.474 78.1201C705.052 78.1297 705.604 78.3614 706.016 78.7671L714.148 84.5902Z" fill="#B85742"/>
<path d="M720.561 79.2279L717.904 82.2148C717.904 82.2148 705.971 72.1817 706.051 70.542C706.05 70.3912 706.079 70.2417 706.137 70.1023C706.194 69.9629 706.279 69.8366 706.387 69.7308C706.494 69.6249 706.622 69.5418 706.762 69.4863C706.902 69.4307 707.052 69.404 707.203 69.4075C707.973 69.4953 708.702 69.803 709.302 70.2939L720.561 79.2279Z" fill="#B85742"/>
<path d="M718.256 81.7007L714.146 85.5651C714.146 85.5651 703.658 74.6545 703.747 72.9794C703.747 72.8289 703.777 72.6799 703.835 72.5411C703.893 72.4023 703.978 72.2764 704.085 72.1708C704.192 72.0652 704.319 71.982 704.459 71.9261C704.598 71.8701 704.748 71.8425 704.898 71.8449C705.668 71.9345 706.396 72.242 706.998 72.7312L718.256 81.7007Z" fill="#B85742"/>
<path d="M709.715 86.2744C709.715 86.2744 703.249 86.8151 703.629 96.9811L713.79 102.299L718.777 90.1476L709.715 86.2744Z" fill="#B85742"/>
<path d="M685.745 115.523C682.949 118.213 680.352 121.104 677.977 124.173" stroke="black" stroke-width="0.6" stroke-miterlimit="10"/>
<path d="M709.539 74.7964L716.741 81.8958" stroke="black" stroke-width="0.64" stroke-miterlimit="10"/>
<path d="M710.672 82.2236L713.489 84.9978" stroke="black" stroke-width="0.64" stroke-miterlimit="10"/>
<path d="M674.469 74.504L676.674 78.0493C676.674 78.0493 683.983 71.7476 683.832 70.2674C683.827 70.1312 683.796 69.9972 683.739 69.8735C683.681 69.7498 683.6 69.6388 683.499 69.547C683.399 69.4553 683.28 69.3847 683.152 69.3395C683.023 69.2942 682.887 69.2752 682.751 69.2836C682.224 69.258 681.708 69.4428 681.316 69.7977L674.469 74.504Z" fill="#B85742"/>
<path d="M668.746 65.5169L670.81 68.8761C670.81 68.8761 680.466 62.8225 680.669 61.2183C680.696 61.0751 680.695 60.928 680.665 60.7855C680.635 60.6429 680.577 60.5076 680.495 60.3875C680.412 60.2673 680.307 60.1645 680.185 60.085C680.063 60.0055 679.927 59.9509 679.784 59.9243C679.511 59.8507 679.227 59.8316 678.947 59.8681C678.668 59.9046 678.398 59.996 678.154 60.137L668.746 65.5169Z" fill="#B85742"/>
<path d="M670.023 68.2376L671.928 71.3398C671.928 71.3398 684.197 64.2492 684.383 62.7691C684.408 62.6317 684.405 62.4907 684.373 62.3547C684.341 62.2187 684.282 62.0906 684.199 61.9785C684.116 61.8663 684.011 61.7724 683.89 61.7025C683.769 61.6327 683.636 61.5885 683.497 61.5725C682.792 61.5352 682.091 61.7013 681.477 62.0512L670.023 68.2376Z" fill="#B85742"/>
<path d="M671.695 70.817L674.734 74.9295C674.734 74.9295 685.869 66.8286 686.055 65.3484C686.077 65.2114 686.072 65.0712 686.039 64.9362C686.007 64.8012 685.947 64.6742 685.865 64.5626C685.782 64.451 685.678 64.3571 685.558 64.2866C685.439 64.216 685.306 64.1702 685.169 64.1519C684.463 64.1135 683.762 64.2797 683.149 64.6305L671.695 70.817Z" fill="#B85742"/>
<path d="M676.675 78.0403C676.675 78.0403 670.412 85.6981 661.687 88.2773L655.539 76.2677L668.826 65.3926L676.675 78.0403Z" fill="#B85742"/>
<path d="M680.803 65.9067L672.051 71.8805" stroke="black" stroke-width="0.64" stroke-miterlimit="10"/>
<path d="M681.865 69.4434L674.406 74.8676" stroke="black" stroke-width="0.64" stroke-miterlimit="10"/>
<path d="M678.412 63.6025L670.156 68.8673" stroke="black" stroke-width="0.64" stroke-miterlimit="10"/>
<path d="M655.538 76.2676L616.996 104.266L609.82 134.295C609.82 134.295 628.192 132.044 657.655 92.2833L661.641 88.2772L655.538 76.2676Z" fill="#B85742"/>
<path d="M657.657 92.3455L649.48 80.5752L652.103 78.7051L660.066 89.9081L657.657 92.3455Z" fill="#292B41"/>
<path d="M656.716 85.0865C656.809 84.5584 656.744 84.0145 656.528 83.5236C656.313 83.0326 655.956 82.6166 655.505 82.3282C655.053 82.0397 654.526 81.8917 653.99 81.9029C653.454 81.9141 652.934 82.084 652.494 82.3911C652.055 82.6982 651.716 83.1288 651.521 83.6283C651.327 84.1279 651.284 84.674 651.399 85.1977C651.515 85.7214 651.782 86.1992 652.169 86.5706C652.556 86.9421 653.044 87.1905 653.571 87.2846C653.922 87.3471 654.282 87.3398 654.63 87.2632C654.977 87.1865 655.307 87.042 655.599 86.8378C655.891 86.6337 656.14 86.3739 656.332 86.0734C656.523 85.7729 656.654 85.4375 656.716 85.0865Z" fill="white" stroke="#EDA92E" stroke-width="0.46" stroke-miterlimit="10"/>
<path d="M620.879 101.448C620.879 101.448 615.28 104.533 613.039 107.422" stroke="black" stroke-width="0.6" stroke-miterlimit="10"/>
</g>
<path d="M715.677 219.381L697.491 238.384C696.534 234.839 695.574 231.311 694.612 227.801C693.264 222.422 691.429 217.177 689.128 212.131C686.958 207.593 685.302 200.512 678.862 201.717C674.663 202.506 670.5 203.534 666.327 204.438L661.606 205.466L640.231 197.773L637.184 254.825L655.458 275.733L674.61 259.319C675.905 262.384 677.782 265.168 680.137 267.517C681.05 268.48 682.149 269.246 683.367 269.769C684.586 270.291 685.898 270.56 687.224 270.557C687.627 270.556 688.029 270.532 688.429 270.486C688.429 270.486 710.973 268.607 719.486 231.621L722.001 227.996L715.677 219.381Z" fill="#292B41"/>
<path d="M714.038 200.733C714.038 200.733 710.043 190.541 686.852 192.641L688.721 194.892L708.519 201.637L714.038 200.733Z" fill="#FAECC6"/>
<path d="M714.039 201.105C714.039 201.105 716.041 193.66 727.326 196.532C727.326 196.532 720.514 200.884 720.187 200.91L714.039 201.105Z" fill="#FAECC6"/>
<path d="M716.721 200.591L710.901 200.06L700.359 233.961L706.179 234.484L716.721 200.591Z" fill="#AB4B37"/>
<path d="M716.721 200.592L728.511 196.071L717.97 229.964L706.18 234.484L716.721 200.592Z" fill="#944634"/>
<path d="M685.283 192.154L710.902 200.06L700.36 233.961L674.742 226.047L685.283 192.154Z" fill="#B85742"/>
<path d="M722.222 227.961C722.222 227.961 726.438 224.176 727.2 216.137C727.297 215.154 726.314 214.108 725.712 213.301C724.179 211.147 721.788 206.946 720.99 206.946C719.919 206.946 719.219 208.444 722.762 215.074L719.219 224.593L722.222 227.961Z" fill="#FF9C75"/>
<path d="M721.134 222.519L719.725 226.312C719.725 226.312 713.152 219.222 713.418 217.945C713.434 217.827 713.474 217.712 713.535 217.61C713.597 217.507 713.678 217.417 713.775 217.347C713.872 217.277 713.982 217.227 714.099 217.2C714.216 217.173 714.337 217.171 714.454 217.192C714.912 217.229 715.338 217.442 715.641 217.786L721.134 222.519Z" fill="#FF9C75"/>
<path d="M726.19 218.176L723.949 220.418C723.949 220.418 714.984 211.91 715.091 210.616C715.09 210.492 715.116 210.37 715.165 210.257C715.214 210.144 715.287 210.042 715.378 209.959C715.469 209.875 715.576 209.812 715.693 209.772C715.81 209.733 715.933 209.718 716.056 209.729C716.665 209.843 717.227 210.129 717.677 210.553L726.19 218.176Z" fill="#FF9C75"/>
<path d="M724.253 220.029L720.843 222.891C720.843 222.891 713.048 213.762 713.189 212.468C713.195 212.349 713.225 212.231 713.277 212.123C713.329 212.016 713.402 211.919 713.492 211.841C713.583 211.762 713.688 211.702 713.802 211.666C713.916 211.629 714.036 211.615 714.155 211.626C714.761 211.74 715.323 212.023 715.776 212.442L724.253 220.029Z" fill="#FF9C75"/>
<path d="M717.82 214.25C717.82 214.25 720.274 216.767 722.382 219.284" stroke="black" stroke-width="0.6" stroke-miterlimit="10"/>
<path d="M718.492 220.108C718.492 220.108 719.183 220.826 720.37 222.298" stroke="black" stroke-width="0.6" stroke-miterlimit="10"/>
<path d="M686.852 219.727L689.456 222.616C689.456 222.616 695.143 215.623 694.771 214.285C694.744 214.16 694.692 214.042 694.619 213.938C694.545 213.833 694.452 213.745 694.344 213.677C694.235 213.609 694.115 213.564 693.989 213.544C693.863 213.523 693.734 213.528 693.61 213.558C693.123 213.624 692.681 213.879 692.379 214.267L686.852 219.727Z" fill="#FF9C75"/>
<path d="M680.121 212.397L682.566 215.145C682.566 215.145 690.459 207.992 690.379 206.494C690.379 206.356 690.352 206.219 690.299 206.092C690.245 205.964 690.168 205.849 690.07 205.752C689.972 205.654 689.855 205.577 689.728 205.525C689.6 205.473 689.463 205.447 689.325 205.448C688.794 205.406 688.267 205.571 687.854 205.909L680.121 212.397Z" fill="#FF9C75"/>
<path d="M681.73 214.693L683.989 217.236C683.989 217.236 694.114 208.701 694.043 207.31C694.045 207.182 694.02 207.055 693.972 206.936C693.923 206.818 693.851 206.711 693.76 206.621C693.669 206.53 693.561 206.46 693.443 206.412C693.324 206.364 693.197 206.341 693.069 206.343C692.417 206.424 691.801 206.692 691.297 207.115L681.73 214.693Z" fill="#FF9C75"/>
<path d="M683.691 216.793L687.164 220.073C687.164 220.073 696.084 210.802 696.022 209.437C696.022 209.309 695.997 209.181 695.947 209.063C695.897 208.945 695.825 208.837 695.733 208.747C695.642 208.658 695.533 208.587 695.414 208.539C695.295 208.492 695.167 208.469 695.039 208.471C694.386 208.552 693.771 208.819 693.267 209.242L683.691 216.793Z" fill="#FF9C75"/>
<path d="M689.458 222.616C689.458 222.616 685.232 230.381 677.632 234.183L669.73 224.433L680.139 212.255L689.458 222.616Z" fill="#FF9C75"/>
<path d="M691.272 210.784L684.203 217.706" stroke="black" stroke-width="0.6" stroke-miterlimit="10"/>
<path d="M692.822 213.859L686.852 220.072" stroke="black" stroke-width="0.6" stroke-miterlimit="10"/>
<path d="M688.693 209.056L681.961 215.242" stroke="black" stroke-width="0.6" stroke-miterlimit="10"/>
<path d="M656.875 163.96C656.875 163.96 648.778 181.217 658.983 189.211L661.8 177.343L662.863 168.232L656.875 163.96Z" fill="#242932"/>
<path d="M658.746 174.809C659.446 174.842 660.118 175.089 660.673 175.517C661.227 175.945 661.637 176.533 661.846 177.202L662.927 166.699L683.718 168.977C683.718 168.977 683.319 177.476 682.141 189.805C682.085 190.491 681.967 191.17 681.786 191.835C679.271 200.529 668.588 195.07 668.012 194.733L667.436 203.906C667.356 208.808 664.531 210.244 663.007 210.226C655.327 210.571 653.75 204.022 653.75 202.648L659.543 183.459C659.173 183.469 658.808 183.37 658.493 183.175C658.178 182.98 657.927 182.696 657.772 182.36C657.107 181.19 656.886 178.602 656.983 177.264C657.081 175.925 657.373 174.826 658.746 174.809Z" fill="#FF9C75"/>
<path d="M661.883 177.201C661.883 177.201 662.653 180.596 663.92 178.584C665.187 176.572 667.88 167.346 667.88 167.346L662.273 166.193L661.883 177.201Z" fill="#242932"/>
<path d="M658.648 176.12C658.648 176.12 661.607 177.334 660.03 181.926" stroke="black" stroke-width="0.56" stroke-miterlimit="10"/>
<path d="M660.109 177.795C660.109 177.795 657.876 177.397 658.665 180.454" stroke="black" stroke-width="0.56" stroke-miterlimit="10"/>
<path d="M673.097 179.985C673.008 180.596 673.239 181.146 673.62 181.199C674.001 181.252 674.382 180.809 674.506 180.189C674.63 179.568 674.373 179.027 673.992 178.974C673.611 178.921 673.194 179.338 673.097 179.985Z" fill="#1D1D1B"/>
<path d="M680.581 181.11C680.483 181.731 680.714 182.28 681.095 182.333C681.476 182.387 681.857 181.935 681.981 181.323C682.105 180.711 681.839 180.162 681.458 180.1C681.077 180.038 680.67 180.499 680.581 181.11Z" fill="#1D1D1B"/>
<path d="M676.992 184.815C676.992 184.815 679.597 185.63 677.949 182.369" stroke="black" stroke-width="0.56" stroke-miterlimit="10"/>
<path d="M672.059 177.042C672.544 176.606 673.178 176.372 673.83 176.386C674.202 176.386 675.354 176.59 675.602 177.095C674.716 177.095 672.998 177.149 672.129 177.095V177.025L672.059 177.042Z" fill="black"/>
<path d="M679.924 177.68C680.509 177.422 681.17 177.394 681.775 177.6C682.139 177.698 683.157 178.256 683.219 178.806C682.333 178.575 680.721 178.044 679.906 177.751V177.68H679.924Z" fill="black"/>
<path d="M668.01 194.733C666.301 193.81 664.697 192.704 663.227 191.436C663.227 191.436 665.556 196.133 667.833 197.533L668.01 194.733Z" fill="#292B41"/>
<path d="M674.344 188.281C674.344 188.281 671.846 189.105 670.969 186.021" stroke="black" stroke-width="0.56" stroke-miterlimit="10"/>
<path d="M683.575 170.527C683.309 170.722 683.176 170.66 682.556 170.572C679.899 170.173 677.312 170.004 674.69 169.685L668.569 168.976C667.662 168.752 666.73 168.645 665.796 168.657L655.477 170.634C655.523 168.734 655.712 166.841 656.043 164.97C657.195 162.48 660.774 160.184 663.015 158.766C663.881 158.168 664.866 157.763 665.903 157.578C666.422 157.494 666.953 157.548 667.445 157.735C667.936 157.922 668.37 158.234 668.702 158.642C668.863 158.964 669.069 159.263 669.313 159.528C669.889 159.989 670.739 159.705 671.386 159.351C672.567 158.594 673.805 157.931 675.089 157.366C675.735 157.087 676.444 156.986 677.143 157.072C677.842 157.157 678.506 157.427 679.066 157.853C679.89 158.598 680.156 160.113 681.077 160.698C681.998 161.283 682.981 160.228 683.867 159.936C685.285 159.457 688.004 158.819 688.979 160.441C689.864 161.85 688.606 164.279 687.889 165.511C686.758 167.287 685.39 168.9 683.823 170.306C683.717 170.403 683.646 170.474 683.575 170.527Z" fill="#242932"/>
<path d="M656.938 167.257C659.922 168.267 663.063 168.736 666.212 168.639" stroke="#3C424F" stroke-width="0.6" stroke-miterlimit="10"/>
<path d="M668.012 166.193C668.405 164.885 668.64 163.534 668.712 162.169" stroke="#3C424F" stroke-width="0.6" stroke-miterlimit="10"/>
<path d="M679.023 170.137C679.023 170.137 682.496 167.177 682.328 164.687" stroke="#3C424F" stroke-width="0.6" stroke-miterlimit="10"/>
<path d="M673.227 169.535C674.296 168.133 674.928 166.446 675.042 164.687" stroke="#3C424F" stroke-width="0.6" stroke-miterlimit="10"/>
<path d="M676.648 179.426C676.75 178.75 676.65 178.059 676.36 177.44C676.07 176.821 675.603 176.302 675.018 175.948C674.433 175.595 673.757 175.423 673.074 175.454C672.392 175.485 671.734 175.718 671.183 176.124C670.633 176.529 670.215 177.089 669.983 177.732C669.751 178.375 669.714 179.072 669.878 179.736C670.042 180.4 670.399 181 670.904 181.461C671.409 181.921 672.039 182.222 672.714 182.324C673.62 182.459 674.542 182.23 675.279 181.687C676.016 181.144 676.508 180.331 676.648 179.426Z" stroke="white" stroke-width="0.59" stroke-miterlimit="10"/>
<path d="M685.745 180.8C685.848 180.124 685.748 179.433 685.458 178.814C685.168 178.195 684.701 177.676 684.116 177.322C683.531 176.969 682.855 176.797 682.172 176.828C681.489 176.859 680.831 177.092 680.281 177.498C679.731 177.903 679.313 178.463 679.081 179.106C678.848 179.749 678.812 180.446 678.976 181.11C679.14 181.774 679.497 182.374 680.002 182.835C680.506 183.295 681.137 183.596 681.812 183.698C682.717 183.833 683.639 183.604 684.376 183.061C685.113 182.518 685.605 181.705 685.745 180.8Z" stroke="white" stroke-width="0.59" stroke-miterlimit="10"/>
<path d="M679.011 179.258C679.039 179.104 679.035 178.946 679 178.793C678.966 178.641 678.901 178.497 678.81 178.37C678.718 178.243 678.603 178.136 678.469 178.054C678.336 177.973 678.187 177.919 678.033 177.896C677.878 177.873 677.721 177.881 677.569 177.92C677.418 177.958 677.276 178.027 677.151 178.122C677.027 178.217 676.923 178.336 676.845 178.471C676.768 178.607 676.718 178.757 676.699 178.912" stroke="white" stroke-width="0.59" stroke-miterlimit="10"/>
<path d="M670.349 177.007L663.59 175.987C663.313 175.944 663.03 175.956 662.758 176.023C662.486 176.09 662.229 176.21 662.004 176.377L661.605 176.67" stroke="white" stroke-width="0.59" stroke-miterlimit="10"/>
<path d="M820.85 321.822L806.172 321.414L799.785 302.961L821.399 304.255L822.693 316.539L820.85 321.822Z" fill="#FF9C75"/>
<path d="M820.442 321.751C820.442 321.751 825.996 315.547 818.848 304.105C819.703 300.686 820.81 297.335 822.161 294.08C826.59 283.099 823.986 278.517 830.789 277.586L837.299 325.172C837.299 325.172 834.075 328.328 820.442 321.751Z" fill="#292B41"/>
<path d="M830.912 277.601L837.418 325.187L841.069 324.687L834.563 277.101L830.912 277.601Z" fill="#292B41"/>
<path d="M837.335 325.172L830.824 277.586" stroke="#707B94" stroke-width="0.74" stroke-miterlimit="10"/>
<path d="M828.418 324.915C828.418 324.915 829.18 318.392 836.39 318.711" stroke="#707B94" stroke-width="0.74" stroke-miterlimit="10"/>
<path d="M824.227 287.92C824.227 287.92 824.297 294.568 833.209 295.011" stroke="#707B94" stroke-width="0.74" stroke-miterlimit="10"/>
<path d="M819.453 301.393C819.453 301.393 819.648 305.452 819.675 305.931C819.713 306.205 819.816 306.467 819.975 306.694C820.133 306.922 820.342 307.109 820.586 307.241C820.83 307.373 821.101 307.446 821.378 307.454C821.656 307.462 821.931 307.404 822.181 307.287L822.35 307.207C822.627 307.05 822.862 306.829 823.034 306.56C823.206 306.292 823.309 305.986 823.335 305.669C823.361 305.351 823.31 305.032 823.184 304.74C823.059 304.447 822.863 304.189 822.615 303.99L819.453 301.393Z" stroke="#707B94" stroke-width="0.74" stroke-miterlimit="10"/>
<path d="M819.453 301.392C819.453 301.392 817.93 299.788 817.682 299.62C817.529 299.47 817.419 299.282 817.363 299.075C817.306 298.869 817.306 298.651 817.362 298.444C817.418 298.237 817.528 298.049 817.681 297.899C817.834 297.749 818.023 297.642 818.231 297.59L818.408 297.528C819.701 297.076 820.747 297.688 820.428 298.618L819.453 301.392Z" stroke="#707B94" stroke-width="0.74" stroke-miterlimit="10"/>
<path d="M824.148 301.649C823.161 301.128 822.362 300.309 821.866 299.308C821.37 298.308 821.201 297.176 821.384 296.074" stroke="#707B94" stroke-width="0.74" stroke-miterlimit="10"/>
<path d="M825.644 298.423C824.657 297.902 823.858 297.083 823.362 296.082C822.866 295.082 822.698 293.95 822.88 292.848" stroke="#707B94" stroke-width="0.74" stroke-miterlimit="10"/>
<path d="M811.238 303.644L809.086 303.52L813.427 322.026L811.238 303.644Z" fill="#292B41"/>
<path d="M814.199 325.332H647.469V290.384L807.325 296.021L814.199 325.332Z" fill="#CFD0D9"/>
<path d="M802.593 310.672H677.559" stroke="#6E6E6E" stroke-width="0.74" stroke-miterlimit="10"/>
<path d="M799.156 296.021L806.03 325.332" stroke="#6E6E6E" stroke-width="0.74" stroke-miterlimit="10"/>
<path d="M674.266 307.996L680.227 294.559H699.742L694.179 307.996L689.103 311.78H679.412L674.266 307.996Z" fill="#FF9C75"/>
<path d="M676.895 302.048L695.798 304.184L696.79 302.048H676.895Z" fill="#292B41"/>
<path d="M674.282 307.996C674.282 307.996 681.926 313.526 694.186 307.996C694.186 307.996 695.958 309.857 701.574 313.092C711.841 318.968 716.731 317.009 716.731 323.878H668.71C668.71 323.878 665.902 320.59 674.282 307.996Z" fill="#292B41"/>
<path d="M716.714 323.878H668.711V327.565H716.714V323.878Z" fill="#292B41"/>
<path d="M668.711 323.878H716.723" stroke="#707B94" stroke-width="0.74" stroke-miterlimit="10"/>
<path d="M670.18 315.104C670.18 315.104 676.531 316.743 675.193 323.878" stroke="#707B94" stroke-width="0.74" stroke-miterlimit="10"/>
<path d="M707.376 315.937C707.376 315.937 700.785 315.104 699.164 323.914" stroke="#707B94" stroke-width="0.74" stroke-miterlimit="10"/>
<path d="M694.656 309.369L690.129 308.979C689.853 308.981 689.58 309.047 689.334 309.173C689.087 309.299 688.874 309.48 688.71 309.704C688.547 309.927 688.438 310.185 688.392 310.458C688.346 310.731 688.364 311.011 688.446 311.275L688.499 311.461C688.615 311.758 688.802 312.022 689.044 312.229C689.285 312.436 689.574 312.581 689.885 312.65C690.196 312.719 690.519 312.711 690.825 312.626C691.132 312.54 691.413 312.381 691.644 312.161L694.656 309.369Z" stroke="#707B94" stroke-width="0.74" stroke-miterlimit="10"/>
<path d="M694.656 309.369C694.656 309.369 696.428 308.084 696.685 307.862C696.853 307.729 697.053 307.644 697.266 307.615C697.478 307.587 697.694 307.615 697.891 307.699C698.089 307.782 698.26 307.917 698.387 308.089C698.515 308.261 698.594 308.465 698.616 308.678C698.619 308.737 698.619 308.796 698.616 308.855C698.882 310.202 698.138 311.159 697.261 310.716L694.656 309.369Z" stroke="#707B94" stroke-width="0.74" stroke-miterlimit="10"/>
<path d="M693.84 313.996C694.49 313.09 695.409 312.411 696.467 312.057C697.524 311.702 698.666 311.689 699.731 312.019" stroke="#707B94" stroke-width="0.74" stroke-miterlimit="10"/>
<path d="M696.793 315.919C697.442 315.012 698.361 314.331 699.418 313.975C700.475 313.619 701.618 313.604 702.684 313.934" stroke="#707B94" stroke-width="0.74" stroke-miterlimit="10"/>
<path d="M651.642 289.711L660.5 271.222H624.376C621.337 280.865 619.893 301.304 619.513 307.561C619.441 308.173 619.406 308.789 619.406 309.405C619.406 313.739 621.127 317.896 624.191 320.961C627.254 324.027 631.409 325.748 635.741 325.748C640.073 325.748 644.228 324.027 647.291 320.961C650.355 317.896 652.076 313.739 652.076 309.405C652.076 300.763 652.076 300.763 651.642 289.711Z" fill="#F3F3F3"/>
<path d="M712.178 255.783C721.2 255.783 728.513 248.465 728.513 239.439C728.513 230.413 721.2 223.095 712.178 223.095C703.157 223.095 695.844 230.413 695.844 239.439C695.844 248.465 703.157 255.783 712.178 255.783Z" fill="#F3F3F3"/>
<path d="M645.048 287.982C645.048 287.982 684.636 238.721 702.822 226.046L708.536 243.152L670.348 312.719C670.348 312.719 665.918 328.487 635.738 325.722" fill="#F3F3F3"/>
<path d="M698.703 244.039C698.703 244.039 685.646 270.885 673.227 302.039H706.17C706.17 302.039 723.161 266.418 728.316 241.77L698.703 244.039Z" fill="#F3F3F3"/>
<path d="M673.227 302.057C673.227 302.057 692.883 257.333 698.198 246.485" stroke="#949494" stroke-width="0.74" stroke-miterlimit="10"/>
<path d="M676.531 294.559H709.599" stroke="#949494" stroke-width="0.74" stroke-miterlimit="10"/>
<path d="M689.27 294.417L707.872 247.168C708.552 245.264 708.773 243.226 708.519 241.22C708.191 239.297 707.287 237.303 705.073 236.709C700.396 235.459 698.225 237.595 693.087 244.81L657.265 294.559C657.265 294.559 652.065 304.184 642.099 304.184C638.628 304.182 635.301 302.801 632.847 300.344C630.394 297.888 629.016 294.557 629.016 291.085C629.014 290.593 629.044 290.101 629.104 289.613C629.264 286.892 629.308 286.068 629.476 284.632" stroke="#949494" stroke-width="0.74" stroke-miterlimit="10"/>
<path d="M648.773 210.934C649.807 204.536 645.461 198.511 639.066 197.477C632.672 196.443 626.651 200.791 625.617 207.189C624.584 213.587 628.93 219.612 635.324 220.646C641.719 221.68 647.74 217.332 648.773 210.934Z" fill="#292B41"/>
<path d="M635.74 285.412C642.217 285.412 647.468 280.158 647.468 273.677C647.468 267.196 642.217 261.942 635.74 261.942C629.263 261.942 624.012 267.196 624.012 273.677C624.012 280.158 629.263 285.412 635.74 285.412Z" fill="#292B41"/>
<path d="M626.36 204.536C626.36 204.536 606.075 260.941 627.246 281.778L647.461 270.947L648.843 210.226L626.36 204.536Z" fill="#292B41"/>
<path d="M669.774 224.238L638.85 256.527L637.176 285.323C637.176 285.323 664.14 283.09 674.381 238.827L677.383 234.493L669.774 224.238Z" fill="#292B41"/>
<path d="M629.106 282.851H622.596C621.517 282.843 620.478 282.442 619.674 281.722C618.87 281.002 618.356 280.014 618.228 278.942C617.638 273.339 618.999 267.703 622.082 262.988L629.106 282.851Z" fill="#292B41"/>
<path d="M665.875 228.165L674.202 239.439" stroke="#707B94" stroke-width="0.74" stroke-miterlimit="10"/>
<path d="M648.016 246.963L638.812 257.457" stroke="#707B94" stroke-width="0.74" stroke-miterlimit="10"/>
<path d="M619.617 268.084C619.617 268.084 622.151 280.333 628.422 282.851" stroke="#707B94" stroke-width="0.74" stroke-miterlimit="10"/>
<path d="M645.415 224.238L644.812 250.411L669.793 224.256L677.358 234.502L674.346 238.827C672.558 247.307 669.553 255.484 665.426 263.103" stroke="#707B94" stroke-width="0.74" stroke-miterlimit="10"/>
<path d="M669.728 203.658C669.728 205.387 669.79 207.266 668.931 208.826C668.102 210.281 666.769 211.381 665.184 211.919C661.702 213.115 657.388 211.742 654.695 209.393C652.675 207.588 651.264 205.2 650.656 202.559L650.426 201.54" stroke="#707B94" stroke-width="0.74" stroke-miterlimit="10"/>
<path d="M372.542 105.028L371.125 121.213L387.158 125.485L387.548 103.726L372.542 105.028Z" fill="#C76F5A"/>
<path d="M386.849 130.661C386.344 132.755 385.23 134.653 383.648 136.114C382.065 137.574 380.085 138.533 377.958 138.868C375.832 139.203 373.653 138.899 371.699 137.995C369.744 137.092 368.102 135.628 366.978 133.791C365.855 131.953 365.301 129.823 365.388 127.671C365.474 125.518 366.196 123.439 367.463 121.698C368.73 119.956 370.485 118.629 372.505 117.885C374.526 117.141 376.721 117.013 378.815 117.517C380.205 117.852 381.516 118.458 382.672 119.3C383.828 120.142 384.807 121.203 385.553 122.424C386.299 123.644 386.798 125 387.02 126.414C387.242 127.827 387.184 129.27 386.849 130.661Z" fill="#C76F5A"/>
<path d="M372.102 110.302L385.292 110.701L371.969 111.765L372.102 110.302Z" fill="#292B41"/>
<path d="M401.083 69.2569L380.612 64.1162C380.612 64.1162 375.022 72.8996 370.664 110.338L393.82 110.994L401.083 69.2569Z" fill="#57916C"/>
<path d="M388.79 70.7018C390.951 66.1727 392.608 59.1088 399.039 60.3142C403.22 61.0941 407.375 62.0868 411.529 63.0263L416.242 64.0544L437.564 56.3789L440.611 113.289L430.052 140.402C430.052 140.402 414.7 141.829 386.646 136.857C383.147 87.4887 386.389 75.7361 388.79 70.7018Z" fill="#57916C"/>
<path d="M448.287 76.5404C453.169 72.3041 453.695 64.9096 449.461 60.0242C445.227 55.1389 437.837 54.6127 432.954 58.849C428.071 63.0853 427.546 70.4799 431.78 75.3652C436.013 80.2506 443.404 80.7767 448.287 76.5404Z" fill="#57916C"/>
<path d="M428.969 68.8493L451.398 63.168C451.398 63.168 459.211 70.7814 463.985 111.809L435.692 110.923L428.969 68.8493Z" fill="#57916C"/>
<mask id="mask1_823_4010" style="mask-type:luminance" maskUnits="userSpaceOnUse" x="370" y="55" width="94" height="86">
<path d="M463.986 111.809C459.211 70.7815 451.398 63.168 451.398 63.168C450.508 61.0394 449.009 59.2216 447.089 57.9427C445.17 56.6638 442.915 55.981 440.609 55.98C439.579 55.9819 438.554 56.122 437.562 56.3965H437.447C436.896 56.5487 436.357 56.7413 435.834 56.9727L416.24 64.0632L411.527 63.0351C407.373 62.1488 403.218 61.1029 399.037 60.3229C394.387 59.4366 392.234 62.911 390.577 66.6069L380.612 64.1164C380.612 64.1164 375.022 72.8998 370.664 110.338L385.271 110.754C385.484 118.022 385.927 126.628 386.653 136.856C414.698 141.873 430.059 140.402 430.059 140.402L440.618 113.289L440.494 111.109L463.986 111.809Z" fill="white"/>
</mask>
<g mask="url(#mask1_823_4010)">
<path d="M374.641 51.0166V147.244" stroke="white" stroke-width="0.23" stroke-miterlimit="10"/>
<path d="M381.93 51.0166V147.244" stroke="white" stroke-width="0.23" stroke-miterlimit="10"/>
<path d="M389.211 51.0166V147.244" stroke="white" stroke-width="0.23" stroke-miterlimit="10"/>
<path d="M396.492 51.0166V147.244" stroke="white" stroke-width="0.23" stroke-miterlimit="10"/>
<path d="M403.785 51.0166V147.244" stroke="white" stroke-width="0.23" stroke-miterlimit="10"/>
<path d="M411.066 70.4004V147.244" stroke="white" stroke-width="0.23" stroke-miterlimit="10"/>
<path d="M418.348 68.5215V147.244" stroke="white" stroke-width="0.23" stroke-miterlimit="10"/>
<path d="M425.637 51.0166V147.244" stroke="white" stroke-width="0.23" stroke-miterlimit="10"/>
<path d="M432.918 51.0166V147.244" stroke="white" stroke-width="0.23" stroke-miterlimit="10"/>
<path d="M440.211 51.0166V147.244" stroke="white" stroke-width="0.23" stroke-miterlimit="10"/>
<path d="M447.492 51.0166V147.244" stroke="white" stroke-width="0.23" stroke-miterlimit="10"/>
<path d="M454.773 51.0166V147.244" stroke="white" stroke-width="0.23" stroke-miterlimit="10"/>
<path d="M462.062 51.0166V147.244" stroke="white" stroke-width="0.23" stroke-miterlimit="10"/>
</g>
<path d="M443.463 144.124C449.011 144.124 453.509 139.624 453.509 134.073C453.509 128.522 449.011 124.022 443.463 124.022C437.915 124.022 433.418 128.522 433.418 134.073C433.418 139.624 437.915 144.124 443.463 144.124Z" fill="#C76F5A"/>
<path d="M460.126 111.694C460.126 115.842 457.044 133.143 451.41 140.224L436.209 128.498L435.695 110.958L460.126 111.694Z" fill="#C76F5A"/>
<path d="M460.125 111.694L435.836 110.949L459.93 114.282L460.125 111.694Z" fill="#292B41"/>
<path d="M424.55 61.0674C424.55 61.0674 426.402 66.0839 424.09 70.8169C424.006 70.9935 423.886 71.1503 423.737 71.2767C423.588 71.4031 423.414 71.4963 423.226 71.55C423.038 71.6037 422.841 71.6166 422.648 71.588C422.455 71.5594 422.27 71.4899 422.105 71.3841L416.241 66.7753L410.696 70.7903C410.609 70.8524 410.507 70.8908 410.4 70.9019C410.294 70.913 410.187 70.8963 410.088 70.8534C409.99 70.8106 409.905 70.7431 409.841 70.6575C409.776 70.5719 409.735 70.4711 409.722 70.3649C409.536 68.5922 409.252 64.9938 409.846 62.9198" stroke="#324A3B" stroke-width="0.85" stroke-miterlimit="10"/>
<path d="M416.241 66.7754C415.34 72.6602 414.801 78.595 414.629 84.5461" stroke="#324A3B" stroke-width="0.85" stroke-miterlimit="10"/>
<path d="M435.696 110.958L434.535 89.9258" stroke="#324A3B" stroke-width="0.85" stroke-miterlimit="10"/>
<path d="M463.139 105.029L435.395 105.862" stroke="#324A3B" stroke-width="0.85" stroke-miterlimit="10"/>
<path d="M385.289 110.205C385.289 110.205 385.192 95.6781 385.289 94.1714" stroke="#324A3B" stroke-width="0.85" stroke-miterlimit="10"/>
<path d="M422.901 23.6559V23.7977C422.977 24.8034 422.911 25.8148 422.706 26.8023C422.655 28.4918 423.152 30.1524 424.124 31.5353C424.832 32.6609 426.267 33.3079 426.604 34.6551C426.674 35.0938 426.653 35.5423 426.542 35.9724C426.43 36.4025 426.231 36.8049 425.957 37.1545C425.461 37.8902 424.824 38.5372 424.398 39.3083C424.215 39.6011 424.114 39.9379 424.106 40.2832C424.106 41.1695 425.072 41.7722 425.515 42.5699C425.77 43.0706 425.83 43.6485 425.683 44.191C425.535 44.7334 425.191 45.2014 424.717 45.5036C423.973 45.9379 422.946 45.9468 422.405 46.5761C421.865 47.2054 421.333 51.7965 419.455 49.5718C418.57 48.5526 418.499 46.2216 418.198 44.963C417.666 42.7029 415.691 39.9021 415.159 37.642C415.212 36.0023 415.274 34.3626 415.328 32.7229C415.328 31.6859 415.487 30.6046 415.434 29.5588C415.434 28.8852 414.991 28.3091 414.902 27.6089C414.801 26.8391 414.88 26.0562 415.133 25.3222C415.588 24.0907 416.423 23.0356 417.516 22.3087C418.308 21.6988 419.289 21.3853 420.288 21.4224C420.897 21.4896 421.472 21.7385 421.938 22.1368C422.404 22.5351 422.74 23.0644 422.901 23.6559Z" fill="#242932"/>
<path d="M423.327 61.5014L418.597 45.1222C418.966 45.1308 419.329 45.0324 419.644 44.839C419.958 44.6456 420.21 44.3653 420.369 44.032C421.033 42.8621 421.254 40.2829 421.148 38.9446C421.042 37.6062 420.696 36.5161 419.376 36.4983C418.679 36.5302 418.008 36.7761 417.455 37.2026C416.902 37.6291 416.493 38.2157 416.285 38.8825L415.204 28.4062L394.449 30.6752C394.449 30.6752 394.848 39.1573 396.017 51.4505C396.073 52.1365 396.191 52.816 396.372 53.4802C398.878 62.1484 409.535 56.7064 410.111 56.3696L410.934 63.1676C411.634 65.2505 418.526 68.5476 423.327 61.5014Z" fill="#C76F5A"/>
<path d="M416.18 38.865C416.091 39.342 415.86 39.7808 415.516 40.1235C415.384 40.2619 415.211 40.354 415.023 40.3859C414.834 40.4179 414.641 40.388 414.471 40.3008C414.263 40.1201 414.125 39.8724 414.081 39.6006C413.886 38.9183 413.744 38.222 413.656 37.5178C413.624 37.0552 413.519 36.6006 413.346 36.1706C413.193 35.8632 412.993 35.582 412.752 35.3374C412.05 34.6662 411.398 33.9433 410.803 33.1748C410.512 32.7891 410.315 32.3403 410.229 31.8646C410.143 31.3889 410.17 30.8995 410.307 30.4361C410.567 29.9237 410.942 29.479 411.403 29.1374C411.865 28.7958 412.399 28.5667 412.965 28.4685C413.949 28.3434 414.925 28.1599 415.888 27.9189L416.092 33.485L416.225 37.2341C416.263 37.7779 416.248 38.3241 416.18 38.865Z" fill="#242932"/>
<path d="M419.446 37.8013C419.446 37.8013 416.496 39.0155 418.073 43.5978" stroke="black" stroke-width="0.56" stroke-miterlimit="10"/>
<path d="M418.012 39.4765C418.012 39.4765 420.235 39.0777 419.447 42.1355" stroke="black" stroke-width="0.56" stroke-miterlimit="10"/>
<path d="M405.036 41.6569C405.133 42.2773 404.894 42.8179 404.522 42.88C404.15 42.942 403.76 42.4811 403.636 41.8696C403.512 41.258 403.778 40.7085 404.159 40.6465C404.54 40.5844 404.992 41.0719 405.036 41.6569Z" fill="#1D1D1B"/>
<path d="M397.575 42.7826C397.664 43.403 397.433 43.9437 397.061 44.0057C396.689 44.0678 396.299 43.6069 396.175 42.9953C396.051 42.3838 396.317 41.8342 396.698 41.7722C397.079 41.7102 397.478 42.171 397.575 42.7826Z" fill="#1D1D1B"/>
<path d="M401.155 46.4784C401.155 46.4784 398.551 47.2938 400.19 44.041" stroke="black" stroke-width="0.56" stroke-miterlimit="10"/>
<path d="M402.609 39.2993C403.092 38.8826 403.708 38.6533 404.346 38.6533C404.983 38.6533 405.599 38.8826 406.082 39.2993V39.379C405.196 39.379 403.477 39.379 402.609 39.379V39.2993Z" fill="black"/>
<path d="M394.918 40.6201C395.253 40.0791 395.77 39.6761 396.376 39.4842C396.982 39.2923 397.637 39.3242 398.222 39.5743V39.6452C397.407 39.9377 395.751 40.4606 394.918 40.691V40.6201Z" fill="black"/>
<path d="M410.109 56.3697C411.812 55.4527 413.41 54.3531 414.875 53.0903C414.875 53.0903 412.554 57.7701 410.286 59.1705L410.109 56.3697Z" fill="#292B41"/>
<path d="M403.797 49.9353C403.797 49.9353 406.286 50.7596 407.163 47.6841" stroke="black" stroke-width="0.56" stroke-miterlimit="10"/>
<path d="M391.419 33.1482C391.566 33.1353 391.714 33.1353 391.862 33.1482C392.299 33.2686 392.713 33.4634 393.084 33.7243C394.072 34.1968 395.204 34.2729 396.246 33.937C397.276 33.5894 398.236 33.0612 399.081 32.3771C399.652 31.8187 400.402 31.4797 401.198 31.4199C401.96 31.4731 402.562 32.0757 403.253 32.4037C404.679 33.095 406.416 32.5987 407.806 31.8187C409.197 31.0388 410.951 29.2218 412.767 29.4257C414.583 29.6295 416.514 30.0993 418.383 30.374C418.579 29.4604 418.703 28.5328 418.755 27.5998C418.894 26.5599 419.122 25.5339 419.437 24.5332C419.553 24.1787 420.421 21.564 420.828 21.5817C418.95 21.4442 417.188 20.6209 415.876 19.2685C414.804 18.1871 414.105 16.8311 412.572 16.3525C411.908 16.1136 411.181 16.1136 410.517 16.3525C409.921 16.6714 409.382 17.0878 408.923 17.5845C407.55 18.7455 405.016 19.5964 403.298 18.8253C402.243 18.3555 401.393 17.416 400.25 17.2211C399.783 17.1507 399.305 17.2131 398.871 17.4011C398.437 17.5891 398.065 17.8953 397.797 18.2846C397.613 18.6479 397.377 18.9823 397.097 19.2773C396.131 20.0661 394.36 18.9139 393.474 19.8623C393.275 20.1335 393.117 20.432 393.004 20.7486C392.737 21.2523 392.359 21.6887 391.899 22.025C391.438 22.3612 390.908 22.5885 390.347 22.6896C389.939 22.7605 389.523 22.7694 389.116 22.8315C388.635 22.8965 388.174 23.0658 387.765 23.3276C387.357 23.5894 387.01 23.9373 386.75 24.3471C386.498 24.7614 386.375 25.2417 386.397 25.7265C386.419 26.2113 386.585 26.6784 386.874 27.068C387.326 27.6353 388.115 28.0253 388.177 28.7521C388.265 29.727 387.238 30.5247 387.459 31.5528C387.625 31.9617 387.883 32.3266 388.213 32.6188C388.544 32.911 388.938 33.1225 389.364 33.2368C390.049 33.3155 390.743 33.2856 391.419 33.1482Z" fill="#242932"/>
<path d="M352.727 235.849C352.727 235.849 370.443 220.463 376.148 222.315C388.895 234.262 399.011 250.358 406.062 263.786L386.99 278.685L352.727 235.849Z" fill="#B85742"/>
<path d="M406.064 263.786C413.576 278.1 421.725 291.608 421.725 291.608L420.689 300.338L409.661 304.619L386.992 278.685L406.064 263.786Z" fill="#CFD0D9"/>
<mask id="mask2_823_4010" style="mask-type:luminance" maskUnits="userSpaceOnUse" x="386" y="263" width="36" height="42">
<path d="M406.064 263.786C413.576 278.1 421.725 291.608 421.725 291.608L420.689 300.338L409.661 304.619L386.992 278.685L406.064 263.786Z" fill="white"/>
</mask>
<g mask="url(#mask2_823_4010)">
<path d="M390.51 284.668L410.122 268.944L408.971 266.206L388.57 282.558L390.51 284.668Z" fill="#51785F"/>
<path d="M393.044 289.861L412.657 274.147L411.505 271.399L391.113 287.761L393.044 289.861Z" fill="#51785F"/>
</g>
<path d="M373.439 236.05C379.109 230.377 379.109 221.179 373.439 215.506C367.77 209.833 358.577 209.833 352.907 215.506C347.237 221.179 347.237 230.377 352.907 236.05C358.577 241.723 367.77 241.723 373.439 236.05Z" fill="#B85742"/>
<path d="M437.006 299.496C437.006 299.496 436.448 295.011 421.761 291.607C421.761 291.607 422.178 299.93 409.501 304.335C408.028 307.526 406.796 310.824 405.816 314.2C405.683 314.634 405.542 315.086 405.409 315.458C399.899 318.161 396.896 319.553 396.453 322.469L396.524 326.147L413.789 326.192L439.54 302.172L437.006 299.496Z" fill="#7FA7F3"/>
<path d="M412.335 322.868H396.461V322.061H412.016L436.739 299.194L437.289 299.788L412.335 322.868Z" fill="#5676B3"/>
<path d="M432.07 304.308C430.396 303.243 429.202 301.568 428.741 299.637C428.279 297.707 428.587 295.672 429.599 293.965L430.281 294.39C430.148 294.603 427.074 299.708 432.549 303.652L432.07 304.308Z" fill="#5676B3"/>
<path d="M412.679 322.655H411.873C411.906 321.753 411.751 320.854 411.418 320.015C411.086 319.176 410.583 318.415 409.942 317.78C408.638 316.578 406.912 315.941 405.141 316.008V315.201C406.128 315.159 407.115 315.314 408.042 315.656C408.97 315.998 409.82 316.522 410.544 317.195C411.259 317.907 411.818 318.761 412.185 319.701C412.553 320.64 412.721 321.647 412.679 322.655Z" fill="#5676B3"/>
<path d="M407.781 305.035L408.392 304.353L411.413 300.958C411.618 300.731 411.875 300.558 412.163 300.455C412.45 300.351 412.758 300.32 413.061 300.364C413.428 300.409 413.78 300.541 414.088 300.747C414.396 300.953 414.651 301.229 414.832 301.552L414.939 301.747C415.088 302.09 415.15 302.464 415.119 302.837C415.088 303.21 414.965 303.569 414.762 303.883C414.546 304.217 414.251 304.492 413.903 304.684C413.556 304.875 413.166 304.978 412.768 304.982L407.781 305.035ZM412.822 301.162C412.67 301.158 412.519 301.186 412.379 301.244C412.238 301.302 412.111 301.389 412.007 301.499L409.606 304.202H412.777C413.041 304.197 413.299 304.128 413.529 303.999C413.759 303.871 413.955 303.688 414.097 303.466C414.229 303.266 414.308 303.037 414.328 302.798C414.348 302.56 414.308 302.32 414.212 302.101C414.192 302.055 414.169 302.011 414.141 301.968C414.02 301.758 413.851 301.579 413.648 301.445C413.445 301.311 413.213 301.226 412.972 301.197L412.822 301.162Z" fill="#5676B3"/>
<path d="M406.897 308.403C406.526 308.363 406.171 308.234 405.862 308.025C405.554 307.816 405.3 307.536 405.125 307.207L405.019 307.029C404.863 306.76 404.781 306.454 404.781 306.143C404.781 305.832 404.863 305.526 405.019 305.257C405.145 305.038 405.325 304.857 405.543 304.729C405.76 304.602 406.007 304.533 406.259 304.53C406.471 304.53 407.88 304.353 408.713 304.238L409.368 304.149L408.146 307.561C408.08 307.795 407.947 308.005 407.762 308.162C407.578 308.32 407.35 308.42 407.109 308.448L406.897 308.403ZM406.188 305.319C406.077 305.322 405.969 305.354 405.874 305.411C405.78 305.469 405.701 305.55 405.648 305.647C405.569 305.801 405.533 305.973 405.542 306.146C405.552 306.319 405.606 306.486 405.701 306.631L405.78 306.781C405.889 307.005 406.054 307.197 406.259 307.338C406.464 307.48 406.702 307.566 406.95 307.588C407.036 307.579 407.117 307.544 407.182 307.486C407.247 307.429 407.293 307.353 407.313 307.269L408.092 305.106C407.393 305.195 406.418 305.319 406.188 305.319Z" fill="#5676B3"/>
<path d="M407.19 310.211L406.508 309.777C407.102 308.735 408.008 307.907 409.099 307.409C410.189 306.911 411.409 306.769 412.585 307.003L412.381 307.783C411.37 307.581 410.321 307.708 409.387 308.145C408.453 308.582 407.684 309.306 407.19 310.211Z" fill="#5676B3"/>
<path d="M406.366 313.624L405.684 313.189C406.28 312.15 407.187 311.323 408.276 310.824C409.366 310.325 410.584 310.179 411.76 310.406L411.557 311.195C410.546 310.994 409.497 311.121 408.563 311.557C407.629 311.994 406.859 312.718 406.366 313.624Z" fill="#5676B3"/>
<path d="M381.279 223.29C381.279 223.29 404.213 228.413 406.083 234.077C404.072 251.431 397.171 269.148 390.581 282.824L367.266 276.363L381.279 223.29Z" fill="#C76F5A"/>
<path d="M390.605 282.806C386.565 291.259 381.994 299.447 376.919 307.322L370.001 312.028L359.141 307.278L367.29 276.345L390.605 282.806Z" fill="white"/>
<mask id="mask3_823_4010" style="mask-type:luminance" maskUnits="userSpaceOnUse" x="359" y="276" width="32" height="37">
<path d="M390.605 282.806C386.565 291.259 381.994 299.447 376.919 307.322L370.001 312.028L359.141 307.278L367.29 276.345L390.605 282.806Z" fill="white"/>
</mask>
<g mask="url(#mask3_823_4010)">
<path d="M364.582 282.735L388.88 289.144L390.395 286.582L365.122 279.917L364.582 282.735Z" fill="#51785F"/>
<path d="M361.914 287.867L386.212 294.275L387.727 291.714L362.454 285.058L361.914 287.867Z" fill="#51785F"/>
</g>
<path d="M376.794 306.967C376.794 306.967 371.214 313.171 359.14 307.286C355.84 308.5 352.636 309.961 349.555 311.656C339.155 317.231 334.328 315.13 334.133 321.99L381.967 323.329C381.967 323.329 384.776 319.748 376.794 306.967Z" fill="#7FA7F3"/>
<path d="M334.01 325.679L381.879 327.017L381.982 323.34L334.112 322.002L334.01 325.679Z" fill="#7FA7F3"/>
<path d="M334.124 321.544L334.102 322.351L381.971 323.688L381.993 322.882L334.124 321.544Z" fill="#5676B3"/>
<path d="M375.138 323.205C374.703 321.265 375.041 319.232 376.08 317.538C377.118 315.843 378.776 314.62 380.701 314.129L380.879 314.918C380.631 314.98 374.882 316.389 375.936 323.072L375.138 323.205Z" fill="#5676B3"/>
<path d="M351.238 322.531C349.945 314.235 343.966 314.696 343.709 314.723L343.629 313.916C343.7 313.916 350.627 313.34 352.035 322.407L351.238 322.531Z" fill="#5676B3"/>
<path d="M360.815 311.957C360.191 311.957 359.591 311.716 359.141 311.284L355.598 307.739L356.483 307.685L361.01 307.42C361.317 307.409 361.621 307.472 361.898 307.603C362.176 307.734 362.418 307.93 362.605 308.173C362.834 308.466 362.992 308.808 363.065 309.173C363.139 309.537 363.127 309.914 363.03 310.273C363.011 310.346 362.988 310.417 362.959 310.486C362.826 310.835 362.607 311.145 362.322 311.387C362.037 311.629 361.695 311.795 361.329 311.869C361.161 311.916 360.989 311.946 360.815 311.957ZM357.44 308.474L359.708 310.699C359.896 310.884 360.128 311.019 360.381 311.091C360.635 311.164 360.903 311.172 361.161 311.115C361.396 311.068 361.615 310.962 361.797 310.807C361.98 310.652 362.121 310.453 362.206 310.229C362.211 310.182 362.211 310.134 362.206 310.087C362.268 309.852 362.274 309.605 362.225 309.367C362.176 309.129 362.072 308.905 361.922 308.714C361.821 308.574 361.687 308.462 361.533 308.384C361.379 308.307 361.209 308.268 361.037 308.27L357.44 308.474Z" fill="#5676B3"/>
<path d="M353.418 309.892C353.143 309.893 352.877 309.799 352.665 309.626C352.384 309.34 352.186 308.982 352.092 308.592C351.999 308.202 352.013 307.793 352.133 307.41C352.147 307.341 352.165 307.273 352.186 307.206C352.259 306.901 352.411 306.62 352.627 306.393C352.843 306.166 353.116 306 353.418 305.912C353.661 305.846 353.917 305.845 354.161 305.909C354.405 305.972 354.628 306.099 354.808 306.276C354.959 306.427 356.084 307.295 356.748 307.8L357.28 308.208L354.002 309.75C353.821 309.842 353.621 309.89 353.418 309.892ZM353.807 306.675H353.621C353.457 306.731 353.31 306.828 353.194 306.956C353.077 307.085 352.996 307.241 352.957 307.41C352.957 307.464 352.957 307.517 352.957 307.57C352.874 307.807 352.853 308.061 352.899 308.309C352.944 308.556 353.052 308.787 353.214 308.979C353.284 309.027 353.368 309.053 353.453 309.053C353.538 309.053 353.622 309.027 353.692 308.979L355.765 307.995C355.216 307.57 354.436 306.967 354.268 306.799C354.203 306.748 354.129 306.711 354.05 306.69C353.971 306.669 353.889 306.663 353.807 306.675Z" fill="#5676B3"/>
<path d="M356.872 312.968C356.298 312.111 355.467 311.46 354.498 311.109C353.529 310.758 352.474 310.726 351.486 311.018L351.309 310.229C352.465 309.913 353.691 309.969 354.815 310.387C355.938 310.805 356.902 311.565 357.571 312.56L356.872 312.968Z" fill="#5676B3"/>
<path d="M353.878 314.794C353.304 313.939 352.472 313.289 351.503 312.94C350.535 312.591 349.48 312.56 348.492 312.853L348.324 312.055C349.48 311.741 350.706 311.798 351.828 312.218C352.95 312.637 353.912 313.399 354.578 314.395L353.878 314.794Z" fill="#5676B3"/>
<path d="M436.287 136.794C436.287 136.794 442.319 155.239 438.944 175.597C435.569 195.956 417.685 239.528 417.685 239.528L380.427 226.153L347.562 218.859L386.539 136.794H436.287Z" fill="#292B41"/>
<path d="M380.516 226.171L399.41 171.006" stroke="#707B94" stroke-width="0.64" stroke-miterlimit="10"/>
<path d="M421.255 230.647L383.297 218.149" stroke="#707B94" stroke-width="0.64" stroke-miterlimit="10"/>
<path d="M383.296 218.149L350.973 211.901" stroke="#707B94" stroke-width="0.64" stroke-miterlimit="10"/>
<path d="M429.296 136.794C429.296 136.794 434.611 153.174 431.688 171.246C428.765 189.318 412.855 227.97 412.855 227.97" stroke="#707B94" stroke-width="0.64" stroke-miterlimit="10"/>
<path d="M432.451 155.655C432.451 155.655 420.555 157.906 420.555 136.812" stroke="#707B94" stroke-width="0.64" stroke-miterlimit="10"/>
<path d="M363.941 59.3832C363.941 59.3832 367.928 49.2082 391.057 51.3L389.196 53.5512L369.451 60.2784L363.941 59.3832Z" fill="#FAECC6"/>
<path d="M363.942 59.7466C363.942 59.7466 361.94 52.3192 350.699 55.1909C350.699 55.1909 357.494 59.525 357.786 59.5516L363.942 59.7466Z" fill="#FAECC6"/>
<path d="M361.266 59.2324L367.068 58.7095L377.583 92.5225L371.789 93.0454L361.266 59.2324Z" fill="#6E91D0"/>
<path d="M361.268 59.2325L349.504 54.73L360.019 88.5341L371.791 93.0455L361.268 59.2325Z" fill="#607DB3"/>
<path d="M392.626 50.8125L367.07 58.7096L377.585 92.5226L403.141 84.6255L392.626 50.8125Z" fill="#7EA8F3"/>
<path d="M375.689 117.224L360.63 94.1802L350.363 96.91C350.363 96.91 355.802 124.182 369.851 136.901L375.689 117.224Z" fill="#C76F5A"/>
<path d="M349.06 89.8813C347.206 84.2864 346.643 78.3444 347.412 72.5007C347.58 71.3484 349.024 70.4267 349.901 69.6644C352.249 67.6259 356.102 63.4602 357.05 63.7084C358.272 64.0009 358.609 65.8887 352.753 72.5007L354.162 84.3596L349.06 89.8813Z" fill="#C76F5A"/>
<path d="M353.027 81.0892L354.418 85.7069C354.418 85.7069 363.888 79.4052 363.941 77.8807C363.952 77.7409 363.935 77.6004 363.891 77.4672C363.848 77.334 363.778 77.2107 363.687 77.1044C363.595 76.9982 363.484 76.9111 363.359 76.8481C363.234 76.7851 363.097 76.7474 362.957 76.7373C362.427 76.6488 361.883 76.773 361.443 77.083L353.027 81.0892Z" fill="#C76F5A"/>
<path d="M347.996 75.1153L349.945 78.2972C349.945 78.2972 362.541 71.0382 362.727 69.5226C362.753 69.3833 362.75 69.2402 362.718 69.1021C362.687 68.9639 362.629 68.8334 362.546 68.7185C362.463 68.6035 362.358 68.5064 362.237 68.4329C362.116 68.3593 361.982 68.311 361.842 68.2906C361.118 68.2517 360.399 68.4208 359.769 68.7781L347.996 75.1153Z" fill="#C76F5A"/>
<path d="M349.715 77.7655L352.824 81.9755C352.824 81.9755 364.251 73.6884 364.446 72.1728C364.47 72.0336 364.466 71.891 364.435 71.7533C364.403 71.6156 364.344 71.4856 364.262 71.3709C364.179 71.2562 364.075 71.1591 363.954 71.0853C363.834 71.0115 363.7 70.9624 363.56 70.9409C362.834 70.9007 362.112 71.0699 361.479 71.4283L349.715 77.7655Z" fill="#C76F5A"/>
<path d="M356.819 83.3315C356.819 83.3315 362.665 84.8826 360.655 94.1446L350.459 97.3885L347.863 85.3878L356.819 83.3315Z" fill="#C76F5A"/>
<path d="M371.781 111.233C373.915 114.161 375.837 117.239 377.53 120.442" stroke="black" stroke-width="0.56" stroke-miterlimit="10"/>
<path d="M358.839 72.8555L350.379 78.6697" stroke="black" stroke-width="0.59" stroke-miterlimit="10"/>
<path d="M356.59 79.4849L353.543 81.5677" stroke="black" stroke-width="0.59" stroke-miterlimit="10"/>
<path d="M391.056 78.2974L388.461 81.1779C388.461 81.1779 382.782 74.2026 383.146 72.8642C383.174 72.7401 383.226 72.6228 383.3 72.519C383.374 72.4152 383.467 72.327 383.575 72.2595C383.683 72.192 383.803 72.1464 383.928 72.1255C384.054 72.1045 384.182 72.1086 384.306 72.1375C384.79 72.2122 385.227 72.469 385.528 72.8554L391.056 78.2974Z" fill="#C76F5A"/>
<path d="M397.779 71.012L395.343 73.7596C395.343 73.7596 387.468 66.669 387.547 65.118C387.551 64.9829 387.581 64.8499 387.636 64.7265C387.691 64.6031 387.769 64.4916 387.867 64.3986C387.965 64.3056 388.08 64.2328 388.206 64.1844C388.332 64.136 388.467 64.1129 388.602 64.1164C389.13 64.0757 389.654 64.2409 390.063 64.5773L397.779 71.012Z" fill="#C76F5A"/>
<path d="M396.134 73.2983L393.876 75.8331C393.876 75.8331 383.777 67.3245 383.848 65.933C383.848 65.8058 383.873 65.6798 383.922 65.5625C383.972 65.4452 384.044 65.3389 384.134 65.2498C384.225 65.1606 384.333 65.0905 384.451 65.0435C384.569 64.9964 384.695 64.9734 384.822 64.9758C385.473 65.0574 386.087 65.3216 386.594 65.738L396.134 73.2983Z" fill="#C76F5A"/>
<path d="M394.213 75.3992L390.749 78.6697C390.749 78.6697 381.891 69.4166 381.891 68.0339C381.892 67.9071 381.918 67.7817 381.968 67.6649C382.017 67.5481 382.089 67.4423 382.18 67.3534C382.27 67.2645 382.377 67.1943 382.495 67.1468C382.612 67.0994 382.738 67.0755 382.865 67.0767C383.517 67.1613 384.131 67.4287 384.637 67.8478L394.213 75.3992Z" fill="#C76F5A"/>
<path d="M388.461 81.2044C388.461 81.2044 392.961 89.2521 400.544 93.0456L408.144 83.0391L397.753 70.8965L388.461 81.2044Z" fill="#C76F5A"/>
<path d="M386.656 69.3989L393.707 76.3122" stroke="black" stroke-width="0.59" stroke-miterlimit="10"/>
<path d="M385.105 72.4653L391.067 78.6696" stroke="black" stroke-width="0.59" stroke-miterlimit="10"/>
<path d="M389.23 67.6792L395.945 73.8568" stroke="black" stroke-width="0.59" stroke-miterlimit="10"/>
<path d="M408.145 83.0391L438.937 115.035L440.611 143.761C440.611 143.761 424.125 138.682 403.539 97.3797L400.562 93.0456L408.145 83.0391Z" fill="#C76F5A"/>
<path d="M403.573 97.4506L412.998 87.9847L410.898 85.8398L401.766 94.8094L403.573 97.4506Z" fill="#292B41"/>
<path d="M405.621 90.9362C405.621 90.4345 405.77 89.9441 406.049 89.527C406.327 89.11 406.724 88.7851 407.187 88.5935C407.651 88.4019 408.16 88.3522 408.652 88.4507C409.144 88.5493 409.595 88.7916 409.949 89.147C410.303 89.5024 410.544 89.9548 410.64 90.4471C410.737 90.9394 410.686 91.4494 410.493 91.9124C410.3 92.3755 409.973 92.7707 409.556 93.0482C409.138 93.3257 408.647 93.4728 408.146 93.4711C407.813 93.4711 407.484 93.4055 407.178 93.278C406.871 93.1505 406.592 92.9636 406.357 92.7281C406.123 92.4926 405.937 92.2131 405.811 91.9056C405.684 91.5981 405.62 91.2687 405.621 90.9362Z" fill="white" stroke="#EDA92E" stroke-width="0.42" stroke-miterlimit="10"/>
<path d="M435.828 111.809C435.828 111.809 440.47 115.558 442.029 118.572" stroke="black" stroke-width="0.56" stroke-miterlimit="10"/>
</g>
<defs>
<clipPath id="clip0_823_4010">
<rect width="1044" height="334" fill="white"/>
</clipPath>
</defs>
</svg>
