<svg width="314" height="327" viewBox="0 0 314 327" fill="none" xmlns="http://www.w3.org/2000/svg">
<g filter="url(#filter0_d_4050_4788)">
<g filter="url(#filter1_f_4050_4788)">
<rect x="115.422" y="226.609" width="101.055" height="9.77954" transform="rotate(-16 115.422 226.609)" fill="#1B3554"/>
</g>
<rect x="79.3633" y="97.9077" width="101.055" height="64.382" transform="rotate(-16 79.3633 97.9077)" fill="#E0E5EC"/>
<path fill-rule="evenodd" clip-rule="evenodd" d="M79.3631 97.9077L106.319 191.915L90.6514 196.407L74.3512 139.562L78.7382 125.29L79.3631 97.9077Z" fill="#CFD4DC"/>
<path fill-rule="evenodd" clip-rule="evenodd" d="M175.723 70.2778L202.679 164.285L218.347 159.792L202.046 102.947L190.763 93.1681L175.723 70.2778Z" fill="#CFD4DC"/>
<path d="M74.2539 139.22L201.947 102.604L232.242 208.256C233.003 210.911 231.468 213.68 228.814 214.441L110.734 248.3C108.079 249.061 105.31 247.526 104.549 244.872L74.2539 139.22Z" fill="white"/>
<path opacity="0.5" fill-rule="evenodd" clip-rule="evenodd" d="M125.117 171.729C124.96 171.181 125.095 170.59 125.51 170.199C126.434 169.328 128.244 167.825 130.257 167.247C132.269 166.671 134.541 167.003 135.75 167.262C136.295 167.379 136.708 167.801 136.862 168.337C137.223 169.598 136.008 170.842 134.698 170.755C133.647 170.685 132.446 170.728 131.316 171.052C130.163 171.383 129.093 172.003 128.217 172.635C127.155 173.402 125.478 172.988 125.117 171.729Z" fill="#1B3554"/>
<path opacity="0.5" fill-rule="evenodd" clip-rule="evenodd" d="M165.07 160.272C164.913 159.724 165.049 159.134 165.463 158.742C166.387 157.872 168.197 156.368 170.21 155.791C172.222 155.214 174.494 155.546 175.703 155.806C176.248 155.922 176.661 156.345 176.815 156.88C177.176 158.142 175.961 159.385 174.652 159.298C173.6 159.228 172.399 159.272 171.269 159.596C170.116 159.926 169.047 160.546 168.171 161.179C167.109 161.946 165.431 161.532 165.07 160.272Z" fill="#1B3554"/>
<ellipse opacity="0.5" cx="155.564" cy="180.34" rx="13.0394" ry="5.70721" transform="rotate(-16 155.564 180.34)" fill="#1B3554"/>
<circle opacity="0.149343" cx="112.876" cy="140.862" r="4.88977" transform="rotate(-16 112.876 140.862)" fill="#1B3554"/>
<circle opacity="0.149343" cx="170.064" cy="124.464" r="4.88977" transform="rotate(-16 170.064 124.464)" fill="#1B3554"/>
<path d="M112.808 140.622L104.453 111.485C99.9248 95.6935 109.056 79.2207 124.848 74.6925C140.64 70.1642 157.112 79.2952 161.641 95.0871L169.995 124.224" stroke="#5E7085" stroke-width="5" stroke-linecap="round" stroke-linejoin="round"/>
<path d="M220.036 188.5L220.07 188.505C220.279 188.534 220.497 188.56 220.719 188.587C221.236 188.65 221.778 188.716 222.301 188.827L222.304 188.828L222.304 188.828C224.823 189.377 227.122 190.662 228.909 192.52C230.695 194.377 231.889 196.723 232.34 199.26C232.67 201.011 232.631 202.811 232.225 204.545C231.832 206.224 231.104 207.806 230.085 209.196L238.817 217.91C239.089 218.158 239.291 218.474 239.402 218.825C239.515 219.18 239.53 219.56 239.447 219.923L239.446 219.927C239.363 220.276 239.19 220.597 238.943 220.858C238.697 221.119 238.387 221.311 238.043 221.414C237.699 221.517 237.335 221.528 236.985 221.445C236.636 221.363 236.315 221.191 236.053 220.945L236.046 220.938L236.046 220.938C235.616 220.518 235.188 220.089 234.764 219.663C234.448 219.346 234.133 219.031 233.822 218.723L233.819 218.72L227.233 212.117C227.161 212.164 227.088 212.211 227.015 212.258C226.593 212.532 226.155 212.817 225.707 213.056M220.036 188.5L225.471 212.615M220.036 188.5H220.001H218.992H218.96L218.928 188.504C218.764 188.526 218.595 188.545 218.422 188.566C218.002 188.615 217.561 188.667 217.131 188.748M220.036 188.5L217.131 188.748M225.707 213.056L225.471 212.615M225.707 213.056C225.707 213.056 225.707 213.056 225.707 213.056L225.471 212.615M225.707 213.056C223.92 214.011 221.936 214.537 219.911 214.593C217.886 214.649 215.875 214.233 214.038 213.378C212.202 212.522 210.589 211.252 209.329 209.666C208.068 208.08 207.194 206.222 206.776 204.24L206.776 204.239C206.691 203.834 206.633 203.412 206.579 203.018C206.555 202.839 206.531 202.666 206.506 202.503L206.5 202.465V202.427V200.718V200.652L206.517 200.588C206.532 200.531 206.545 200.474 206.555 200.416M225.471 212.615C223.753 213.534 221.845 214.04 219.897 214.094C217.949 214.147 216.016 213.747 214.249 212.925C212.483 212.102 210.933 210.88 209.72 209.354C208.508 207.829 207.667 206.043 207.265 204.136C207.184 203.749 207.13 203.358 207.078 202.973C207.053 202.789 207.028 202.607 207 202.427V200.718C207.021 200.639 207.038 200.559 207.051 200.478M206.555 200.416C206.554 200.422 206.554 200.429 206.553 200.435L207.051 200.478M206.555 200.416C206.556 200.41 206.557 200.404 206.558 200.399L207.051 200.478M206.555 200.416C206.803 197.587 207.968 194.917 209.874 192.811C211.784 190.7 214.333 189.273 217.13 188.748L217.223 189.239M207.051 200.478C207.286 197.751 208.408 195.176 210.245 193.146C212.081 191.117 214.533 189.745 217.223 189.239M229.583 209.034C229.583 209.073 229.546 209.112 229.482 209.18C229.449 209.216 229.408 209.26 229.361 209.316C229.486 209.372 229.604 209.444 229.711 209.529L229.779 209.597C229.8 209.573 229.817 209.555 229.835 209.535C229.853 209.517 229.871 209.497 229.895 209.471C229.917 209.446 229.958 209.399 229.994 209.342C230.006 209.321 230.02 209.296 230.033 209.267C230.016 209.29 229.999 209.312 229.982 209.335L229.938 209.302L229.911 209.281L229.583 209.034ZM229.583 209.034H229.88C229.814 208.989 229.745 208.948 229.674 208.912C229.644 208.953 229.613 208.993 229.583 209.034ZM217.223 189.239L217.131 188.748M217.223 189.239C217.636 189.162 218.049 189.113 218.462 189.065C218.638 189.044 218.815 189.023 218.992 189L217.131 188.748M227.432 211.711L227.48 211.658L227.43 211.708L227.292 211.487L226.956 211.857L227.432 211.711ZM226.95 196.618C227.928 198.082 228.45 199.802 228.45 201.562C228.435 203.919 227.492 206.174 225.826 207.841C224.159 209.507 221.903 210.45 219.546 210.465C217.786 210.465 216.066 209.943 214.602 208.965C213.138 207.987 211.997 206.597 211.323 204.97C210.649 203.344 210.473 201.554 210.817 199.827C211.16 198.101 212.008 196.514 213.253 195.27C214.498 194.025 216.084 193.177 217.811 192.833C219.538 192.49 221.328 192.666 222.955 193.34C224.581 194.014 225.972 195.155 226.95 196.618Z" fill="url(#paint0_linear_4050_4788)" stroke="url(#paint1_linear_4050_4788)"/>
</g>
<defs>
<filter id="filter0_d_4050_4788" x="0.253906" y="0.0532227" width="313.746" height="326.441" filterUnits="userSpaceOnUse" color-interpolation-filters="sRGB">
<feFlood flood-opacity="0" result="BackgroundImageFix"/>
<feColorMatrix in="SourceAlpha" type="matrix" values="0 0 0 0 0 0 0 0 0 0 0 0 0 0 0 0 0 0 127 0" result="hardAlpha"/>
<feOffset dy="4"/>
<feGaussianBlur stdDeviation="37"/>
<feComposite in2="hardAlpha" operator="out"/>
<feColorMatrix type="matrix" values="0 0 0 0 0 0 0 0 0 0 0 0 0 0 0 0 0 0 0.07 0"/>
<feBlend mode="normal" in2="BackgroundImageFix" result="effect1_dropShadow_4050_4788"/>
<feBlend mode="normal" in="SourceGraphic" in2="effect1_dropShadow_4050_4788" result="shape"/>
</filter>
<filter id="filter1_f_4050_4788" x="91.2349" y="174.567" width="148.21" height="85.6293" filterUnits="userSpaceOnUse" color-interpolation-filters="sRGB">
<feFlood flood-opacity="0" result="BackgroundImageFix"/>
<feBlend mode="normal" in="SourceGraphic" in2="BackgroundImageFix" result="shape"/>
<feGaussianBlur stdDeviation="12.0935" result="effect1_foregroundBlur_4050_4788"/>
</filter>
<linearGradient id="paint0_linear_4050_4788" x1="207.153" y1="191.153" x2="239.02" y2="221.108" gradientUnits="userSpaceOnUse">
<stop stop-color="#FF698D"/>
<stop offset="1" stop-color="#FF3868"/>
</linearGradient>
<linearGradient id="paint1_linear_4050_4788" x1="207.153" y1="191.153" x2="239.02" y2="221.108" gradientUnits="userSpaceOnUse">
<stop stop-color="#FF698D"/>
<stop offset="1" stop-color="#FF3868"/>
</linearGradient>
</defs>
</svg>
