<svg width="19" height="18" viewBox="0 0 19 18" fill="none" xmlns="http://www.w3.org/2000/svg">
<rect width="19" height="18" rx="4" fill="#FFEEE4"/>
<path d="M6.2647 2.90803C6.2647 2.7205 6.2647 2.55415 6.2647 2.38477C6.25909 2.31007 6.26905 2.23502 6.29393 2.16432C6.31882 2.09361 6.3581 2.02879 6.40933 1.97388C6.46056 1.91897 6.52263 1.87517 6.59165 1.84522C6.66068 1.81527 6.73517 1.7998 6.81048 1.7998C6.88579 1.7998 6.96029 1.81527 7.02932 1.84522C7.09835 1.87517 7.16042 1.91897 7.21164 1.97388C7.26287 2.02879 7.30215 2.09361 7.32704 2.16432C7.35192 2.23502 7.36188 2.31007 7.35627 2.38477C7.35627 2.55112 7.35627 2.7205 7.35627 2.89593H11.7286V2.44527C11.7183 2.36799 11.7246 2.28942 11.7469 2.21471C11.7693 2.13999 11.8072 2.07081 11.8583 2.0117C11.9094 1.9526 11.9725 1.90489 12.0434 1.87172C12.1143 1.83854 12.1915 1.82063 12.2698 1.81918C12.6043 1.81918 12.8202 2.0672 12.8202 2.45434V2.905H13.5013C13.9072 2.89602 14.3095 2.98311 14.6749 3.15907C15.1436 3.37032 15.5418 3.71021 15.823 4.13883C16.1042 4.56744 16.2565 5.06698 16.2621 5.57873C16.3979 7.91752 16.4091 10.2618 16.2956 12.6018C16.2908 13.0775 16.246 13.552 16.1618 14.0203C16.0313 14.5872 15.719 15.0966 15.272 15.4714C14.825 15.8463 14.2675 16.0663 13.6837 16.0982C11.5766 16.2283 9.46643 16.2646 7.35627 16.1889C6.59916 16.1617 5.83598 16.1496 5.09103 16.0498C4.49062 15.9517 3.94143 15.6539 3.53327 15.205C3.1251 14.7561 2.88212 14.1828 2.84405 13.5787C2.69255 11.1619 2.67326 8.73866 2.78628 6.31975C2.79337 5.86204 2.83915 5.40574 2.92311 4.95566C3.06521 4.37896 3.39584 3.86555 3.86307 3.49602C4.33031 3.1265 4.90769 2.9218 5.50456 2.91407L6.2647 2.90803ZM3.8596 7.2604C3.85792 7.28759 3.85792 7.31486 3.8596 7.34206C3.79575 9.40179 3.81704 11.4615 3.9569 13.5182C3.98648 13.9026 4.15375 14.2635 4.42829 14.5355C4.70283 14.8075 5.0664 14.9724 5.45286 15.0003C5.9576 15.0336 6.46538 15.0547 6.97315 15.0759C9.20768 15.1732 11.4459 15.1479 13.6776 15.0003C14.0644 14.9721 14.428 14.8061 14.7017 14.5327C14.9753 14.2594 15.1407 13.897 15.1675 13.5122C15.3074 11.4615 15.3287 9.40784 15.2648 7.35416C15.2617 7.32241 15.2556 7.29102 15.2466 7.2604H3.8596ZM15.2192 6.15945C15.2039 5.82102 15.1622 5.48428 15.0945 5.15227C14.8452 4.24489 13.8114 3.75491 12.8263 4.0241C12.8263 4.1723 12.8263 4.32655 12.8263 4.47778C12.8319 4.55249 12.8219 4.62754 12.797 4.69824C12.7722 4.76894 12.7329 4.83378 12.6816 4.88869C12.6304 4.94359 12.5683 4.9874 12.4993 5.01735C12.4303 5.0473 12.3558 5.06276 12.2805 5.06276C12.2052 5.06276 12.1307 5.0473 12.0617 5.01735C11.9926 4.9874 11.9306 4.94359 11.8793 4.88869C11.8281 4.83378 11.7888 4.76894 11.7639 4.69824C11.739 4.62754 11.7291 4.55249 11.7347 4.47778V3.99688H7.35627C7.35627 4.17533 7.35627 4.3447 7.35627 4.51105C7.36188 4.58575 7.35192 4.66081 7.32704 4.73151C7.30215 4.80222 7.26287 4.86704 7.21164 4.92195C7.16042 4.97686 7.09835 5.02066 7.02932 5.05061C6.96029 5.08057 6.88579 5.09603 6.81048 5.09603C6.73517 5.09603 6.66068 5.08057 6.59165 5.05061C6.52263 5.02066 6.46056 4.97686 6.40933 4.92195C6.3581 4.86704 6.31882 4.80222 6.29393 4.73151C6.26905 4.66081 6.25909 4.58575 6.2647 4.51105C6.2647 4.34167 6.2647 4.17532 6.2647 3.99385C6.00321 3.99385 5.75997 3.99385 5.51672 3.99385C5.20236 3.99948 4.89666 4.09733 4.63799 4.27513C3.95994 4.73487 3.87481 5.41842 3.9113 6.15642L15.2192 6.15945Z" fill="#FF7426"/>
<path d="M6.80918 8.88379C6.97206 8.8832 7.13144 8.93082 7.26704 9.0206C7.40263 9.11037 7.50831 9.23825 7.57064 9.38794C7.63297 9.53764 7.64912 9.7024 7.61704 9.86125C7.58497 10.0201 7.5061 10.1659 7.3905 10.28C7.27489 10.3942 7.12776 10.4715 6.96783 10.5022C6.8079 10.533 6.6424 10.5157 6.49238 10.4526C6.34236 10.3894 6.21461 10.2834 6.12537 10.1478C6.03614 10.0123 5.98945 9.85337 5.99126 9.69135C5.99366 9.47686 6.08078 9.27193 6.23383 9.12082C6.38687 8.96971 6.59354 8.88458 6.80918 8.88379Z" fill="#FF7426"/>
<path d="M10.3594 9.69135C10.3606 9.85265 10.3136 10.0107 10.2244 10.1453C10.1351 10.28 10.0076 10.3852 9.85807 10.4476C9.70855 10.51 9.54374 10.5268 9.3846 10.4959C9.22546 10.4649 9.07915 10.3876 8.96428 10.2738C8.8494 10.1599 8.77114 10.0147 8.73942 9.85651C8.70771 9.69832 8.72399 9.53433 8.78618 9.38536C8.84837 9.23639 8.95367 9.10917 9.08871 9.01987C9.22374 8.93056 9.38242 8.8832 9.54457 8.88379C9.75992 8.88459 9.96626 8.96982 10.1188 9.12101C10.2714 9.2722 10.3578 9.47714 10.3594 9.69135Z" fill="#FF7426"/>
<path d="M12.2761 8.88379C12.4388 8.8838 12.5979 8.93193 12.7331 9.02207C12.8683 9.11221 12.9735 9.24029 13.0354 9.39004C13.0972 9.53979 13.113 9.70445 13.0805 9.8631C13.0481 10.0218 12.969 10.1672 12.8533 10.2811C12.7376 10.3949 12.5904 10.472 12.4306 10.5025C12.2707 10.5329 12.1054 10.5155 11.9555 10.4523C11.8057 10.3891 11.6781 10.283 11.589 10.1475C11.4999 10.012 11.4533 9.85323 11.4551 9.69135C11.4583 9.47658 11.5461 9.27165 11.6996 9.12063C11.8532 8.9696 12.0602 8.88456 12.2761 8.88379Z" fill="#FF7426"/>
<path d="M7.62922 12.4202C7.6292 12.5823 7.58073 12.7406 7.48997 12.8752C7.39922 13.0097 7.27027 13.1144 7.11955 13.1758C6.96883 13.2372 6.80314 13.2527 6.64357 13.2202C6.484 13.1877 6.33775 13.1087 6.22344 12.9933C6.10913 12.8779 6.03191 12.7312 6.00162 12.572C5.97133 12.4128 5.98934 12.2482 6.05335 12.0993C6.11735 11.9503 6.22446 11.8236 6.36106 11.7353C6.49766 11.6471 6.65756 11.6012 6.82042 11.6036C7.03629 11.606 7.24246 11.6932 7.39396 11.8462C7.54547 11.9991 7.63003 12.2055 7.62922 12.4202Z" fill="#FF7426"/>
<path d="M10.3595 12.4141C10.3601 12.5754 10.3124 12.7333 10.2227 12.8676C10.1329 13.0019 10.005 13.1067 9.85524 13.1685C9.70548 13.2304 9.54062 13.2466 9.3816 13.215C9.22257 13.1835 9.07656 13.1056 8.96212 12.9914C8.84767 12.8771 8.76995 12.7316 8.73883 12.5733C8.70772 12.4149 8.7246 12.251 8.78735 12.1023C8.8501 11.9535 8.95589 11.8267 9.09125 11.7379C9.22662 11.6491 9.38547 11.6023 9.54762 11.6035C9.76296 11.6051 9.96899 11.6911 10.121 11.8429C10.273 11.9947 10.3587 12.1999 10.3595 12.4141Z" fill="#FF7426"/>
<path d="M13.0931 12.4203C13.0931 12.5824 13.0445 12.7409 12.9536 12.8755C12.8627 13.0101 12.7336 13.1148 12.5827 13.1761C12.4318 13.2374 12.2659 13.2527 12.1063 13.2199C11.9466 13.1872 11.8004 13.1079 11.6862 12.9922C11.572 12.8764 11.4951 12.7295 11.4651 12.5701C11.4352 12.4107 11.4536 12.2461 11.5181 12.0972C11.5826 11.9482 11.6902 11.8218 11.8272 11.7339C11.9642 11.646 12.1243 11.6007 12.2873 11.6037C12.5027 11.6068 12.7081 11.6944 12.8589 11.8473C13.0098 12.0002 13.0939 12.2061 13.0931 12.4203Z" fill="#FF7426"/>
</svg>
