<svg width="17" height="17" viewBox="0 0 17 17" fill="none" xmlns="http://www.w3.org/2000/svg">
<g clip-path="url(#clip0_1784_5491)">
<path d="M4.84258 1.24698C4.84258 1.03862 4.84258 0.853786 4.84258 0.66559C4.83638 0.582586 4.84738 0.499198 4.87488 0.420639C4.90239 0.34208 4.9458 0.270049 5.00242 0.20904C5.05904 0.148032 5.12765 0.0993641 5.20394 0.0660838C5.28023 0.0328035 5.36257 0.015625 5.4458 0.015625C5.52904 0.015625 5.61139 0.0328035 5.68768 0.0660838C5.76397 0.0993641 5.83257 0.148032 5.8892 0.20904C5.94582 0.270049 5.98923 0.34208 6.01674 0.420639C6.04424 0.499198 6.05524 0.582586 6.04904 0.66559C6.04904 0.850425 6.04904 1.03862 6.04904 1.23354H10.8816V0.732807C10.8703 0.646941 10.8772 0.559643 10.9019 0.476626C10.9266 0.393608 10.9685 0.316743 11.025 0.251069C11.0815 0.185394 11.1512 0.132392 11.2296 0.0955284C11.308 0.0586648 11.3932 0.0387685 11.4798 0.037152C11.8495 0.037152 12.0881 0.312726 12.0881 0.742888V1.24362H12.8409C13.2895 1.23365 13.7342 1.33041 14.1381 1.52592C14.6561 1.76064 15.0963 2.1383 15.407 2.61454C15.7178 3.09078 15.8861 3.64581 15.8924 4.21443C16.0425 6.81309 16.0548 9.41786 15.9293 12.0178C15.924 12.5464 15.8746 13.0736 15.7815 13.594C15.6373 14.2239 15.2921 14.7898 14.798 15.2063C14.3039 15.6228 13.6878 15.8672 13.0425 15.9027C10.7136 16.0472 8.38133 16.0876 6.04904 16.0035C5.21224 15.9733 4.36872 15.9599 3.54536 15.849C2.88175 15.74 2.27475 15.409 1.82362 14.9103C1.37249 14.4116 1.10394 13.7745 1.06186 13.1033C0.894408 10.4179 0.873091 7.72547 0.998004 5.03778C1.00585 4.52922 1.05644 4.02222 1.14924 3.52213C1.3063 2.88135 1.67173 2.31089 2.18814 1.90031C2.70456 1.48973 3.34273 1.26228 4.00242 1.2537L4.84258 1.24698ZM2.18431 6.08295C2.18245 6.11316 2.18245 6.14346 2.18431 6.17368C2.11374 8.46228 2.13726 10.7509 2.29185 13.0361C2.32454 13.4631 2.50942 13.8642 2.81286 14.1664C3.1163 14.4686 3.51814 14.6519 3.94528 14.6828C4.50315 14.7198 5.06437 14.7433 5.6256 14.7668C8.09534 14.8749 10.5692 14.8469 13.0358 14.6828C13.4633 14.6515 13.8652 14.467 14.1677 14.1633C14.4701 13.8596 14.6529 13.457 14.6825 13.0294C14.8371 10.7509 14.8606 8.469 14.7901 6.18713C14.7866 6.15185 14.7798 6.11697 14.7699 6.08295H2.18431ZM14.7397 4.85967C14.7227 4.48364 14.6767 4.10949 14.6019 3.74058C14.3263 2.73239 13.1837 2.18796 12.0948 2.48706C12.0948 2.65173 12.0948 2.82312 12.0948 2.99116C12.101 3.07416 12.09 3.15755 12.0625 3.23611C12.035 3.31467 11.9916 3.38671 11.935 3.44772C11.8784 3.50872 11.8098 3.55739 11.7335 3.59067C11.6572 3.62395 11.5748 3.64113 11.4916 3.64113C11.4084 3.64113 11.326 3.62395 11.2497 3.59067C11.1734 3.55739 11.1048 3.50872 11.0482 3.44772C10.9916 3.38671 10.9482 3.31467 10.9207 3.23611C10.8932 3.15755 10.8822 3.07416 10.8884 2.99116V2.45682H6.04904C6.04904 2.65509 6.04904 2.84328 6.04904 3.02812C6.05524 3.11112 6.04424 3.19452 6.01674 3.27308C5.98923 3.35164 5.94582 3.42367 5.8892 3.48468C5.83257 3.54569 5.76397 3.59435 5.68768 3.62763C5.61139 3.66091 5.52904 3.67809 5.4458 3.67809C5.36257 3.67809 5.28023 3.66091 5.20394 3.62763C5.12765 3.59435 5.05904 3.54569 5.00242 3.48468C4.9458 3.42367 4.90239 3.35164 4.87488 3.27308C4.84738 3.19452 4.83638 3.11112 4.84258 3.02812C4.84258 2.83992 4.84258 2.65509 4.84258 2.45345C4.55356 2.45345 4.28471 2.45345 4.01586 2.45345C3.6684 2.45971 3.33053 2.56843 3.04463 2.76599C2.29521 3.27681 2.20112 4.03631 2.24144 4.85631L14.7397 4.85967Z" fill="#767676"/>
<path d="M5.44508 7.88868C5.62511 7.88802 5.80127 7.94093 5.95114 8.04068C6.10101 8.14043 6.21781 8.28251 6.2867 8.44884C6.35559 8.61517 6.37345 8.79824 6.33799 8.97474C6.30253 9.15125 6.21537 9.31321 6.08759 9.44004C5.95982 9.56687 5.7972 9.65281 5.62044 9.68695C5.44367 9.72109 5.26075 9.70187 5.09494 9.63174C4.92913 9.56162 4.78793 9.44376 4.6893 9.29315C4.59067 9.14254 4.53907 8.96598 4.54107 8.78596C4.54372 8.54764 4.64002 8.31993 4.80917 8.15204C4.97832 7.98414 5.20675 7.88955 5.44508 7.88868Z" fill="#767676"/>
<path d="M9.3705 8.78596C9.37183 8.96518 9.31986 9.14076 9.22119 9.29038C9.12252 9.43999 8.98161 9.55691 8.81635 9.62627C8.65109 9.69562 8.46894 9.71429 8.29304 9.67989C8.11715 9.6455 7.95544 9.5596 7.82847 9.43311C7.70151 9.30661 7.615 9.14523 7.57995 8.96947C7.5449 8.79371 7.5629 8.61149 7.63163 8.44597C7.70037 8.28045 7.81676 8.1391 7.966 8.03987C8.11525 7.94064 8.29063 7.88802 8.46985 7.88868C8.70787 7.88956 8.93593 7.98426 9.10455 8.15225C9.27317 8.32024 9.36874 8.54795 9.3705 8.78596Z" fill="#767676"/>
<path d="M11.4875 7.88867C11.6674 7.88868 11.8432 7.94216 11.9926 8.04231C12.1421 8.14247 12.2584 8.28479 12.3267 8.45117C12.3951 8.61756 12.4125 8.80051 12.3766 8.9768C12.3408 9.15308 12.2534 9.31474 12.1255 9.44122C11.9976 9.56771 11.8349 9.65333 11.6583 9.68719C11.4816 9.72105 11.2988 9.70164 11.1332 9.63142C10.9676 9.56119 10.8266 9.44333 10.7281 9.29279C10.6296 9.14225 10.5781 8.96583 10.5801 8.78596C10.5837 8.54733 10.6807 8.31963 10.8504 8.15183C11.0201 7.98402 11.2489 7.88953 11.4875 7.88867Z" fill="#767676"/>
<path d="M6.35185 11.8176C6.35183 11.9977 6.29826 12.1736 6.19795 12.3231C6.09764 12.4726 5.95513 12.5889 5.78854 12.6571C5.62196 12.7254 5.43883 12.7426 5.26246 12.7065C5.08609 12.6703 4.92445 12.5826 4.7981 12.4543C4.67176 12.3261 4.58641 12.1632 4.55294 11.9863C4.51946 11.8094 4.53936 11.6265 4.6101 11.461C4.68084 11.2954 4.79923 11.1547 4.95021 11.0566C5.10118 10.9585 5.27791 10.9076 5.45792 10.9103C5.69651 10.9129 5.92438 11.0098 6.09184 11.1798C6.25929 11.3497 6.35276 11.579 6.35185 11.8176Z" fill="#767676"/>
<path d="M9.37052 11.8108C9.37118 11.9901 9.31855 12.1654 9.21933 12.3147C9.1201 12.4639 8.97874 12.5803 8.81322 12.6491C8.6477 12.7178 8.46549 12.7358 8.28972 12.7007C8.11396 12.6657 7.95258 12.5792 7.82609 12.4522C7.69959 12.3252 7.61369 12.1635 7.5793 11.9876C7.54491 11.8117 7.56357 11.6296 7.63293 11.4643C7.70228 11.2991 7.8192 11.1582 7.96882 11.0595C8.11844 10.9608 8.294 10.9088 8.47322 10.9102C8.71123 10.9119 8.93894 11.0075 9.10693 11.1761C9.27492 11.3448 9.36964 11.5728 9.37052 11.8108Z" fill="#767676"/>
<path d="M12.3909 11.8157C12.3909 11.9959 12.3372 12.172 12.2367 12.3215C12.1363 12.4711 11.9936 12.5874 11.8268 12.6555C11.66 12.7237 11.4767 12.7406 11.3003 12.7042C11.1238 12.6678 10.9622 12.5797 10.836 12.4512C10.7098 12.3226 10.6247 12.1593 10.5916 11.9822C10.5585 11.8051 10.5789 11.6222 10.6502 11.4567C10.7214 11.2912 10.8403 11.1507 10.9917 11.053C11.1432 10.9554 11.3202 10.905 11.5003 10.9084C11.7384 10.9119 11.9654 11.0092 12.1321 11.179C12.2988 11.3489 12.3918 11.5777 12.3909 11.8157Z" fill="#767676"/>
</g>
<defs>
<clipPath id="clip0_1784_5491">
<rect width="15.096" height="16" fill="white" transform="translate(0.917969 0.0410156)"/>
</clipPath>
</defs>
</svg>
