<svg width="35" height="35" viewBox="0 0 35 35" fill="none" xmlns="http://www.w3.org/2000/svg">
<g clip-path="url(#clip0_1964_2779)">
<path d="M17.4877 35C14.0267 34.9968 10.6444 33.9674 7.76842 32.042C4.89243 30.1166 2.65193 27.3817 1.33023 24.183C0.00853059 20.9843 -0.335014 17.4655 0.343036 14.0716C1.02108 10.6776 2.69028 7.56096 5.13955 5.11565C7.58883 2.67033 10.7082 1.00617 14.1032 0.33361C17.4982 -0.338952 21.0165 0.010279 24.213 1.33715C27.4096 2.66401 30.1409 4.90893 32.0616 7.78803C33.9824 10.6671 35.0063 14.0511 35.0039 17.5121C34.99 22.1508 33.1392 26.5952 29.8565 29.8726C26.5738 33.15 22.1265 34.9936 17.4877 35ZM17.4877 24.7344C19.5287 24.7344 21.5697 24.7344 23.6107 24.7344C25.9144 24.7344 27.7453 23.0733 27.8018 20.8666C27.8584 18.6599 27.8463 16.4209 27.8018 14.2102C27.7786 13.3257 27.4575 12.4749 26.8905 11.7957C26.3235 11.1164 25.5438 10.6485 24.6777 10.4677C23.9874 10.3663 23.2896 10.3257 22.5922 10.3464C22.3376 10.3464 22.1881 10.2898 22.1355 10.015C22.0305 9.57853 21.885 9.15013 21.7314 8.72172C21.664 8.43015 21.4974 8.17108 21.2599 7.98895C21.0225 7.80682 20.7291 7.71296 20.43 7.72345C18.6086 7.70728 16.7872 7.70728 14.9658 7.72345C14.6671 7.71198 14.3738 7.80497 14.1363 7.98643C13.8987 8.1679 13.7319 8.42648 13.6644 8.71767C13.5189 9.15821 13.3815 9.60277 13.2603 10.0514C13.255 10.0981 13.2401 10.1433 13.2165 10.184C13.1929 10.2247 13.1611 10.26 13.1231 10.2878C13.0851 10.3155 13.0417 10.335 12.9957 10.3451C12.9498 10.3552 12.9022 10.3557 12.8561 10.3464C12.3792 10.3464 11.8983 10.3464 11.4173 10.3464C8.88324 10.3666 7.1777 12.0762 7.16961 14.6143C7.16961 16.5704 7.16961 18.5279 7.16961 20.4867C7.16281 20.7746 7.18039 21.0626 7.22215 21.3476C7.38553 22.3164 7.89354 23.1936 8.65257 23.8174C9.4116 24.4413 10.3705 24.7698 11.3526 24.7425C13.4219 24.7425 15.4629 24.7344 17.4999 24.7344H17.4877Z" fill="#FF7426"/>
<path d="M17.4987 24.7343C15.4779 24.7343 13.4208 24.7343 11.3798 24.7343C10.3976 24.7616 9.43871 24.4331 8.67968 23.8092C7.92065 23.1854 7.41265 22.3082 7.24928 21.3394C7.20751 21.0544 7.18993 20.7665 7.19674 20.4785C7.19674 18.5224 7.19674 16.565 7.19674 14.6061C7.19674 12.068 8.91037 10.3584 11.4444 10.3382C11.9254 10.3382 12.4063 10.3382 12.8832 10.3382C12.9294 10.3475 12.9769 10.3471 13.0229 10.337C13.0688 10.3269 13.1122 10.3073 13.1502 10.2796C13.1882 10.2518 13.22 10.2165 13.2436 10.1758C13.2672 10.1351 13.2821 10.09 13.2874 10.0432C13.4086 9.59458 13.546 9.15 13.6915 8.70947C13.759 8.41828 13.9258 8.15971 14.1634 7.97825C14.4009 7.79678 14.6942 7.70378 14.9929 7.71525C16.8143 7.69908 18.6357 7.69908 20.4571 7.71525C20.7562 7.70476 21.0496 7.79863 21.287 7.98076C21.5245 8.1629 21.6912 8.42195 21.7585 8.71352C21.9 9.14192 22.0455 9.57034 22.1627 10.0068C22.2273 10.2817 22.3647 10.3302 22.6194 10.3382C23.3167 10.3176 24.0146 10.3581 24.7048 10.4595C25.5709 10.6403 26.3506 11.1083 26.9176 11.7875C27.4847 12.4667 27.8058 13.3175 27.829 14.202C27.8734 16.4208 27.8855 18.6477 27.829 20.8584C27.7724 23.0692 25.9415 24.7141 23.6378 24.7262C21.5807 24.7424 19.5397 24.7343 17.4987 24.7343ZM17.5432 12.1529C16.4776 12.1521 15.4357 12.4676 14.5495 13.0593C13.6634 13.6511 12.9728 14.4925 12.5652 15.4771C12.1576 16.4616 12.0513 17.545 12.2599 18.59C12.4685 19.635 12.9825 20.5945 13.7368 21.3472C14.4912 22.0998 15.4519 22.6117 16.4973 22.8179C17.5428 23.0241 18.6259 22.9154 19.6095 22.5056C20.5932 22.0958 21.4331 21.4033 22.0228 20.5158C22.6126 19.6283 22.9257 18.5857 22.9225 17.5201C22.9171 16.0962 22.3483 14.7323 21.3403 13.7265C20.3323 12.7208 18.9671 12.155 17.5432 12.1529Z" fill="white"/>
<path d="M17.547 12.1533C18.254 12.1517 18.9544 12.2894 19.6081 12.5585C20.2619 12.8275 20.8562 13.2227 21.3572 13.7215C21.8582 14.2203 22.2561 14.8128 22.5281 15.4654C22.8001 16.1179 22.941 16.8176 22.9425 17.5246C22.9441 18.2315 22.8065 18.9319 22.5374 19.5856C22.2683 20.2394 21.8731 20.8337 21.3744 21.3347C20.8756 21.8358 20.283 22.2336 19.6305 22.5057C18.978 22.7777 18.2782 22.9185 17.5713 22.9201C16.1435 22.9233 14.773 22.3592 13.7611 21.3519C12.7493 20.3446 12.179 18.9766 12.1758 17.5488C12.1726 16.1211 12.7367 14.7505 13.744 13.7387C14.7513 12.7268 16.1193 12.1565 17.547 12.1533ZM17.547 20.673C18.1681 20.6706 18.7745 20.4843 19.2898 20.1377C19.8051 19.7911 20.2062 19.2997 20.4426 18.7254C20.679 18.1511 20.74 17.5197 20.618 16.9108C20.4959 16.3018 20.1963 15.7427 19.7569 15.3038C19.3175 14.865 18.7579 14.5661 18.1488 14.4448C17.5398 14.3236 16.9084 14.3854 16.3344 14.6225C15.7605 14.8596 15.2695 15.2614 14.9236 15.7771C14.5776 16.2929 14.3922 16.8995 14.3906 17.5205C14.389 17.9363 14.4699 18.3483 14.6288 18.7326C14.7876 19.1168 15.0212 19.4657 15.316 19.759C15.6108 20.0523 15.9609 20.2841 16.3459 20.441C16.731 20.5979 17.1434 20.6767 17.5592 20.673H17.547Z" fill="#FF7426"/>
<path d="M17.5547 20.6724C16.9337 20.6748 16.3259 20.4932 15.808 20.1506C15.29 19.808 14.8851 19.3196 14.6444 18.7472C14.4036 18.1747 14.3377 17.5438 14.4551 16.9339C14.5724 16.3241 14.8678 15.7627 15.3038 15.3205C15.7398 14.8783 16.297 14.5751 16.9051 14.4491C17.5133 14.3232 18.1451 14.3801 18.7208 14.6128C19.2966 14.8455 19.7906 15.2435 20.1405 15.7565C20.4904 16.2696 20.6806 16.8748 20.687 17.4958C20.6912 17.9104 20.6134 18.3218 20.4581 18.7062C20.3027 19.0906 20.0729 19.4405 19.7818 19.7358C19.4907 20.0311 19.144 20.2658 18.7618 20.4266C18.3796 20.5873 17.9694 20.6709 17.5547 20.6724Z" fill="white"/>
</g>
<defs>
<clipPath id="clip0_1964_2779">
<rect width="35.004" height="35" fill="white"/>
</clipPath>
</defs>
</svg>
