<svg width="63" height="50" viewBox="0 0 63 50" fill="none" xmlns="http://www.w3.org/2000/svg">
<path d="M32.1731 0H6.14063C2.82692 0 0.140625 2.68629 0.140625 6V36.6966C0.140625 40.0103 2.82691 42.6966 6.14062 42.6966H32.1731C35.4868 42.6966 38.1731 40.0103 38.1731 36.6966V6C38.1731 2.68629 35.4868 0 32.1731 0Z" fill="#D7FAFF"/>
<path d="M60.5508 42.9989V21.4994C60.5508 18.8607 58.4117 16.7217 55.7731 16.7217H17.5518C14.9131 16.7217 12.7741 18.8607 12.7741 21.4994V42.9989C12.7741 45.6375 14.9131 47.7766 17.5518 47.7766H55.7731C58.4117 47.7766 60.5508 45.6375 60.5508 42.9989Z" stroke="#12CCE6" stroke-width="3.58325"/>
<path d="M19.9375 21.499V42.9985" stroke="#12CCE6" stroke-width="3.58325"/>
<path d="M53.3828 21.499V42.9985" stroke="#12CCE6" stroke-width="3.58325"/>
<path d="M46.5152 28.1163L43.8897 23.5688C43.2301 22.4262 41.7691 22.0348 40.6265 22.6944L31.5637 27.9268C30.4212 28.5865 30.0297 30.0475 30.6893 31.19L33.3149 35.7376C33.9745 36.8801 35.4355 37.2716 36.5781 36.6119L45.6409 31.3795C46.7834 30.7199 47.1749 29.2589 46.5152 28.1163Z" stroke="#12CCE6" stroke-width="3.58325"/>
<path d="M46.2162 16.7222V14.3334C46.2162 11.6947 44.0771 9.55566 41.4385 9.55566H31.8832C29.2445 9.55566 27.1055 11.6947 27.1055 14.3334V16.7222" stroke="#12CCE6" stroke-width="3.58325"/>
</svg>
