<svg width="14" height="17" viewBox="0 0 14 17" fill="none" xmlns="http://www.w3.org/2000/svg">
<g clip-path="url(#clip0_2950_3977)">
<path d="M2.5702 7.07778V2.0572C2.55302 1.78321 2.59434 1.50869 2.69141 1.25189C2.78848 0.995096 2.93908 0.761895 3.1332 0.567771C3.32732 0.373647 3.56053 0.223047 3.81733 0.125978C4.07413 0.0289087 4.34864 -0.0124081 4.62263 0.00476806C6.08415 0.00476806 7.54115 0.00476806 9.00267 0.00476806C9.29103 -0.00265531 9.57773 0.0505177 9.84425 0.160854C10.1108 0.271191 10.3512 0.436234 10.5499 0.645308C11.3212 1.42569 12.1016 2.20155 12.882 2.97291C13.0852 3.16784 13.2458 3.40275 13.3537 3.66283C13.4616 3.92291 13.5145 4.20252 13.509 4.48404C13.509 7.04019 13.509 9.59634 13.509 12.1525C13.5184 12.4161 13.4736 12.6788 13.3773 12.9243C13.281 13.1699 13.1352 13.393 12.9492 13.58C12.7631 13.7669 12.5406 13.9136 12.2955 14.011C12.0504 14.1085 11.7879 14.1545 11.5242 14.1463C9.20566 14.1463 6.88858 14.1463 4.57301 14.1463C4.30925 14.1564 4.04624 14.112 3.80039 14.0159C3.55454 13.9198 3.33111 13.7742 3.14405 13.5879C2.95698 13.4017 2.81028 13.179 2.71311 12.9335C2.61593 12.6881 2.57035 12.4253 2.57922 12.1615C2.5702 10.4654 2.5702 8.77386 2.5702 7.07778ZM3.8603 7.05523C3.8603 8.74229 3.8603 10.4293 3.8603 12.1164C3.84567 12.2183 3.85515 12.3223 3.88798 12.4199C3.92081 12.5175 3.97607 12.6061 4.04933 12.6785C4.12259 12.7508 4.2118 12.805 4.3098 12.8367C4.4078 12.8683 4.51186 12.8766 4.61361 12.8607H11.4836C11.5827 12.8747 11.6836 12.8657 11.7786 12.8343C11.8735 12.8029 11.96 12.75 12.0311 12.6797C12.1023 12.6094 12.1563 12.5236 12.1888 12.429C12.2214 12.3345 12.2317 12.2337 12.2189 12.1345C12.2189 9.59033 12.2189 7.04621 12.2189 4.50209C12.2228 4.38252 12.201 4.2635 12.1551 4.15302C12.1092 4.04255 12.0402 3.94316 11.9528 3.86154C11.1829 3.10071 10.4161 2.33387 9.65223 1.56101C9.56762 1.47064 9.46471 1.39935 9.35037 1.3519C9.23602 1.30445 9.11287 1.28193 8.98914 1.28585C7.53213 1.28585 6.07062 1.28585 4.61361 1.28585C4.09486 1.28585 3.85579 1.52493 3.85579 2.04818C3.85579 3.72171 3.8603 5.38621 3.8603 7.05072V7.05523Z" fill="#656565"/>
<path d="M0.000583406 9.75653V4.66829C-0.00974522 4.58121 -0.00220819 4.49293 0.0227329 4.40886C0.0476741 4.32478 0.0894958 4.24668 0.145643 4.17932C0.20179 4.11195 0.271082 4.05675 0.349287 4.01707C0.427492 3.97739 0.512966 3.95408 0.600486 3.94855C0.688006 3.94302 0.775735 3.95539 0.85831 3.98492C0.940885 4.01444 1.01658 4.0605 1.08075 4.12026C1.14493 4.18002 1.19624 4.25224 1.23157 4.33251C1.26689 4.41278 1.28547 4.4994 1.28618 4.58709C1.28618 4.65476 1.28618 4.71791 1.28618 4.78557V14.6463C1.28618 15.2011 1.52074 15.4312 2.06655 15.4312H8.87343C8.95297 15.4243 9.03296 15.4243 9.1125 15.4312C9.26878 15.4566 9.41011 15.539 9.50923 15.6624C9.60836 15.7859 9.65825 15.9416 9.64928 16.0997C9.64031 16.2578 9.57312 16.4069 9.46067 16.5184C9.34821 16.6298 9.19847 16.6957 9.04033 16.7032H2.05302C1.77943 16.7204 1.50532 16.6792 1.24886 16.5823C0.992394 16.4855 0.759422 16.3353 0.565372 16.1417C0.371323 15.9481 0.220623 15.7155 0.123256 15.4592C0.0258887 15.203 -0.0159259 14.9289 0.000583406 14.6553V9.75653Z" fill="#656565"/>
</g>
<defs>
<clipPath id="clip0_2950_3977">
<rect width="13.51" height="16.7172" fill="white"/>
</clipPath>
</defs>
</svg>
