<svg width="458" height="295" viewBox="0 0 458 295" fill="none" xmlns="http://www.w3.org/2000/svg">
<g clip-path="url(#clip0_703_9628)">
<path d="M149.429 24.52H132.699V31.4H149.429V24.52Z" stroke="#E9F4FF" stroke-width="0.98" stroke-linecap="round" stroke-linejoin="round"/>
<path d="M115.961 24.52H132.701V31.4H115.961" stroke="#E9F4FF" stroke-width="0.98" stroke-linecap="round" stroke-linejoin="round"/>
<path d="M141.06 31.3999H124.33V38.2799H141.06V31.3999Z" stroke="#E9F4FF" stroke-width="0.98" stroke-linecap="round" stroke-linejoin="round"/>
<path d="M136.73 17.6401V24.5201H127.43V17.6401" stroke="#E9F4FF" stroke-width="0.98" stroke-linecap="round" stroke-linejoin="round"/>
<path d="M406.9 137.51H390.17V144.39H406.9V137.51Z" stroke="#E9F4FF" stroke-width="0.98" stroke-linecap="round" stroke-linejoin="round"/>
<path d="M373.439 137.51H390.179V144.39H373.439" stroke="#E9F4FF" stroke-width="0.98" stroke-linecap="round" stroke-linejoin="round"/>
<path d="M398.541 144.39H381.811V151.27H398.541V144.39Z" stroke="#E9F4FF" stroke-width="0.98" stroke-linecap="round" stroke-linejoin="round"/>
<path d="M394.21 130.63V137.51H384.91V130.63" stroke="#E9F4FF" stroke-width="0.98" stroke-linecap="round" stroke-linejoin="round"/>
<path d="M445.11 252.77H418.84C406.33 252.77 406.08 260.97 410.33 276.36C414.58 291.75 417.09 300.55 417.09 300.55" stroke="#E9F4FF" stroke-width="0.98" stroke-linecap="round" stroke-linejoin="round"/>
<path d="M440.19 252.77C440.19 252.77 448.03 215.18 421.01 195.16" stroke="#E9F4FF" stroke-width="0.98" stroke-linecap="round" stroke-linejoin="round"/>
<path d="M441.14 236.19C436.36 220.52 425.68 214.85 416.67 226.86" stroke="#E9F4FF" stroke-width="0.98" stroke-linecap="round" stroke-linejoin="round"/>
<path d="M439.19 260.22H408.01" stroke="#E9F4FF" stroke-width="0.98" stroke-linecap="round" stroke-linejoin="round"/>
<path d="M193.65 131.99C198.82 120.43 253.99 107.42 269.36 118.85L263.21 135.28L207.66 142.45L193.65 131.99Z" fill="#100D14"/>
<path d="M268.189 27.0399C282.059 40.8699 279.059 58.0399 283.059 71.5599C287.059 85.0799 297.409 100.42 287.229 113.09C277.049 125.76 253.869 127.61 247.029 113.09C240.189 98.5699 226.849 96.7499 217.959 102.55C209.069 108.35 192.859 108.72 188.849 96.0399C184.839 83.3599 200.699 72.5199 210.849 73.1899C220.999 73.8599 229.629 15.8799 268.189 27.0399Z" fill="#100D14"/>
<path d="M217.01 92.5801L210.17 140.95L250.53 139.95L259.71 86.1401L217.01 92.5801Z" fill="#E5987D"/>
<path d="M213.789 115.35L246.569 92.2002L217.009 92.5802L213.789 115.35Z" fill="#DB785E"/>
<path d="M247.2 31.1902C226.59 25.1902 203.33 41.0302 202.33 67.1902C201.33 93.3502 220.67 102.19 240.19 98.5502C259.71 94.9102 271.38 76.7002 269.07 57.2902C267.37 43.0602 258.04 34.3602 247.2 31.1902Z" fill="#E5987D"/>
<path d="M201.771 50.66L239.861 57.38C239.861 57.38 246.531 45.38 255.371 43.04C253.193 46.1798 251.93 49.8633 251.723 53.6792C251.516 57.4951 252.374 61.2933 254.201 64.65L252.201 74.56L259.201 76.73C259.201 76.73 262.631 69.21 268.671 69.55C279.211 68.39 279.881 42.87 271.541 30.86C267.141 24.53 252.441 12.51 227.041 18.01C208.321 22.07 201.041 37.47 198.511 45.28C198.329 45.8478 198.271 46.448 198.341 47.0401C198.411 47.6321 198.607 48.2023 198.916 48.7122C199.225 49.2221 199.64 49.6598 200.132 49.9958C200.625 50.3318 201.184 50.5583 201.771 50.66Z" fill="#100D14"/>
<path d="M219.551 81.6899C221.247 82.759 223.238 83.2624 225.238 83.1277C227.238 82.9929 229.144 82.2269 230.681 80.9399" stroke="#100D14" stroke-width="0.98" stroke-linecap="round" stroke-linejoin="round"/>
<path d="M219.55 61.6802L212.84 74.8102L217.92 76.1902" stroke="#100D14" stroke-width="0.98" stroke-linecap="round" stroke-linejoin="round"/>
<path d="M212.311 61.9806L212.077 61.9293C211.408 61.7831 210.747 62.2069 210.6 62.876L210.143 64.9666C209.997 65.6356 210.421 66.2966 211.09 66.4428L211.325 66.4941C211.994 66.6403 212.654 66.2165 212.801 65.5474L213.258 63.4568C213.404 62.7878 212.98 62.1268 212.311 61.9806Z" fill="#100D14"/>
<path d="M206.371 74.4701C211.794 74.4701 216.191 70.0735 216.191 64.6501C216.191 59.2266 211.794 54.8301 206.371 54.8301C200.947 54.8301 196.551 59.2266 196.551 64.6501C196.551 70.0735 200.947 74.4701 206.371 74.4701Z" stroke="#100D14" stroke-width="0.98" stroke-linecap="round" stroke-linejoin="round"/>
<path d="M236.421 65.3912L236.186 65.3401C235.517 65.194 234.856 65.6181 234.71 66.2872L234.254 68.378C234.108 69.0471 234.532 69.7078 235.201 69.8538L235.436 69.905C236.105 70.051 236.765 69.627 236.911 68.9579L237.368 66.8671C237.514 66.198 237.09 65.5372 236.421 65.3912Z" fill="#100D14"/>
<path d="M230.679 77.43C236.103 77.43 240.499 73.0335 240.499 67.61C240.499 62.1866 236.103 57.79 230.679 57.79C225.256 57.79 220.859 62.1866 220.859 67.61C220.859 73.0335 225.256 77.43 230.679 77.43Z" stroke="#100D14" stroke-width="0.98" stroke-linecap="round" stroke-linejoin="round"/>
<path d="M263.71 66.9298C270.71 60.1798 278.17 63.1798 277.26 72.1898C276.35 81.1998 268.56 88.5498 260.19 87.2498C255.83 78.5498 263.71 66.9298 263.71 66.9298Z" fill="#E5987D"/>
<path d="M272.96 68.2399C268.2 66.6799 263.2 74.6199 265.82 81.5099" stroke="#100D14" stroke-width="0.98" stroke-linecap="round" stroke-linejoin="round"/>
<path d="M265.08 76.7301C265.08 72.3101 272.08 72.8701 271.59 76.1901" stroke="#100D14" stroke-width="0.98" stroke-linecap="round" stroke-linejoin="round"/>
<path d="M193.65 131.99C193.65 131.99 198.03 138.37 225.12 138.24C252.21 138.11 269.36 118.85 269.36 118.85L265.55 139.78C265.55 139.78 269.22 137.11 293.24 131.86C317.26 126.61 329.77 139.31 330.52 160.23C331.27 181.15 306.25 203.67 306.25 203.67L291.58 300.55H183.39V202.17C183.39 202.17 160.12 183.9 162.12 164.17C164.12 144.44 182.02 136.17 197.12 140.98C195.65 138.35 193.65 131.99 193.65 131.99Z" fill="#3B49C9"/>
<path d="M236.77 190.7H270.63" stroke="#100D14" stroke-width="0.98" stroke-linecap="round" stroke-linejoin="round"/>
<path d="M236.77 184.62H270.63V207.4C270.63 209.787 269.681 212.076 267.993 213.764C266.306 215.452 264.016 216.4 261.63 216.4H245.79C243.403 216.4 241.113 215.452 239.426 213.764C237.738 212.076 236.79 209.787 236.79 207.4L236.77 184.62Z" stroke="#100D14" stroke-width="0.98" stroke-linecap="round" stroke-linejoin="round"/>
<path d="M165.64 152.63C149.11 180.63 136.1 212.18 136.1 212.18L183.39 221.94L185.64 180.94L165.64 152.63Z" fill="#3B49C9"/>
<path d="M185.651 180.9L183.391 244.71" stroke="#100D14" stroke-width="0.98" stroke-linecap="round" stroke-linejoin="round"/>
<path d="M261.711 157.63L269.361 118.85" stroke="#100D14" stroke-width="0.98" stroke-linecap="round" stroke-linejoin="round"/>
<path d="M203.49 155.48L193.65 131.99" stroke="#100D14" stroke-width="0.98" stroke-linecap="round" stroke-linejoin="round"/>
<path d="M177.811 186.42L185.171 194.33" stroke="#100D14" stroke-width="0.98" stroke-linecap="round" stroke-linejoin="round"/>
<path d="M378.43 182.9C385.43 184.49 378.64 204.17 353.12 214.18C327.6 224.19 308.5 214.18 308.5 214.18C308.5 214.18 324.18 177.82 378.43 182.9Z" fill="#100D14"/>
<path d="M350.28 172.41C350.28 172.41 366.85 200.55 382.56 221.94C409.56 258.72 358.32 289.42 330.56 247.46C308.56 214.18 305.66 209.68 305.66 209.68L350.28 172.41Z" fill="#E5987D"/>
<path d="M370.21 204.15L308.5 214.15C308.5 214.15 311.25 194.38 354.41 179.24L370.21 204.15Z" fill="#DB785E"/>
<path d="M301.121 130.75C326.741 128.85 331.891 153.63 355.121 168.27L378.391 182.9C378.391 182.9 345.991 185.66 325.471 198.67C307.321 210.18 308.471 214.18 308.471 214.18C308.471 214.18 289.201 184.4 283.201 169.64C277.201 154.88 278.961 132.38 301.121 130.75Z" fill="#3B49C9"/>
<path d="M387.431 253.327C394.243 239.586 388.626 222.924 374.885 216.112C361.144 209.3 344.483 214.917 337.67 228.658C330.858 242.399 336.475 259.061 350.216 265.873C363.957 272.685 380.619 267.068 387.431 253.327Z" fill="#E5987D"/>
<path d="M347.921 217.34L264.211 262.72L288.631 296.44L378.431 263.73L347.921 217.34Z" fill="#E5987D"/>
<path d="M286.689 262.39H263.409C258.047 262.39 253.699 266.737 253.699 272.1V274.03C253.699 279.393 258.047 283.74 263.409 283.74H286.689C292.052 283.74 296.399 279.393 296.399 274.03V272.1C296.399 266.737 292.052 262.39 286.689 262.39Z" fill="#E5987D"/>
<path d="M267.261 254.71H266.011C262.532 254.71 259.711 257.531 259.711 261.01V277.56C259.711 281.039 262.532 283.86 266.011 283.86H267.261C270.74 283.86 273.561 281.039 273.561 277.56V261.01C273.561 257.531 270.74 254.71 267.261 254.71Z" fill="#E5987D"/>
<path d="M251.445 239.87L250.362 240.495C247.349 242.234 246.317 246.087 248.056 249.1L256.331 263.433C258.071 266.446 261.924 267.479 264.937 265.739L266.02 265.114C269.033 263.374 270.065 259.521 268.326 256.508L260.051 242.175C258.311 239.162 254.458 238.13 251.445 239.87Z" fill="#E5987D"/>
<path d="M281.101 254.71H279.851C276.371 254.71 273.551 257.531 273.551 261.01V277.56C273.551 281.039 276.371 283.86 279.851 283.86H281.101C284.58 283.86 287.401 281.039 287.401 277.56V261.01C287.401 257.531 284.58 254.71 281.101 254.71Z" fill="#E5987D"/>
<path d="M294.95 254.71H293.7C290.221 254.71 287.4 257.531 287.4 261.01V277.56C287.4 281.039 290.221 283.86 293.7 283.86H294.95C298.43 283.86 301.25 281.039 301.25 277.56V261.01C301.25 257.531 298.43 254.71 294.95 254.71Z" fill="#E5987D"/>
<path d="M272.411 257.85C273.156 258.974 273.552 260.292 273.551 261.64V276.94C273.546 278.774 272.815 280.531 271.518 281.827C270.222 283.124 268.465 283.855 266.631 283.86C264.797 283.855 263.04 283.124 261.744 281.827C260.447 280.531 259.716 278.774 259.711 276.94V261.64C259.714 259.805 260.443 258.045 261.74 256.746C263.037 255.447 264.796 254.715 266.631 254.71" stroke="#100D14" stroke-width="0.98" stroke-linecap="round" stroke-linejoin="round"/>
<path d="M284.051 255.72C285.07 256.336 285.914 257.205 286.501 258.242C287.088 259.278 287.397 260.449 287.401 261.64V276.94C287.395 278.774 286.665 280.531 285.368 281.827C284.071 283.124 282.314 283.855 280.481 283.86C278.645 283.857 276.886 283.128 275.587 281.831C274.288 280.534 273.556 278.776 273.551 276.94V261.64C273.564 260.42 273.895 259.224 274.513 258.172C275.13 257.119 276.012 256.247 277.071 255.64" stroke="#100D14" stroke-width="0.98" stroke-linecap="round" stroke-linejoin="round"/>
<path d="M301.24 265.06V276.94C301.235 278.774 300.504 280.531 299.208 281.827C297.911 283.124 296.154 283.855 294.32 283.86C292.487 283.855 290.73 283.124 289.433 281.827C288.136 280.531 287.406 278.774 287.4 276.94V261.64C287.403 259.805 288.133 258.045 289.43 256.746C290.726 255.447 292.485 254.715 294.32 254.71H307.77" stroke="#100D14" stroke-width="0.98" stroke-linecap="round" stroke-linejoin="round"/>
<path d="M250.96 240.15C242.73 245.54 242.57 265.22 242.4 273.06C242.23 280.9 255.74 283.06 257.24 271.39C258.74 259.72 259.75 252.77 259.75 252.77L250.96 240.15Z" fill="#E5987D"/>
<path d="M250.96 240.15C242.73 245.54 242.57 265.22 242.4 273.06C242.23 280.9 255.74 283.06 257.24 271.39C258.74 259.72 259.75 252.77 259.75 252.77" stroke="#100D14" stroke-width="0.98" stroke-linecap="round" stroke-linejoin="round"/>
<path d="M301.24 268.73C301.24 268.73 302.16 275.73 307.77 276.36" stroke="#100D14" stroke-width="0.98" stroke-linecap="round" stroke-linejoin="round"/>
<path d="M342.929 220.05L272.609 258.17" stroke="#100D14" stroke-width="0.98" stroke-linecap="round" stroke-linejoin="round"/>
<path d="M320.461 232.23L285.561 177.57" stroke="#100D14" stroke-width="0.98" stroke-linecap="round" stroke-linejoin="round"/>
<path d="M326.601 220.05L320.461 232.23" stroke="#100D14" stroke-width="0.98" stroke-linecap="round" stroke-linejoin="round"/>
<path d="M344.199 159.71C348.719 164.03 353.199 167.64 357.429 169.43" stroke="#EFF6FF" stroke-width="0.98" stroke-linecap="round" stroke-linejoin="round"/>
<path d="M265.551 139.55C290.231 130.88 305.551 125.96 317.471 133.84C323.181 137.6 329.611 144.65 336.171 151.57" stroke="#EFF6FF" stroke-width="0.98" stroke-linecap="round" stroke-linejoin="round"/>
<path d="M128.81 83.2202C122.55 103.75 84.1797 222.35 84.1797 222.35L128.81 235.86L166.25 130.61L186.77 126.19C194.11 124.6 196.53 110.67 182.68 112.93L168.84 115.18L174.34 93.1802L128.81 83.2202Z" fill="#E5987D"/>
<path d="M102.031 167.09L145.411 189.19L136.061 222.69L91.7207 199.02L102.031 167.09Z" fill="#DB785E"/>
<path d="M193.401 70.1799C201.661 64.4299 209.541 73.8998 200.781 80.5498C192.021 87.1998 170.781 103.71 170.781 103.71L162.631 91.5498C162.631 91.5498 186.711 74.8499 193.401 70.1799Z" fill="#E5987D"/>
<path d="M139.64 80.18C140.575 80.6043 141.416 81.2128 142.11 81.9693C142.805 82.7258 143.341 83.6146 143.684 84.5827C144.028 85.5507 144.172 86.5782 144.11 87.6035C144.047 88.6288 143.778 89.6309 143.32 90.55C142.251 92.3519 140.527 93.6706 138.509 94.2298C136.49 94.789 134.333 94.5454 132.49 93.55C131.558 93.1255 130.721 92.518 130.029 91.7638C129.337 91.0096 128.803 90.1239 128.46 89.1593C128.117 88.1948 127.971 87.1711 128.031 86.1491C128.091 85.1271 128.356 84.1276 128.81 83.21C130.78 79.55 135.63 78.17 139.64 80.18Z" fill="#E5987D"/>
<path d="M149.881 83.3602C153.881 85.3602 155.541 90.0002 153.561 93.6902C152.498 95.4952 150.776 96.817 148.757 97.3766C146.738 97.9363 144.581 97.6902 142.741 96.6902C141.809 96.2678 140.971 95.662 140.278 94.9088C139.585 94.1557 139.051 93.2706 138.708 92.3065C138.364 91.3424 138.218 90.319 138.279 89.2974C138.34 88.2757 138.606 87.2768 139.061 86.3602C140.127 84.5589 141.85 83.2405 143.867 82.6812C145.884 82.1219 148.039 82.3652 149.881 83.3602Z" fill="#E5987D"/>
<path d="M148.906 82.9563L138.285 79.6606L133.801 94.1109L144.421 97.4066L148.906 82.9563Z" fill="#E5987D"/>
<path d="M153.3 80.7101C154.182 81.111 154.974 81.6852 155.629 82.3985C156.285 83.1119 156.79 83.9497 157.114 84.8622C157.439 85.7747 157.577 86.7432 157.519 87.7101C157.462 88.677 157.211 89.6224 156.78 90.4901C155.775 92.2017 154.146 93.4576 152.235 93.9946C150.325 94.5315 148.28 94.3077 146.53 93.3701C145.649 92.9692 144.857 92.395 144.202 91.6817C143.546 90.9684 143.041 90.1305 142.717 89.218C142.392 88.3055 142.254 87.337 142.311 86.3702C142.369 85.4033 142.62 84.4579 143.05 83.5901C144.057 81.8805 145.686 80.6262 147.596 80.0894C149.507 79.5527 151.55 79.7751 153.3 80.7101Z" fill="#E5987D"/>
<path d="M162.961 83.7199C163.842 84.1207 164.634 84.6949 165.289 85.4082C165.945 86.1216 166.45 86.9594 166.774 87.8719C167.099 88.7844 167.237 89.753 167.18 90.7198C167.122 91.6867 166.871 92.6321 166.441 93.4999C165.435 95.2114 163.807 96.4674 161.896 97.0043C159.985 97.5412 157.94 97.3174 156.191 96.3798C155.309 95.9789 154.517 95.4048 153.862 94.6914C153.206 93.9781 152.701 93.1403 152.377 92.2278C152.052 91.3152 151.914 90.3467 151.972 89.3799C152.029 88.413 152.28 87.4676 152.711 86.5998C153.716 84.8882 155.345 83.6323 157.256 83.0954C159.166 82.5585 161.211 82.7823 162.961 83.7199Z" fill="#E5987D"/>
<path d="M162.067 83.3273L152.02 80.2095L147.775 93.8861L157.823 97.0039L162.067 83.3273Z" fill="#E5987D"/>
<path d="M164.21 96.05C167.115 100.638 169.785 105.371 172.21 110.23C175.44 116.93 187.53 111.76 182.93 99.84C181.099 95.0809 178.384 90.7108 174.93 86.96L164.17 96.05" fill="#E5987D"/>
<path d="M176.651 88.9501C177.352 90.18 177.674 91.5904 177.574 93.0028C177.474 94.4153 176.957 95.7663 176.09 96.8853C175.222 98.0042 174.042 98.8408 172.699 99.2892C171.356 99.7376 169.91 99.7777 168.544 99.4044C167.178 99.0311 165.954 98.2613 165.025 97.1921C164.097 96.123 163.506 94.8025 163.328 93.3978C163.15 91.9931 163.393 90.5671 164.025 89.3002C164.657 88.0333 165.651 86.9823 166.881 86.2801C168.531 85.3408 170.486 85.0944 172.318 85.5949C174.15 86.0955 175.708 87.3021 176.651 88.9501Z" fill="#E5987D"/>
<path d="M164.211 96.05C167.116 100.638 169.786 105.371 172.211 110.23C175.441 116.93 187.531 111.76 182.931 99.84C181.1 95.0809 178.385 90.7108 174.931 86.96C172.701 84.55 167.731 84.8199 165.751 87.0399" stroke="#100D14" stroke-width="0.98" stroke-linecap="round" stroke-linejoin="round"/>
<path d="M153.26 90.4199C153.507 95.7276 153.487 101.044 153.2 106.35C152.7 113.61 165.48 115.08 167.34 102.72C168.099 97.7969 167.915 92.7745 166.8 87.9199L153.26 90.4199Z" fill="#E5987D"/>
<path d="M167.27 90.4199C167.27 91.8044 166.859 93.1578 166.09 94.3089C165.321 95.4601 164.227 96.3573 162.948 96.8871C161.669 97.4169 160.262 97.5555 158.904 97.2854C157.546 97.0153 156.299 96.3486 155.32 95.3697C154.341 94.3907 153.674 93.1434 153.404 91.7856C153.134 90.4277 153.273 89.0202 153.802 87.7411C154.332 86.4621 155.229 85.3688 156.381 84.5996C157.532 83.8305 158.885 83.4199 160.27 83.4199C162.126 83.4199 163.907 84.1574 165.219 85.4702C166.532 86.7829 167.27 88.5634 167.27 90.4199Z" fill="#E5987D"/>
<path d="M164.63 84.9502C167.5 88.5702 168.21 94.8902 167.48 101.66C166.75 108.43 163.83 112.15 158.25 111.91C152.67 111.67 152.32 105.09 152.32 105.09" stroke="#100D14" stroke-width="0.98" stroke-linecap="round" stroke-linejoin="round"/>
<path d="M140.41 90.6599C140.662 95.954 140.645 101.257 140.36 106.55C139.86 113.81 152.63 115.27 154.49 102.92C155.244 98.007 155.064 92.9961 153.96 88.1499L140.41 90.6599Z" fill="#E5987D"/>
<path d="M154.42 90.6602C154.42 92.0446 154.009 93.398 153.24 94.5492C152.471 95.7003 151.378 96.5975 150.099 97.1273C148.82 97.6571 147.412 97.7958 146.054 97.5257C144.696 97.2556 143.449 96.5889 142.47 95.6099C141.491 94.631 140.825 93.3837 140.554 92.0258C140.284 90.668 140.423 89.2605 140.953 87.9814C141.483 86.7023 142.38 85.609 143.531 84.8399C144.682 84.0707 146.035 83.6602 147.42 83.6602C149.276 83.6602 151.057 84.3977 152.37 85.7104C153.682 87.0232 154.42 88.8036 154.42 90.6602Z" fill="#E5987D"/>
<path d="M141.37 80.5498C141.37 80.5498 147.51 82.6998 151.75 84.6398C155.99 86.5798 154.94 97.8698 154.59 102.27C154.24 106.67 151.22 111.85 146.31 112.14C141.4 112.43 140 109.65 140.53 103C140.846 98.8907 140.805 94.762 140.41 90.6598" stroke="#100D14" stroke-width="0.98" stroke-linecap="round" stroke-linejoin="round"/>
<path d="M133.82 94.0898L140.61 96.2098" stroke="#100D14" stroke-width="0.98" stroke-linecap="round" stroke-linejoin="round"/>
<path d="M144.961 126.94C145.658 124.614 146.945 122.508 148.698 120.828C150.45 119.147 152.608 117.949 154.961 117.35" stroke="#100D14" stroke-width="0.98" stroke-linecap="round" stroke-linejoin="round"/>
<path d="M161.25 131.36L185.61 126.44" stroke="#100D14" stroke-width="0.98" stroke-linecap="round" stroke-linejoin="round"/>
<path d="M457.6 14.13V77.4C457.604 79.2568 457.242 81.0961 456.534 82.8127C455.826 84.5293 454.787 86.0894 453.475 87.4038C452.164 88.7181 450.606 89.7608 448.891 90.4723C447.176 91.1838 445.337 91.55 443.48 91.55H355.01L318.17 102.55C317.622 102.712 317.037 102.7 316.496 102.516C315.955 102.332 315.484 101.985 315.147 101.523C314.811 101.06 314.626 100.505 314.617 99.9337C314.609 99.3621 314.778 98.8019 315.1 98.33L329.53 77.46V14.13C329.531 13.3557 329.598 12.5829 329.73 11.82C330.271 8.51704 331.97 5.51432 334.522 3.34882C337.074 1.18333 340.313 -0.00368498 343.66 8.59388e-06H443.48C446.827 -0.00166794 450.065 1.1861 452.616 3.35124C455.168 5.51637 456.867 8.51791 457.41 11.82C457.539 12.5832 457.602 13.356 457.6 14.13Z" fill="#FFDBC7"/>
<path d="M380.07 47.4398V33.2198C380.069 32.7252 380.198 32.239 380.444 31.8102C380.69 31.3815 381.046 31.0253 381.474 30.7778C381.902 30.5302 382.388 30.4 382.882 30.4004C383.377 30.4007 383.863 30.5316 384.29 30.7798L396.61 37.8898L408.96 45.0098C409.386 45.2582 409.739 45.6138 409.984 46.041C410.229 46.4682 410.358 46.9522 410.358 47.4448C410.358 47.9373 410.229 48.4214 409.984 48.8486C409.739 49.2758 409.386 49.6313 408.96 49.8798L396.64 56.9898L384.32 64.0998C383.893 64.3475 383.409 64.4783 382.915 64.4791C382.421 64.4799 381.936 64.3506 381.508 64.1043C381.08 63.8579 380.725 63.5032 380.478 63.0758C380.231 62.6484 380.1 62.1635 380.1 61.6698L380.07 47.4398Z" fill="#FF7426"/>
<path d="M457.41 11.82H329.73C330.272 8.51704 331.97 5.51432 334.522 3.34882C337.074 1.18333 340.313 -0.00368498 343.66 8.59388e-06H443.48C446.827 -0.00166794 450.065 1.1861 452.617 3.35124C455.168 5.51637 456.867 8.51791 457.41 11.82Z" fill="#2E2E2E"/>
<path d="M347.281 5.90983C347.275 6.17194 347.192 6.42648 347.041 6.64142C346.891 6.85636 346.681 7.02212 346.437 7.11789C346.193 7.21367 345.926 7.23516 345.67 7.17969C345.413 7.12422 345.179 6.99426 344.997 6.80613C344.814 6.61799 344.691 6.38008 344.643 6.12229C344.596 5.8645 344.625 5.59834 344.728 5.35724C344.831 5.11615 345.003 4.91087 345.222 4.76722C345.442 4.62356 345.699 4.54794 345.961 4.54984C346.137 4.55112 346.311 4.58747 346.474 4.65677C346.636 4.72607 346.783 4.82693 346.905 4.9535C347.028 5.08006 347.125 5.22977 347.189 5.39396C347.254 5.55814 347.285 5.7335 347.281 5.90983Z" fill="#C9493B"/>
<path d="M353.199 7.24008C353.934 7.24008 354.529 6.64462 354.529 5.91008C354.529 5.17554 353.934 4.58008 353.199 4.58008C352.465 4.58008 351.869 5.17554 351.869 5.91008C351.869 6.64462 352.465 7.24008 353.199 7.24008Z" fill="#E6C75B"/>
<path d="M360.461 7.24008C361.195 7.24008 361.791 6.64462 361.791 5.91008C361.791 5.17554 361.195 4.58008 360.461 4.58008C359.726 4.58008 359.131 5.17554 359.131 5.91008C359.131 6.64462 359.726 7.24008 360.461 7.24008Z" fill="#5E9F63"/>
<path d="M61.1904 197.17H211.96C213.024 197.165 214.065 197.473 214.955 198.056C215.844 198.64 216.542 199.472 216.96 200.45L256.5 292.97C256.852 293.794 256.992 294.693 256.91 295.586C256.828 296.478 256.526 297.336 256.03 298.083C255.534 298.829 254.861 299.441 254.07 299.863C253.28 300.285 252.397 300.504 251.5 300.5H99.8004C98.7323 300.502 97.6876 300.188 96.7978 299.597C95.908 299.006 95.213 298.165 94.8004 297.18L56.1904 204.66C55.8452 203.838 55.709 202.942 55.7942 202.055C55.8793 201.167 56.1831 200.314 56.6783 199.572C57.1735 198.83 57.8448 198.222 58.6322 197.803C59.4196 197.384 60.2985 197.167 61.1904 197.17Z" fill="#545462"/>
<path d="M354.419 283.86H244.449V300.5H354.419V283.86Z" fill="#EFF6FF"/>
<path d="M252.6 283.86H89.25L96.2 300.5H259.71L252.6 283.86Z" fill="#444453"/>
<path d="M159.41 242.32C161.05 248.18 157.63 252.93 151.76 252.93C145.89 252.93 139.81 248.18 138.17 242.32C136.53 236.46 139.95 231.7 145.81 231.7C151.67 231.7 157.76 236.45 159.41 242.32Z" fill="#FF7426"/>
</g>
<defs>
<clipPath id="clip0_703_9628">
<rect width="457.61" height="328" fill="white"/>
</clipPath>
</defs>
</svg>
