<svg width="288" height="288" viewBox="0 0 288 288" fill="none" xmlns="http://www.w3.org/2000/svg">
<circle cx="144" cy="144" r="144" fill="url(#paint0_linear_4174_3341)"/>
<path opacity="0.75" d="M196.342 178.208L193.652 195.52C192.91 200.292 188.8 203.812 183.974 203.812H173.518C173.518 203.084 173.418 202.072 173.12 200.674C172.228 196.478 167.97 196.118 167.97 196.118L169.102 187.188L165.708 194.866C163.566 193.17 162.208 195.492 162.208 195.492C162.208 195.492 157.85 194.064 155.17 197.726C152.49 201.388 154.634 202.906 154.634 202.906C154.634 202.906 154.02 203.214 153.212 203.81H81.0763C75.2763 203.81 70.7463 198.798 71.3323 193.028L72.8363 178.204H95.8603L98.9683 190.756C99.5223 192.994 101.526 194.564 103.828 194.564H147.282C149.426 194.564 151.332 193.198 152.022 191.174L156.446 178.206H196.34L196.342 178.208Z" fill="#9CA3C7"/>
<path d="M95.8599 178.208H72.8359L79.5879 111.592C79.5659 112.07 79.6119 112.562 79.7319 113.054L95.8599 178.206V178.208Z" fill="#9CA3C7"/>
<path d="M198.011 167.474L196.343 178.206H156.449L158.955 170.864C159.649 168.838 161.555 167.474 163.695 167.474H198.009H198.011Z" fill="#9CA3C7"/>
<path d="M183.974 204.412H172.918V203.812C172.918 203.01 172.788 201.996 172.534 200.8C171.744 197.082 167.96 196.72 167.922 196.718L167.298 196.666L167.992 191.19L165.944 195.822L165.336 195.34C164.844 194.95 164.376 194.79 163.95 194.87C163.21 195.006 162.73 195.792 162.726 195.8L162.48 196.212L162.022 196.066C161.862 196.014 158.038 194.83 155.654 198.084C153.4 201.164 154.922 202.376 154.988 202.426L155.756 203.008L154.904 203.446C154.904 203.446 154.32 203.742 153.57 204.296L153.412 204.412H81.0764C78.1424 204.412 75.3324 203.164 73.3644 200.986C71.3984 198.81 70.4404 195.888 70.7364 192.97L72.2944 177.606H96.3304L99.5504 190.614C100.038 192.588 101.798 193.966 103.828 193.966H147.282C149.17 193.966 150.846 192.766 151.454 190.982L156.018 177.608H197.042L194.246 195.614C193.454 200.714 189.134 204.414 183.974 204.414V204.412ZM174.098 203.212H183.974C188.538 203.212 192.358 199.938 193.06 195.428L195.642 178.808H156.878L152.592 191.37C151.82 193.64 149.686 195.166 147.284 195.166H103.83C101.246 195.166 99.0084 193.412 98.3864 190.902L95.3904 178.806H73.3764L71.9284 193.09C71.6664 195.67 72.5144 198.256 74.2524 200.18C75.9924 202.106 78.4784 203.21 81.0744 203.21H153.018C153.272 203.028 153.506 202.874 153.704 202.752C153.522 202.468 153.348 202.084 153.268 201.594C153.066 200.354 153.544 198.934 154.688 197.372C157.076 194.11 160.718 194.546 161.964 194.812C162.284 194.42 162.884 193.846 163.724 193.688C164.296 193.58 164.874 193.678 165.448 193.978L170.218 183.188L168.642 195.624C169.952 195.92 172.952 196.976 173.71 200.546C173.924 201.55 174.054 202.442 174.102 203.208L174.098 203.212Z" fill="#9CA3C7"/>
<path d="M96.6279 178.808H72.1719L78.9899 111.532L80.1859 111.62C80.1659 112.054 80.2099 112.488 80.3139 112.912L96.6259 178.808H96.6279ZM73.4999 177.608H95.0939L79.7719 115.718L73.4999 177.608Z" fill="#9CA3C7"/>
<path d="M196.855 178.808H155.609L158.387 170.672C159.165 168.4 161.297 166.876 163.695 166.876H198.709L196.855 178.808ZM157.285 177.608H195.827L197.307 168.076H163.693C161.809 168.076 160.131 169.276 159.521 171.06L157.285 177.608Z" fill="#9CA3C7"/>
<path opacity="0.5" d="M216.061 161.18L202.599 110.566C202.015 108.37 200.027 106.844 197.759 106.844H84.5974C81.8614 106.844 79.7354 109.002 79.5934 111.566C79.5934 111.574 79.5914 111.586 79.5914 111.594C79.5694 112.072 79.6134 112.562 79.7354 113.056L98.9714 190.76C99.5234 192.998 101.531 194.566 103.833 194.566H147.285C149.429 194.566 151.335 193.202 152.027 191.176L158.957 170.868C159.651 168.842 161.557 167.478 163.699 167.478H211.223C214.513 167.478 216.911 164.362 216.065 161.182L216.061 161.18ZM204.251 157.704H169.455C168.515 157.704 167.693 157.062 167.465 156.146L165.907 149.884C165.585 148.59 166.563 147.338 167.897 147.338H202.431C203.343 147.338 204.147 147.938 204.401 148.818L206.219 155.08C206.601 156.39 205.615 157.704 204.249 157.704H204.251Z" fill="#9CA3C7"/>
<path d="M147.282 195.166H103.83C101.244 195.166 99.0059 193.414 98.3859 190.904L79.1499 113.2C79.0199 112.664 78.9659 112.12 78.9899 111.58L78.9939 111.516C79.1679 108.558 81.6259 106.246 84.5979 106.246H197.76C200.298 106.246 202.526 107.96 203.18 110.414L216.642 161.028C217.092 162.726 216.738 164.496 215.668 165.888C214.598 167.28 212.976 168.078 211.22 168.078H163.698C161.812 168.078 160.136 169.278 159.524 171.064L152.594 191.372C151.82 193.644 149.686 195.17 147.286 195.17L147.282 195.166ZM80.1859 111.64C80.1679 112.064 80.2099 112.492 80.3139 112.912L99.5499 190.614C100.038 192.586 101.798 193.964 103.83 193.964H147.282C149.17 193.964 150.846 192.764 151.456 190.98L158.386 170.67C159.162 168.398 161.296 166.872 163.694 166.872H211.216C212.596 166.872 213.87 166.244 214.712 165.15C215.554 164.056 215.832 162.664 215.478 161.33L202.016 110.716C201.502 108.786 199.752 107.44 197.756 107.44H84.5959C82.2599 107.44 80.3299 109.256 80.1919 111.578L80.1879 111.636L80.1859 111.64ZM80.1839 111.656V111.664C80.1839 111.664 80.1839 111.658 80.1839 111.656ZM78.9959 111.492C78.9959 111.492 78.9959 111.496 78.9959 111.5V111.492Z" fill="#9CA3C7"/>
<path d="M204.252 158.304H169.456C168.236 158.304 167.178 157.476 166.884 156.29L165.326 150.028C165.128 149.232 165.304 148.404 165.808 147.756C166.314 147.108 167.076 146.736 167.898 146.736H202.432C203.604 146.736 204.652 147.522 204.978 148.648L206.798 154.91C207.034 155.718 206.878 156.568 206.372 157.242C205.866 157.916 205.092 158.302 204.25 158.302L204.252 158.304ZM167.898 147.938C167.448 147.938 167.032 148.142 166.754 148.496C166.478 148.85 166.382 149.304 166.49 149.738L168.048 156C168.21 156.65 168.788 157.102 169.456 157.102H204.252C204.712 157.102 205.136 156.89 205.414 156.522C205.69 156.152 205.776 155.688 205.648 155.246L203.828 148.984C203.648 148.368 203.076 147.938 202.434 147.938H167.9H167.898Z" fill="#9CA3C7"/>
<path d="M127.91 115.972H87.7758C87.4438 115.972 87.1758 115.704 87.1758 115.372C87.1758 115.04 87.4438 114.772 87.7758 114.772H127.91C128.242 114.772 128.51 115.04 128.51 115.372C128.51 115.704 128.242 115.972 127.91 115.972Z" fill="#9CA3C7"/>
<path d="M131.351 122.088H91.2172C90.8852 122.088 90.6172 121.82 90.6172 121.488C90.6172 121.156 90.8852 120.888 91.2172 120.888H131.351C131.683 120.888 131.951 121.156 131.951 121.488C131.951 121.82 131.683 122.088 131.351 122.088Z" fill="#9CA3C7"/>
<path d="M204.253 157.704H169.457C168.517 157.704 167.695 157.062 167.467 156.146L165.909 149.884C165.587 148.59 166.565 147.338 167.899 147.338H202.433C203.345 147.338 204.149 147.938 204.403 148.818L206.221 155.08C206.603 156.39 205.617 157.704 204.251 157.704H204.253Z" fill="#9CA3C7"/>
<path d="M164.87 240.016C164.146 240.016 163.4 240.01 162.654 239.998C162.322 239.992 162.058 239.72 162.064 239.388C162.07 239.06 162.336 238.798 162.664 238.798H162.674C164.314 238.824 165.932 238.822 167.45 238.79C167.786 238.774 168.056 239.046 168.062 239.378C168.068 239.71 167.806 239.984 167.474 239.99C166.63 240.008 165.754 240.016 164.868 240.016H164.87ZM157.868 239.848C157.868 239.848 157.85 239.848 157.84 239.848C157.43 239.83 157.016 239.808 156.596 239.786C156.266 239.768 156.012 239.486 156.028 239.156C156.046 238.826 156.326 238.568 156.658 238.588C157.074 238.61 157.484 238.63 157.892 238.648C158.224 238.664 158.48 238.944 158.464 239.274C158.45 239.596 158.184 239.846 157.866 239.846L157.868 239.848ZM172.256 239.784C171.942 239.784 171.68 239.542 171.658 239.224C171.636 238.894 171.886 238.608 172.216 238.586C173.866 238.476 175.46 238.324 176.956 238.134C177.284 238.094 177.586 238.326 177.626 238.654C177.668 238.982 177.434 239.284 177.106 239.324C175.588 239.516 173.97 239.67 172.296 239.782C172.282 239.782 172.268 239.782 172.256 239.782V239.784ZM181.762 238.548C181.484 238.548 181.234 238.354 181.176 238.07C181.108 237.746 181.316 237.428 181.64 237.36C183.27 237.02 184.808 236.614 186.21 236.154C186.524 236.052 186.864 236.222 186.968 236.538C187.072 236.854 186.9 237.192 186.584 237.296C185.14 237.77 183.56 238.188 181.886 238.536C181.844 238.544 181.804 238.548 181.762 238.548ZM190.82 235.49C190.604 235.49 190.394 235.372 190.288 235.166C190.134 234.872 190.25 234.51 190.544 234.356C192.002 233.598 193.298 232.728 194.394 231.77C194.644 231.552 195.022 231.578 195.24 231.828C195.458 232.078 195.432 232.456 195.182 232.674C194.014 233.694 192.64 234.618 191.098 235.42C191.01 235.466 190.914 235.488 190.822 235.488L190.82 235.49ZM197.868 229.18C197.762 229.18 197.656 229.152 197.558 229.094C197.274 228.922 197.184 228.554 197.354 228.27C198.126 226.994 198.71 225.562 199.088 224.016C199.166 223.694 199.492 223.498 199.814 223.576C200.136 223.654 200.332 223.98 200.254 224.302C199.846 225.966 199.216 227.51 198.382 228.892C198.27 229.078 198.072 229.182 197.868 229.182V229.18ZM200.254 220.004C200.254 220.004 200.246 220.004 200.242 220.004C199.91 219.998 199.648 219.724 199.654 219.392C199.658 219.22 199.658 219.046 199.658 218.874C199.658 217.58 199.57 216.208 199.392 214.684C199.354 214.354 199.588 214.056 199.918 214.018C200.248 213.982 200.546 214.216 200.584 214.544C200.768 216.116 200.858 217.532 200.858 218.874C200.858 219.054 200.858 219.236 200.852 219.416C200.846 219.744 200.578 220.004 200.252 220.004H200.254ZM199.242 210.472C198.96 210.472 198.708 210.27 198.654 209.982C198.458 208.938 198.248 207.898 198.044 206.892C197.934 206.348 197.826 205.81 197.72 205.28C197.656 204.954 197.868 204.64 198.192 204.574C198.516 204.512 198.832 204.722 198.896 205.046C199 205.574 199.108 206.112 199.218 206.654C199.326 207.188 199.436 207.734 199.544 208.284C199.584 208.272 199.628 208.264 199.672 208.26C201.322 208.13 202.832 207.794 204.16 207.26C204.468 207.136 204.816 207.286 204.94 207.594C205.064 207.902 204.914 208.25 204.606 208.374C203.166 208.952 201.54 209.316 199.772 209.456C199.792 209.558 199.81 209.66 199.83 209.762C199.892 210.088 199.676 210.402 199.352 210.462C199.314 210.47 199.278 210.472 199.24 210.472H199.242ZM194.934 209.326C194.908 209.326 194.882 209.326 194.856 209.322C193.188 209.108 191.582 208.708 190.084 208.132C189.774 208.014 189.62 207.666 189.738 207.356C189.856 207.046 190.204 206.892 190.514 207.01C191.924 207.55 193.436 207.926 195.01 208.13C195.338 208.172 195.57 208.474 195.528 208.802C195.49 209.104 195.23 209.326 194.934 209.326ZM186.092 205.91C185.972 205.91 185.85 205.874 185.744 205.798C184.444 204.872 183.218 203.76 182.1 202.492C181.88 202.244 181.904 201.864 182.152 201.646C182.4 201.426 182.78 201.45 182.998 201.698C184.056 202.896 185.214 203.948 186.44 204.82C186.71 205.012 186.772 205.386 186.58 205.656C186.462 205.82 186.278 205.908 186.09 205.908L186.092 205.91ZM208.35 205.782C208.202 205.782 208.052 205.728 207.936 205.616C207.696 205.388 207.686 205.008 207.916 204.768C208.966 203.666 209.714 202.362 210.142 200.894C210.234 200.576 210.568 200.392 210.886 200.486C211.204 200.578 211.388 200.912 211.294 201.23C210.812 202.886 209.968 204.354 208.786 205.598C208.668 205.722 208.51 205.784 208.352 205.784L208.35 205.782ZM197.51 201.028C197.21 201.028 196.952 200.804 196.916 200.5C196.792 199.468 196.732 198.568 196.732 197.748C196.732 196.928 196.792 196.206 196.914 195.538C196.974 195.212 197.286 194.996 197.612 195.056C197.938 195.116 198.154 195.428 198.094 195.754C197.986 196.35 197.932 197.002 197.932 197.748C197.932 198.494 197.99 199.374 198.108 200.358C198.148 200.688 197.912 200.986 197.584 201.026C197.56 201.028 197.536 201.03 197.512 201.03L197.51 201.028ZM179.736 198.818C179.532 198.818 179.334 198.714 179.22 198.526C178.42 197.192 177.682 195.724 177.024 194.164C176.896 193.858 177.038 193.506 177.344 193.378C177.65 193.25 178.002 193.392 178.13 193.698C178.766 195.206 179.478 196.624 180.248 197.91C180.418 198.194 180.326 198.562 180.042 198.734C179.946 198.792 179.84 198.82 179.734 198.82L179.736 198.818ZM210.952 196.91C210.67 196.91 210.418 196.71 210.364 196.422C210.068 194.868 209.376 193.474 208.412 192.5C208.18 192.264 208.182 191.884 208.418 191.652C208.654 191.42 209.034 191.422 209.266 191.658C210.412 192.818 211.198 194.388 211.542 196.2C211.604 196.526 211.39 196.84 211.064 196.902C211.026 196.91 210.988 196.912 210.952 196.912V196.91ZM200.004 192.328C199.802 192.328 199.606 192.226 199.492 192.042C199.318 191.76 199.406 191.39 199.69 191.216C199.74 191.184 199.792 191.154 199.844 191.124C201.458 190.194 203.032 189.714 204.52 189.698H204.526C204.854 189.698 205.122 189.962 205.126 190.292C205.13 190.624 204.864 190.894 204.532 190.898C203.252 190.912 201.874 191.338 200.44 192.164C200.398 192.188 200.356 192.214 200.316 192.238C200.218 192.298 200.11 192.326 200.002 192.326L200.004 192.328ZM175.97 190.004C175.712 190.004 175.472 189.836 175.394 189.574C174.948 188.07 174.556 186.482 174.228 184.854C174.162 184.53 174.374 184.212 174.698 184.148C175.022 184.082 175.34 184.292 175.404 184.618C175.724 186.21 176.108 187.764 176.544 189.234C176.638 189.552 176.458 189.886 176.14 189.98C176.084 189.996 176.026 190.004 175.97 190.004ZM174.058 180.584C173.758 180.584 173.5 180.36 173.462 180.056C173.114 177.15 173.094 175.256 173.094 175.176C173.092 174.844 173.358 174.574 173.688 174.57C174.028 174.568 174.29 174.834 174.294 175.164C174.294 175.182 174.316 177.076 174.654 179.912C174.694 180.242 174.458 180.54 174.13 180.578C174.106 180.58 174.082 180.582 174.058 180.582V180.584Z" fill="#9CA3C7"/>
<path opacity="0.75" d="M140 233.648C140.712 233.192 141.594 232.858 142.582 232.676C143.19 231.94 143.922 231.216 144.764 230.538C145.962 229.57 147.218 228.834 148.39 228.364C148.518 225.832 147.832 223.868 146.478 223.454C144.528 222.854 141.926 225.69 140.668 229.788C140.254 231.142 140.036 232.466 140.002 233.648H140Z" fill="#9CA3C7"/>
<path d="M139.367 234.766L139.401 233.63C139.439 232.362 139.677 230.972 140.093 229.612C140.727 227.546 141.713 225.714 142.869 224.454C144.131 223.078 145.475 222.518 146.651 222.88C148.263 223.372 149.135 225.434 148.985 228.392L148.965 228.776L148.609 228.918C147.449 229.384 146.247 230.106 145.137 231.002C144.347 231.638 143.643 232.328 143.041 233.056L142.903 233.224L142.689 233.264C141.785 233.432 140.967 233.738 140.323 234.152L139.367 234.764V234.766ZM145.939 223.974C145.297 223.974 144.523 224.426 143.755 225.264C142.717 226.396 141.823 228.066 141.241 229.964C140.969 230.854 140.779 231.756 140.679 232.618C141.167 232.41 141.699 232.244 142.259 232.128C142.881 231.4 143.595 230.708 144.387 230.07C145.473 229.192 146.647 228.466 147.801 227.958C147.835 225.876 147.249 224.316 146.301 224.026C146.187 223.99 146.065 223.974 145.939 223.974Z" fill="#9CA3C7"/>
<path d="M144.815 242.468C149.011 243.336 152.863 241.864 153.417 239.184C153.749 237.586 152.829 235.92 151.147 234.652C150.637 235.214 150.051 235.768 149.403 236.292C146.065 238.982 142.321 239.878 141.039 238.29C140.775 237.96 140.635 237.554 140.611 237.09C140.547 235.868 141.273 234.26 142.581 232.678C141.593 232.862 140.711 233.194 139.999 233.65H139.997C139.057 234.254 138.417 235.068 138.215 236.046C137.661 238.726 140.613 241.602 144.815 242.47V242.468Z" fill="#9CA3C7"/>
<path opacity="0.5" d="M151.147 234.65C150.639 235.21 150.051 235.766 149.405 236.29C146.067 238.98 142.323 239.876 141.041 238.288C140.777 237.956 140.635 237.552 140.613 237.086C140.549 235.864 141.275 234.256 142.583 232.674C143.191 231.938 143.923 231.214 144.765 230.536C145.965 229.568 147.219 228.832 148.389 228.362C150.475 227.522 152.303 227.518 153.123 228.538C154.157 229.818 153.279 232.318 151.149 234.65H151.147Z" fill="#9CA3C7"/>
<path d="M143.053 239.662C141.989 239.662 141.117 239.34 140.573 238.666C140.231 238.238 140.043 237.718 140.013 237.118C139.941 235.738 140.689 234.024 142.121 232.294C142.771 231.508 143.533 230.76 144.389 230.07C145.595 229.096 146.901 228.314 148.167 227.808C150.597 226.83 152.625 226.962 153.591 228.164C154.817 229.68 154.033 232.386 151.593 235.056C151.057 235.646 150.449 236.22 149.785 236.758C147.447 238.642 144.947 239.664 143.055 239.664L143.053 239.662ZM151.117 228.35C150.417 228.35 149.557 228.54 148.613 228.92C147.457 229.384 146.257 230.104 145.141 231.004C144.349 231.642 143.643 232.332 143.045 233.058C141.841 234.512 141.155 236.006 141.211 237.056C141.229 237.406 141.325 237.686 141.509 237.914C142.425 239.05 145.741 238.472 149.029 235.824C149.645 235.324 150.209 234.794 150.703 234.248C152.627 232.14 153.447 229.9 152.653 228.916C152.349 228.538 151.811 228.35 151.115 228.35H151.117Z" fill="#9CA3C7"/>
<path opacity="0.25" d="M174.997 211.216C174.551 214.608 173.121 215.412 173.121 215.412C173.121 215.412 173.747 219.162 171.961 221.128C170.175 223.092 166.425 221.842 166.425 221.842C166.425 221.842 164.163 224.252 159.533 223.182C154.903 222.108 155.173 216.928 155.173 216.928C155.173 216.928 150.351 217.018 149.457 211.48C148.847 207.704 151.481 205.09 153.215 203.81C154.023 203.214 154.637 202.906 154.637 202.906C154.637 202.906 152.493 201.386 155.173 197.726C157.853 194.064 162.211 195.492 162.211 195.492C162.211 195.492 163.569 193.17 165.711 194.866L169.105 187.188L167.973 196.118C167.973 196.118 172.231 196.476 173.123 200.674C173.421 202.072 173.521 203.084 173.521 203.812C173.521 205.268 173.123 205.586 173.123 205.586C173.123 205.586 175.447 207.82 174.999 211.214L174.997 211.216Z" fill="#9CA3C7"/>
<path d="M161.834 224.058C161.102 224.058 160.29 223.974 159.398 223.766C155.314 222.82 154.678 218.966 154.586 217.482C153.162 217.294 149.636 216.348 148.864 211.576C148.198 207.454 151.082 204.64 152.858 203.328C153.176 203.094 153.466 202.902 153.704 202.752C153.522 202.468 153.348 202.084 153.268 201.594C153.066 200.354 153.544 198.934 154.688 197.372C157.076 194.11 160.718 194.546 161.964 194.812C162.284 194.42 162.884 193.846 163.724 193.688C164.296 193.58 164.874 193.678 165.448 193.978L170.218 183.19L168.642 195.626C169.952 195.922 172.952 196.978 173.71 200.548C173.982 201.826 174.12 202.924 174.12 203.81C174.12 204.63 174.002 205.162 173.862 205.506C174.534 206.308 175.974 208.402 175.592 211.29C175.238 213.982 174.286 215.192 173.762 215.67C173.876 216.71 174.042 219.726 172.406 221.528C170.7 223.404 167.614 222.786 166.578 222.51C165.97 223.012 164.398 224.056 161.834 224.056V224.058ZM155.802 216.322L155.772 216.96C155.762 217.15 155.594 221.654 159.668 222.598C163.912 223.58 165.966 221.454 165.988 221.432L166.25 221.152L166.614 221.274C166.648 221.284 170.018 222.374 171.516 220.724C173.082 219 172.534 215.544 172.528 215.51L172.46 215.096L172.826 214.89C172.826 214.89 174.008 214.118 174.4 211.138C174.8 208.1 172.724 206.04 172.702 206.02L172.214 205.546L172.7 205.156C172.744 205.082 172.916 204.736 172.916 203.816C172.916 203.014 172.786 202 172.532 200.804C171.746 197.108 168.074 196.736 167.918 196.722L167.298 196.666L167.374 196.048L167.99 191.192L165.942 195.824L165.334 195.342C164.838 194.95 164.37 194.792 163.942 194.872C163.204 195.01 162.73 195.792 162.726 195.8L162.482 196.218L162.022 196.068C161.862 196.016 158.038 194.832 155.654 198.086C153.4 201.166 154.922 202.378 154.988 202.428L155.756 203.01L154.904 203.448C154.904 203.448 154.32 203.744 153.57 204.298C152.012 205.446 149.484 207.894 150.048 211.388C150.83 216.234 154.838 216.33 155.15 216.33C155.156 216.33 155.16 216.33 155.164 216.33L155.804 216.322H155.802ZM172.748 205.118C172.748 205.118 172.748 205.118 172.746 205.118H172.748Z" fill="#9CA3C7"/>
<g opacity="0.5">
<path d="M90.4 208.298H107.758C108.484 208.298 109.03 208.958 108.894 209.67C108.272 212.932 106.36 221.244 102.27 226.198C97.69 231.746 92.876 233.786 91.836 234.178C91.706 234.228 91.568 234.252 91.428 234.252H74.492C73.394 234.252 72.912 232.864 73.776 232.188C78.612 228.4 88.058 219.764 89.252 209.316C89.318 208.734 89.814 208.298 90.4 208.298Z" fill="#9CA3C7"/>
<path d="M113.748 210.894L125.774 209.614C126.4 209.548 126.964 209.992 127.044 210.616C127.266 212.348 127.886 215.748 129.516 218.442C130.648 220.312 131.712 221.72 132.498 222.664C133.054 223.332 132.698 224.35 131.848 224.532L117.57 227.588C117.09 227.69 116.598 227.48 116.342 227.062C115.066 224.974 111.56 218.472 112.732 211.83C112.82 211.328 113.24 210.948 113.746 210.894H113.748Z" fill="#9CA3C7"/>
<path d="M201.622 176.034L207.018 171.802C207.272 171.604 207.596 171.518 207.914 171.57C209.06 171.76 211.924 172.482 214.528 175.142C216.734 177.396 217.736 179.402 218.162 180.51C218.358 181.02 218.174 181.598 217.716 181.896L210.818 186.402C210.216 186.794 209.41 186.55 209.124 185.892C208.276 183.946 206.18 180.26 201.798 177.968C201.056 177.58 200.962 176.552 201.622 176.036V176.034Z" fill="#9CA3C7"/>
</g>
<path d="M91.4238 234.854H74.4878C73.7258 234.854 73.0738 234.388 72.8258 233.67C72.5778 232.952 72.8038 232.186 73.4018 231.718C78.6038 227.644 87.5018 219.308 88.6518 209.25C88.7518 208.366 89.5018 207.7 90.3958 207.7H107.754C108.28 207.7 108.774 207.932 109.108 208.336C109.442 208.74 109.578 209.268 109.48 209.784C108.838 213.154 106.896 221.536 102.73 226.582C98.0258 232.282 93.0038 234.38 92.0438 234.742C91.8458 234.818 91.6358 234.856 91.4238 234.856V234.854ZM90.3958 208.898C90.1138 208.898 89.8758 209.108 89.8438 209.384C88.6458 219.874 79.4918 228.47 74.1418 232.66C73.8538 232.886 73.9298 233.19 73.9598 233.276C73.9898 233.364 74.1178 233.652 74.4878 233.652H91.4238C91.4918 233.652 91.5578 233.64 91.6198 233.616C92.5298 233.272 97.2918 231.28 101.804 225.814C105.792 220.982 107.676 212.834 108.3 209.556C108.342 209.332 108.244 209.172 108.182 209.098C108.12 209.022 107.982 208.896 107.752 208.896H90.3938L90.3958 208.898Z" fill="#9CA3C7"/>
<path d="M117.329 228.212C116.727 228.212 116.153 227.902 115.831 227.374C114.327 224.91 110.955 218.452 112.143 211.726C112.277 210.968 112.911 210.38 113.685 210.298L125.711 209.018C126.655 208.918 127.519 209.6 127.639 210.54C127.859 212.266 128.463 215.546 130.029 218.132C131.181 220.036 132.259 221.44 132.959 222.28C133.355 222.756 133.469 223.388 133.267 223.974C133.063 224.56 132.581 224.988 131.973 225.118L117.695 228.174C117.573 228.2 117.449 228.212 117.327 228.212H117.329ZM113.813 211.492C113.567 211.518 113.367 211.7 113.325 211.934C112.177 218.434 115.737 224.916 116.855 226.748C116.977 226.948 117.213 227.05 117.445 227L131.723 223.944C132.001 223.884 132.103 223.67 132.133 223.58C132.163 223.492 132.215 223.262 132.037 223.046C131.311 222.174 130.195 220.72 129.003 218.752C127.323 215.978 126.683 212.51 126.449 210.692C126.411 210.39 126.141 210.18 125.839 210.21L113.813 211.49V211.492Z" fill="#9CA3C7"/>
<path d="M210.184 187.19C210.016 187.19 209.846 187.166 209.68 187.116C209.182 186.968 208.778 186.608 208.57 186.13C207.74 184.224 205.72 180.696 201.516 178.498C200.986 178.222 200.638 177.7 200.582 177.104C200.528 176.508 200.776 175.93 201.246 175.562L206.642 171.33C207.028 171.026 207.526 170.898 208.006 170.978C209.182 171.172 212.214 171.926 214.95 174.722C217.158 176.976 218.216 178.996 218.716 180.294C219.012 181.064 218.726 181.948 218.038 182.398L211.14 186.904C210.852 187.092 210.518 187.19 210.182 187.19H210.184ZM207.726 172.156C207.604 172.156 207.484 172.198 207.384 172.276L201.988 176.508C201.836 176.626 201.76 176.806 201.778 176.996C201.786 177.086 201.832 177.31 202.072 177.436C206.602 179.804 208.776 183.6 209.67 185.652C209.762 185.862 209.932 185.94 210.024 185.968C210.116 185.996 210.298 186.024 210.486 185.9L217.384 181.394C217.606 181.25 217.694 180.974 217.598 180.726C217.222 179.75 216.268 177.782 214.096 175.562C211.608 173.02 208.874 172.338 207.814 172.162C207.786 172.158 207.756 172.154 207.728 172.154L207.726 172.156Z" fill="#9CA3C7"/>
<path opacity="0.5" d="M65.3099 216.876C65.3099 215.828 65.4379 214.994 65.6919 214.372C65.9459 213.75 66.4119 213.138 67.0879 212.536C67.7639 211.934 68.2159 211.444 68.4399 211.064C68.6639 210.686 68.7759 210.286 68.7759 209.868C68.7759 208.602 68.1919 207.97 67.0259 207.97C66.4719 207.97 66.0299 208.14 65.6959 208.482C65.3639 208.824 65.1899 209.294 65.1739 209.892H61.9219C61.9359 208.462 62.3979 207.344 63.3079 206.536C64.2159 205.728 65.4559 205.324 67.0259 205.324C68.5959 205.324 69.8419 205.708 70.7159 206.474C71.5899 207.242 72.0279 208.324 72.0279 209.724C72.0279 210.36 71.8859 210.96 71.6019 211.526C71.3179 212.092 70.8199 212.718 70.1099 213.406L69.2019 214.27C68.6339 214.816 68.3079 215.456 68.2259 216.19L68.1819 216.874H65.3099V216.876ZM64.9839 220.314C64.9839 219.814 65.1539 219.402 65.4939 219.078C65.8339 218.754 66.2699 218.592 66.7999 218.592C67.3299 218.592 67.7659 218.754 68.1059 219.078C68.4459 219.402 68.6159 219.814 68.6159 220.314C68.6159 220.814 68.4499 221.212 68.1159 221.532C67.7839 221.852 67.3439 222.012 66.7979 222.012C66.2519 222.012 65.8119 221.852 65.4799 221.532C65.1479 221.212 64.9799 220.806 64.9799 220.314H64.9839Z" fill="#9CA3C7"/>
<path d="M66.8005 222.614C66.0965 222.614 65.5125 222.396 65.0665 221.966C64.6145 221.53 64.3845 220.974 64.3845 220.316C64.3845 219.658 64.6185 219.086 65.0805 218.646C65.5345 218.214 66.1125 217.994 66.8005 217.994C67.4885 217.994 68.0665 218.214 68.5205 218.646C68.9825 219.086 69.2165 219.648 69.2165 220.316C69.2165 220.984 68.9865 221.53 68.5345 221.966C68.0885 222.396 67.5045 222.614 66.8005 222.614ZM66.8005 219.194C66.4265 219.194 66.1345 219.298 65.9085 219.514C65.6865 219.724 65.5845 219.98 65.5845 220.314C65.5845 220.648 65.6845 220.894 65.9005 221.1C66.1185 221.31 66.4145 221.414 66.8025 221.414C67.1905 221.414 67.4865 221.312 67.7045 221.1C67.9205 220.892 68.0205 220.644 68.0205 220.314C68.0205 219.984 67.9165 219.724 67.6965 219.514C67.4705 219.298 67.1785 219.194 66.8045 219.194H66.8005ZM68.7425 217.478H64.7085V216.878C64.7085 215.74 64.8485 214.848 65.1345 214.146C65.4225 213.442 65.9445 212.75 66.6865 212.09C67.4685 211.394 67.7885 210.984 67.9205 210.762C68.0905 210.476 68.1725 210.184 68.1725 209.872C68.1725 208.794 67.7125 208.574 67.0225 208.574C66.6345 208.574 66.3405 208.682 66.1225 208.904C65.8965 209.134 65.7825 209.464 65.7705 209.91L65.7565 210.496H61.3125L61.3185 209.89C61.3345 208.29 61.8685 207.012 62.9045 206.092C63.9225 205.186 65.3065 204.728 67.0205 204.728C68.7345 204.728 70.1225 205.166 71.1065 206.028C72.1125 206.91 72.6225 208.156 72.6225 209.73C72.6225 210.458 72.4585 211.154 72.1325 211.802C71.8145 212.434 71.2885 213.102 70.5225 213.844L69.6105 214.712C69.1485 215.158 68.8885 215.662 68.8185 216.25L68.7385 217.482L68.7425 217.478ZM65.9245 216.278H67.6185L67.6285 216.126C67.7265 215.254 68.1145 214.484 68.7845 213.84L69.6945 212.974C70.3485 212.34 70.8105 211.762 71.0645 211.258C71.3045 210.78 71.4265 210.264 71.4265 209.726C71.4265 208.496 71.0645 207.58 70.3185 206.926C69.5605 206.262 68.4525 205.924 67.0245 205.924C65.5965 205.924 64.4965 206.28 63.7045 206.984C63.0505 207.564 62.6745 208.324 62.5585 209.292H64.6365C64.7345 208.802 64.9445 208.39 65.2645 208.062C65.7125 207.602 66.3045 207.37 67.0225 207.37C68.5165 207.37 69.3725 208.28 69.3725 209.868C69.3725 210.394 69.2305 210.9 68.9525 211.37C68.6945 211.806 68.2145 212.334 67.4845 212.984C66.8805 213.522 66.4625 214.066 66.2445 214.598C66.0685 215.026 65.9625 215.588 65.9245 216.274V216.278Z" fill="#9CA3C7"/>
<path opacity="0.25" d="M72.6266 116.05H79.1386L79.5906 111.592C79.5906 111.592 79.5946 111.574 79.5946 111.564C79.7366 109.002 81.8626 106.844 84.5986 106.844H197.763C200.031 106.844 202.017 108.37 202.601 110.566L204.065 116.07C204.347 116.058 204.629 116.05 204.913 116.05H213.373C218.525 116.05 223.185 113.96 226.559 110.586C229.933 107.212 232.023 102.55 232.023 97.4001C232.023 87.0981 223.671 78.7461 213.373 78.7461H72.6266C67.4746 78.7461 62.8146 80.8321 59.4366 84.2101C56.0626 87.5881 53.9766 92.2501 53.9766 97.4001C53.9766 107.698 62.3246 116.05 72.6266 116.05Z" fill="#9CA3C7"/>
<path opacity="0.25" d="M213.374 227.954H204.914C194.612 227.954 186.264 219.602 186.264 209.304C186.264 207.182 186.62 205.142 187.272 203.24C186.238 203.61 185.13 203.812 183.978 203.812H173.522C173.522 205.27 173.124 205.586 173.124 205.586C173.124 205.586 175.448 207.82 175 211.216C174.554 214.608 173.124 215.412 173.124 215.412C173.124 215.412 173.75 219.162 171.964 221.128C170.178 223.092 166.428 221.842 166.428 221.842C166.428 221.842 164.164 224.254 159.536 223.182C154.906 222.11 155.174 216.928 155.174 216.928C155.174 216.928 150.352 217.018 149.46 211.482C148.85 207.706 151.482 205.092 153.218 203.812H101.61C102.05 205.242 102.322 206.744 102.406 208.298H107.76C108.486 208.298 109.032 208.958 108.896 209.67C108.276 212.932 106.362 221.244 102.274 226.2C97.6945 231.748 92.8805 233.786 91.8385 234.18C91.7085 234.23 91.5705 234.254 91.4305 234.254H74.4965C73.3985 234.254 72.9165 232.866 73.7805 232.19C75.1305 231.134 76.8385 229.698 78.6245 227.954H72.6305C67.4785 227.954 62.8185 230.04 59.4405 233.418C56.0665 236.792 53.9805 241.458 53.9805 246.604C53.9805 256.906 62.3285 265.254 72.6305 265.254H213.376C218.528 265.254 223.188 263.168 226.562 259.794C229.936 256.416 232.026 251.754 232.026 246.604C232.026 236.306 223.674 227.954 213.376 227.954H213.374ZM131.848 224.532L117.572 227.586C117.092 227.688 116.6 227.48 116.344 227.06C115.07 224.972 111.562 218.472 112.734 211.83C112.824 211.328 113.242 210.948 113.75 210.894L125.776 209.616C126.402 209.548 126.966 209.992 127.046 210.616C127.268 212.348 127.888 215.748 129.518 218.442C130.65 220.312 131.712 221.72 132.498 222.664C133.054 223.332 132.698 224.35 131.848 224.532ZM153.42 239.184C152.866 241.864 149.014 243.334 144.818 242.468C140.618 241.6 137.664 238.724 138.218 236.044C138.42 235.068 139.062 234.252 140 233.65H140.004C140.038 232.466 140.256 231.144 140.67 229.788C141.928 225.692 144.53 222.856 146.478 223.454C147.834 223.868 148.518 225.832 148.39 228.364C150.476 227.526 152.304 227.522 153.124 228.54C154.158 229.82 153.28 232.32 151.15 234.65C152.834 235.92 153.752 237.586 153.42 239.184ZM213.044 233.01C212.6 233.436 212.016 233.648 211.292 233.648C210.568 233.648 209.982 233.436 209.54 233.01C209.096 232.584 208.876 232.044 208.876 231.39C208.876 230.736 209.102 230.178 209.554 229.748C210.006 229.316 210.586 229.102 211.292 229.102C211.998 229.102 212.576 229.316 213.028 229.748C213.48 230.178 213.706 230.726 213.706 231.39C213.706 232.054 213.486 232.584 213.044 233.01Z" fill="#9CA3C7"/>
<path opacity="0.25" d="M71.5805 190.624L72.8405 178.208L75.3605 153.35H72.6305C67.4785 153.35 62.8185 155.44 59.4405 158.814C56.0665 162.188 53.9805 166.85 53.9805 172C53.9805 181.95 61.7685 190.08 71.5825 190.624H71.5805Z" fill="#9CA3C7"/>
<path opacity="0.25" d="M213.984 153.362L216.064 161.18C216.91 164.36 214.512 167.476 211.222 167.476H198.014L196.346 178.208L193.848 194.288C196.944 192.004 200.772 190.652 204.914 190.652H213.374C218.526 190.652 223.186 188.566 226.56 185.188C229.934 181.81 232.024 177.148 232.024 171.998C232.024 161.904 224 153.68 213.984 153.36V153.362ZM217.716 181.894L210.82 186.4C210.218 186.794 209.412 186.548 209.124 185.89C208.278 183.944 206.182 180.258 201.8 177.966C201.056 177.578 200.964 176.55 201.624 176.034L207.02 171.802C207.272 171.602 207.598 171.516 207.916 171.57C209.062 171.758 211.924 172.482 214.528 175.14C216.736 177.394 217.736 179.4 218.164 180.508C218.36 181.018 218.174 181.596 217.716 181.894Z" fill="#9CA3C7"/>
<path d="M200.817 207.5L200.851 207.505C201.039 207.531 201.235 207.555 201.436 207.579C201.905 207.636 202.4 207.697 202.877 207.797L202.879 207.798L202.879 207.798C205.171 208.297 207.263 209.467 208.889 211.157C210.514 212.847 211.6 214.981 212.01 217.29C212.31 218.882 212.275 220.52 211.906 222.098C211.551 223.613 210.897 225.041 209.982 226.298L217.867 234.166C218.119 234.396 218.306 234.689 218.409 235.015L217.933 235.165L218.409 235.015C218.514 235.345 218.528 235.697 218.451 236.035L218.45 236.039C218.373 236.363 218.212 236.661 217.983 236.904L217.619 236.56L217.983 236.904C217.754 237.146 217.465 237.324 217.146 237.42C216.827 237.516 216.488 237.526 216.163 237.449C215.839 237.373 215.54 237.213 215.297 236.984L215.29 236.978L215.29 236.978C214.901 236.597 214.512 236.207 214.127 235.821C213.841 235.534 213.556 235.248 213.274 234.969L213.272 234.967L207.329 229.01C207.275 229.045 207.221 229.08 207.166 229.116C206.783 229.365 206.383 229.624 205.975 229.842M200.817 207.5L205.74 229.401M200.817 207.5H200.782H199.868H199.836L199.803 207.504C199.657 207.523 199.504 207.541 199.348 207.56C198.967 207.604 198.564 207.652 198.172 207.726C198.172 207.725 198.172 207.725 198.172 207.725L198.265 208.217L198.172 207.726C195.627 208.204 193.308 209.502 191.57 211.422C189.836 213.338 188.776 215.767 188.55 218.34M200.817 207.5L199.868 208C199.708 208.021 199.547 208.04 199.387 208.059C199.013 208.102 198.639 208.146 198.265 208.217C195.826 208.675 193.605 209.918 191.94 211.758C190.276 213.597 189.259 215.931 189.046 218.402M205.975 229.842L205.74 229.401M205.975 229.842C205.975 229.842 205.975 229.842 205.976 229.842L205.74 229.401M205.975 229.842C204.35 230.711 202.544 231.19 200.702 231.241C198.859 231.292 197.03 230.913 195.359 230.135C193.688 229.357 192.221 228.2 191.074 226.757C189.927 225.314 189.132 223.624 188.751 221.821L188.751 221.82C188.674 221.451 188.621 221.066 188.572 220.708C188.55 220.546 188.528 220.39 188.506 220.244L188.5 220.207V220.168V218.619V218.553L188.517 218.49C188.53 218.44 188.541 218.39 188.55 218.34M205.74 229.401C204.183 230.234 202.453 230.692 200.688 230.741C198.923 230.79 197.171 230.427 195.57 229.682C193.969 228.936 192.564 227.829 191.465 226.446C190.367 225.064 189.605 223.445 189.24 221.717C189.167 221.366 189.118 221.012 189.07 220.663C189.048 220.496 189.025 220.331 189 220.168V218.619C189.019 218.548 189.035 218.475 189.046 218.402M188.55 218.34C188.549 218.346 188.549 218.353 188.548 218.359L189.046 218.402M188.55 218.34C188.551 218.334 188.552 218.328 188.553 218.323L189.046 218.402M209.466 226.156C209.466 226.191 209.432 226.227 209.375 226.289C209.344 226.321 209.307 226.361 209.264 226.411C209.378 226.462 209.485 226.527 209.582 226.605L209.676 226.699C209.696 226.677 209.711 226.661 209.728 226.643C209.744 226.626 209.76 226.608 209.783 226.583C209.804 226.56 209.844 226.515 209.878 226.459C209.889 226.44 209.902 226.418 209.914 226.391C209.898 226.413 209.882 226.435 209.865 226.457L209.788 226.398L209.763 226.38L209.466 226.156ZM209.466 226.156H209.817C209.74 226.1 209.66 226.05 209.576 226.007C209.54 226.057 209.503 226.106 209.466 226.156ZM207.517 228.581L207.56 228.534L207.515 228.579L207.39 228.379L207.053 228.749L207.517 228.581ZM207.041 214.93C207.922 216.249 208.392 217.799 208.393 219.384C208.379 221.508 207.529 223.54 206.028 225.041C204.526 226.543 202.493 227.392 200.37 227.406C198.784 227.406 197.234 226.935 195.915 226.054C194.596 225.173 193.568 223.921 192.961 222.455C192.354 220.99 192.195 219.377 192.505 217.821C192.814 216.266 193.578 214.837 194.7 213.715C195.822 212.593 197.251 211.829 198.807 211.52C200.363 211.211 201.975 211.369 203.441 211.976C204.907 212.583 206.159 213.611 207.041 214.93Z" fill="#CED2E3" stroke="#9CA3C7"/>
<defs>
<linearGradient id="paint0_linear_4174_3341" x1="144" y1="334" x2="144" y2="0" gradientUnits="userSpaceOnUse">
<stop offset="0.556886" stop-color="white"/>
<stop offset="1" stop-color="#EEF1FF"/>
</linearGradient>
</defs>
</svg>
