<svg width="26" height="31" viewBox="0 0 26 31" fill="none" xmlns="http://www.w3.org/2000/svg">
<g clip-path="url(#clip0_4798_3511)">
<path d="M15.3919 17.6736C14.7435 18.4481 14.0934 19.2217 13.4475 19.9977C12.043 21.6865 10.6417 23.3786 9.23632 25.0666C8.78429 25.6096 8.16514 25.6104 7.69806 25.0787C7.5017 24.8554 7.48917 24.297 7.6755 24.0688C8.31804 23.2847 8.93552 22.4803 9.61065 21.7237C10.1279 21.1443 10.5924 20.5261 11.1063 19.9451C11.3469 19.6724 11.5625 19.3786 11.7898 19.0938C12.3939 18.3679 12.9972 17.6405 13.6021 16.9154C14.172 16.2324 14.7268 15.5365 15.32 14.873C15.6543 14.4991 16.2191 14.5088 16.6018 14.8309C16.9577 15.1311 17.0221 15.6441 16.7196 16.0342C16.3578 16.5011 15.9684 16.9486 15.5933 17.4058C15.5222 17.4924 15.4587 17.5838 15.3919 17.6736Z" fill="url(#paint0_linear_4798_3511)"/>
<path d="M24.319 17.7387C24.2621 16.8129 23.9413 15.9519 23.5745 15.112C22.9879 13.7687 22.0863 12.6196 21.1062 11.5264C20.1311 10.4388 19.0783 9.41839 18.1718 8.27174C17.0613 6.86776 16.4848 5.31003 16.5967 3.52734C16.6427 2.79177 16.7296 2.06187 16.8499 1.3352C16.9761 0.568874 16.885 0.382756 16.2299 0C15.9375 0 15.645 0 15.3526 0C15.2289 0.110862 15.0643 0.0898222 14.9181 0.120572C13.7232 0.371427 12.6487 0.856143 11.7404 1.65726C10.452 2.7942 9.91475 4.25968 9.85208 5.89509C9.81114 6.96244 9.82451 8.02978 9.59055 9.08095C9.47441 9.60127 9.35075 10.1192 9.02822 10.5658C8.63133 11.1145 8.1183 11.1792 7.6554 10.6387C7.43648 10.383 7.35292 10.0682 7.28524 9.75097C7.11897 8.97251 6.45219 8.69334 5.75784 9.11574C3.68231 10.3789 2.11313 12.0766 1.09542 14.2372C0.525565 15.4462 0.15959 16.7118 0.074363 18.0446C0.0518029 18.1627 0.0133671 18.2808 0.0100249 18.3998C-0.0225619 19.489 0.0142027 20.5798 0.272391 21.6407C1.01437 24.6849 2.68047 27.1433 5.35594 28.9349C7.32953 30.2563 9.52538 30.9353 11.9201 30.996C14.0441 31.0494 16.0444 30.5913 17.9152 29.6009C18.8552 29.1032 19.7083 28.4923 20.5113 27.8166C20.9617 27.4387 21.3252 26.9734 21.7162 26.5356C22.779 25.3436 23.4274 23.9461 23.9288 22.4766C24.1594 21.7993 24.2588 21.0937 24.3424 20.3791C24.4443 19.4914 24.4627 18.6183 24.319 17.7387ZM9.23628 25.0669C8.78424 25.6099 8.16509 25.6107 7.69801 25.079C7.50165 24.8557 7.48912 24.2973 7.67545 24.0691C8.318 23.285 8.93547 22.4806 9.61061 21.724C10.1278 21.1446 10.5924 20.5264 11.1063 19.9454C11.3469 19.6727 11.5625 19.3789 11.7897 19.0941C12.3939 18.3682 12.9971 17.6408 13.6021 16.9157C14.1719 16.2327 14.7267 15.5368 15.32 14.8733C15.6542 14.4994 16.219 14.5091 16.6017 14.8312C16.9577 15.1314 17.022 15.6444 16.7195 16.0345C16.3578 16.5014 15.9684 16.9489 15.5932 17.4061C15.5222 17.4919 15.4595 17.5841 15.3927 17.6731C14.7443 18.4475 14.0942 19.2211 13.4483 19.9972C12.0429 21.6868 10.6425 23.3789 9.23628 25.0669Z" fill="url(#paint1_linear_4798_3511)"/>
<path d="M18.5142 22.5975C18.1157 21.2737 16.6635 20.2492 15.0776 20.6651C14.1317 20.9136 13.5117 21.5189 13.1433 22.3847C12.9152 22.9204 12.9887 23.4626 13.0831 24.0072C13.1399 24.1472 13.1842 24.2936 13.2552 24.4272C13.7716 25.3901 14.5671 25.9638 15.7109 26.0019C16.7111 26.0351 17.4965 25.6078 18.1123 24.8649C18.5025 24.1512 18.7607 23.4181 18.5142 22.5975ZM15.7619 24.2079C15.2297 24.1957 14.8503 23.8024 14.8562 23.2692C14.862 22.7707 15.3057 22.3637 15.8296 22.3758C16.3401 22.3879 16.7529 22.7998 16.7512 23.2951C16.7504 23.7887 16.2825 24.22 15.7619 24.2079Z" fill="url(#paint2_linear_4798_3511)"/>
<path d="M10.9947 16.5282C10.5962 15.2043 9.14395 14.1799 7.55806 14.5958C6.6122 14.8442 5.99222 15.4495 5.62374 16.3154C5.39563 16.8511 5.46916 17.3932 5.56357 17.9378C5.62039 18.0778 5.66468 18.2243 5.7357 18.3578C6.25208 19.3208 7.04753 19.8945 8.19141 19.9325C9.19158 19.9657 9.977 19.5385 10.5928 18.7956C10.983 18.0819 11.2412 17.3487 10.9947 16.5282ZM8.24238 18.0576C7.71013 18.0455 7.33078 17.6522 7.33663 17.1189C7.34248 16.6204 7.78616 16.2134 8.31006 16.2255C8.82059 16.2377 9.23335 16.6496 9.23168 17.1448C9.23085 17.6384 8.76293 18.0697 8.24238 18.0576Z" fill="url(#paint3_linear_4798_3511)"/>
</g>
<defs>
<linearGradient id="paint0_linear_4798_3511" x1="9.87999" y1="22.2969" x2="16.2931" y2="15.675" gradientUnits="userSpaceOnUse">
<stop stop-color="#FFE8A0"/>
<stop offset="1" stop-color="#FFFDD2"/>
</linearGradient>
<linearGradient id="paint1_linear_4798_3511" x1="12.2105" y1="5.30385" x2="12.2105" y2="28.958" gradientUnits="userSpaceOnUse">
<stop stop-color="#F7CD1C"/>
<stop offset="1" stop-color="#EA5E18"/>
</linearGradient>
<linearGradient id="paint2_linear_4798_3511" x1="15.8014" y1="21.5011" x2="15.8014" y2="25.6454" gradientUnits="userSpaceOnUse">
<stop stop-color="#FFE8A0"/>
<stop offset="1" stop-color="#FFFDD2"/>
</linearGradient>
<linearGradient id="paint3_linear_4798_3511" x1="8.28188" y1="15.4318" x2="8.28188" y2="19.5761" gradientUnits="userSpaceOnUse">
<stop stop-color="#FFE8A0"/>
<stop offset="1" stop-color="#FFFDD2"/>
</linearGradient>
<clipPath id="clip0_4798_3511">
<rect width="25.42" height="31" fill="white"/>
</clipPath>
</defs>
</svg>
