<svg width="25" height="24" viewBox="0 0 25 24" fill="none" xmlns="http://www.w3.org/2000/svg">
<path d="M14.8166 2H6.81659C6.28616 2 5.77745 2.21071 5.40238 2.58579C5.0273 2.96086 4.81659 3.46957 4.81659 4V20C4.81659 20.5304 5.0273 21.0391 5.40238 21.4142C5.77745 21.7893 6.28616 22 6.81659 22H18.8166C19.347 22 19.8557 21.7893 20.2308 21.4142C20.6059 21.0391 20.8166 20.5304 20.8166 20V8L14.8166 2Z" stroke="#878787" stroke-width="2" stroke-linecap="round" stroke-linejoin="round"/>
<path d="M14.8166 2V8H20.8166" stroke="#878787" stroke-width="2" stroke-linecap="round" stroke-linejoin="round"/>
<path d="M16.8166 13H8.81659" stroke="#878787" stroke-width="2" stroke-linecap="round" stroke-linejoin="round"/>
<path d="M16.8166 17H8.81659" stroke="#878787" stroke-width="2" stroke-linecap="round" stroke-linejoin="round"/>
<path d="M10.8166 9H9.81659H8.81659" stroke="#878787" stroke-width="2" stroke-linecap="round" stroke-linejoin="round"/>
</svg>
