<svg width="26" height="26" viewBox="0 0 26 26" fill="none" xmlns="http://www.w3.org/2000/svg">
<g clip-path="url(#clip0_3291_678)">
<path d="M9.0452 3.86049C9.0452 4.63686 9.08086 5.4154 9.03562 6.18872C8.94384 7.77536 7.79854 8.96381 6.22523 9.02467C4.63146 9.0864 3.03335 9.04641 1.43741 9.03815C0.578327 9.03337 -0.012809 8.62258 0.00198033 7.73406C0.0150297 6.8538 0.598771 6.45823 1.46699 6.46171C2.76105 6.46693 4.05686 6.42345 5.34874 6.47475C6.1752 6.50735 6.5184 6.24653 6.47969 5.37845C6.42271 4.0874 6.47316 2.79158 6.46446 1.49792C6.45881 0.638095 6.82767 0.0260439 7.70894 0.000396835C8.67633 -0.0278584 9.05216 0.623315 9.04868 1.53139C9.04433 2.30993 9.04694 3.08413 9.0452 3.86049Z" fill="white"/>
<path d="M16.9236 3.73694C16.9236 3.00361 16.931 2.27028 16.9236 1.53695C16.9119 0.621478 17.2977 -0.0157861 18.2573 0.000297658C19.1481 0.0150773 19.5083 0.640604 19.5074 1.49174C19.5074 2.78583 19.5509 4.08165 19.4943 5.37313C19.4565 6.23513 19.7866 6.50769 20.6201 6.47422C21.9119 6.42249 23.2082 6.46683 24.5022 6.46204C25.3722 6.45857 25.9568 6.85718 25.9699 7.7344C25.9829 8.61161 25.397 9.03457 24.5344 9.03849C22.9385 9.04457 21.3399 9.08978 19.7466 9.02327C18.1128 8.95546 16.9836 7.72397 16.9306 6.06734C16.9014 5.29011 16.9236 4.51331 16.9236 3.73694Z" fill="white"/>
<path d="M3.90223 16.9188C4.54948 16.9188 5.19672 16.9097 5.84397 16.9188C7.80138 16.9501 9.00584 18.106 9.04194 20.0312C9.06978 21.4975 9.04542 22.9646 9.04672 24.4308C9.04672 25.3393 8.66481 25.9896 7.70177 25.9605C6.82311 25.934 6.45468 25.3197 6.46208 24.4599C6.47252 23.2089 6.40466 21.9543 6.48165 20.7081C6.54342 19.7083 6.15368 19.4301 5.21151 19.4835C4.00749 19.5522 2.79651 19.4913 1.58857 19.5018C0.692083 19.5092 0.00437984 19.1814 0.00220494 18.2125C-0.000404929 17.2509 0.662505 16.8953 1.57248 16.9153C2.34892 16.9332 3.12579 16.9197 3.90223 16.9188Z" fill="white"/>
<path d="M16.9702 22.0452C16.7092 17.8687 17.694 16.6798 22.0725 16.9506C22.6741 16.988 23.2805 16.9654 23.8842 16.9536C24.8625 16.9354 25.986 16.8837 25.9995 18.2143C26.0139 19.6444 24.8251 19.5444 23.8177 19.5397C22.7389 19.534 21.6584 19.5762 20.5819 19.5266C19.7832 19.4897 19.5148 19.8 19.5418 20.5803C19.5853 21.8731 19.551 23.1681 19.5531 24.4626C19.5531 25.3694 19.1777 26.0231 18.2143 25.9988C17.3352 25.9762 16.9585 25.365 16.9689 24.5039C16.9789 23.6853 16.9711 22.8655 16.9702 22.0452Z" fill="white"/>
</g>
<defs>
<clipPath id="clip0_3291_678">
<rect width="26" height="26" fill="white"/>
</clipPath>
</defs>
</svg>
