<svg width="28" height="25" viewBox="0 0 28 25" fill="none" xmlns="http://www.w3.org/2000/svg">
<path d="M13.1043 2.31671C13.3924 1.73303 13.5365 1.4412 13.732 1.34795C13.9022 1.26683 14.0998 1.26683 14.27 1.34795C14.4655 1.4412 14.6096 1.73303 14.8977 2.31671L17.6311 7.85417C17.7161 8.02648 17.7586 8.11264 17.8208 8.17953C17.8758 8.23876 17.9418 8.28675 18.0151 8.32084C18.0979 8.35934 18.193 8.37324 18.3831 8.40103L24.4972 9.29469C25.1411 9.3888 25.463 9.43585 25.612 9.59311C25.7416 9.72993 25.8025 9.91793 25.7779 10.1048C25.7495 10.3195 25.5164 10.5465 25.0503 11.0005L20.6278 15.3081C20.4899 15.4424 20.421 15.5095 20.3765 15.5894C20.3371 15.6601 20.3119 15.7378 20.3021 15.8182C20.2911 15.909 20.3074 16.0038 20.3399 16.1935L21.3834 22.2777C21.4935 22.9194 21.5485 23.2403 21.4451 23.4307C21.3551 23.5963 21.1952 23.7125 21.0098 23.7469C20.7968 23.7864 20.5086 23.6349 19.9324 23.3318L14.4664 20.4574C14.2961 20.3678 14.211 20.323 14.1213 20.3054C14.0418 20.2898 13.9601 20.2898 13.8807 20.3054C13.791 20.323 13.7059 20.3678 13.5355 20.4574L8.06963 23.3318C7.49337 23.6349 7.20524 23.7864 6.99219 23.7469C6.80683 23.7125 6.64688 23.5963 6.5569 23.4307C6.45348 23.2403 6.50851 22.9194 6.61857 22.2777L7.66208 16.1935C7.69462 16.0038 7.71088 15.909 7.69988 15.8182C7.69013 15.7378 7.66487 15.6601 7.62548 15.5894C7.581 15.5095 7.51207 15.4424 7.37421 15.3081L2.95168 11.0005C2.48556 10.5465 2.25249 10.3195 2.22413 10.1048C2.19946 9.91793 2.26042 9.72993 2.39004 9.59311C2.53902 9.43585 2.86094 9.3888 3.50478 9.29469L9.61887 8.40103C9.80901 8.37324 9.90408 8.35934 9.98687 8.32084C10.0602 8.28675 10.1262 8.23876 10.1812 8.17953C10.2434 8.11264 10.2859 8.02648 10.3709 7.85417L13.1043 2.31671Z" fill="#FBBF24" stroke="#FBBF24" stroke-width="2.5" stroke-linecap="round" stroke-linejoin="round"/>
</svg>
