<svg width="765" height="684" viewBox="0 0 765 684" fill="none" xmlns="http://www.w3.org/2000/svg">
<path d="M740 480C740 578.859 659.859 659 561 659C462.141 659 382 578.859 382 480C382 381.141 462.141 301 561 301C659.859 301 740 381.141 740 480Z" stroke="#F2C94C" stroke-opacity="0.08" stroke-width="50"/>
<path d="M650.859 325.92C639.271 340.847 629.126 356.835 620.56 373.67C612.571 389.376 605.782 405.66 600.252 422.386C595.105 437.788 590.935 453.497 587.765 469.422C585.075 482.974 583.136 496.665 581.957 510.43C580.912 521.149 580.601 531.927 581.027 542.688C581.027 543.77 581.163 544.833 581.221 545.914C581.221 546.59 582.305 546.59 582.266 545.914C581.966 535.649 582.257 525.375 583.138 515.143C584.142 501.745 585.868 488.411 588.307 475.197C591.154 459.582 594.943 444.153 599.652 428.992C604.819 412.344 611.199 396.094 618.74 380.373C626.833 363.486 636.374 347.329 647.258 332.082C648.613 330.151 650.007 328.219 651.42 326.423C651.672 326.075 651.072 325.611 650.82 325.959L650.859 325.92Z" fill="#92D0FF"/>
<path d="M189.84 346.396C185.006 357.97 181.026 369.881 177.934 382.035C174.587 395.076 171.912 408.28 169.919 421.594C167.828 435.116 166.299 448.637 165.195 462.352C164.092 476.067 163.414 489.607 163.085 503.264C162.756 516.09 162.581 528.974 163.085 541.897C163.085 543.461 163.201 545.007 163.259 546.571C163.259 546.73 163.322 546.882 163.435 546.995C163.547 547.107 163.7 547.17 163.859 547.17C164.018 547.17 164.171 547.107 164.284 546.995C164.396 546.882 164.459 546.73 164.459 546.571C164.459 533.9 164.305 521.247 164.459 508.595C164.73 495.1 165.331 481.578 166.26 468.031C167.247 454.297 168.622 440.602 170.558 426.984C172.494 413.713 174.836 400.52 177.934 387.482C180.841 375.079 184.533 362.872 188.988 350.935C189.505 349.544 190.047 348.154 190.615 346.763C190.789 346.299 189.976 345.952 189.782 346.415L189.84 346.396Z" fill="#92D0FF"/>
<path d="M16.9947 519.992C20.3487 523.938 23.4647 528.079 26.3262 532.393C29.3357 537.104 31.8466 542.115 33.8185 547.344C33.8596 547.436 33.9321 547.51 34.0232 547.554C34.1142 547.598 34.2178 547.608 34.3155 547.582C34.4132 547.557 34.4986 547.497 34.5565 547.415C34.6144 547.332 34.641 547.232 34.6316 547.131C33.1464 541.625 30.645 536.443 27.2555 531.852C24.2771 527.497 20.9836 523.365 17.4013 519.49C17.0915 519.161 16.6269 519.644 16.9173 519.992H16.9947Z" fill="#92D0FF"/>
<path d="M421.25 388.969H425.122" stroke="#B3D3F4" stroke-miterlimit="10"/>
<path d="M432.885 388.969H640.153C656.223 388.684 671.538 382.115 682.802 370.675C694.065 359.235 700.376 343.84 700.376 327.804C700.376 311.768 694.065 296.373 682.802 284.933C671.538 273.493 656.223 266.924 640.153 266.639H172.804C164.181 266.639 155.911 263.222 149.812 257.141C143.713 251.059 140.284 242.81 140.279 234.207C140.279 225.6 143.706 217.346 149.805 211.26C155.905 205.174 164.177 201.755 172.804 201.755H565.481C569.326 201.855 573.152 201.185 576.733 199.786C580.314 198.387 583.578 196.286 586.332 193.608C589.087 190.93 591.276 187.729 592.771 184.193C594.266 180.658 595.036 176.859 595.036 173.022C595.036 169.185 594.266 165.386 592.771 161.851C591.276 158.315 589.087 155.114 586.332 152.436C583.578 149.758 580.314 147.658 576.733 146.258C573.152 144.859 569.326 144.19 565.481 144.289H206.141C201.941 144.289 197.913 142.624 194.943 139.661C191.973 136.698 190.305 132.679 190.305 128.488C190.305 124.298 191.973 120.279 194.943 117.315C197.913 114.352 201.941 112.688 206.141 112.688H302.941" stroke="#B3D3F4" stroke-miterlimit="10" stroke-dasharray="3.99 3.99"/>
<path d="M306.755 112.688H310.627" stroke="#B3D3F4" stroke-miterlimit="10"/>
<path d="M334.631 1.93864L336.379 2.23137V2.20609C340.38 3.11195 344.174 4.78178 347.549 7.12911C351.412 9.81603 354.629 13.3238 356.97 17.3997C359.311 21.4757 360.717 26.0185 361.088 30.7013C361.458 35.3841 360.783 40.0905 359.112 44.4821C357.44 48.8736 354.814 52.8411 351.421 56.0989C348.028 59.3567 343.953 61.8238 339.49 63.3223C335.026 64.8208 330.285 65.3134 325.608 64.7647C320.931 64.2159 316.434 62.6395 312.441 60.1489L311.751 59.7183L311.013 60.0622L304.786 62.9662L307.377 57.7417L307.861 56.7641L307.08 56.0019C302.232 51.2701 299.023 45.1181 297.922 38.4418C296.821 31.7655 297.885 24.9127 300.958 18.8808C304.031 12.8489 308.954 7.95253 315.011 4.90502C321.068 1.85749 327.941 0.81818 334.631 1.93864Z" stroke="#EEEAEF" stroke-width="3"/>
<path d="M315.628 47.7926L315.624 47.787L312.178 43.6726L312.177 43.6713C311.986 43.4442 311.842 43.1818 311.754 42.8995C311.665 42.6171 311.633 42.3201 311.66 42.0256C311.687 41.7311 311.772 41.4446 311.911 41.1828C312.049 40.9209 312.238 40.6886 312.467 40.4995L312.476 40.492L312.485 40.4843L316.329 37.205C316.802 36.8456 317.393 36.6754 317.986 36.7296C318.563 36.7823 319.099 37.0432 319.494 37.4609C319.508 37.4797 319.523 37.5006 319.539 37.5235C319.608 37.6174 319.705 37.7452 319.827 37.8945C320.069 38.1898 320.424 38.5856 320.871 38.9705C321.702 39.686 323.186 40.6473 324.983 40.247C325.748 40.0767 326.66 39.6479 327.557 39.1488C328.487 38.6307 329.523 37.9667 330.566 37.2331C332.643 35.7722 334.838 33.9727 336.366 32.3869L336.38 32.3718L336.395 32.3564C338.054 30.5352 337.285 28.2318 336.669 26.9864C336.323 26.2888 335.916 25.6854 335.603 25.2637C335.444 25.0503 335.305 24.8772 335.204 24.755C335.153 24.6938 335.111 24.645 335.081 24.6099C335.068 24.5952 335.057 24.5829 335.049 24.5731C334.674 24.1186 334.493 23.5359 334.545 22.9503C334.597 22.3593 334.882 21.8121 335.338 21.4289C335.338 21.4284 335.339 21.4278 335.34 21.4273L339.286 18.1426C339.761 17.7753 340.358 17.6007 340.957 17.6553C341.557 17.7099 342.113 17.9899 342.513 18.437L345.945 22.5352L345.95 22.5411C347.24 24.0645 347.097 26.5869 344.987 30.1274C342.951 33.5431 339.407 37.2857 335.342 40.5465C331.28 43.8044 326.819 46.4836 323.029 47.8487C321.129 48.533 319.487 48.854 318.194 48.811C316.92 48.7685 316.12 48.385 315.628 47.7926L315.628 47.7926Z" stroke="#EEEAEF" stroke-width="3"/>
<path d="M373 44.3396L375.58 40.5188C375.09 38.494 374.842 36.4237 374.842 34.3468C374.796 32.3217 375.202 30.3099 376.033 28.442C376.685 28.0947 376.997 31.862 377.252 31.7284C377.507 31.5948 379.633 24.1938 380.796 24.3007C381.391 24.3007 379.35 31.4879 379.35 31.4879C379.35 31.4879 381.363 23.7396 382.185 24.0068C383.007 24.2739 380.909 31.675 380.909 31.675C380.909 31.675 382.865 24.648 383.744 24.8617C384.623 25.0755 382.497 31.9689 382.497 31.9689C382.497 31.9689 384.424 25.8503 384.85 26.1977C385.275 26.545 384.85 30.9269 382.894 36.8851C382.582 37.9004 381.022 41.2937 380.937 41.5876C380.852 41.8815 379.066 48 379.066 48" fill="#FC8975"/>
<path d="M378.003 32.2463C378.604 33.4669 379.07 34.7983 379.386 36.1987C379.58 37.7178 379.458 39.279 379.035 40.7116C379.035 40.9476 379.233 41.1245 379.321 40.8886C379.944 39.4886 380.148 37.8227 379.892 36.2282C379.552 34.7008 378.992 33.2777 378.244 32.0398C378.219 32.0153 378.189 32.0014 378.158 32.0001C378.128 31.9988 378.097 32.01 378.071 32.0323C378.045 32.0546 378.024 32.0869 378.012 32.1251C378 32.1633 377.997 32.2055 378.003 32.2463Z" fill="#CC6658"/>
<path d="M287.376 442.495C287.376 442.495 297.733 446.261 297.811 449.313C297.811 451.071 282.787 451.032 281.839 449.873C280.348 447.942 282.962 442.881 282.962 442.881L287.376 442.495Z" fill="#352E72"/>
<path d="M287.163 433.976L287.395 442.765C287.275 443.2 287.026 443.588 286.68 443.877C286.335 444.167 285.909 444.345 285.459 444.388C283.93 444.581 282.884 442.881 282.884 442.881L282.42 431.89" fill="#FC8975"/>
<path d="M294.229 238.282C294.229 238.282 299.863 272.414 297.036 337.897C295.1 382.614 289.041 436.68 286.834 436.738C285.43 436.769 284.026 436.698 282.633 436.526C282.633 436.526 268.5 371.72 267.551 335.231C266.06 279.02 251.211 266.136 257.658 236.93" fill="url(#paint0_linear_536_7555)"/>
<path d="M288.286 433.165L287.879 437.048L281.684 437.221L281.393 433.358L288.286 433.165Z" fill="#75A1E9"/>
<path d="M255.451 443.364C255.451 443.364 265.809 447.227 265.867 450.202C265.867 451.94 250.863 451.902 249.914 450.743C248.423 448.811 251.018 443.75 251.018 443.75L255.451 443.364Z" fill="#352E72"/>
<path d="M255.219 434.845L255.451 443.634C255.34 444.056 255.106 444.435 254.778 444.724C254.451 445.013 254.045 445.199 253.612 445.257C252.082 445.469 251.018 443.75 251.018 443.75L250.572 432.759" fill="#FC8975"/>
<path d="M271 226.999C271 226.999 267.238 288.519 262.487 359.539C260.62 387.603 244.474 504.921 242.195 508.781L234.204 509C234.204 509 222.04 407.479 220.667 355.679C218.58 276.034 209.985 266.397 219.129 225" fill="url(#paint1_linear_536_7555)"/>
<path d="M243 504L242.445 509.743L234.403 510L234 504.286L243 504Z" fill="#75A1E9"/>
<path d="M269 258C269 258 265.851 336.822 260 383" stroke="#4A578E" stroke-width="0.5" stroke-miterlimit="10"/>
<path d="M279.537 63.5951C274.51 54.7496 260.839 56.0957 253.05 60.1338C242.002 65.8751 239.24 82.1101 228.965 89.2524C224.38 92.3291 218.856 94.1696 215.155 98.3176C213.113 100.874 211.766 103.909 211.244 107.132C210.721 110.355 211.041 113.658 212.172 116.723C214.533 122.804 218.92 127.895 224.601 131.145C230.201 134.292 236.272 136.527 242.582 137.765C252.58 140.073 263.214 141.281 272.964 137.93C282.714 134.578 291.055 125.596 290.999 115.184C290.999 106.394 285.172 98.1528 286.194 89.4172" fill="#081466"/>
<path d="M373.959 41C373.959 41 347.742 78.671 341.715 87.2525C332.4 100.577 294.046 103.154 273.527 115.3L259.309 116.863C252.57 118.234 229.174 134.821 227.092 141.538C222.106 156.809 217.093 172.273 216.134 188.339C215.832 193.822 216.134 199.306 216.134 204.789C216.38 212.685 216.654 220.554 216.901 228.45C216.872 228.977 216.996 229.5 217.257 229.958C217.646 230.354 218.158 230.605 218.709 230.671C244.461 236.62 271.281 233.413 297.471 230.177C298.406 230.172 299.313 229.853 300.046 229.273C300.77 228.379 301.114 227.237 301.005 226.092C301.142 221.047 300.841 216.003 300.649 210.958C299.771 189.116 300.54 167.24 302.95 145.514C311.169 140.414 344.619 129.886 355.878 114.176C370.884 93.304 379.602 68.5669 381 42.8918L373.959 41Z" fill="#FCA43C"/>
<path d="M274 115.591L273.479 98L265.052 99.071L259 116.93C260.079 118.119 261.486 119.015 263.071 119.524C264.657 120.033 266.362 120.136 268.006 119.821C273.392 118.991 274 115.591 274 115.591Z" fill="#FC8975"/>
<path d="M256.092 90.0352C255.538 83.3218 257.5 76.6416 261.603 71.2754C265.35 67.146 272.349 66.5444 277.502 67.2554C279.303 67.4268 281.016 68.1105 282.435 69.2243C287.533 73.4084 287.174 83.1165 286.816 89.0507C286.654 94.1132 284.922 99.0028 281.856 103.052C280.902 104.324 279.642 105.34 278.191 106.006C275.538 106.948 272.691 107.226 269.903 106.816C267.116 106.406 264.473 105.32 262.209 103.654C260.298 101.926 258.767 99.8235 257.715 97.4797C256.662 95.1359 256.109 92.6013 256.092 90.0352Z" fill="#FC8975"/>
<path d="M253.935 96.169C252.007 97.0515 249.044 97.6858 247.562 95.6174C246.36 93.9627 247.395 91.4806 247.814 89.7155C249.176 83.9938 250.856 78.3501 252.845 72.8099C253.746 69.8733 255.083 67.085 256.814 64.5363C260.336 59.7376 270.343 57.5313 276.213 58.0829C282.697 57.6416 292.984 68.0388 287.393 80.1458C286.555 77.1673 285.353 77.3879 283.145 74.9335C280.957 76.9907 278.11 78.2295 275.095 78.4359C271.181 78.7944 266.709 77.9119 263.914 80.6146C261.119 83.3173 261.566 88.3366 259.442 91.7839C258.094 93.7577 256.175 95.2856 253.935 96.169Z" fill="#081466"/>
<path d="M260.946 91.6816C261.013 91.3866 261.017 91.0812 260.96 90.7844C260.902 90.4875 260.784 90.2055 260.613 89.9555C260.441 89.7056 260.219 89.4931 259.962 89.3312C259.704 89.1692 259.415 89.0612 259.114 89.0138C256.23 88.7204 255.395 93.1756 256.419 95.2031C257.227 96.6971 259.329 97.8709 260.407 96.1368" fill="#FC8975"/>
<path d="M265.562 101.927C264.828 101.88 264.1 101.773 263.387 101.606C261.181 101.165 259.225 100.025 257.881 98.3954C257.361 97.7994 257.054 97.0764 257 96.321C256.999 96.24 257.033 96.1619 257.095 96.1023C257.156 96.0428 257.24 96.0062 257.33 96C257.418 96 257.502 96.0312 257.564 96.0868C257.626 96.1424 257.66 96.2178 257.66 96.2964C257.723 96.9279 257.991 97.529 258.431 98.025C259.673 99.5386 261.481 100.6 263.525 101.013C265.543 101.386 267.611 101.494 269.664 101.334C269.706 101.331 269.749 101.335 269.789 101.347C269.829 101.359 269.865 101.379 269.897 101.404C269.928 101.43 269.952 101.461 269.969 101.496C269.986 101.53 269.995 101.568 269.995 101.606C270.003 101.645 270.001 101.686 269.99 101.725C269.978 101.764 269.957 101.8 269.928 101.831C269.899 101.861 269.863 101.886 269.822 101.903C269.781 101.919 269.737 101.928 269.692 101.927C268.317 102.024 266.937 102.024 265.562 101.927Z" fill="#081466"/>
<path d="M271.371 101.142C270.848 100.953 270.26 100.953 269.737 101.142C267.887 101.668 269.905 103.773 271.563 102.699C271.701 102.609 271.815 102.494 271.9 102.363C271.96 102.252 271.993 102.133 271.999 102.011C272.005 101.889 271.982 101.768 271.933 101.654C271.883 101.54 271.808 101.436 271.712 101.348C271.615 101.26 271.499 101.19 271.371 101.142Z" fill="#081466"/>
<path d="M252 79.3534C252.432 74.409 254.154 69.6719 256.989 65.6322C260.629 60.8846 265.483 57.0153 270.148 57.0153C272.14 56.9242 274.13 57.2415 276 57.9483C271.105 59.1411 266.678 61.8096 263.299 65.6048C259.462 69.7944 257.273 75.2742 257.15 81" fill="#75A1E9"/>
<path d="M263.899 87.6128C264.261 89.9933 263.639 92.4157 262.168 94.3566C260.697 96.2976 258.494 97.6014 256.037 97.9863C254.81 98.0517 253.582 97.8825 252.422 97.4884C251.263 97.0943 250.196 96.483 249.282 95.6895C248.367 94.8961 247.624 93.9361 247.094 92.8645C246.565 91.793 246.259 90.631 246.195 89.445C245.935 88.261 245.935 87.0373 246.195 85.8533C246.455 84.6692 246.969 83.5511 247.705 82.5712C248.44 81.5913 249.38 80.7715 250.464 80.1648C251.548 79.5581 252.751 79.1781 253.997 79.0492C255.242 78.9203 256.502 79.0455 257.694 79.4166C258.886 79.7878 259.984 80.3966 260.918 81.2038C261.851 82.011 262.599 82.9985 263.112 84.1025C263.626 85.2065 263.894 86.4024 263.899 87.6128Z" fill="#75A1E9"/>
<path d="M260 88.2162C259.956 89.3693 259.582 90.4853 258.922 91.4311C258.262 92.377 257.345 93.1126 256.279 93.5504C255.214 93.9882 254.045 94.1096 252.912 93.9C251.78 93.6905 250.731 93.159 249.892 92.3688C249.052 91.5787 248.458 90.5633 248.179 89.4438C247.9 88.3243 247.948 87.148 248.318 86.0552C248.688 84.9625 249.363 83.9994 250.265 83.2809C251.166 82.5624 252.254 82.1189 253.4 82.0032C254.241 81.9766 255.078 82.1162 255.865 82.4141C256.652 82.712 257.372 83.1624 257.985 83.7394C258.598 84.3164 259.091 85.0088 259.437 85.777C259.783 86.5451 259.974 87.374 260 88.2162Z" fill="#2D4CBA"/>
<path d="M391.261 129.744L183.742 311.066V560.382H598.8V311.066L391.261 129.744Z" fill="url(#paint2_linear_536_7555)"/>
<path d="M577.814 193.526H204.709V534.653H577.814V193.526Z" fill="#FFF3E6"/>
<path d="M556.46 237.838H226.082V266.967H556.46V237.838Z" fill="white"/>
<path d="M556.46 280.624H226.082V309.753H556.46V280.624Z" fill="white"/>
<path d="M556.46 323.39H226.082V496.6H556.46V323.39Z" fill="white"/>
<path d="M243.816 255.686H243.003L238.511 248.868V255.686H237.698V247.573H238.511L243.003 254.392V247.573H243.816V255.686Z" fill="#EAC38F"/>
<path d="M251.521 253.755H247.843L247.126 255.686H246.275L249.237 247.689H250.147L253.089 255.686H252.237L251.521 253.755ZM251.289 253.078L249.682 248.713L248.075 253.078H251.289Z" fill="#EAC38F"/>
<path d="M263.486 247.689V255.686H262.672V249.292L259.827 255.686H259.226L256.38 249.312V255.686H255.567V247.689H256.419L259.517 254.624L262.614 247.689H263.486Z" fill="#EAC38F"/>
<path d="M267.319 248.25V251.263H270.397V251.939H267.319V255.01H270.745V255.686H266.506V247.573H270.745V248.25H267.319Z" fill="#EAC38F"/>
<path d="M238.511 292.02V295.053H241.589V295.729H238.511V298.8H241.938V299.476H237.698V291.364H241.938V292.02H238.511Z" fill="#EAC38F"/>
<path d="M252.625 291.518V299.515H251.811V293.121L248.965 299.476H248.365L245.519 293.102V299.476H244.706V291.518H245.558L248.656 298.433L251.753 291.518H252.625Z" fill="#EAC38F"/>
<path d="M260.349 297.545H256.71L255.993 299.476H255.141L258.103 291.479H259.013L261.975 299.476H261.104L260.349 297.545ZM260.097 296.869L258.491 292.484L256.903 296.869H260.097Z" fill="#EAC38F"/>
<path d="M265.189 291.364V299.476H264.453V291.364H265.189Z" fill="#EAC38F"/>
<path d="M269.003 298.8H271.926V299.476H268.19V291.364H269.003V298.8Z" fill="#EAC38F"/>
<path d="M245.636 334.207V342.204H244.822V335.811L241.957 342.204H241.357L238.511 335.83V342.204H237.698V334.207H238.55L241.647 341.142L244.764 334.207H245.636Z" fill="#EAC38F"/>
<path d="M249.449 334.767V337.877H252.528V338.554H249.449V341.625H252.837V342.301H248.598V334.014H252.837V334.69L249.449 334.767Z" fill="#EAC38F"/>
<path d="M256.709 342.011C256.325 341.841 255.997 341.566 255.761 341.219C255.527 340.897 255.393 340.515 255.374 340.118H256.245C256.286 340.512 256.473 340.877 256.768 341.142C256.95 341.307 257.165 341.433 257.398 341.512C257.63 341.592 257.877 341.624 258.123 341.605C258.599 341.63 259.068 341.479 259.439 341.18C259.59 341.044 259.71 340.877 259.79 340.69C259.87 340.504 259.909 340.302 259.904 340.099C259.922 339.801 259.832 339.506 259.652 339.268C259.47 339.053 259.237 338.887 258.975 338.785L257.89 338.438C257.448 338.328 257.015 338.186 256.593 338.013C256.274 337.87 255.995 337.651 255.78 337.375C255.549 337.02 255.434 336.601 255.451 336.177C255.442 335.779 255.557 335.388 255.78 335.057C256.008 334.722 256.322 334.455 256.69 334.285C257.114 334.087 257.577 333.988 258.045 333.995C258.699 333.964 259.343 334.162 259.865 334.555C260.09 334.725 260.276 334.94 260.413 335.186C260.549 335.432 260.633 335.704 260.659 335.984H259.788C259.727 335.63 259.533 335.312 259.246 335.096C258.882 334.843 258.45 334.708 258.007 334.708C257.564 334.708 257.131 334.843 256.768 335.096C256.492 335.329 256.314 335.658 256.271 336.016C256.228 336.374 256.322 336.736 256.535 337.027C256.723 337.236 256.955 337.4 257.213 337.51L258.297 337.858C258.732 337.97 259.159 338.112 259.575 338.283C259.9 338.434 260.185 338.659 260.407 338.94C260.642 339.287 260.757 339.7 260.736 340.118C260.743 340.501 260.635 340.878 260.427 341.2C260.22 341.559 259.91 341.849 259.536 342.03C259.095 342.241 258.611 342.346 258.123 342.339C257.634 342.328 257.153 342.217 256.709 342.011Z" fill="#EAC38F"/>
<path d="M268.151 340.273H264.454L263.757 342.204H262.885L265.847 334.207H266.777L269.719 342.204H268.868L268.151 340.273ZM267.9 339.597L266.312 335.231L264.705 339.597H267.9Z" fill="#EAC38F"/>
<path d="M278.567 336.467C278.357 335.945 277.984 335.505 277.502 335.212C277.006 334.894 276.426 334.733 275.837 334.748C275.266 334.732 274.701 334.88 274.211 335.173C273.721 335.443 273.323 335.854 273.069 336.351C272.789 336.909 272.644 337.524 272.644 338.148C272.644 338.771 272.789 339.386 273.069 339.944C273.327 340.444 273.724 340.859 274.211 341.142C274.707 341.42 275.268 341.56 275.837 341.547C276.37 341.557 276.896 341.43 277.367 341.18C277.821 340.944 278.197 340.581 278.451 340.137C278.734 339.655 278.893 339.111 278.915 338.553H275.508V337.877H279.787V338.476C279.757 339.158 279.557 339.822 279.206 340.408C278.865 340.997 278.373 341.486 277.782 341.826C277.19 342.165 276.519 342.342 275.837 342.339C275.119 342.348 274.412 342.168 273.785 341.818C273.177 341.46 272.676 340.946 272.333 340.33C271.977 339.679 271.797 338.947 271.81 338.206C271.799 337.458 271.979 336.72 272.333 336.061C272.675 335.45 273.177 334.942 273.785 334.593C274.41 334.237 275.117 334.05 275.837 334.053C276.641 334.042 277.429 334.271 278.102 334.709C278.756 335.148 279.252 335.784 279.516 336.525L278.567 336.467Z" fill="#EAC38F"/>
<path d="M283.233 334.767V337.877H286.311V338.554H283.233V341.625H286.659V342.301H282.42V334.014H286.659V334.69L283.233 334.767Z" fill="#EAC38F"/>
<path d="M338.157 214.832C338.659 213.912 339.401 213.144 340.306 212.611C341.224 212.084 342.267 211.811 343.326 211.819C344.564 211.788 345.784 212.124 346.83 212.785C347.802 213.45 348.54 214.403 348.94 215.508H347.508C347.186 214.719 346.633 214.046 345.92 213.577C345.161 213.139 344.299 212.909 343.423 212.909C342.546 212.909 341.685 213.139 340.925 213.577C340.197 213.995 339.611 214.62 339.241 215.373C338.833 216.22 338.62 217.147 338.62 218.087C338.62 219.027 338.833 219.954 339.241 220.801C339.622 221.546 340.206 222.169 340.925 222.597C341.689 223.022 342.549 223.245 343.423 223.245C344.297 223.245 345.157 223.022 345.92 222.597C346.635 222.13 347.189 221.456 347.508 220.666H348.94C348.544 221.774 347.797 222.724 346.811 223.37C345.77 224.025 344.556 224.355 343.326 224.317C342.267 224.325 341.224 224.052 340.306 223.525C339.398 223.005 338.653 222.242 338.157 221.323C337.624 220.346 337.358 219.247 337.382 218.135C337.343 216.985 337.611 215.846 338.157 214.832Z" fill="#EAC38F"/>
<path d="M353.761 223.447C352.852 222.922 352.103 222.161 351.593 221.245C351.072 220.256 350.8 219.156 350.8 218.039C350.8 216.922 351.072 215.821 351.593 214.832C352.107 213.914 352.855 213.148 353.761 212.611C354.7 212.083 355.761 211.81 356.839 211.819C357.918 211.806 358.98 212.079 359.917 212.611C360.829 213.141 361.579 213.909 362.086 214.832C362.595 215.825 362.861 216.924 362.861 218.039C362.861 219.154 362.595 220.253 362.086 221.245C361.582 222.166 360.831 222.929 359.917 223.447C358.98 223.979 357.918 224.252 356.839 224.239C355.761 224.248 354.7 223.975 353.761 223.447ZM359.279 222.559C360 222.126 360.589 221.505 360.982 220.762C361.414 219.92 361.627 218.984 361.602 218.039C361.631 217.093 361.418 216.156 360.982 215.315C360.593 214.575 360.003 213.959 359.279 213.538C358.534 213.12 357.694 212.9 356.839 212.9C355.985 212.9 355.145 213.12 354.4 213.538C353.671 213.953 353.079 214.57 352.696 215.315C352.254 216.154 352.034 217.091 352.057 218.039C352.039 218.985 352.259 219.922 352.696 220.762C353.084 221.509 353.674 222.131 354.4 222.559C355.149 222.964 355.987 223.177 356.839 223.177C357.691 223.177 358.53 222.964 359.279 222.559Z" fill="#EAC38F"/>
<path d="M374.282 224.123H373.063L366.306 213.886V224.123H365.125V211.973H366.345L373.102 222.172V211.973H374.321L374.282 224.123Z" fill="#EAC38F"/>
<path d="M384.175 211.973V212.978H380.787V224.123H379.568V212.978H376.18V211.973H384.175Z" fill="#EAC38F"/>
<path d="M393.158 221.226H387.621L386.557 224.123H385.279L389.712 212.128H391.087L395.52 224.123H394.165L393.158 221.226ZM392.791 220.221L390.39 213.654L387.989 220.221H392.791Z" fill="#EAC38F"/>
<path d="M397.689 214.832C398.191 213.911 398.933 213.144 399.838 212.611C400.762 212.081 401.811 211.808 402.877 211.819C404.109 211.788 405.323 212.124 406.362 212.785C407.339 213.444 408.079 214.399 408.472 215.508H407.059C406.731 214.718 406.17 214.044 405.452 213.577C404.692 213.141 403.831 212.912 402.955 212.912C402.078 212.912 401.217 213.141 400.457 213.577C399.729 213.995 399.143 214.62 398.773 215.373C398.378 216.223 398.173 217.15 398.173 218.087C398.173 219.024 398.378 219.951 398.773 220.801C399.154 221.546 399.738 222.169 400.457 222.597C401.221 223.022 402.081 223.245 402.955 223.245C403.829 223.245 404.688 223.022 405.452 222.597C406.172 222.131 406.733 221.458 407.059 220.666H408.472C408.084 221.773 407.343 222.723 406.362 223.37C405.319 224.02 404.107 224.349 402.877 224.317C401.811 224.327 400.762 224.054 399.838 223.525C398.93 223.005 398.185 222.242 397.689 221.323C397.156 220.346 396.889 219.247 396.914 218.135C396.875 216.985 397.143 215.846 397.689 214.832Z" fill="#EAC38F"/>
<path d="M418.036 211.973V212.978H414.648V224.123H413.525V212.978H410.118V211.973H418.036Z" fill="#EAC38F"/>
<path d="M425.896 211.973V219.7C425.857 220.18 425.914 220.662 426.063 221.12C426.213 221.578 426.452 222.001 426.767 222.366C427.425 222.921 428.258 223.226 429.12 223.226C429.981 223.226 430.814 222.921 431.472 222.366C432.097 221.616 432.402 220.652 432.324 219.681V211.954H433.543V219.681C433.585 220.314 433.497 220.949 433.284 221.547C433.071 222.145 432.737 222.693 432.304 223.158C431.409 223.906 430.278 224.316 429.11 224.316C427.942 224.316 426.811 223.906 425.915 223.158C425.478 222.696 425.143 222.148 424.929 221.549C424.716 220.951 424.63 220.314 424.676 219.681V211.954L425.896 211.973Z" fill="#EAC38F"/>
<path d="M437.822 223.911C437.247 223.663 436.751 223.262 436.389 222.752C436.049 222.262 435.855 221.686 435.828 221.091H437.125C437.185 221.683 437.46 222.233 437.899 222.636C438.48 223.061 439.182 223.291 439.903 223.291C440.624 223.291 441.326 223.061 441.907 222.636C442.138 222.439 442.322 222.192 442.446 221.915C442.57 221.638 442.63 221.336 442.623 221.033C442.645 220.582 442.508 220.138 442.236 219.777C441.97 219.453 441.623 219.207 441.229 219.063C440.697 218.861 440.154 218.687 439.603 218.541C438.942 218.378 438.295 218.165 437.667 217.904C437.18 217.689 436.759 217.349 436.447 216.918C436.079 216.402 435.901 215.774 435.944 215.141C435.929 214.545 436.098 213.958 436.428 213.461C436.763 212.949 437.241 212.546 437.803 212.302C438.412 212.03 439.071 211.885 439.739 211.877C440.717 211.835 441.68 212.128 442.468 212.707C442.8 212.964 443.077 213.284 443.283 213.649C443.489 214.014 443.62 214.416 443.669 214.832H442.333C442.233 214.31 441.943 213.842 441.52 213.519C440.975 213.079 440.282 212.864 439.584 212.92C438.886 212.872 438.196 213.086 437.648 213.519C437.412 213.709 437.225 213.951 437.101 214.226C436.976 214.501 436.918 214.801 436.931 215.103C436.914 215.547 437.051 215.984 437.319 216.339C437.595 216.651 437.939 216.895 438.325 217.054C438.725 217.208 439.267 217.382 439.951 217.575C440.612 217.74 441.259 217.953 441.887 218.213C442.372 218.44 442.796 218.777 443.126 219.198C443.489 219.717 443.667 220.343 443.63 220.975C443.624 221.545 443.471 222.104 443.185 222.597C442.859 223.122 442.397 223.549 441.849 223.834C441.186 224.156 440.456 224.315 439.719 224.297C439.067 224.295 438.422 224.164 437.822 223.911Z" fill="#EAC38F"/>
<g style="mix-blend-mode:multiply" opacity="0.55">
<path d="M391.261 469.344L183.742 311.066V534.653H598.8V311.066L391.261 469.344Z" fill="#C9D3F4"/>
</g>
<path d="M391.261 495.112L183.742 311.066V560.382H598.8V311.066L391.261 495.112Z" fill="url(#paint3_linear_536_7555)"/>
<g style="mix-blend-mode:multiply" opacity="0.35">
<path d="M391.261 365.171L183.742 560.382H598.8L391.261 365.171Z" fill="#C9D3F4"/>
</g>
<path d="M391.261 384.198L183.742 560.382H598.8L391.261 384.198Z" fill="url(#paint4_linear_536_7555)"/>
<path d="M238.383 201C239.906 202.183 241.596 203.123 243.396 203.79C246.015 203.384 248.664 203.207 251.312 203.26C253.441 203.43 255.511 204.047 257.394 205.073C257.64 205.742 253.586 205.631 253.668 205.938C253.75 206.245 261.256 209.062 260.927 210.206C260.763 210.792 253.531 208.03 253.531 208.03C253.531 208.03 261.42 210.82 260.982 211.712C260.544 212.605 253.011 209.648 253.011 209.648C253.011 209.648 260.16 212.438 259.777 213.051C259.393 213.665 252.408 211.908 252.408 211.908C252.408 211.908 258.489 213.275 258.161 214C253.857 213.885 249.608 212.987 245.615 211.35C242.202 209.97 238.972 208.161 236 205.966" fill="#FC8975"/>
<path d="M240.165 146.961C233.604 157.03 218.295 168.668 210.094 175.793C214.933 182.396 242.215 202.892 242.215 202.892L239.673 209C239.673 209 187.732 199.619 186.038 173.758C185.026 158.296 204.49 135.516 219.58 124.814C233.74 114.8 250.307 113.149 259 116.726" fill="#EE9A38"/>
<path d="M490.848 138C485.528 135.788 477.918 129.205 478.784 125.476C479.166 123.881 482.932 128.202 483.874 127.147C484.816 126.093 484.001 123.238 482.093 121.67C480.184 120.101 476.162 117.246 477.155 116.243C478.148 115.24 487.896 117.452 490.084 120.821C492.024 124.532 493.323 128.55 493.927 132.702L498 138" fill="#FC8975"/>
<path d="M595.877 564C595.877 564 579 569.443 579 573.444C579 575.785 603.826 575.186 605.297 573.607C607.697 571.076 603.181 564.354 603.181 564.354L595.877 564Z" fill="#352E72"/>
<path d="M596 552.81V563.996C596.286 564.6 596.752 565.111 597.338 565.466C597.925 565.822 598.608 566.007 599.303 565.999C600.154 566.016 600.996 565.844 601.764 565.496C602.532 565.148 603.204 564.635 603.727 563.996L604 550" fill="#FC8975"/>
<path d="M575.577 304.004C575.577 304.004 567.724 347.754 575.289 431.207C580.524 488.227 592.984 557 596.675 557C599.02 556.991 601.362 556.852 603.691 556.582C603.691 556.582 624.423 473.391 624.423 426.793C624.423 355.016 648.688 337.986 636.647 301" fill="#39393B"/>
<path d="M594 552L594.9 557H605.672L606 552H594Z" fill="#75A1E9"/>
<path d="M649.484 564C649.484 564 631.973 569.443 632 573.444C632 575.785 657.731 575.186 659.284 573.607C661.747 571.076 657.062 564.354 657.062 564.354L649.484 564Z" fill="#352E72"/>
<path d="M649 552.81V563.996C649.291 564.596 649.756 565.103 650.339 565.458C650.923 565.813 651.601 566.001 652.292 565.999C653.139 566.016 653.979 565.844 654.744 565.496C655.51 565.148 656.179 564.635 656.7 563.996L657 550" fill="#FC8975"/>
<path d="M606 304.004C606 304.004 612.331 359.299 620.101 423.136C623.188 448.342 645.843 553.552 648.668 557H658.06C658.06 557 669.231 465.293 669.231 418.696C669.231 346.919 679.041 338.038 667.007 301" fill="#333336"/>
<path d="M647 552L647.9 557H658.672L659 552H647Z" fill="#75A1E9"/>
<path d="M611.945 404.924C611.945 404.924 616.456 457.214 622.535 487.772" stroke="#4A578E" stroke-width="0.5" stroke-miterlimit="10"/>
<path d="M669.365 294.502C669.365 289.94 672.921 211.235 659.218 193.456C655.321 185.165 640.912 175.78 629.563 171.714C619.468 168.116 613.14 170.931 608.642 171.714C589.368 166.187 545.303 169.889 533.065 163.632C526.344 160.191 494.884 133 494.884 133L489 137.562C489 137.562 507.802 176.667 528.933 190.406C543.787 200.025 565.858 205.37 577.652 207.716C577.469 209.854 577.339 212.226 577.208 214.859C576.554 228.91 574.959 253.599 576.58 294.632C576.737 298.543 572.501 303.548 572.501 306.155C572.501 308.762 577.6 317 619.965 317C655.923 317 673 311.786 673 305.764C673 299.742 669.365 299.064 669.365 294.502Z" fill="#DF615C"/>
<path d="M581.595 175.446C577.849 174.461 577.727 171.786 577.859 168.851C577.608 168.766 577.356 168.695 577.096 168.631C576.937 171.711 576.98 175.057 581.397 176.219C584.458 177.027 586.177 178.344 586.124 179.827C586.058 181.486 583.813 183.044 580.671 183.607C577.776 184.122 573.811 180.763 569.487 174.153C568.451 172.565 567.978 170.74 568.031 168.955C568.038 168.771 568.052 168.581 568.073 168.398C567.802 168.481 567.523 168.57 567.264 168.682C567.14 170.72 567.654 172.784 568.815 174.58C570.73 177.495 573.168 180.7 575.694 182.637C577.4 183.938 579.147 184.683 580.811 184.39C583.296 183.94 585.251 182.918 586.223 181.645C586.647 181.089 586.892 180.482 586.917 179.858C586.993 177.972 585.052 176.366 581.595 175.446Z" fill="#A92F4B"/>
<path d="M619.439 296C622.824 301.829 630.155 304.62 636.855 302.672C637.872 302.373 638.942 301.987 640.012 301.53C648.624 297.843 658.55 289.153 662.356 279.04C665.285 271.245 664.391 263.257 659.743 255.971C652.868 245.191 648.887 235.166 648.22 227.02C647.817 222.192 644.502 218.452 639.784 217.486C635.031 216.521 630.506 218.663 628.244 222.947C628.121 223.175 627.998 223.403 627.875 223.631C622.087 234.938 625.543 243.119 628.594 250.335C631.786 257.884 634.54 264.398 625.823 272.86C617.896 280.55 615.51 289.205 619.439 296ZM626.77 273.808C636.171 264.696 633.084 257.445 629.84 249.791C626.753 242.505 623.578 234.99 629.085 224.228C629.208 224 629.313 223.772 629.436 223.561C630.488 221.577 632.085 220.12 633.979 219.312C635.662 218.592 637.574 218.382 639.521 218.786C643.66 219.646 646.554 222.911 646.905 227.125C647.308 231.865 648.694 237.045 651.096 242.645C652.991 247.087 655.516 251.757 658.638 256.673C663.11 263.696 663.935 271.052 661.129 278.566C657.007 289.557 645.361 298.791 636.504 301.372C630.366 303.163 623.701 300.617 620.614 295.315C617.001 289.1 619.299 281.059 626.77 273.808Z" fill="#A92F4B"/>
<path d="M570.314 248.853C570.469 249.307 570.611 249.76 570.767 250.228C574.548 251.745 578.031 251.688 580.806 251.093C582.222 250.795 583.454 250.356 584.46 249.93C591.384 246.94 596.085 240.519 595.972 236.635C595.929 235.175 595.193 234.112 593.904 233.644C586.456 230.923 583.426 226.004 582.293 214.82C581.982 211.787 580.778 209.434 578.696 207.804C578.342 207.988 577.988 208.173 577.634 208.371C577.719 208.428 577.804 208.499 577.903 208.569C579.815 210.001 580.92 212.141 581.203 214.934C582.378 226.628 585.606 231.787 593.522 234.665C594.4 234.991 594.839 235.643 594.867 236.663C594.966 240.193 590.35 246.188 584.006 248.938C581.089 250.228 576.006 251.49 570.314 248.853Z" fill="#A92F4B"/>
<path d="M601.294 231.624C602.492 232.926 604.429 233.41 606.353 233.015C606.99 232.875 607.627 232.645 608.226 232.313C611.31 230.604 612.457 227.032 611.297 222.772C610.087 218.333 612.393 216.203 614.623 214.149C616.586 212.35 618.599 210.488 617.006 207.299C615.783 204.85 613.515 203.702 610.482 203.982C606.901 204.327 603.766 206.521 602.084 209.863C599.23 215.514 596.49 226.42 601.294 231.624ZM602.951 210.297C604.301 207.605 606.786 205.679 609.577 205.092C609.908 205.028 610.24 204.977 610.571 204.939C613.221 204.684 615.095 205.628 616.14 207.72C617.414 210.258 615.961 211.585 613.961 213.422C611.743 215.463 608.991 218.001 610.354 223.014C611.386 226.815 610.418 229.966 607.755 231.446C605.754 232.556 603.282 232.352 602.008 230.961C597.548 226.127 600.211 215.718 602.951 210.297Z" fill="#A92F4B"/>
<path d="M568.649 365.055C569.207 367.681 570.259 369.813 572.077 370.879C574.804 372.478 577.48 373.102 579.454 372.686C580.311 372.504 581.025 372.127 581.571 371.555C583.181 369.826 582.648 366.719 580.116 363.027C577.181 358.75 579.752 356.033 582.493 353.147C584.817 350.69 587.233 348.155 585.882 344.684C584.908 342.188 582.674 341.031 579.415 341.317C573.947 341.811 569.441 346.205 568.701 351.782C568.116 356.124 567.818 361.142 568.649 365.055ZM569.675 351.925C569.986 349.572 571.025 347.453 572.532 345.802C574.051 344.151 576.038 342.968 578.259 342.5C578.662 342.409 579.064 342.357 579.493 342.318C582.337 342.071 584.129 342.955 584.947 345.048C586.077 347.934 583.986 350.144 581.778 352.471C579.025 355.37 575.908 358.659 579.298 363.599C581.545 366.862 582.116 369.527 580.843 370.879C579.428 372.4 576.038 372.049 572.584 370.021C569.415 368.162 568.376 361.727 569.675 351.925Z" fill="#A92F4B"/>
<path d="M653.672 330.124C652.075 328.668 649.919 327.654 646.595 328.252C642.647 328.954 639.543 327.68 638.296 324.833C637.348 322.701 637.79 320.205 639.309 319.035C642.348 316.695 647.01 316.89 651.439 318.086C651.361 317.735 651.283 317.384 651.192 317.033C646.647 315.876 641.893 315.798 638.699 318.242C637.27 319.347 636.608 321.271 636.842 323.26C636.92 323.923 637.101 324.586 637.374 325.236C638.829 328.525 642.348 330.02 646.776 329.227C650.348 328.577 652.322 329.968 653.906 331.762C653.841 331.242 653.763 330.696 653.672 330.124Z" fill="#A92F4B"/>
<g style="mix-blend-mode:multiply" opacity="0.75">
<path d="M578.762 191.836C579.295 197.227 578.968 202.668 577.795 207.957C577.486 205.264 577.425 202.549 577.612 199.844C577.762 197.147 578.147 194.467 578.762 191.836Z" fill="url(#paint5_linear_536_7555)"/>
</g>
<path d="M606.354 124C604.756 130.175 600.916 147.142 604.447 152.474C606.387 154.98 609.119 156.769 612.207 157.555C615.295 158.342 618.56 158.08 621.48 156.812C624.354 155.442 626.896 153.475 628.933 151.045C630.97 148.614 632.453 145.777 633.282 142.728C634.9 136.622 635.381 130.276 634.7 124" fill="#FC8975"/>
<path d="M613.344 146.724L611 167.845C611 167.845 611.839 173.752 614.898 176C617.221 175.785 619.455 174.954 621.396 173.584C623.336 172.214 624.919 170.348 626 168.158L623.755 141" fill="#FC8975"/>
<path d="M626.99 129.325C622.887 127.881 617.294 128.396 612.171 127.545C608.517 127.272 604.91 126.562 601.43 125.43C595.34 122.851 595.889 113.695 600.881 110.238C601.529 109.682 602.285 109.263 603.103 109.006C603.92 108.748 604.783 108.659 605.637 108.742C607.441 109.155 608.094 111.012 609.688 111.709C610.514 112.048 611.414 112.172 612.302 112.07C612.977 112.027 613.624 111.784 614.158 111.373C615.02 110.625 615.386 109.465 616.222 108.794C617.062 108.042 618.091 107.525 619.202 107.298C620.397 106.985 621.644 106.918 622.867 107.1C624.09 107.282 625.262 107.709 626.31 108.356C626.947 108.928 627.67 109.398 628.453 109.748C629.831 109.977 631.187 110.322 632.504 110.78C634.209 111.954 635.625 113.49 636.647 115.276C637.669 117.061 638.272 119.051 638.411 121.097C638.411 121.69 639.43 122.258 639.796 122.67C641.273 124.705 642.274 127.037 642.726 129.499C643.178 131.961 643.07 134.492 642.41 136.908C641.822 141.776 639.463 146.267 635.771 149.546C634.164 150.564 632.398 151.313 630.544 151.765C623.488 154.344 627.068 134.999 626.755 129.454" fill="#352E72"/>
<path d="M620.387 152.922C621.123 152.873 621.855 152.771 622.574 152.619C624.78 152.168 626.741 151.021 628.112 149.379C628.632 148.796 628.942 148.08 628.999 147.329C629.002 147.287 628.997 147.245 628.982 147.205C628.967 147.165 628.943 147.129 628.912 147.098C628.88 147.067 628.842 147.042 628.8 147.025C628.758 147.008 628.712 147 628.666 147C628.623 147 628.579 147.008 628.539 147.023C628.499 147.038 628.462 147.061 628.431 147.089C628.401 147.117 628.376 147.151 628.359 147.187C628.343 147.224 628.334 147.264 628.334 147.304C628.269 147.931 628.009 148.528 627.586 149.025C626.312 150.548 624.486 151.606 622.436 152.011C620.406 152.399 618.324 152.501 616.261 152.315C616.186 152.335 616.119 152.376 616.072 152.433C616.025 152.49 616 152.56 616 152.631C616 152.703 616.025 152.772 616.072 152.829C616.119 152.886 616.186 152.928 616.261 152.948C617.635 153.025 619.014 153.017 620.387 152.922Z" fill="#081466"/>
<path d="M614.826 152.147C615.525 151.951 616.31 151.951 617.009 152.147C619.482 152.669 616.817 154.781 614.569 153.693C614.395 153.6 614.243 153.49 614.119 153.366C614.045 153.255 614.005 153.135 614 153.013C613.996 152.891 614.027 152.769 614.093 152.655C614.159 152.542 614.258 152.438 614.384 152.351C614.509 152.264 614.66 152.194 614.826 152.147Z" fill="#081466"/>
<path d="M634 131.507C633.564 126.956 631.905 122.607 629.198 118.918C625.714 114.567 621.067 111.014 616.601 111.014C614.696 110.931 612.794 111.219 611 111.864C615.672 112.944 619.915 115.391 623.184 118.892C626.831 122.705 628.928 127.732 629.069 133" fill="#75A1E9"/>
<path d="M622.003 139.265C621.96 140.92 622.4 142.552 623.269 143.961C624.137 145.369 625.398 146.494 626.894 147.196C628.391 147.898 630.06 148.148 631.697 147.915C633.333 147.682 634.867 146.976 636.109 145.883C637.351 144.79 638.248 143.359 638.69 141.763C639.132 140.167 639.1 138.477 638.598 136.9C638.097 135.322 637.146 133.925 635.864 132.88C634.582 131.835 633.023 131.187 631.379 131.016C629.047 130.877 626.754 131.665 624.998 133.21C623.243 134.754 622.166 136.93 622.003 139.265Z" fill="#75A1E9"/>
<path d="M626 139.488C626 140.556 626.309 141.6 626.89 142.495C627.471 143.39 628.299 144.096 629.274 144.528C630.248 144.961 631.327 145.1 632.378 144.929C633.43 144.759 634.41 144.286 635.199 143.568C635.987 142.85 636.551 141.918 636.82 140.885C637.09 139.852 637.055 138.763 636.719 137.75C636.382 136.737 635.76 135.843 634.926 135.178C634.093 134.513 633.084 134.105 632.024 134.003C630.505 133.953 629.026 134.497 627.901 135.521C626.776 136.545 626.094 137.968 626 139.488Z" fill="#A2C0ED"/>
<path d="M615 289H530.312L522.042 238.137C521.963 237.626 521.995 237.104 522.138 236.607C522.28 236.11 522.529 235.649 522.867 235.257C523.205 234.864 523.624 234.548 524.096 234.331C524.568 234.114 525.081 234.001 525.601 234H601.051C602.433 234.004 603.77 234.49 604.827 235.375C605.884 236.26 606.595 237.486 606.835 238.839L615 289Z" fill="#212124"/>
<path d="M612 289H527.32L519.051 238.137C518.963 237.627 518.989 237.104 519.126 236.605C519.263 236.106 519.509 235.643 519.846 235.248C520.183 234.854 520.602 234.538 521.075 234.322C521.548 234.106 522.063 233.996 522.584 234H598.052C599.443 234.001 600.789 234.493 601.848 235.389C602.907 236.285 603.612 237.526 603.835 238.891L612 289Z" fill="#39393B"/>
<path d="M569.767 259.977C568.913 255.591 565.863 252.507 562.935 253.065C560.007 253.624 558.372 257.611 559.226 261.997C560.08 266.383 563.154 269.493 566.058 268.935C568.961 268.377 570.645 264.363 569.767 259.977Z" fill="#625F5F"/>
<path d="M606.582 284C605.142 284.857 603.643 285.622 602.095 286.288C600.219 285.556 598.239 285.093 596.22 284.915C594.377 285.195 592.241 285.297 592.241 285.831C592.241 286.364 595.072 286.441 595.072 286.949C595.072 287.458 593.176 288.5 592.401 288.5C590.286 288.346 588.161 288.346 586.045 288.5C585.725 288.805 587.14 290.686 588.716 291.729C590.113 292.487 591.677 292.922 593.282 293C596.588 292.943 599.869 292.447 603.03 291.525C604.365 290.737 610 288.398 610 288.398" fill="#FC8975"/>
<path d="M629.642 172C629.642 172 654.476 173.565 666.355 196.384C678.234 219.204 674.458 267.815 667.246 274.987C660.035 282.159 605.098 291 605.098 291L603 285.993L641.679 261.948C641.679 261.948 629.642 221.812 629.642 205.512" fill="#DA5E59"/>
<path d="M655.124 182.327C652.736 184.288 650.523 186.658 648.841 189.282C644.776 195.611 644.673 201.751 648.542 206.572C649.326 207.529 650.033 208.404 650.7 209.229C658.603 218.928 659.426 219.934 660.227 236.904C660.478 242.239 662.332 246.312 665.721 248.954C668 250.754 670.682 251.675 673.219 252.133C673.02 251.639 672.838 251.143 672.637 250.631C670.522 250.174 668.374 249.331 666.548 247.898C663.478 245.494 661.811 241.757 661.575 236.826C660.755 219.418 659.736 218.164 651.754 208.366C651.087 207.54 650.381 206.666 649.597 205.709C644.886 199.883 647.81 193.367 649.975 189.998C651.423 187.745 653.307 185.65 655.359 183.875C655.282 183.371 655.186 182.85 655.124 182.327Z" fill="#A92F4B"/>
<path d="M615 175.946C616.809 178.389 618.241 181.106 619.245 184C627.422 181.315 630 171.893 630 171.893L626.692 168C626.692 168 620.286 174.872 615 175.946Z" fill="#D5504B"/>
<path d="M615 176.177C613.063 178.131 611.576 180.456 610.637 183C608.428 180.876 606.799 173.204 607.02 172.381C608.139 170.856 609.347 169.394 610.637 168C611.202 171.086 612.722 173.936 615 176.177Z" fill="#D5504B"/>
<path d="M103.61 570.495C103.61 570.495 87.9759 575.204 87.9998 578.665C87.9998 580.69 110.937 580.148 112.321 578.782C114.541 576.616 110.603 570 110.603 570L103.61 570.495Z" fill="#352E73"/>
<path d="M104 560.634V571.097C104.247 571.668 104.653 572.152 105.166 572.49C105.68 572.828 106.279 573.006 106.891 573C107.634 573 108.368 572.829 109.039 572.5C109.709 572.171 110.297 571.691 110.761 571.097L111 558" fill="#FC8975"/>
<path d="M108.65 280.612C98.2252 294.112 85.9998 332.288 85.9998 404.748C85.9998 455.95 102.585 563.217 102.585 563.217L112.062 564C142.365 372.291 132.13 374.189 139.688 340.189C144.426 318.835 134.807 265 134.807 265" fill="#333336"/>
<path style="mix-blend-mode:multiply" opacity="0.35" d="M134 400.627C134 400.627 127.939 364.397 127.939 357C125.353 372.693 125.353 388.762 127.939 404.455C129.851 414.334 131.828 424 131.828 424L134 400.627Z" fill="url(#paint6_linear_536_7555)"/>
<path d="M103 560V564.647C103 564.647 112.565 566.549 112.565 565.843C112.565 565.136 113 560.408 113 560.408L103 560Z" fill="#75A1E9"/>
<path d="M187.032 570.495C187.032 570.495 202.023 575.204 202 578.665C202 580.69 179.972 580.148 178.642 578.782C176.533 576.616 180.292 570 180.292 570L187.032 570.495Z" fill="#352E73"/>
<path d="M185.185 560.634L187 571.097C186.746 571.668 186.33 572.152 185.802 572.49C185.275 572.828 184.66 573.005 184.032 572.999C183.267 573.013 182.509 572.847 181.819 572.517C181.129 572.187 180.527 571.7 180.06 571.097L178 558" fill="#FC8975"/>
<path d="M159.634 274.607C169.87 291.899 188 327.552 188 399.995C188 451.208 186.676 563.194 186.676 563.194L178.545 564C152.543 490.845 130.702 397.599 125.596 343.278C123.539 321.503 127.463 265 127.463 265" fill="#39393B"/>
<path style="mix-blend-mode:multiply" opacity="0.35" d="M160.53 276.028C149.563 272.676 138.408 269.995 127.125 268C127.125 268.413 127.125 268.866 127.125 269.358L109.413 280.054C106.838 283.604 104.685 287.45 103 291.513C110.283 294.35 117.936 296.091 125.716 296.682C140.351 297.992 158.603 295.11 168 290.655C165.345 284.795 162.879 280.006 160.53 276.028Z" fill="url(#paint7_linear_536_7555)"/>
<path d="M188 559V563.647C188 563.647 177.48 565.549 177.48 564.843C177.48 564.136 177 559.408 177 559.408L188 559Z" fill="#75A1E9"/>
<path d="M242 235.852L245.235 234.017C245.671 232.359 246.29 230.759 247.08 229.251C247.65 228.107 249.564 225.295 250.133 225.295C250.703 225.295 249.473 228.202 249.723 228.202C249.974 228.202 254.28 223.436 254.963 224.056C255.351 224.318 251.227 228.822 251.227 228.822C251.227 228.822 255.556 223.817 256.102 224.389C256.649 224.961 252.298 229.585 252.298 229.585C252.298 229.585 256.307 225.104 256.74 225.581C257.173 226.057 253.186 230.347 253.186 230.347C253.186 230.347 256.831 226.534 256.991 226.963C257.15 227.392 255.145 230.443 251.614 234.113C250.999 234.756 248.63 236.686 248.47 236.853C248.311 237.02 244.688 241 244.688 241" fill="#FC8975"/>
<path d="M249.438 229.128C249.569 230.337 249.496 231.557 249.223 232.745C248.791 233.883 248.049 234.895 247.07 235.683C247.031 235.713 247.006 235.757 247.001 235.804C246.996 235.851 247.011 235.898 247.043 235.935C247.075 235.971 247.122 235.994 247.172 235.999C247.222 236.004 247.273 235.99 247.312 235.96C248.508 235.298 249.392 234.24 249.788 232.996C250.07 231.703 250.07 230.371 249.788 229.078C249.788 228.902 249.438 229.078 249.438 229.078V229.128Z" fill="#CC6658"/>
<path d="M20.9998 172.596L18.6373 169.552C18.9048 167.816 18.9683 166.054 18.8263 164.303C18.7192 162.58 18.2607 160.899 17.4796 159.365C16.9363 159.125 16.9363 162.313 16.7236 162.217C16.511 162.122 14.3375 156.153 13.3689 156.153C13.6868 158.21 14.2419 160.221 15.0227 162.146C15.0227 162.146 12.8964 155.722 12.164 156.009C11.4317 156.297 13.6997 162.409 13.6997 162.409C13.6997 162.409 11.7152 156.633 11.0064 156.872C10.2977 157.112 12.4712 162.769 12.4712 162.769C12.4712 162.769 10.5339 157.735 10.1087 157.975C9.68341 158.215 10.5103 161.954 12.4712 166.844C12.8019 167.707 14.2903 170.463 14.3611 170.703C14.432 170.942 16.2984 176 16.2984 176" fill="#FC8975"/>
<path d="M16.7047 162C15.9042 163.194 15.3391 164.538 15.0417 165.957C14.8709 167.358 15.226 168.774 16.0341 169.914C16.1682 170.108 16.4901 169.914 16.4096 169.914C15.8435 168.729 15.5847 167.414 15.6586 166.095C15.9038 164.774 16.3568 163.503 16.9998 162.332C16.9998 162.111 16.812 161.945 16.7047 162.138V162Z" fill="#CC6658"/>
<path d="M243.714 234.683C243.714 234.683 209.571 247.12 201.833 247.12C195.428 247.12 184.524 230.019 169.452 218.359C163.308 213.755 156.565 209.992 149.405 207.171L120.833 206.582C112.174 206.777 103.533 207.461 94.9521 208.631C80.6664 210.539 67.4998 209.903 61.3093 207.171C49.4045 201.871 19.4283 170.048 19.4283 170.048C18.4316 169.925 17.4195 170.038 16.4756 170.378C15.5317 170.718 14.6831 171.275 13.9998 172.004C13.9998 173.582 29.4045 217.087 49.714 230.113C64.6426 239.7 86.4045 241.278 99.9998 241.184V250.135C99.9998 254.539 94.6664 276.328 100.976 282.546C106.762 288.293 128.881 289 137.5 289C150.309 289 163.405 286.998 166.666 282.546C168.309 280.332 168.071 270.415 167.547 261.347C177.809 267.707 187.047 274.066 198.857 274.066C220.976 274.066 247 239.841 247 239.841L243.714 234.683Z" fill="#0875F7"/>
<path d="M104.306 278.826C104.032 278.826 103.757 278.716 103.551 278.497C103.181 278.085 103.208 277.44 103.62 277.07L110.358 271.004C110.77 270.633 111.415 270.661 111.786 271.072C112.156 271.484 112.129 272.129 111.717 272.5L104.979 278.565C104.787 278.73 104.539 278.826 104.306 278.826Z" fill="#084FC7"/>
<path d="M100.622 261.632C100.348 261.632 100.073 261.523 99.8673 261.303C99.4968 260.891 99.5242 260.246 99.9359 259.876L106.674 253.81C107.086 253.439 107.731 253.467 108.101 253.879C108.472 254.29 108.445 254.935 108.033 255.306L101.295 261.372C101.102 261.536 100.855 261.632 100.622 261.632Z" fill="#084FC7"/>
<path d="M152.972 269.391C153.054 269.131 153.26 268.897 153.521 268.787C154.029 268.568 154.633 268.801 154.852 269.309L158.475 277.625C158.695 278.133 158.461 278.737 157.954 278.957C157.446 279.176 156.842 278.943 156.623 278.435L152.999 270.119C152.903 269.872 152.903 269.611 152.972 269.391Z" fill="#084FC7"/>
<path d="M142.171 278.738C142.445 278.71 142.734 278.792 142.953 278.998C143.365 279.369 143.392 280.014 143.022 280.426L136.929 287.136C136.558 287.548 135.913 287.576 135.501 287.205C135.09 286.834 135.062 286.189 135.433 285.778L141.526 279.067C141.704 278.875 141.938 278.765 142.171 278.738Z" fill="#084FC7"/>
<path d="M129.925 267.745C129.65 267.703 129.403 267.539 129.239 267.292C128.937 266.825 129.088 266.194 129.554 265.892L137.24 261.075C137.706 260.773 138.337 260.924 138.639 261.391C138.941 261.857 138.79 262.488 138.324 262.79L130.639 267.607C130.419 267.745 130.158 267.786 129.925 267.745Z" fill="#084FC7"/>
<path d="M190.157 238.966C190.336 239.172 190.445 239.446 190.404 239.748C190.349 240.297 189.842 240.709 189.293 240.64L180.276 239.652C179.727 239.597 179.316 239.09 179.384 238.541C179.439 237.992 179.947 237.58 180.496 237.649L189.512 238.637C189.759 238.664 189.993 238.788 190.157 238.966Z" fill="#084FC7"/>
<path d="M182.847 263.472C183.026 263.678 183.135 263.952 183.094 264.254C183.039 264.803 182.531 265.215 181.983 265.146L172.966 264.158C172.417 264.103 172.006 263.595 172.074 263.046C172.129 262.497 172.637 262.086 173.186 262.154L182.202 263.142C182.449 263.17 182.682 263.293 182.847 263.472Z" fill="#084FC7"/>
<path d="M228.289 258.559C228.467 258.765 228.577 259.039 228.536 259.341C228.481 259.89 227.973 260.302 227.424 260.233L218.408 259.245C217.859 259.19 217.447 258.683 217.516 258.134C217.57 257.585 218.078 257.173 218.627 257.242L227.644 258.23C227.891 258.257 228.124 258.381 228.289 258.559Z" fill="#084FC7"/>
<path d="M57.03 216.869C57.3611 216.937 57.6294 217.112 57.7058 217.411C57.8716 217.94 57.3656 218.644 56.5939 218.943L43.9797 223.977C43.214 224.288 42.4357 224.102 42.2884 223.563C42.1226 223.033 42.6286 222.33 43.4003 222.031L56.0145 216.997C56.3603 216.859 56.7295 216.817 57.03 216.869Z" fill="#084FC7"/>
<path d="M82.7842 216.78C83.0333 216.888 83.2512 217.087 83.3465 217.376C83.5376 217.894 83.2646 218.484 82.7449 218.661L74.2694 221.682C73.7557 221.871 73.1664 221.593 72.9876 221.069C72.7966 220.552 73.0695 219.961 73.5892 219.785L82.0647 216.763C82.2971 216.681 82.5592 216.691 82.7842 216.78Z" fill="#084FC7"/>
<path d="M24.7045 180.026C24.6767 180.297 24.552 180.565 24.3038 180.742C23.8663 181.078 23.2185 180.99 22.8925 180.543L17.4356 173.298C17.0995 172.86 17.1873 172.212 17.6343 171.886C18.0718 171.55 18.7195 171.638 19.0456 172.085L24.5025 179.33C24.6518 179.529 24.7216 179.784 24.7045 180.026Z" fill="#084FC7"/>
<path d="M201.545 258.246C201.376 258.46 201.127 258.619 200.823 258.636C200.274 258.686 199.773 258.265 199.737 257.713L199.005 248.672C198.955 248.123 199.376 247.622 199.928 247.586C200.478 247.536 200.978 247.957 201.014 248.509L201.746 257.55C201.766 257.798 201.689 258.05 201.545 258.246Z" fill="#084FC7"/>
<path d="M237.134 244.109C236.868 244.05 236.617 243.894 236.471 243.627C236.189 243.152 236.353 242.52 236.836 242.249L244.678 237.691C245.152 237.409 245.785 237.573 246.055 238.056C246.337 238.53 246.173 239.163 245.691 239.434L237.849 243.992C237.634 244.116 237.372 244.155 237.134 244.109Z" fill="#084FC7"/>
<path d="M130.382 231.692C130.451 231.417 130.629 231.184 130.89 231.047C131.384 230.786 132.001 230.964 132.262 231.458L136.558 239.445C136.818 239.939 136.64 240.557 136.146 240.818C135.652 241.078 135.034 240.9 134.774 240.406L130.478 232.419C130.341 232.186 130.313 231.925 130.382 231.692Z" fill="#084FC7"/>
<path d="M153.681 226.067C153.75 225.793 153.928 225.56 154.189 225.422C154.683 225.162 155.3 225.34 155.561 225.834L159.857 233.821C160.117 234.315 159.939 234.933 159.445 235.193C158.951 235.454 158.333 235.276 158.072 234.782L153.777 226.795C153.64 226.561 153.612 226.301 153.681 226.067Z" fill="#084FC7"/>
<path d="M102.098 215.389C102.029 215.128 102.057 214.826 102.221 214.579C102.523 214.112 103.155 213.975 103.621 214.277L111.238 219.19C111.704 219.492 111.842 220.123 111.54 220.59C111.238 221.057 110.606 221.194 110.14 220.892L102.523 215.979C102.304 215.828 102.153 215.622 102.098 215.389Z" fill="#084FC7"/>
<path d="M150.008 210.051L145.328 216.061C144.985 216.501 144.353 216.583 143.914 216.24C143.475 215.897 143.393 215.265 143.736 214.826L148.018 209.337C148.704 209.556 149.376 209.804 150.008 210.051Z" fill="#084FC7"/>
<path d="M114.958 253.14C120.099 254.127 127.559 259.947 134.552 258.104C144.507 255.48 153.517 244.605 153.546 244.531C153.763 244.04 153.513 243.485 152.996 243.295C152.479 243.089 151.895 243.326 151.695 243.818C151.576 244.091 142.432 254.408 132.766 256.542C126.175 257.998 119.34 251.854 114.958 251.012C103.6 248.825 103.441 229.237 103.241 229.015C102.858 228.635 102.224 228.619 101.823 228.983C101.423 229.348 101.406 229.95 101.79 230.33C102.657 231.202 102.999 250.826 114.958 253.14Z" fill="#084FC7"/>
<path style="mix-blend-mode:multiply" opacity="0.75" d="M168 267L167.71 261.044L158 252L168 267Z" fill="url(#paint8_linear_536_7555)"/>
<path style="mix-blend-mode:multiply" opacity="0.75" d="M100.84 241C100.84 239.845 103 228.78 103 227C99.7731 233.254 94.9998 240.928 94.9998 240.928L100.84 241Z" fill="url(#paint9_linear_536_7555)"/>
<path d="M144.667 156C152.707 161.03 151.347 171.281 154.592 177.694C156.978 182.462 160.652 186.252 160.986 191.759C161.368 197.767 153.542 200.58 149.367 199.936C141.16 198.673 134.121 202.844 125.843 201.843C120.212 201.152 122.335 198.339 118.685 194.024C116.546 191.326 115.281 188.042 115.058 184.607C114.875 181.197 115.123 177.776 115.798 174.428" fill="#F42A73"/>
<path d="M129.592 190.537L128.023 205.042L121 206.143C121 206.143 125.893 215 133.712 215C141.532 215 149 206.729 149 206.729L141.391 204.385L138.488 184" fill="#FC8975"/>
<path d="M118.48 166.685C117.79 171.532 117.844 176.461 118.64 181.291C119.052 183.703 120.006 185.983 121.426 187.951C122.846 189.92 124.694 191.523 126.823 192.634C128.831 193.444 130.967 193.873 133.125 193.902C136.769 194.315 140.438 193.418 143.508 191.366C145.116 189.921 146.357 188.097 147.124 186.052C147.891 184.006 148.16 181.8 147.908 179.624C147.403 175.313 146.211 171.117 144.379 167.201L139.795 156" fill="#FC8975"/>
<path d="M99.7385 186.489C97.924 188.197 96.6316 190.389 96.0128 192.809C95.9317 194.042 96.2297 195.271 96.8663 196.329C97.503 197.387 98.4476 198.223 99.5724 198.723C101.467 199.398 103.506 199.554 105.481 199.176C107.77 198.961 110.076 199.058 112.339 199.463C114.261 199.82 116.089 200.536 117.963 201.06C120.727 201.954 123.654 202.215 126.53 201.824C126.778 201.814 127.021 201.746 127.239 201.626C127.458 201.506 127.645 201.337 127.788 201.132C128.049 200.631 127.788 200.059 127.527 199.558C126.012 195.704 125.514 191.523 126.079 187.419C126.205 185.299 126.547 183.197 127.1 181.147C127.614 179.447 128.257 177.789 129.022 176.186C130.398 173.11 132.154 170.153 133.483 167.053C134.812 163.952 135.571 159.159 139.89 159.898C142.667 160.303 143.853 164.811 145.68 167.553C148.433 164.405 151.518 162.497 145.68 155.033C142.762 151.313 137.778 151.503 133.364 152.314C130.991 152.147 130.991 151.169 128.618 151.002C124.396 150.939 120.242 152.077 116.636 154.284C113.029 156.491 110.117 159.677 108.234 163.475C104.223 171.679 105.149 179.835 99.7385 186.489Z" fill="#F42A73"/>
<path d="M127.247 188.925C126.627 188.875 126.012 188.774 125.406 188.621C123.55 188.17 121.9 187.022 120.745 185.38C120.304 184.79 120.043 184.064 120 183.304C120 183.223 120.029 183.146 120.082 183.089C120.134 183.032 120.205 183 120.279 183C120.354 183 120.425 183.032 120.477 183.089C120.53 183.146 120.559 183.223 120.559 183.304C120.617 183.935 120.844 184.533 121.212 185.026C122.271 186.553 123.802 187.613 125.523 188.013C127.232 188.388 128.982 188.49 130.719 188.317C130.793 188.317 130.864 188.349 130.917 188.406C130.969 188.463 130.999 188.541 130.999 188.621C131.002 188.66 130.998 188.699 130.986 188.736C130.975 188.772 130.957 188.806 130.932 188.835C130.908 188.863 130.879 188.886 130.846 188.902C130.813 188.917 130.778 188.925 130.742 188.925C129.579 189.025 128.41 189.025 127.247 188.925Z" fill="#081466"/>
<path d="M132.373 187.206C131.848 186.931 131.266 186.931 130.74 187.206C128.892 188.017 130.884 191.164 132.565 189.542C132.695 189.404 132.808 189.24 132.901 189.056C132.96 188.888 132.994 188.706 132.999 188.521C133.004 188.335 132.982 188.15 132.932 187.977C132.883 187.804 132.808 187.646 132.711 187.514C132.615 187.381 132.5 187.277 132.373 187.206Z" fill="#081466"/>
<path d="M116 169.644C116.379 165.504 117.888 161.545 120.365 158.19C123.55 154.262 127.798 151.013 131.88 151.013C133.623 150.935 135.364 151.206 137 151.808C132.736 152.789 128.865 155.012 125.886 158.19C122.528 161.635 120.606 166.211 120.507 171" fill="#081466"/>
<path d="M125.997 176.294C126.035 177.754 125.647 179.194 124.88 180.437C124.114 181.679 123.002 182.671 121.681 183.291C120.36 183.91 118.887 184.131 117.443 183.925C116 183.719 114.647 183.096 113.551 182.132C112.455 181.169 111.663 179.905 111.273 178.498C110.883 177.09 110.911 175.599 111.354 174.207C111.797 172.816 112.635 171.583 113.766 170.661C114.898 169.739 116.273 169.168 117.724 169.017C118.744 168.95 119.768 169.085 120.736 169.415C121.704 169.744 122.598 170.262 123.367 170.938C124.135 171.613 124.763 172.434 125.214 173.353C125.666 174.272 125.932 175.272 125.997 176.294Z" fill="#081466"/>
<path d="M122 177.112C121.976 178.075 121.676 179.011 121.135 179.807C120.594 180.604 119.836 181.228 118.951 181.603C118.065 181.979 117.091 182.091 116.143 181.926C115.196 181.761 114.317 181.325 113.61 180.672C112.903 180.019 112.399 179.175 112.159 178.242C111.918 177.31 111.951 176.327 112.253 175.412C112.556 174.498 113.115 173.69 113.864 173.085C114.612 172.481 115.519 172.106 116.475 172.005C117.173 171.976 117.869 172.085 118.524 172.326C119.18 172.567 119.781 172.936 120.294 173.41C120.807 173.884 121.222 174.455 121.515 175.091C121.807 175.726 121.972 176.413 122 177.112Z" fill="#2D4CBA"/>
<path d="M480.181 95.2448L470.501 99.3012C470.255 99.4062 470.039 99.5719 469.873 99.7827C469.708 99.9936 469.599 100.243 469.557 100.507C469.514 100.771 469.539 101.042 469.63 101.294C469.721 101.546 469.874 101.771 470.075 101.948L477.045 107.936C477.247 108.107 477.49 108.226 477.75 108.28C478.01 108.334 478.28 108.322 478.534 108.245C478.789 108.168 479.019 108.029 479.206 107.84C479.392 107.651 479.528 107.418 479.601 107.163L482.35 97.0992C482.434 96.8105 482.433 96.5039 482.346 96.2158C482.26 95.9278 482.093 95.6706 481.864 95.4751C481.636 95.2795 481.355 95.1537 481.057 95.1129C480.758 95.0721 480.454 95.1178 480.181 95.2448Z" stroke="#CFE0F5" stroke-miterlimit="10"/>
<path d="M680.692 343.537L688.165 336.12C688.353 335.93 688.491 335.696 688.564 335.439C688.637 335.182 688.644 334.911 688.584 334.651C688.524 334.391 688.399 334.15 688.221 333.951C688.043 333.752 687.817 333.601 687.565 333.512L678.834 330.595C678.582 330.511 678.313 330.493 678.053 330.541C677.792 330.589 677.548 330.702 677.343 330.87C677.138 331.038 676.979 331.255 676.88 331.501C676.782 331.746 676.748 332.013 676.782 332.276L678.021 342.61C678.054 342.903 678.169 343.181 678.354 343.412C678.538 343.642 678.785 343.816 679.064 343.913C679.343 344.01 679.644 344.026 679.933 343.96C680.221 343.893 680.484 343.747 680.692 343.537Z" stroke="#CFE0F5" stroke-miterlimit="10"/>
<path d="M183.142 244.383L177.532 246.564L179.719 252.161L185.329 249.98L183.142 244.383Z" fill="#CFE0F5"/>
<path d="M241.263 99.8892L235.664 97.7266L233.496 103.313L239.096 105.476L241.263 99.8892Z" fill="#CFE0F5"/>
<path d="M6.08725 397.991L0.0722656 398.259L0.340143 404.26L6.35513 403.993L6.08725 397.991Z" fill="#CFE0F5"/>
<defs>
<linearGradient id="paint0_linear_536_7555" x1="276.887" y1="432.174" x2="272.339" y2="231.617" gradientUnits="userSpaceOnUse">
<stop stop-color="#29225E"/>
<stop offset="1" stop-color="#3F368C"/>
</linearGradient>
<linearGradient id="paint1_linear_536_7555" x1="243.477" y1="501.784" x2="237.035" y2="217.489" gradientUnits="userSpaceOnUse">
<stop stop-color="#29225E"/>
<stop offset="1" stop-color="#3F368C"/>
</linearGradient>
<linearGradient id="paint2_linear_536_7555" x1="497.257" y1="618.872" x2="259.278" y2="205.772" gradientUnits="userSpaceOnUse">
<stop stop-color="#B3D3F4"/>
<stop offset="1" stop-color="#D3DCED"/>
</linearGradient>
<linearGradient id="paint3_linear_536_7555" x1="497.257" y1="618.872" x2="286.001" y2="252.144" gradientUnits="userSpaceOnUse">
<stop stop-color="#CDE8FF"/>
<stop offset="1" stop-color="#EEE7E9"/>
</linearGradient>
<linearGradient id="paint4_linear_536_7555" x1="495.031" y1="663.899" x2="287.979" y2="456.38" gradientUnits="userSpaceOnUse">
<stop stop-color="#CDE8FF"/>
<stop offset="1" stop-color="#EEE7E9"/>
</linearGradient>
<linearGradient id="paint5_linear_536_7555" x1="577.141" y1="199.818" x2="579.416" y2="199.818" gradientUnits="userSpaceOnUse">
<stop stop-color="#FCC73C"/>
<stop offset="1" stop-color="#FC7A3C"/>
</linearGradient>
<linearGradient id="paint6_linear_536_7555" x1="130.025" y1="424" x2="130.025" y2="357" gradientUnits="userSpaceOnUse">
<stop stop-color="#29225E"/>
<stop offset="1" stop-color="#3F368C"/>
</linearGradient>
<linearGradient id="paint7_linear_536_7555" x1="135.441" y1="296.992" x2="135.441" y2="268" gradientUnits="userSpaceOnUse">
<stop stop-color="#29225E"/>
<stop offset="1" stop-color="#3F368C"/>
</linearGradient>
<linearGradient id="paint8_linear_536_7555" x1="163" y1="256.756" x2="163" y2="267.222" gradientUnits="userSpaceOnUse">
<stop stop-color="#FCC73C"/>
<stop offset="1" stop-color="#FC7A3C"/>
</linearGradient>
<linearGradient id="paint9_linear_536_7555" x1="94.8931" y1="233.976" x2="103" y2="233.976" gradientUnits="userSpaceOnUse">
<stop stop-color="#FCC73C"/>
<stop offset="1" stop-color="#FC7A3C"/>
</linearGradient>
</defs>
</svg>
