<svg width="19" height="17" viewBox="0 0 19 17" fill="none" xmlns="http://www.w3.org/2000/svg">
<path d="M17.1484 6.04L12.3084 5.62L10.4184 1.17C10.0784 0.36 8.91836 0.36 8.57836 1.17L6.68836 5.63L1.85836 6.04C0.978364 6.11 0.618364 7.21 1.28836 7.79L4.95836 10.97L3.85836 15.69C3.65836 16.55 4.58836 17.23 5.34836 16.77L9.49836 14.27L13.6484 16.78C14.4084 17.24 15.3384 16.56 15.1384 15.7L14.0384 10.97L17.7084 7.79C18.3784 7.21 18.0284 6.11 17.1484 6.04ZM9.49836 12.4V3.1L11.2084 7.14L15.5884 7.52L12.2684 10.4L13.2684 14.68L9.49836 12.4Z" fill="#FBBC05"/>
</svg>
