<svg width="42" height="38" viewBox="0 0 42 38" fill="none" xmlns="http://www.w3.org/2000/svg">
<g clip-path="url(#clip0_547_1133)">
<path d="M37.4303 24.2592V23.6476C37.4303 16.7051 37.4303 9.75892 37.4303 2.80892C37.4303 2.32193 37.3058 2.17468 36.8018 2.17468C26.9147 2.17468 17.0258 2.17468 7.13496 2.17468C6.95942 2.17468 6.78388 2.17469 6.5687 2.20301V2.86553C6.5687 5.13061 6.5687 7.424 6.5687 9.70607C6.5687 10.4762 6.18363 10.9519 5.56074 10.9915C5.29009 11.0186 5.01964 10.9382 4.80775 10.7676C4.59587 10.597 4.45955 10.35 4.4282 10.0798C4.40465 9.86548 4.39519 9.64982 4.39989 9.43425V2.86553C4.39989 2.65601 4.39989 2.4465 4.39989 2.16903C4.03181 2.16903 3.7147 2.16903 3.39759 2.16903C3.24994 2.18323 3.10095 2.16642 2.96018 2.11968C2.8194 2.07293 2.68995 1.99728 2.58012 1.89758C2.47029 1.79788 2.3825 1.67633 2.3224 1.54072C2.26229 1.40511 2.23119 1.25845 2.23108 1.11011C2.23399 0.959906 2.26676 0.811769 2.32747 0.674351C2.38819 0.536932 2.47564 0.412977 2.58473 0.309684C2.69382 0.20639 2.82237 0.125836 2.9629 0.0727072C3.10342 0.0195788 3.25311 -0.0050736 3.40326 0.000212808H40.273C40.4372 0.000212808 40.5958 0.000212808 40.76 0.000212808C40.8991 0.00603613 41.0357 0.0392337 41.1619 0.0979032C41.2882 0.156573 41.4017 0.239575 41.4958 0.342138C41.59 0.444701 41.663 0.564817 41.7106 0.695624C41.7583 0.82643 41.7797 0.965354 41.7736 1.10444C41.7737 1.37144 41.6696 1.62794 41.4835 1.81937C41.2974 2.01079 41.0439 2.12201 40.777 2.12939C40.4033 2.12939 40.0352 2.12939 39.6445 2.12939V24.2422H40.5448C41.3319 24.2422 41.7963 24.6669 41.7963 25.3351C41.7963 26.0033 41.3376 26.4167 40.5392 26.4223H32.283C30.7427 26.4223 29.2025 26.4223 27.6622 26.4223C26.7165 26.4223 26.1616 25.6635 26.5297 24.8991C26.6417 24.6723 26.8224 24.4867 27.0461 24.3687C27.2698 24.2508 27.5251 24.2065 27.7755 24.2422H37.453L37.4303 24.2592Z" fill="#1D3CB0"/>
<path d="M15.1363 32.2545L18.3754 28.3812C21.773 24.3116 25.1706 20.2402 28.5682 16.1668C28.7714 15.8983 29.038 15.6843 29.344 15.5439C29.5569 15.4591 29.793 15.4531 30.0099 15.5267C30.2268 15.6004 30.4104 15.7491 30.5275 15.946C30.673 16.1434 30.7438 16.3861 30.7272 16.6308C30.7106 16.8755 30.6077 17.1064 30.4369 17.2824C29.5705 18.3356 28.6928 19.3832 27.8208 20.4252C23.7512 25.2951 19.6835 30.1707 15.6177 35.0519C15.4432 35.311 15.3523 35.6173 15.3572 35.9296C15.3232 36.9376 14.9608 37.4698 14.2247 37.4642C13.4885 37.4585 13.1601 36.9376 13.1374 35.9183C13.17 34.9515 13.1227 33.9836 12.9959 33.0246C12.7302 31.7007 11.9838 30.5219 10.9005 29.7157C9.81723 28.9095 8.4738 28.533 7.12931 28.6587C5.76713 28.7848 4.50011 29.4116 3.57335 30.4178C2.6466 31.4241 2.12596 32.7383 2.11216 34.1062C2.11216 34.8084 2.11216 35.5049 2.11216 36.2071C2.11216 36.9092 1.65915 37.4755 1.0136 37.4642C0.863339 37.4589 0.715925 37.4217 0.581162 37.355C0.4464 37.2883 0.327383 37.1937 0.232027 37.0775C0.136671 36.9612 0.0671599 36.826 0.0281265 36.6808C-0.010907 36.5356 -0.0185698 36.3838 0.00564371 36.2354C-0.0281164 34.9089 0.0590715 33.5821 0.266127 32.2715C0.634153 30.6948 1.5016 29.2791 2.73931 28.2353C3.97701 27.1914 5.51875 26.5753 7.13496 26.4786C8.82046 26.3601 10.4981 26.8001 11.9085 27.7305C13.3189 28.6609 14.3837 30.0299 14.9382 31.626C14.9948 31.8185 15.0457 31.9884 15.1363 32.2545Z" fill="#1D3CB0"/>
<path d="M13.2847 18.8399C13.2881 19.9502 12.9619 21.0366 12.3476 21.9616C11.7333 22.8865 10.8584 23.6084 9.83359 24.036C8.80882 24.4635 7.68025 24.5774 6.59072 24.3632C5.50119 24.1491 4.49968 23.6165 3.71294 22.8329C2.92621 22.0494 2.3896 21.05 2.17105 19.9614C1.95251 18.8727 2.06183 17.7437 2.4852 16.7172C2.90856 15.6907 3.62694 14.8129 4.5494 14.1948C5.47186 13.5767 6.55694 13.2462 7.66732 13.2451C9.15231 13.2481 10.576 13.8378 11.6281 14.8857C12.6803 15.9336 13.2757 17.3549 13.2847 18.8399ZM7.62201 22.3281C8.07361 22.3341 8.52195 22.2508 8.94131 22.0832C9.36068 21.9155 9.74282 21.6667 10.0658 21.3511C10.3889 21.0354 10.6464 20.6591 10.8237 20.2438C11.0009 19.8284 11.0945 19.3821 11.0989 18.9305C11.1112 18.2444 10.9193 17.5701 10.5475 16.9934C10.1756 16.4166 9.64068 15.9635 9.01065 15.6916C8.38062 15.4196 7.68396 15.3412 7.00924 15.4662C6.33451 15.5912 5.7122 15.914 5.22142 16.3936C4.73063 16.8732 4.39354 17.4879 4.253 18.1596C4.11246 18.8313 4.17482 19.5295 4.43215 20.1657C4.68948 20.8018 5.13015 21.3471 5.69815 21.7321C6.26615 22.1171 6.93581 22.3246 7.62201 22.3281Z" fill="#1D3CB0"/>
<path d="M23.1378 11.025H31.4166C31.6497 11.0174 31.883 11.0325 32.1131 11.0703C32.344 11.1208 32.5516 11.2466 32.7031 11.4281C32.8545 11.6095 32.9413 11.8362 32.9498 12.0724C32.9582 12.3086 32.8878 12.5409 32.7496 12.7326C32.6115 12.9244 32.4135 13.0647 32.1868 13.1315C31.9774 13.1827 31.7622 13.2055 31.5469 13.1995H14.6154C13.8283 13.1995 13.398 12.9503 13.2507 12.4124C13.2047 12.271 13.1896 12.1214 13.2066 11.9736C13.2235 11.8259 13.272 11.6836 13.3488 11.5563C13.4256 11.429 13.529 11.3197 13.6518 11.2358C13.7746 11.152 13.9139 11.0955 14.0605 11.0703C14.2889 11.0334 14.52 11.0164 14.7513 11.0194L23.1378 11.025Z" fill="#1D3CB0"/>
<path d="M25.2329 8.8H18.9021C18.047 8.8 17.5147 8.28469 17.6223 7.57685C17.6371 7.35029 17.7298 7.13582 17.8846 6.9697C18.0393 6.80357 18.2467 6.696 18.4717 6.66517C18.7004 6.63111 18.9313 6.61407 19.1625 6.61421H31.4053C31.6539 6.60468 31.9028 6.62366 32.1471 6.67082C32.3706 6.71152 32.5731 6.82869 32.7198 7.00224C32.8665 7.17579 32.9483 7.39494 32.9512 7.62216C32.9816 7.85567 32.9283 8.0924 32.8008 8.29037C32.6733 8.48835 32.4798 8.63478 32.2547 8.70372C32.0134 8.77105 31.7633 8.80159 31.5129 8.79433L25.2329 8.8Z" fill="#1D3CB0"/>
</g>
<defs>
<clipPath id="clip0_547_1133">
<rect width="41.768" height="37.47" fill="white"/>
</clipPath>
</defs>
</svg>
