<svg width="21" height="18" viewBox="0 0 21 18" fill="none" xmlns="http://www.w3.org/2000/svg">
<path d="M19.378 1.59133C18.8738 1.08683 18.275 0.686629 17.6161 0.413583C16.9571 0.140537 16.2508 0 15.5375 0C14.8242 0 14.1179 0.140537 13.4589 0.413583C12.7999 0.686629 12.2012 1.08683 11.697 1.59133L10.6504 2.63785L9.60391 1.59133C8.58533 0.572757 7.20385 0.000527962 5.76337 0.000527973C4.32289 0.000527984 2.94141 0.572757 1.92283 1.59133C0.90426 2.6099 0.332031 3.99139 0.332031 5.43187C0.332031 6.87235 0.90426 8.25383 1.92283 9.2724L2.96936 10.3189L10.6504 18L18.3315 10.3189L19.378 9.2724C19.8825 8.76814 20.2827 8.16942 20.5558 7.51045C20.8288 6.85148 20.9694 6.14517 20.9694 5.43187C20.9694 4.71857 20.8288 4.01225 20.5558 3.35328C20.2827 2.69431 19.8825 2.09559 19.378 1.59133Z" fill="#FF7426"/>
</svg>
