<svg width="28" height="28" viewBox="0 0 28 28" fill="none" xmlns="http://www.w3.org/2000/svg">
<path fill-rule="evenodd" clip-rule="evenodd" d="M2.67569 2.67472C3.1313 2.2191 3.87 2.2191 4.32561 2.67472L10.1481 8.49724L10.1678 8.51691L25.3256 23.6747C25.7812 24.1303 25.7812 24.869 25.3256 25.3246C24.87 25.7802 24.1313 25.7802 23.6757 25.3246L19.834 21.4829V23.5633C19.834 24.9209 19.077 26.0197 18.0221 26.5285C16.9637 27.0391 15.6347 26.9349 14.6242 26.0022C11.9906 23.755 9.3818 21.884 6.79686 20.4899C6.78353 20.4827 6.77035 20.4753 6.75731 20.4676C5.83391 19.9221 4.9789 19.2044 4.38688 18.2864C3.77711 17.341 3.50065 16.1467 3.50065 15.1216C3.50065 12.7844 4.76343 10.7151 6.7479 9.65833C7.01038 9.47975 7.27609 9.31361 7.51553 9.16447L2.67569 4.32463C2.22008 3.86902 2.22008 3.13033 2.67569 2.67472ZM9.00738 10.9837C9.07305 10.9424 9.13989 10.9001 9.20755 10.8565L17.5007 19.1496V23.5633C17.5007 24.0146 17.266 24.3027 17.0083 24.4269C16.7621 24.5457 16.4697 24.5347 16.1996 24.2808C16.1861 24.2682 16.1723 24.2558 16.1583 24.2438C13.4385 21.9214 10.6938 19.943 7.92536 18.4475C7.22452 18.0306 6.68608 17.5463 6.34776 17.0218C6.02419 16.5201 5.83398 15.7848 5.83398 15.1216C5.83398 13.6259 6.64271 12.3387 7.88632 11.696C7.92998 11.6734 7.97218 11.6481 8.01266 11.6202C8.25732 11.4516 8.49552 11.3032 8.7527 11.143L8.75271 11.143L8.75278 11.1429L8.75305 11.1427C8.83559 11.0913 8.92008 11.0387 9.00738 10.9837ZM15.9852 6.04439C16.3185 5.79377 16.7046 5.78205 17.0151 5.92418C17.3271 6.06701 17.5007 6.32894 17.5007 6.63278V12.833C17.5007 13.4773 18.023 13.9997 18.6673 13.9997C19.3117 13.9997 19.834 13.4773 19.834 12.833V6.63278C19.834 3.92167 16.6691 2.62446 14.5945 4.17075C14.1679 4.47682 13.7455 4.80957 13.3474 5.12321L13.337 5.13144C12.9246 5.45633 12.5375 5.76106 12.1547 6.03526C11.6308 6.41044 11.5103 7.13924 11.8855 7.66307C12.2607 8.1869 12.9895 8.30741 13.5133 7.93222C13.9434 7.62416 14.3693 7.28863 14.7706 6.9725L14.781 6.96427C15.1934 6.63938 15.5805 6.33465 15.9633 6.06046L15.9852 6.04439Z" fill="white"/>
</svg>
