<svg width="38" height="38" viewBox="0 0 38 38" fill="none" xmlns="http://www.w3.org/2000/svg">
<g clip-path="url(#clip0_3626_638)">
<path d="M15.953 19.0381C15.953 22.6523 15.953 26.2664 15.953 29.8806C15.953 31.7236 14.6773 33.0131 12.857 33.0015C12.2919 33.0015 11.7089 33.0015 11.1667 32.8731C10.5436 32.7138 9.99151 32.349 9.59844 31.8369C9.20537 31.3247 8.99401 30.6948 8.99811 30.0475C8.99811 22.684 8.99811 15.3204 8.99811 7.95682C9.00308 7.17691 9.31223 6.4302 9.85891 5.87764C10.4056 5.32507 11.146 5.01089 11.9206 5.00282C12.4576 4.97887 12.9956 4.99949 13.5293 5.06447C14.2095 5.18128 14.8266 5.53741 15.2704 6.06944C15.7143 6.60147 15.9562 7.27486 15.953 7.96966C15.9573 11.6574 15.9573 15.3469 15.953 19.0381Z" fill="white"/>
<path d="M28.8691 19.0393C28.8691 22.6534 28.8691 26.268 28.8691 29.883C28.8691 31.7248 27.5935 33.0091 25.7731 33.0053C25.2878 33.0254 24.8017 33.0035 24.3201 32.9397C23.6422 32.8168 23.0293 32.4564 22.5897 31.9225C22.1502 31.3885 21.9123 30.7152 21.9181 30.0217C21.9181 22.6778 21.9181 15.3344 21.9181 7.99136C21.9172 7.60008 21.9931 7.21249 22.1413 6.85078C22.2894 6.48906 22.507 6.16034 22.7816 5.88343C23.0562 5.60652 23.3823 5.38687 23.7413 5.23706C24.1003 5.08725 24.4851 5.01022 24.8738 5.01039C25.4001 4.98769 25.9275 5.00831 26.4505 5.07204C27.1307 5.18909 27.7475 5.54529 28.1914 6.07727C28.6352 6.60924 28.8772 7.28249 28.8742 7.97723C28.8751 11.6607 28.8734 15.3481 28.8691 19.0393Z" fill="white"/>
</g>
<defs>
<clipPath id="clip0_3626_638">
<rect width="19.871" height="28" fill="white" transform="translate(9 5)"/>
</clipPath>
</defs>
</svg>
