<svg width="17" height="21" viewBox="0 0 17 21" fill="none" xmlns="http://www.w3.org/2000/svg">
<g clip-path="url(#clip0_6737_5354)">
<path d="M16.686 6.4756C16.681 6.36483 16.6367 6.25957 16.5611 6.17901C14.5678 4.16086 12.5697 2.14824 10.5666 0.141135C10.4807 0.0598218 10.3687 0.0122106 10.2509 0.00692393C7.54721 0.00029619 4.84354 0.00029619 2.13988 0.00692393C1.84015 0.00225805 1.54257 0.0586153 1.26498 0.172617C0.401586 0.558683 0.00195312 1.26785 0.00195312 2.20899C0.00195312 4.97055 0.00195312 7.72714 0.00195312 10.4788C0.00195312 13.2304 0.00195312 15.9919 0.00195312 18.7634C0.00195312 20.0658 0.873571 20.9771 2.13988 20.9788C6.27541 20.9788 10.4126 20.9788 14.5514 20.9788C15.7881 20.9788 16.6893 20.0857 16.6893 18.8363C16.697 14.7227 16.6959 10.6025 16.686 6.4756ZM5.25633 15.1845C4.86715 15.2831 4.47143 15.3534 4.07225 15.3949V16.7983H3.14965C3.14965 16.7221 3.13649 16.6508 3.13649 16.5779C3.13649 15.3568 3.13649 14.1356 3.13649 12.9144C3.13649 12.7488 3.17103 12.6576 3.36015 12.6593C3.92753 12.6593 4.49983 12.6129 5.06063 12.6758C5.34058 12.6982 5.60276 12.8229 5.79782 13.0265C5.99288 13.23 6.10737 13.4984 6.11973 13.781C6.16249 14.462 5.8714 14.984 5.25633 15.1845ZM10.3759 14.9856C10.2213 16.1223 9.59797 16.6923 8.34317 16.8281C7.80649 16.8597 7.26853 16.8631 6.7315 16.8381V15.0784C6.7315 14.3477 6.7315 13.617 6.7315 12.8879C6.7315 12.7355 6.76768 12.6609 6.9305 12.6626C7.52418 12.6626 8.1228 12.6013 8.70827 12.6626C9.92031 12.8051 10.5403 13.733 10.3693 14.9856H10.3759ZM13.5515 13.4099H11.9842V14.356H13.4446V15.1314H11.976V16.8H11.0452V12.6444H13.5449L13.5515 13.4099ZM9.40885 7.32892V2.20236L14.507 7.32892H9.40885Z" fill="url(#paint0_linear_6737_5354)"/>
<path d="M16.686 6.4756C16.681 6.36483 16.6367 6.25957 16.5611 6.17901C14.5678 4.16086 12.5697 2.14824 10.5666 0.141135C10.4807 0.0598218 10.3687 0.0122106 10.2509 0.00692393C7.54721 0.00029619 4.84354 0.00029619 2.13988 0.00692393C1.84015 0.00225805 1.54257 0.0586153 1.26498 0.172617C0.401586 0.558683 0.00195312 1.26785 0.00195312 2.20899C0.00195312 4.97055 0.00195312 7.72714 0.00195312 10.4788C0.00195312 13.2304 0.00195312 15.9919 0.00195312 18.7634C0.00195312 20.0658 0.873571 20.9771 2.13988 20.9788C6.27541 20.9788 10.4126 20.9788 14.5514 20.9788C15.7881 20.9788 16.6893 20.0857 16.6893 18.8363C16.697 14.7227 16.6959 10.6025 16.686 6.4756ZM5.25633 15.1845C4.86715 15.2831 4.47143 15.3534 4.07225 15.3949V16.7983H3.14965C3.14965 16.7221 3.13649 16.6508 3.13649 16.5779C3.13649 15.3568 3.13649 14.1356 3.13649 12.9144C3.13649 12.7488 3.17103 12.6576 3.36015 12.6593C3.92753 12.6593 4.49983 12.6129 5.06063 12.6758C5.34058 12.6982 5.60276 12.8229 5.79782 13.0265C5.99288 13.23 6.10737 13.4984 6.11973 13.781C6.16249 14.462 5.8714 14.984 5.25633 15.1845ZM10.3759 14.9856C10.2213 16.1223 9.59797 16.6923 8.34317 16.8281C7.80649 16.8597 7.26853 16.8631 6.7315 16.8381V15.0784C6.7315 14.3477 6.7315 13.617 6.7315 12.8879C6.7315 12.7355 6.76768 12.6609 6.9305 12.6626C7.52418 12.6626 8.1228 12.6013 8.70827 12.6626C9.92031 12.8051 10.5403 13.733 10.3693 14.9856H10.3759ZM13.5515 13.4099H11.9842V14.356H13.4446V15.1314H11.976V16.8H11.0452V12.6444H13.5449L13.5515 13.4099ZM9.40885 7.32892V2.20236L14.507 7.32892H9.40885Z" fill="url(#paint1_linear_6737_5354)"/>
<path d="M6.72461 16.8408V15.0778C6.72461 14.3471 6.72461 13.6164 6.72461 12.8874C6.72461 12.7349 6.76079 12.6604 6.92361 12.662C7.51729 12.662 8.11591 12.6007 8.70138 12.662C9.92329 12.8012 10.5433 13.7291 10.3722 14.9817C10.2177 16.1184 9.59437 16.6884 8.33957 16.8242C7.80191 16.8582 7.26285 16.8637 6.72461 16.8408ZM7.67517 16.1101C8.31161 16.1565 8.88392 16.1018 9.21941 15.4854C9.50228 14.9652 9.44143 14.1334 9.10922 13.7374C8.80663 13.3778 8.18663 13.2303 7.67517 13.3977V16.1101Z" fill="white"/>
<path d="M4.06466 15.3946V16.7981H3.14206C3.14206 16.7218 3.12891 16.6506 3.12891 16.5777C3.12891 15.3565 3.12891 14.1354 3.12891 12.9142C3.12891 12.7485 3.16344 12.6574 3.35256 12.659C3.91994 12.659 4.49225 12.6126 5.05304 12.6756C5.33299 12.698 5.59517 12.8227 5.79023 13.0262C5.98529 13.2298 6.09978 13.4981 6.11214 13.7808C6.16641 14.4618 5.87532 14.9837 5.25368 15.1842C4.86288 15.2831 4.46551 15.3534 4.06466 15.3946ZM4.06466 14.6523C4.33227 14.6233 4.59691 14.5712 4.8557 14.4966C5.11883 14.3972 5.19777 14.1486 5.18461 13.8703C5.18798 13.7569 5.15279 13.6459 5.08489 13.5554C5.01699 13.465 4.92045 13.4007 4.81129 13.3732C4.61396 13.3322 4.41212 13.3177 4.21103 13.3301C4.16333 13.3301 4.07782 13.4245 4.07617 13.4792C4.05808 13.8438 4.06302 14.2033 4.06302 14.6523H4.06466Z" fill="white"/>
<path d="M13.5454 13.41H11.9781V14.3561H13.4385V15.1316H11.9699V16.8001H11.0391V12.6445H13.5454V13.41Z" fill="white"/>
<path d="M7.67578 16.1066V13.3942C8.18724 13.2285 8.80724 13.3744 9.10984 13.7339C9.43875 14.1299 9.50289 14.9617 9.22003 15.482C8.88454 16.0984 8.31223 16.153 7.67578 16.1066Z" fill="#FF8947"/>
<path d="M4.06445 14.6531C4.06445 14.2041 4.06445 13.8445 4.06445 13.4932C4.06445 13.4386 4.15162 13.3441 4.19931 13.3441C4.40041 13.3318 4.60225 13.3462 4.79957 13.3872C4.90873 13.4147 5.00527 13.479 5.07317 13.5695C5.14107 13.6599 5.17626 13.771 5.17289 13.8843C5.19098 14.1626 5.11204 14.4112 4.84397 14.5106C4.58856 14.58 4.3278 14.6277 4.06445 14.6531Z" fill="#FF8947"/>
</g>
<defs>
<linearGradient id="paint0_linear_6737_5354" x1="8.34816" y1="0.00195313" x2="8.34816" y2="20.9788" gradientUnits="userSpaceOnUse">
<stop stop-color="#46E0B8"/>
<stop offset="1" stop-color="#00A479"/>
</linearGradient>
<linearGradient id="paint1_linear_6737_5354" x1="8.34816" y1="0.00195312" x2="8.34816" y2="20.9788" gradientUnits="userSpaceOnUse">
<stop stop-color="#FFB388"/>
<stop offset="1" stop-color="#FF7426"/>
</linearGradient>
<clipPath id="clip0_6737_5354">
<rect width="16.6923" height="21" fill="white"/>
</clipPath>
</defs>
</svg>
