<svg width="30" height="23" viewBox="0 0 30 23" fill="none" xmlns="http://www.w3.org/2000/svg">
<g clip-path="url(#clip0_3626_618)">
<path d="M15.0724 0H27.1211C29.0374 0 29.9898 0.940943 29.9898 2.86873C29.9898 4.48096 29.9898 6.09892 29.9898 7.71115C29.9898 8.42259 29.7833 9.00781 28.9571 8.98486C28.1309 8.96191 27.9874 8.41112 27.9874 7.7341C27.9874 6.11614 27.9874 4.50391 27.9874 2.88594C27.9874 2.22613 27.7407 1.99664 27.0867 1.99664C19.0542 1.99664 11.0084 1.99664 2.94916 1.99664C2.24345 1.99664 2.00823 2.24908 2.00823 2.93758C2.00823 8.65209 2.00823 14.3666 2.00823 20.0811C2.00823 20.8614 2.34099 21.0335 3.04096 21.0278C5.73183 20.9991 8.42845 21.0278 11.1193 21.0278C12.043 21.0278 12.5422 21.395 12.4848 22.0548C12.4102 22.8638 11.8422 23.0244 11.1365 23.0187C8.32517 23.0187 5.51381 23.0187 2.70246 23.0187C1.06728 23.0187 0.0288092 22.0433 0.0230718 20.4139C0.000121915 14.4928 0.000121915 8.56411 0.0230718 2.62775C0.0230718 0.952411 1.06729 0.0229547 2.78279 0.0229547L15.0724 0Z" fill="white"/>
<path d="M21.9918 22.9845C20.0812 22.9845 18.1649 22.9845 16.2543 22.9845C14.8085 22.9845 14.011 22.2271 13.9938 20.7928C13.9708 18.1153 13.9708 15.4263 13.9938 12.7259C13.9938 11.2743 14.7683 10.4998 16.2142 10.4883C20.0698 10.4883 23.9234 10.4883 27.7752 10.4883C29.1923 10.4883 29.9611 11.2514 29.9783 12.6398C30.007 15.3594 29.9783 18.0789 29.9783 20.7985C29.9783 22.2443 29.1866 22.9787 27.7293 22.9845C25.8129 22.9959 23.9024 22.9845 21.9918 22.9845ZM27.9243 20.9477V12.5595H16.0593V20.9477H27.9243Z" fill="white"/>
<path d="M11.6636 6.6095C11.6636 5.73167 11.6636 5.06039 11.6636 4.38911C11.6636 3.71783 11.9045 3.18424 12.6791 3.18998C13.4537 3.19572 13.6717 3.76373 13.6774 4.41206C13.6774 5.9038 13.6774 7.40128 13.6774 8.89302C13.7005 9.05818 13.6843 9.22644 13.6302 9.38417C13.5761 9.54191 13.4855 9.68468 13.366 9.80091C13.2464 9.91714 13.1011 10.0035 12.9419 10.0532C12.7827 10.1028 12.614 10.1141 12.4496 10.0864C10.9234 10.0864 9.40301 10.0864 7.85963 10.0864C7.19409 10.0864 6.71214 9.80527 6.71214 9.09956C6.71214 8.39385 7.17686 8.10698 7.83093 8.0955C8.485 8.08403 9.25382 8.0955 9.95953 8.0955L10.1202 7.86028C9.28824 7.07425 8.45632 6.29395 7.62439 5.50218C7.40637 5.29563 7.18834 5.08909 6.99327 4.86533C6.89033 4.77573 6.80697 4.66586 6.7484 4.5426C6.68983 4.41933 6.65731 4.28532 6.65287 4.14892C6.64843 4.01252 6.67215 3.87666 6.72257 3.74984C6.773 3.62303 6.84905 3.50798 6.94594 3.41188C7.04284 3.31577 7.1585 3.24068 7.28573 3.1913C7.41295 3.14191 7.54898 3.11929 7.68534 3.12485C7.8217 3.13041 7.95545 3.16404 8.07824 3.22362C8.20102 3.2832 8.31019 3.36744 8.39894 3.47111C9.23087 4.24567 10.0112 5.07188 10.8201 5.86938C11.0554 6.07019 11.2734 6.25378 11.6636 6.6095Z" fill="white"/>
</g>
<defs>
<clipPath id="clip0_3626_618">
<rect width="30.0012" height="22.99" fill="white"/>
</clipPath>
</defs>
</svg>
