<svg width="19" height="20" viewBox="0 0 19 20" fill="none" xmlns="http://www.w3.org/2000/svg">
<path d="M9.50782 0C9.92586 0.0866367 10.3303 0.200924 10.6772 0.452539C11.3311 0.926276 11.6906 1.54932 11.6916 2.32721C11.6988 7.44431 11.6988 12.5611 11.6916 17.6776C11.688 18.267 11.4491 18.8334 11.0227 19.2634C10.5964 19.6934 10.0141 19.9552 9.39239 19.9964C8.77068 20.0377 8.15544 19.8553 7.66983 19.4858C7.18421 19.1164 6.86406 18.5871 6.77344 18.0039C6.75026 17.8562 6.73918 17.707 6.74031 17.5578C6.74031 12.5193 6.74031 7.48087 6.74031 2.44242C6.74031 1.19632 7.53061 0.28111 8.81594 0.0331815C8.84129 0.0252834 8.86551 0.0144477 8.88805 0.000922567L9.50782 0Z" fill="url(#paint0_linear_6737_5323)"/>
<path d="M0.00357318 13.3272C0.00357318 11.8885 0.00357318 10.4507 0.00357318 9.01197C-0.002207 8.70058 0.0577367 8.39123 0.179896 8.10202C0.302055 7.81281 0.483976 7.54955 0.715014 7.32764C0.946051 7.10573 1.22156 6.92964 1.52543 6.80966C1.82929 6.68969 2.15541 6.62824 2.48468 6.62891C2.81396 6.62959 3.13979 6.69237 3.44311 6.81359C3.74642 6.93481 4.02112 7.11203 4.25114 7.33488C4.48116 7.55773 4.66187 7.82174 4.78271 8.11145C4.90354 8.40116 4.96207 8.71075 4.95486 9.02211C4.96266 10.5843 4.95486 12.1456 4.95486 13.7079C4.95486 15.0157 4.95974 16.3245 4.95486 17.6323C4.96089 18.165 4.77461 18.6836 4.4268 19.1025C4.079 19.5215 3.59048 19.8157 3.04198 19.9365C1.54714 20.2886 0.0211136 19.1992 0.00649648 17.7438C-0.0081206 16.2885 0.00649648 14.8028 0.00649648 13.3318L0.00357318 13.3272Z" fill="url(#paint1_linear_6737_5323)"/>
<path d="M18.4561 16.6552C18.4347 17.1353 18.4561 17.622 18.383 18.0939C18.2066 19.2082 17.1065 20.0239 15.8777 19.9962C14.7083 19.9704 13.6188 19.0948 13.5282 17.9962C13.4541 17.1152 13.4541 16.2301 13.5282 15.3492C13.6256 14.1676 14.8262 13.2616 16.0677 13.3298C17.3793 13.4017 18.4064 14.3879 18.4356 15.6008C18.4434 15.9519 18.4356 16.3031 18.4356 16.6542L18.4561 16.6552Z" fill="url(#paint2_linear_6737_5323)"/>
<defs>
<linearGradient id="paint0_linear_6737_5323" x1="9.2186" y1="0" x2="9.2186" y2="20.0022" gradientUnits="userSpaceOnUse">
<stop stop-color="#FFB388"/>
<stop offset="1" stop-color="#FF7426"/>
</linearGradient>
<linearGradient id="paint1_linear_6737_5323" x1="2.47917" y1="6.62891" x2="2.47917" y2="20.0031" gradientUnits="userSpaceOnUse">
<stop stop-color="#FFB388"/>
<stop offset="1" stop-color="#FF7426"/>
</linearGradient>
<linearGradient id="paint2_linear_6737_5323" x1="15.9644" y1="13.3262" x2="15.9644" y2="19.9969" gradientUnits="userSpaceOnUse">
<stop stop-color="#FFB388"/>
<stop offset="1" stop-color="#FF7426"/>
</linearGradient>
</defs>
</svg>
