<svg width="18" height="18" viewBox="0 0 18 18" fill="none" xmlns="http://www.w3.org/2000/svg">
<g clip-path="url(#clip0_1194_4795)">
<path d="M17.184 18C17.0137 17.8919 16.8514 17.7718 16.6981 17.6407C15.3369 16.2795 13.9757 14.9252 12.6146 13.5776C12.5657 13.5295 12.5206 13.4776 12.4798 13.4224C11.5515 14.2111 10.4454 14.7626 9.25686 15.0293C8.06826 15.296 6.83269 15.2701 5.65634 14.9537C3.84331 14.5044 2.26936 13.3816 1.25433 11.8135C0.244696 10.2947 -0.184665 8.46319 0.0446884 6.65383C0.274042 4.84447 1.1468 3.17805 2.50348 1.95912C3.86016 0.740187 5.61014 0.0501375 7.43364 0.0150766C9.25714 -0.0199844 11.0324 0.602299 12.4349 1.76818C13.2139 2.39907 13.8562 3.18215 14.3224 4.0696C14.7885 4.95705 15.0689 5.93023 15.1464 6.92968C15.2423 7.92495 15.1373 8.92937 14.8378 9.88333C14.5383 10.8373 14.0503 11.7214 13.4027 12.4832C13.4517 12.5363 13.4966 12.5853 13.5415 12.6262C14.9027 13.9873 16.2639 15.3485 17.625 16.7096C17.7561 16.8629 17.8762 17.0253 17.9844 17.1956V17.4814C17.9446 17.6047 17.8761 17.7168 17.7845 17.8084C17.693 17.9 17.5809 17.9684 17.4576 18.0082L17.184 18ZM1.32783 7.60756C1.32783 8.84728 1.69546 10.0592 2.38422 11.09C3.07297 12.1208 4.05192 12.9241 5.19727 13.3986C6.34263 13.873 7.60295 13.9971 8.81885 13.7553C10.0347 13.5134 11.1516 12.9164 12.0282 12.0398C12.9049 11.1632 13.5018 10.0463 13.7437 8.83041C13.9856 7.61451 13.8614 6.35419 13.387 5.20883C12.9126 4.06348 12.1092 3.08453 11.0784 2.39578C10.0476 1.70703 8.83572 1.33939 7.59599 1.33939C6.77323 1.33939 5.95855 1.5016 5.19852 1.8167C4.43849 2.13181 3.74802 2.59363 3.16662 3.17579C2.58522 3.75795 2.12429 4.44902 1.81018 5.20946C1.49606 5.96989 1.33493 6.7848 1.33601 7.60756H1.32783Z" fill="#FF7426"/>
<path d="M2.7075 7.39069C2.69879 6.78614 2.81059 6.18593 3.03635 5.62505C3.2621 5.06417 3.59731 4.55385 4.0224 4.1239C4.1398 3.99794 4.30216 3.92342 4.47421 3.91654C4.64627 3.90966 4.8141 3.97098 4.94118 4.08717C5.00716 4.14339 5.06111 4.21232 5.09985 4.28987C5.13858 4.36741 5.16131 4.45196 5.16664 4.53848C5.17198 4.625 5.15982 4.71171 5.1309 4.79343C5.10198 4.87514 5.0569 4.95019 4.99833 5.0141C4.5771 5.42656 4.28244 5.95075 4.14899 6.52499C4.089 6.92241 4.05759 7.32363 4.05505 7.72554C4.05529 7.8326 4.02955 7.93811 3.98003 8.03302C3.9305 8.12794 3.85867 8.20943 3.77072 8.27047C3.68277 8.33151 3.58132 8.3703 3.47508 8.3835C3.36883 8.3967 3.26098 8.38391 3.16076 8.34624C3.04843 8.30462 2.95032 8.23177 2.87798 8.13628C2.80564 8.04079 2.76207 7.92662 2.75242 7.80721C2.72383 7.68063 2.71975 7.52953 2.7075 7.39069Z" fill="#FF7426"/>
</g>
<defs>
<clipPath id="clip0_1194_4795">
<rect width="18" height="18" fill="white"/>
</clipPath>
</defs>
</svg>
