<svg width="24" height="24" viewBox="0 0 24 24" fill="none" xmlns="http://www.w3.org/2000/svg">
<rect width="24" height="24" rx="7" fill="#FFEFE6"/>
<g clip-path="url(#clip0_7917_4328)">
<path d="M11.7255 19.9997C11.5033 19.933 11.2683 19.8916 11.0611 19.7938C10.164 19.3692 9.69068 18.6536 9.66419 17.6606C9.64807 17.0416 9.65959 16.4214 9.66189 15.8024C9.66419 14.6679 9.26575 13.6957 8.4608 12.8995C7.66851 12.116 7.14339 11.1932 6.93381 10.0944C6.49736 7.81047 7.67888 5.49665 9.79317 4.50024C12.626 3.16327 15.999 4.6107 16.9203 7.59876C17.5179 9.53519 17.0803 11.2737 15.6904 12.7488C15.2044 13.2642 14.7829 13.805 14.5572 14.4827C14.4214 14.8912 14.3523 15.31 14.3523 15.7403C14.3534 16.3547 14.3523 16.9691 14.3523 17.5835C14.3511 18.825 13.568 19.757 12.3428 19.9756C12.3243 19.979 12.3071 19.9928 12.2886 20.0009C12.1009 19.9997 11.9132 19.9997 11.7255 19.9997ZM13.4252 15.2467C13.4702 15.012 13.5035 14.7911 13.5565 14.5747C13.7914 13.6186 14.2981 12.8282 14.9868 12.1286C16.1176 10.9815 16.4781 9.59963 16.0773 8.04864C15.5349 5.94998 13.4909 4.65442 11.3225 4.99845C9.02392 5.36318 7.40941 7.52167 7.86198 9.96436C8.0278 10.8572 8.47116 11.6028 9.1218 12.2333C9.73214 12.8247 10.1582 13.5335 10.3954 14.3492C10.4807 14.6415 10.5313 14.9429 10.5981 15.2467C11.5367 15.2467 12.4786 15.2467 13.4252 15.2467ZM10.6062 16.1959C10.6039 16.227 10.6004 16.2523 10.6004 16.2765C10.6016 16.7758 10.582 17.2763 10.6096 17.7734C10.6476 18.466 11.2407 19.0264 11.9293 19.0597C12.641 19.0942 13.2997 18.6075 13.378 17.9126C13.4402 17.3523 13.4045 16.7816 13.4114 16.2155C13.4114 16.2074 13.3988 16.2005 13.3941 16.1948C12.4648 16.1959 11.5401 16.1959 10.6062 16.1959Z" fill="#FF7426"/>
<path d="M4.42493 8.69141H5.47287C5.70779 8.69141 5.8978 8.88125 5.8978 9.11597V9.20457C5.8978 9.43928 5.70779 9.62913 5.47287 9.62913H4.42493C4.19001 9.62798 4 9.43813 4 9.20457V9.11597C4 8.88125 4.19001 8.69141 4.42493 8.69141Z" fill="#FF7426"/>
<path d="M4.83212 5.74885L4.84249 5.73849C5.00832 5.57396 5.27663 5.57396 5.44246 5.73964L6.18638 6.48292C6.35336 6.64975 6.35221 6.91899 6.18638 7.08467L6.17256 7.09733C6.00558 7.26186 5.73726 7.26071 5.57259 7.09503L4.82982 6.3483C4.66515 6.18147 4.6663 5.91338 4.83212 5.74885Z" fill="#FF7426"/>
<path d="M19.1666 5.74955L19.1724 5.7553C19.3382 5.92099 19.3382 6.19023 19.1712 6.35591C18.9248 6.59983 18.6772 6.84606 18.4319 7.08998C18.2661 7.25451 17.9989 7.25451 17.8331 7.08998L17.8285 7.08538C17.6615 6.91969 17.6615 6.65046 17.8274 6.48477L18.5655 5.74725C18.7325 5.58387 19.0008 5.58387 19.1666 5.74955Z" fill="#FF7426"/>
<path d="M4.8582 12.5597L4.83516 12.5367C4.66934 12.371 4.66934 12.1006 4.83632 11.9361L5.56872 11.2101C5.7357 11.0444 6.00517 11.0444 6.16984 11.2112L6.19172 11.2331C6.3564 11.3988 6.3564 11.6668 6.19057 11.8325L5.45932 12.5608C5.29234 12.7254 5.02402 12.7254 4.8582 12.5597Z" fill="#FF7426"/>
<path d="M19.168 12.5478L19.138 12.5778C18.9722 12.7434 18.7027 12.7434 18.5369 12.5766L17.8045 11.8425C17.6375 11.6757 17.6387 11.4065 17.8045 11.2419L17.8344 11.212C18.0003 11.0463 18.2686 11.0463 18.4344 11.2132L19.168 11.9484C19.3338 12.1141 19.3338 12.3822 19.168 12.5478Z" fill="#FF7426"/>
<path d="M18.1133 9.19282V9.12378C18.1133 8.88906 18.3033 8.69922 18.5382 8.69922H19.5781C19.813 8.69922 20.003 8.88906 20.003 9.12378V9.19282C20.003 9.42754 19.813 9.61738 19.5781 9.61738H18.5382C18.3033 9.61738 18.1133 9.42754 18.1133 9.19282Z" fill="#FF7426"/>
<path d="M12.266 10.5572H11.7455C11.6326 10.5572 11.5405 10.4686 11.5348 10.3558C11.5014 9.68271 11.6718 9.08441 12.2453 8.62993C12.4203 8.49186 12.5171 8.32847 12.456 8.10296C12.3961 7.87745 12.1866 7.73247 11.9643 7.75433C11.734 7.77619 11.5497 7.96489 11.5394 8.20076C11.5359 8.2882 11.5359 8.3768 11.5359 8.46654C11.5371 8.5839 11.4426 8.6794 11.3252 8.6794H10.8093C10.6987 8.6794 10.6054 8.59311 10.5985 8.48265C10.5594 7.82682 10.7563 7.301 11.3609 6.97769C11.9896 6.64172 12.7566 6.84077 13.1619 7.42412C13.565 8.00401 13.489 8.80942 12.9385 9.2616C12.5827 9.55384 12.4318 9.89212 12.4733 10.3362C12.4733 10.3374 12.4733 10.3374 12.4733 10.3385C12.4848 10.4571 12.3846 10.5572 12.266 10.5572Z" fill="#FF7426"/>
<path d="M11.7 11.5078H12.3115C12.3967 11.5078 12.4647 11.5768 12.4647 11.6608V12.2729C12.4647 12.3581 12.3956 12.426 12.3115 12.426H11.7C11.6148 12.426 11.5469 12.3569 11.5469 12.2729V11.6608C11.5469 11.5768 11.616 11.5078 11.7 11.5078Z" fill="#FF7426"/>
</g>
<defs>
<clipPath id="clip0_7917_4328">
<rect width="16" height="16" fill="white" transform="translate(4 4)"/>
</clipPath>
</defs>
</svg>
