<svg width="24" height="23" viewBox="0 0 24 23" fill="none" xmlns="http://www.w3.org/2000/svg">
<g clip-path="url(#clip0_6857_6442)">
<path fill-rule="evenodd" clip-rule="evenodd" d="M12.7266 0.215153L14.2817 0.951608L16.4838 1.09344C16.7949 1.11371 17.4783 1.3436 17.9014 1.939L18.9379 3.3184L20.8212 4.47179C21.0894 4.63622 21.5871 5.15759 21.6858 5.88391L21.9665 7.58906L23.1018 9.49137C23.2628 9.76335 23.4618 10.4569 23.2138 11.1443L22.6734 12.7879L22.7993 15.0011C22.818 15.3129 22.6734 16.0236 22.136 16.5177L20.8989 17.7186L19.9868 19.7355C19.857 20.0223 19.4021 20.5834 18.6984 20.7673L17.0468 21.2536L15.3066 22.619C15.0585 22.813 14.3968 23.0959 13.6869 22.9307L12.0034 22.5894L9.83319 22.979C9.52216 23.0351 8.80679 22.979 8.25626 22.4997L6.92038 21.4087L4.8147 20.7486C4.51533 20.6551 3.90882 20.2686 3.63978 19.5874L2.96251 17.9984L1.40735 16.425C1.18652 16.1997 0.825722 15.5739 0.904257 14.8461L1.03956 13.1183L0.391056 10.9993C0.296969 10.697 0.268198 9.97455 0.673316 9.36278L1.58386 7.90234L1.98898 5.72025C2.04652 5.40853 2.35522 4.75702 2.99439 4.40788L4.48423 3.53972L5.85121 1.79873C6.04483 1.55168 6.62102 1.11682 7.34805 1.10669L9.0665 1.02876L11.082 0.124752C11.3674 -0.00305614 12.0781 -0.119175 12.7266 0.212035V0.215153Z" fill="#FFC9A4"/>
<path fill-rule="evenodd" clip-rule="evenodd" d="M11.8324 20.3887C13.5871 20.3907 15.3029 19.8711 16.7629 18.8955C18.2228 17.92 19.3613 16.5323 20.0342 14.9082C20.7071 13.284 20.8842 11.4963 20.5432 9.77127C20.2022 8.04619 19.3583 6.46125 18.1183 5.21697C16.8783 3.97268 15.2979 3.12495 13.5771 2.78103C11.8563 2.43711 10.0724 2.61245 8.45104 3.28487C6.82968 3.95729 5.44375 5.09658 4.46858 6.55859C3.49341 8.02061 2.97281 9.73966 2.97266 11.4983C2.97184 12.6651 3.20037 13.8207 3.64519 14.8989C4.09001 15.9772 4.74241 16.9572 5.56513 17.7827C6.38785 18.6083 7.36478 19.2634 8.44013 19.7105C9.51547 20.1577 10.6682 20.3881 11.8324 20.3887Z" fill="#FFAA6D"/>
<path opacity="0.9" fill-rule="evenodd" clip-rule="evenodd" d="M20.6929 11.4992C20.6944 9.59073 20.0827 7.7325 18.9483 6.19963C17.814 4.66675 16.2172 3.54073 14.3945 2.98828C16.1052 5.44547 17.1643 8.81602 17.1643 12.538C17.1717 14.4547 16.8792 16.3607 16.2973 18.1865C16.1599 18.6152 16.0065 19.0308 15.8369 19.4334C17.2995 18.6899 18.5279 17.5547 19.3858 16.1538C20.2437 14.753 20.6975 13.1413 20.6968 11.4977L20.6929 11.4992Z" fill="#D17948"/>
<path opacity="0.18" fill-rule="evenodd" clip-rule="evenodd" d="M23.2135 11.1444C23.4616 10.4578 23.2625 9.76419 23.1016 9.49221L21.9663 7.58989L21.6856 5.88475C21.5876 5.15842 21.0892 4.63784 20.8209 4.47262L18.9376 3.31845L17.9011 1.93984C17.4781 1.34444 16.797 1.11454 16.4836 1.09428L14.2815 0.954783L12.7263 0.218328C12.3011 0.00996196 11.8186 -0.0501054 11.3555 0.0476573C12.497 0.749043 13.5249 1.7528 14.388 2.99036C16.0831 3.50558 17.5856 4.51736 18.7022 5.89552C19.8188 7.27368 20.4983 8.95518 20.6535 10.7237C20.8086 12.4921 20.4322 14.2667 19.5727 15.8189C18.7131 17.3712 17.4098 18.6302 15.8304 19.434C15.6065 19.9725 15.3513 20.4973 15.0661 21.0058C14.6827 21.6905 14.237 22.3383 13.7349 22.9409C14.0441 23.0025 14.3633 22.9921 14.668 22.9105C14.898 22.8548 15.1154 22.7559 15.3087 22.619L17.0489 21.2568L18.7005 20.7705C19.4003 20.5866 19.8598 20.0255 19.9889 19.7387L20.901 17.7187L22.0977 16.5559L22.1382 16.5178C22.6755 16.0237 22.8201 15.316 22.8014 15.0012L22.6755 12.7879L23.2135 11.1444Z" fill="#A44A24"/>
<path d="M15.1924 13.5723C15.2008 14.0246 15.1047 14.4727 14.9117 14.8816C14.7267 15.2572 14.4577 15.585 14.1256 15.8393C13.7665 16.1103 13.3593 16.3105 12.9258 16.4293C12.4289 16.5678 11.9151 16.6357 11.3994 16.6311C11.0841 16.6326 10.7691 16.6084 10.4577 16.5587C10.1946 16.5176 9.93474 16.4577 9.68016 16.3794C9.48814 16.3219 9.30136 16.2482 9.12185 16.1589C9.02003 16.1106 8.92337 16.0521 8.83337 15.9843C8.79029 15.946 8.75538 15.8993 8.73073 15.8471C8.70571 15.7891 8.68543 15.7292 8.67008 15.6679C8.64979 15.5829 8.63704 15.4964 8.63198 15.4092C8.62498 15.3055 8.62109 15.18 8.62109 15.0328C8.62109 14.7888 8.64131 14.6205 8.68174 14.5262C8.6935 14.4866 8.71741 14.4517 8.75008 14.4266C8.78275 14.4014 8.8225 14.3872 8.8637 14.3859C8.95728 14.4014 9.04656 14.4365 9.12574 14.4888C9.27979 14.5708 9.43812 14.6444 9.60006 14.7093C9.82071 14.797 10.0467 14.8707 10.2766 14.9299C10.5643 15.002 10.8602 15.0366 11.1568 15.0328C11.4061 15.037 11.6545 15.0036 11.8939 14.9338C12.0911 14.8759 12.2757 14.7815 12.4382 14.6556C12.5838 14.5411 12.6987 14.3922 12.7726 14.2223C12.8476 14.0427 12.8849 13.8496 12.8822 13.6549C12.8855 13.4419 12.84 13.2311 12.7493 13.0385C12.6578 12.8526 12.5221 12.692 12.3542 12.5709C12.1551 12.4298 11.9311 12.3277 11.6941 12.2701C11.3874 12.1942 11.0722 12.1583 10.7563 12.1633H9.90488C9.84799 12.1649 9.79131 12.1559 9.7377 12.1368C9.68787 12.1147 9.64759 12.0755 9.62417 12.0261C9.58843 11.9529 9.56655 11.8736 9.55963 11.7923C9.54499 11.6646 9.5385 11.536 9.54019 11.4074C9.53856 11.2868 9.54505 11.1662 9.55963 11.0465C9.56661 10.971 9.58716 10.8973 9.62028 10.8291C9.64317 10.783 9.68062 10.7457 9.72681 10.7231C9.77572 10.7014 9.82883 10.6907 9.88233 10.692H10.7377C11.002 10.6962 11.2655 10.6618 11.5199 10.5899C11.7284 10.5311 11.9231 10.4315 12.093 10.2968C12.245 10.1737 12.3664 10.0168 12.4476 9.8386C12.5301 9.65032 12.5715 9.4465 12.5689 9.24086C12.5698 9.07862 12.5413 8.91755 12.4849 8.76548C12.4321 8.61908 12.348 8.48607 12.2384 8.37582C12.1184 8.25976 11.9746 8.17145 11.8169 8.11709C11.6217 8.04968 11.4161 8.01749 11.2097 8.02201C10.9569 8.02016 10.7055 8.05992 10.4655 8.13969C10.2508 8.21096 10.0413 8.29742 9.83878 8.39842C9.65372 8.49272 9.49743 8.58 9.37224 8.66105C9.28841 8.72427 9.19045 8.766 9.08686 8.78262C9.04987 8.78358 9.01331 8.77442 8.98111 8.75613C8.94458 8.73137 8.91724 8.69521 8.90336 8.65326C8.87851 8.58207 8.86309 8.50792 8.85748 8.43271C8.84634 8.30886 8.84141 8.18454 8.8427 8.0602C8.8427 7.93317 8.8427 7.8264 8.85048 7.74379C8.85317 7.67329 8.86334 7.60328 8.8808 7.53494C8.89361 7.48443 8.91268 7.43573 8.93757 7.38998C8.96815 7.34098 9.0059 7.29685 9.04954 7.25906C9.14663 7.17778 9.25072 7.10528 9.36057 7.04241C9.54915 6.9308 9.74747 6.83663 9.95309 6.76107C10.2206 6.6603 10.496 6.5821 10.7765 6.52728C11.1095 6.4617 11.4481 6.42985 11.7874 6.4322C12.2148 6.42532 12.6408 6.48178 13.0517 6.59976C13.39 6.69616 13.705 6.86056 13.9778 7.08293C14.228 7.29256 14.4236 7.56001 14.5478 7.86225C14.6813 8.19276 14.7469 8.54689 14.7406 8.90342C14.7429 9.18647 14.7044 9.46837 14.6263 9.7404C14.5555 9.98875 14.4426 10.2231 14.2928 10.4332C14.1431 10.6386 13.9564 10.8142 13.7422 10.9507C13.5071 11.0987 13.249 11.2067 12.9786 11.2702V11.2928C13.3001 11.3263 13.6135 11.4144 13.9055 11.5531C14.1658 11.6783 14.4011 11.8499 14.5999 12.0597C14.7874 12.2595 14.9357 12.4929 15.0369 12.7478C15.1404 13.0103 15.1932 13.2901 15.1924 13.5723Z" fill="#FFEDE1"/>
<path opacity="0.2" fill-rule="evenodd" clip-rule="evenodd" d="M15.1931 14.1804C15.5819 11.4917 12.977 11.2969 12.977 11.2969C14.26 12.4292 12.6271 14.5139 12.6271 14.5139C11.4156 15.6766 8.77344 15.9081 8.77344 15.9081C8.77344 15.9081 9.15367 16.6173 11.3573 16.6173C13.5859 16.6181 14.9956 15.5473 15.1931 14.1804Z" fill="#A44A24"/>
</g>
<defs>
<clipPath id="clip0_6857_6442">
<rect width="23" height="23" fill="white" transform="translate(0.332031)"/>
</clipPath>
</defs>
</svg>
