<svg width="30" height="30" viewBox="0 0 30 30" fill="none" xmlns="http://www.w3.org/2000/svg">
<g clip-path="url(#clip0_6857_6458)">
<path fill-rule="evenodd" clip-rule="evenodd" d="M16.1668 0.282367L18.1952 1.24296L21.0676 1.42796C21.4733 1.45439 22.3648 1.75426 22.9165 2.53087L24.2685 4.33007L26.725 5.83958C27.0749 6.05304 27.724 6.73308 27.8528 7.68148L28.2189 9.90457L29.6997 12.3869C29.9096 12.7406 30.1693 13.6453 29.8458 14.5418L29.1358 16.6856L29.3001 19.5725C29.3244 19.9842 29.1358 20.9062 28.4349 21.5516L26.8213 23.1171L25.6316 25.7528C25.4622 26.1259 24.8689 26.8578 23.951 27.0977L21.7968 27.732L19.5269 29.5088C19.2034 29.7629 18.3403 30.1309 17.4143 29.9154L15.2235 29.4671L12.3928 29.9754C11.9871 30.0486 11.054 29.9754 10.336 29.3502L8.59351 27.9271L5.85001 27.058C5.45953 26.935 4.66842 26.4308 4.3175 25.5434L3.4341 23.4708L1.40564 21.4175C1.1176 21.1247 0.646988 20.3085 0.749426 19.358L0.922862 17.1136L0.0769886 14.3487C-0.0457336 13.9553 -0.0832598 13.012 0.445156 12.2141L1.63282 10.3122L2.16124 7.46598C2.2363 7.05938 2.63895 6.20857 3.47265 5.75318L5.41591 4.61978L7.19894 2.34891C7.45148 2.02668 8.20303 1.45948 9.15133 1.44626L11.3928 1.34461L14.0217 0.165469C14.3939 -0.00123697 15.3209 -0.151679 16.1668 0.279318V0.282367Z" fill="#FFE287"/>
<path fill-rule="evenodd" clip-rule="evenodd" d="M15.0015 26.5947C17.29 26.5971 19.5277 25.9192 21.4317 24.6467C23.3357 23.3742 24.8203 21.5644 25.6978 19.4461C26.5753 17.3278 26.8062 14.9962 26.3613 12.7464C25.9164 10.4966 24.8156 8.42954 23.1984 6.8068C21.5811 5.18406 19.5199 4.07852 17.2756 3.63005C15.0313 3.18158 12.7047 3.41033 10.5902 4.28735C8.4756 5.16438 6.66808 6.65027 5.39627 8.55706C4.12446 10.4638 3.44552 12.7058 3.44531 14.9994C3.44438 16.5213 3.74255 18.0284 4.32281 19.4348C4.90307 20.8412 5.75405 22.1192 6.82715 23.1959C7.90026 24.2727 9.17447 25.127 10.577 25.7101C11.9796 26.2933 13.483 26.5939 15.0015 26.5947Z" fill="#FDB440"/>
<path fill-rule="evenodd" clip-rule="evenodd" d="M26.5563 14.9987C26.5572 12.5088 25.7583 10.0848 24.2778 8.08529C22.7974 6.08579 20.714 4.61708 18.3359 3.89648C20.5672 7.10151 21.9486 11.4979 21.9486 16.3527C21.9584 18.853 21.5768 21.3395 20.8178 23.7213C20.6379 24.2797 20.4378 24.8218 20.2173 25.3477C22.1252 24.3783 23.7276 22.8979 24.8466 21.0708C25.9656 19.2437 26.5574 17.1415 26.5563 14.9977V14.9987Z" fill="#FE9900"/>
<path fill-rule="evenodd" clip-rule="evenodd" d="M29.846 14.5365C30.1695 13.6399 29.9099 12.7352 29.6999 12.3815L28.2191 9.90427L27.853 7.68118C27.7252 6.73278 27.0751 6.05478 26.7252 5.83928L24.2687 4.33384L22.9167 2.53463C22.365 1.75803 21.4765 1.45816 21.0678 1.43173L18.1955 1.24673L16.167 0.286134C15.6124 0.0143523 14.983 -0.0639961 14.3789 0.0635205C15.8678 0.978372 17.2086 2.28762 18.3344 3.90183C20.5454 4.57385 22.5052 5.89356 23.9616 7.69117C25.418 9.48877 26.3044 11.682 26.5067 13.9887C26.7091 16.2954 26.2181 18.61 25.097 20.6348C23.9759 22.6595 22.2759 24.3017 20.2158 25.35C19.9242 26.0526 19.5913 26.7372 19.2188 27.4003C18.7186 28.2951 18.137 29.1417 17.4814 29.9293C17.8849 30.0089 18.3012 29.9949 18.6985 29.8887C18.9987 29.8165 19.2824 29.6874 19.5343 29.5085L21.8041 27.7317L23.9583 27.0974C24.8762 26.8575 25.4706 26.1256 25.6389 25.7525L26.8286 23.1168L28.3875 21.594L28.4402 21.5452C29.1411 20.8998 29.3297 19.9778 29.3054 19.5661L29.1411 16.6792L29.846 14.5365Z" fill="#FFD64D"/>
<path fill-rule="evenodd" clip-rule="evenodd" d="M16.8485 20.6306V9.7703C16.8556 9.57699 16.8232 9.38427 16.7535 9.2039C16.6837 9.02354 16.578 8.85932 16.4428 8.72128C16.3147 8.58957 16.1611 8.48554 15.9914 8.41561C15.8216 8.34568 15.6394 8.31133 15.456 8.31468H12.7409C12.5558 8.31164 12.372 8.34609 12.2005 8.41596C12.029 8.48583 11.8733 8.58967 11.7428 8.72128C11.6118 8.84614 11.5075 8.99641 11.4362 9.16294C11.3649 9.32947 11.3281 9.50879 11.3281 9.69C11.3281 9.87122 11.3649 10.0505 11.4362 10.2171C11.5075 10.3836 11.6118 10.5339 11.7428 10.6587C12.0142 10.9114 12.3705 11.0525 12.7409 11.0541H13.8129V20.6306C13.8114 20.826 13.8498 21.0197 13.9257 21.1997C14.0016 21.3798 14.1133 21.5424 14.2541 21.6776C14.3949 21.8221 14.5637 21.9361 14.7502 22.0127C14.9367 22.0893 15.1368 22.1267 15.3383 22.1228C15.5354 22.1247 15.7308 22.0875 15.9135 22.0135C16.0962 21.9394 16.2625 21.8299 16.4028 21.6912C16.5431 21.5526 16.6547 21.3875 16.7312 21.2055C16.8077 21.0235 16.8476 20.8281 16.8485 20.6306Z" fill="#FFF1C7"/>
<path fill-rule="evenodd" clip-rule="evenodd" d="M16.8497 20.63V10.2617C16.8497 14.2688 15.7097 17.9343 13.8242 20.754C13.8507 21.1058 14.0061 21.4352 14.2603 21.6791C14.4012 21.8235 14.57 21.9376 14.7565 22.0141C14.9429 22.0907 15.1431 22.1282 15.3446 22.1243C15.5414 22.1255 15.7365 22.0878 15.9187 22.0133C16.1009 21.9388 16.2667 21.829 16.4065 21.6902C16.5463 21.5514 16.6574 21.3863 16.7335 21.2044C16.8095 21.0224 16.849 20.8273 16.8497 20.63Z" fill="#FFE287"/>
</g>
<defs>
<clipPath id="clip0_6857_6458">
<rect width="30" height="30" fill="white"/>
</clipPath>
</defs>
</svg>
