<svg width="24" height="23" viewBox="0 0 24 23" fill="none" xmlns="http://www.w3.org/2000/svg">
<g clip-path="url(#clip0_6857_6319)">
<path fill-rule="evenodd" clip-rule="evenodd" d="M12.6367 0.215153L14.1919 0.951608L16.394 1.09344C16.705 1.11371 17.3885 1.3436 17.8115 1.939L18.848 3.31839L20.7313 4.47178C20.9996 4.63622 21.4972 5.15758 21.596 5.88391L21.8767 7.58905L23.0119 9.49137C23.1729 9.76335 23.372 10.4569 23.1239 11.1443L22.5835 12.7879L22.7095 15.0011C22.7281 15.3129 22.5835 16.0236 22.0462 16.5177L20.8091 17.7186L19.897 19.7355C19.7671 20.0223 19.3122 20.5834 18.6085 20.7673L16.9569 21.2536L15.2167 22.619C14.9687 22.813 14.307 23.0959 13.597 22.9307L11.9136 22.5894L9.74335 22.979C9.43232 23.0351 8.71694 22.979 8.16642 22.4997L6.83054 21.4087L4.72486 20.7486C4.42549 20.6551 3.81898 20.2685 3.54994 19.5874L2.87266 17.9984L1.31751 16.425C1.09667 16.1997 0.735878 15.5739 0.814413 14.8461L0.949713 13.1183L0.301212 10.9993C0.207125 10.697 0.178354 9.97454 0.583473 9.36278L1.49402 7.90234L1.89914 5.72025C1.95668 5.40852 2.26538 4.75701 2.90454 4.40788L4.39439 3.53972L5.76137 1.79873C5.95499 1.55168 6.53117 1.11682 7.25821 1.10669L8.97666 1.02876L10.9921 0.124752C11.2775 -0.00305614 11.9882 -0.119175 12.6367 0.212035V0.215153Z" fill="#E6E2E6"/>
<path fill-rule="evenodd" clip-rule="evenodd" d="M11.7386 20.3887C13.4933 20.3907 15.2092 19.8711 16.6691 18.8955C18.1291 17.92 19.2675 16.5323 19.9404 14.9082C20.6133 13.284 20.7905 11.4963 20.4494 9.77126C20.1084 8.04619 19.2645 6.46125 18.0245 5.21696C16.7845 3.97268 15.2042 3.12495 13.4834 2.78103C11.7626 2.43711 9.97864 2.61245 8.35729 3.28487C6.73593 3.95729 5.35 5.09658 4.37483 6.55859C3.39966 8.02061 2.87906 9.73966 2.87891 11.4983C2.87809 12.6651 3.10662 13.8206 3.55144 14.8989C3.99626 15.9772 4.64866 16.9572 5.47138 17.7827C6.2941 18.6083 7.27103 19.2634 8.34638 19.7105C9.42172 20.1577 10.5744 20.3881 11.7386 20.3887Z" fill="#AB9FAA"/>
<path fill-rule="evenodd" clip-rule="evenodd" d="M20.5992 11.4992C20.6007 9.59073 19.989 7.7325 18.8546 6.19963C17.7202 4.66675 16.1235 3.54073 14.3008 2.98828C16.0115 5.44547 17.0705 8.81602 17.0705 12.538C17.078 14.4547 16.7854 16.3607 16.2035 18.1865C16.0661 18.6152 15.9127 19.0308 15.7432 19.4334C17.2058 18.6899 18.4342 17.5547 19.2921 16.1538C20.1499 14.753 20.6037 13.1413 20.6031 11.4976L20.5992 11.4992Z" fill="#9C8F9A"/>
<path fill-rule="evenodd" clip-rule="evenodd" d="M23.1198 11.1444C23.3678 10.4578 23.1688 9.76419 23.0078 9.49221L21.8726 7.58989L21.5918 5.88475C21.4939 5.15842 20.9954 4.63784 20.7272 4.47262L18.8439 3.31845L17.8074 1.93984C17.3844 1.34444 16.7032 1.11454 16.3898 1.09428L14.1877 0.954783L12.6326 0.218328C12.2074 0.00996196 11.7249 -0.0501055 11.2617 0.0476573C12.4032 0.749043 13.4312 1.7528 14.2943 2.99036C15.9894 3.50558 17.4919 4.51736 18.6084 5.89552C19.725 7.27369 20.4046 8.95518 20.5597 10.7237C20.7148 12.4921 20.3384 14.2667 19.4789 15.8189C18.6194 17.3712 17.3161 18.6302 15.7367 19.434C15.5128 19.9725 15.2576 20.4973 14.9723 21.0058C14.5889 21.6905 14.1433 22.3383 13.6411 22.9409C13.9504 23.0025 14.2696 22.9921 14.5742 22.9105C14.8042 22.8548 15.0217 22.7559 15.2149 22.619L16.9551 21.2568L18.6067 20.7705C19.3065 20.5866 19.7661 20.0255 19.8952 19.7387L20.8073 17.7187L22.004 16.5559L22.0444 16.5178C22.5817 16.0237 22.7263 15.3161 22.7077 15.0012L22.5817 12.7879L23.1198 11.1444Z" fill="#CAC0C9"/>
<path fill-rule="evenodd" clip-rule="evenodd" d="M15.1535 8.7661C15.1607 8.36797 15.082 7.97299 14.9226 7.6082C14.7633 7.24341 14.5273 6.91743 14.2306 6.65259C13.6132 6.0811 12.8356 5.79535 11.8978 5.79535C10.9928 5.78121 10.1179 6.12147 9.45934 6.74377C8.77196 7.37398 8.42853 8.11381 8.42905 8.96327C8.42905 9.727 8.77689 10.1091 9.47256 10.1096C9.90412 10.1096 10.2151 9.86572 10.4057 9.37475L10.6024 8.85105C10.8372 8.21824 11.232 7.9021 11.7866 7.90262C11.9188 7.89986 12.0501 7.92415 12.1726 7.974C12.295 8.02385 12.4061 8.0982 12.4989 8.19253C12.5912 8.28138 12.6644 8.38816 12.7142 8.50634C12.7639 8.62452 12.7891 8.75163 12.7882 8.87988C12.7882 9.24668 12.5808 9.71791 12.1661 10.2936C11.9136 10.6344 11.3636 11.2994 10.5161 12.2886L8.76729 14.3258C8.48503 14.6671 8.34429 14.9445 8.34429 15.1612C8.33959 15.2996 8.3656 15.4373 8.42047 15.5644C8.47533 15.6915 8.55767 15.8048 8.66154 15.8961C8.88615 16.0903 9.17616 16.1915 9.47256 16.179H14.3915C14.5274 16.1823 14.6625 16.1577 14.7885 16.1066C14.9145 16.0555 15.0287 15.9791 15.124 15.8821C15.3138 15.6786 15.4199 15.4108 15.421 15.1323C15.4201 14.9994 15.392 14.868 15.3385 14.7463C15.285 14.6246 15.2073 14.5152 15.11 14.4247C14.9069 14.2354 14.6402 14.1294 14.3628 14.1278H11.7967C12.5956 13.2326 13.136 12.6058 13.418 12.2473L14.3068 11.115C14.8713 10.3034 15.1535 9.52022 15.1535 8.76532V8.7661Z" fill="#E6E2E6"/>
<path fill-rule="evenodd" clip-rule="evenodd" d="M14.307 11.1153C14.8715 10.3038 15.1538 9.52058 15.1538 8.76568C15.1609 8.36755 15.0822 7.97256 14.9229 7.60777C14.7635 7.24299 14.5275 6.91701 14.2308 6.65217C13.6149 6.08249 12.842 5.79492 11.9058 5.79492C12.012 6.50915 12.0777 7.22883 12.1025 7.95051C12.2987 8.01461 12.47 8.13866 12.5923 8.30526C12.7146 8.47186 12.7818 8.67265 12.7845 8.87946C12.7845 9.24626 12.5771 9.71749 12.1624 10.2931C12.1235 10.3461 12.0777 10.4069 12.0232 10.4739C11.8211 12.5641 11.2837 14.5046 10.4883 16.1785H14.3917C14.5276 16.1819 14.6627 16.1573 14.7887 16.1062C14.9147 16.0551 15.0289 15.9787 15.1242 15.8816C15.3142 15.6783 15.4206 15.4105 15.422 15.1319C15.4209 14.999 15.3928 14.8676 15.3393 14.746C15.2858 14.6243 15.2081 14.5148 15.111 14.4243C14.9075 14.235 14.6406 14.1291 14.363 14.1274H11.7969C12.5958 13.2322 13.1362 12.6054 13.4182 12.2469L14.307 11.1153Z" fill="#CAC0C9"/>
</g>
<defs>
<clipPath id="clip0_6857_6319">
<rect width="23" height="23" fill="white" transform="translate(0.238281)"/>
</clipPath>
</defs>
</svg>
