<svg width="22" height="22" viewBox="0 0 22 22" fill="none" xmlns="http://www.w3.org/2000/svg">
<rect x="0.5" y="0.5" width="21" height="21" rx="10.5" stroke="#8F8F8F"/>
<path d="M7 14.6027V14.3992C7.05021 14.2508 7.14027 14.1193 7.26026 14.0191L10.2039 11.0723L10.2722 11.0003C10.2451 10.9816 10.2193 10.9612 10.195 10.939C9.21853 9.96036 8.24209 8.98351 7.26565 8.00845C7.1441 7.90634 7.05232 7.77315 7 7.62299V7.41945C7.01077 7.39423 7.02154 7.36902 7.03051 7.342C7.06222 7.25804 7.11489 7.18366 7.18347 7.126C7.25205 7.06833 7.33425 7.02931 7.42217 7.01267C7.5101 6.99604 7.60081 7.00235 7.6856 7.031C7.7704 7.05965 7.84644 7.10968 7.90644 7.17629L10.9327 10.2077C10.9531 10.2343 10.97 10.2633 10.9829 10.2942L11.3545 9.91954C12.2699 9.00332 13.1853 8.0871 14.1007 7.17088C14.1634 7.10106 14.2439 7.04972 14.3335 7.02237C14.4232 6.99502 14.5185 6.9927 14.6093 7.01567C14.7001 7.03864 14.783 7.08603 14.849 7.15273C14.915 7.21943 14.9616 7.30293 14.9838 7.39423C14.9882 7.40328 14.9936 7.41175 15 7.41945V7.62299C14.9451 7.77472 14.8517 7.90945 14.729 8.01385C13.7501 8.99011 12.7737 9.96697 11.7996 10.9444L11.7314 11.0183C11.7548 11.0381 11.7781 11.0543 11.7961 11.0723L14.7344 14.0065C14.8552 14.1092 14.9469 14.2422 15 14.392V14.5955C14.973 14.6903 14.9232 14.7771 14.855 14.8481C14.7868 14.919 14.7022 14.9721 14.6087 15.0026H14.3592C14.2264 14.9507 14.1081 14.8673 14.0146 14.7594L11.0673 11.8054L10.9901 11.7316C10.9709 11.7593 10.9499 11.7857 10.9273 11.8108L7.97465 14.7702C7.88389 14.8738 7.76928 14.9536 7.64079 15.0026H7.3895C7.27322 14.9651 7.17154 14.892 7.09872 14.7936C7.06215 14.732 7.02919 14.6682 7 14.6027Z" fill="#8F8F8F"/>
</svg>
