<svg width="14" height="14" viewBox="0 0 14 14" fill="none" xmlns="http://www.w3.org/2000/svg">
<g clip-path="url(#clip0_1762_4864)">
<path d="M13.1823 0H13.4524C13.5834 0.0357795 13.7028 0.105049 13.7988 0.200999C13.8949 0.29695 13.9642 0.416267 14 0.54716V0.817089C13.9226 1.01392 13.7971 1.18824 13.6349 1.32413L8.08605 6.87597L7.96193 7.00728L8.097 7.12036L13.6349 12.654C13.7969 12.7931 13.9222 12.9696 14 13.1683V13.4419C13.9629 13.5721 13.8931 13.6908 13.7973 13.7865C13.7015 13.8823 13.5828 13.952 13.4524 13.989H13.1823C12.9854 13.9114 12.811 13.7861 12.6748 13.6243L7.11865 8.07971C7.08214 8.03959 7.04198 8.00677 6.98357 7.9484C6.93977 8.00312 6.91056 8.05054 6.87405 8.08702C5.02442 9.9352 3.1748 11.7846 1.32516 13.6352C1.18878 13.7952 1.01604 13.9203 0.821382 14H0.547588C0.417713 13.962 0.299488 13.892 0.203797 13.7964C0.108106 13.7007 0.0380243 13.5826 0 13.4528V13.1793C0.0787153 12.9842 0.204054 12.8114 0.365059 12.6759L5.92125 7.12401C5.96141 7.08389 5.99791 7.04741 6.04537 6.9927L5.903 6.86866C4.05094 5.01805 2.2013 3.16988 0.354107 1.32413C0.199511 1.18971 0.0804008 1.01932 0.00729716 0.82802V0.558092C0.0437574 0.427525 0.113319 0.308561 0.209245 0.21271C0.305171 0.116859 0.424217 0.0473634 0.554885 0.0109316H0.828679C1.02254 0.086494 1.19268 0.212425 1.32151 0.375705L6.88866 5.9385C6.92089 5.98328 6.949 6.0309 6.97262 6.08076L7.03468 6.05888C7.06824 6.01043 7.10483 5.96413 7.1442 5.92026L12.6931 0.375705C12.8211 0.210515 12.9896 0.0811193 13.1823 0Z" fill="#040404"/>
</g>
<defs>
<clipPath id="clip0_1762_4864">
<rect width="14" height="14" fill="white"/>
</clipPath>
</defs>
</svg>
