<svg width="18" height="18" viewBox="0 0 18 18" fill="none" xmlns="http://www.w3.org/2000/svg">
<g clip-path="url(#clip0_536_7466)">
<path d="M17.1833 18C17.013 17.8919 16.8506 17.7718 16.6973 17.6407C15.3362 16.2795 13.975 14.9252 12.6139 13.5776C12.565 13.5295 12.5199 13.4776 12.4791 13.4224C11.5507 14.2111 10.4447 14.7626 9.25612 15.0293C8.06753 15.296 6.83196 15.2701 5.65561 14.9537C3.84257 14.5044 2.26863 13.3816 1.2536 11.8135C0.243963 10.2947 -0.185398 8.46319 0.043956 6.65383C0.27331 4.84447 1.14606 3.17805 2.50275 1.95912C3.85943 0.740187 5.60941 0.0501375 7.43291 0.0150766C9.25641 -0.0199844 11.0316 0.602299 12.4342 1.76818C13.2132 2.39907 13.8554 3.18215 14.3216 4.0696C14.7878 4.95705 15.0682 5.93023 15.1456 6.92968C15.2415 7.92495 15.1366 8.92937 14.8371 9.88333C14.5376 10.8373 14.0495 11.7214 13.402 12.4832C13.451 12.5363 13.4959 12.5853 13.5408 12.6262C14.902 13.9873 16.2631 15.3485 17.6243 16.7096C17.7554 16.8629 17.8755 17.0253 17.9836 17.1956V17.4814C17.9439 17.6047 17.8754 17.7168 17.7838 17.8084C17.6922 17.9 17.5801 17.9684 17.4569 18.0082L17.1833 18ZM1.3271 7.60756C1.3271 8.84728 1.69473 10.0592 2.38349 11.09C3.07224 12.1208 4.05118 12.9241 5.19654 13.3986C6.34189 13.873 7.60221 13.9971 8.81811 13.7553C10.034 13.5134 11.1509 12.9164 12.0275 12.0398C12.9041 11.1632 13.5011 10.0463 13.743 8.83041C13.9848 7.61451 13.8607 6.35419 13.3863 5.20883C12.9118 4.06348 12.1084 3.08453 11.0776 2.39578C10.0468 1.70703 8.83499 1.33939 7.59526 1.33939C6.7725 1.33939 5.95781 1.5016 5.19778 1.8167C4.43776 2.13181 3.74729 2.59363 3.16589 3.17579C2.58449 3.75795 2.12356 4.44902 1.80945 5.20946C1.49533 5.96989 1.3342 6.7848 1.33527 7.60756H1.3271Z" fill="#484848"/>
<path d="M2.70732 7.39118C2.69861 6.78663 2.81041 6.18642 3.03616 5.62554C3.26192 5.06466 3.59712 4.55433 4.02222 4.12439C4.13962 3.99843 4.30198 3.92391 4.47403 3.91703C4.64608 3.91014 4.81391 3.97147 4.941 4.08765C5.00697 4.14388 5.06092 4.21281 5.09966 4.29036C5.1384 4.3679 5.16112 4.45245 5.16646 4.53897C5.17179 4.62549 5.15963 4.7122 5.13072 4.79391C5.1018 4.87563 5.05671 4.95068 4.99815 5.01459C4.57692 5.42705 4.28226 5.95124 4.1488 6.52548C4.08881 6.9229 4.05741 7.32411 4.05487 7.72603C4.0551 7.83308 4.02937 7.9386 3.97985 8.03351C3.93032 8.12842 3.85849 8.20991 3.77054 8.27096C3.68259 8.332 3.58113 8.37079 3.47489 8.38399C3.36865 8.39718 3.26079 8.38439 3.16058 8.34672C3.04824 8.30511 2.95014 8.23226 2.8778 8.13677C2.80546 8.04128 2.76189 7.92711 2.75223 7.8077C2.72365 7.68111 2.71957 7.53002 2.70732 7.39118Z" fill="#484848"/>
</g>
<defs>
<clipPath id="clip0_536_7466">
<rect width="18" height="18" fill="white"/>
</clipPath>
</defs>
</svg>
