<svg width="30" height="31" viewBox="0 0 30 31" fill="none" xmlns="http://www.w3.org/2000/svg">
<path d="M11.8125 27.8043C6.45 26.3918 2.5 21.5168 2.5 15.7168C2.5 8.8168 8.05 3.2168 15 3.2168C23.3375 3.2168 27.5 10.1668 27.5 10.1668M27.5 10.1668V4.4668M27.5 10.1668H24.9875H21.95" stroke="white" stroke-width="1.5" stroke-linecap="round" stroke-linejoin="round"/>
<path d="M27.5 15.7168C27.5 22.6168 21.9 28.2168 15 28.2168" stroke="white" stroke-width="1.5" stroke-linecap="round" stroke-linejoin="round"/>
<path d="M11.0682 19.2168V12.7908H10.9842L9.26219 13.7568L9.29219 12.5928L11.1162 11.5488H12.2682V19.2168H11.0682ZM16.5555 19.3728C15.6155 19.3728 14.9055 19.1128 14.4255 18.5928C13.9455 18.0688 13.7055 17.3128 13.7055 16.3248V14.4408C13.7055 13.4528 13.9435 12.6988 14.4195 12.1788C14.8995 11.6548 15.6115 11.3928 16.5555 11.3928C17.4995 11.3928 18.2115 11.6548 18.6915 12.1788C19.1715 12.6988 19.4115 13.4528 19.4115 14.4408V16.3248C19.4115 17.3128 19.1715 18.0688 18.6915 18.5928C18.2115 19.1128 17.4995 19.3728 16.5555 19.3728ZM16.5555 18.3708C17.1115 18.3708 17.5215 18.2008 17.7855 17.8608C18.0535 17.5168 18.1875 17.0228 18.1875 16.3788V14.3928C18.1875 13.7448 18.0535 13.2508 17.7855 12.9108C17.5215 12.5668 17.1115 12.3948 16.5555 12.3948C15.9995 12.3948 15.5895 12.5668 15.3255 12.9108C15.0615 13.2508 14.9295 13.7448 14.9295 14.3928V16.3788C14.9295 17.0228 15.0615 17.5168 15.3255 17.8608C15.5935 18.2008 16.0035 18.3708 16.5555 18.3708Z" fill="white"/>
</svg>
