<svg width="39" height="38" viewBox="0 0 39 38" fill="none" xmlns="http://www.w3.org/2000/svg">
<g clip-path="url(#clip0_546_1131)">
<path d="M13.8148 28.2381C12.3637 27.4505 11.0931 26.3685 10.0844 25.0613C9.07574 23.7542 8.35123 22.2508 7.9573 20.6474C7.56338 19.044 7.50873 17.376 7.79685 15.7503C8.08498 14.1245 8.70953 12.5769 9.63048 11.2065L2.28423 8.7877V22.014C2.28423 22.1735 2.28423 22.3331 2.28423 22.5127C2.26513 22.8006 2.13728 23.0705 1.9266 23.2677C1.71592 23.4648 1.43816 23.5745 1.14962 23.5745C0.861068 23.5745 0.583309 23.4648 0.37263 23.2677C0.161951 23.0705 0.0341138 22.8006 0.0150146 22.5127C0.0150146 22.3581 0.0150146 22.1985 0.0150146 22.0389V7.59076C0.0150146 6.49356 0.16463 6.30403 1.197 5.95991L12.0144 2.35909C14.3085 1.59604 16.6027 0.818036 18.9068 0.0799185C19.2515 -0.0246864 19.6194 -0.0246864 19.9641 0.0799185C25.9488 2.05488 31.9186 4.04979 37.8734 6.06465C38.1385 6.11453 38.3779 6.25547 38.5501 6.4631C38.7223 6.67073 38.8165 6.932 38.8165 7.20175C38.8165 7.4715 38.7223 7.73278 38.5501 7.94041C38.3779 8.14804 38.1385 8.28897 37.8734 8.33885L29.6394 11.0868L29.2005 11.2365C30.1132 12.6071 30.7308 14.1525 31.0142 15.7747C31.2975 17.3968 31.2404 19.0601 30.8464 20.659C30.4524 22.2578 29.7302 23.7573 28.7257 25.062C27.7211 26.3668 26.4562 27.4484 25.0112 28.2381L25.4252 28.3977C29.053 29.6911 32.1641 32.125 34.2925 35.335C34.4069 35.4677 34.4897 35.6246 34.5346 35.7939C34.5795 35.9633 34.5854 36.1406 34.5518 36.3125C34.5181 36.4845 34.4459 36.6465 34.3405 36.7864C34.2352 36.9264 34.0994 37.0406 33.9434 37.1204C33.6778 37.2456 33.3741 37.2636 33.0954 37.1708C32.8168 37.0779 32.5847 36.8813 32.4473 36.6217C31.5831 35.3277 30.5347 34.1667 29.3352 33.1755C27.6587 31.8003 25.7145 30.7889 23.626 30.2057C21.5376 29.6225 19.3506 29.4802 17.2042 29.7879C15.0578 30.0956 12.9989 30.8466 11.1584 31.993C9.31785 33.1395 7.73602 34.6563 6.51343 36.4472C6.35978 36.6852 6.16568 36.8945 5.9399 37.0656C5.71949 37.1976 5.46044 37.2501 5.20602 37.2141C4.95161 37.1781 4.71724 37.0559 4.54209 36.8679C4.36694 36.6799 4.26161 36.4375 4.2437 36.1812C4.2258 35.9249 4.2964 35.6702 4.44372 35.4597C5.23067 34.3897 6.07823 33.3656 6.98224 32.3925C8.90074 30.4888 11.2418 29.0654 13.8148 28.2381ZM28.9113 17.5204C28.8512 15.6592 28.2441 13.8569 27.1657 12.3386C27.1373 12.275 27.0959 12.218 27.0441 12.1714C26.9923 12.1248 26.9313 12.0895 26.865 12.0679C26.7988 12.0463 26.7287 12.0388 26.6594 12.0459C26.5901 12.053 26.523 12.0746 26.4625 12.1092C24.328 12.8424 22.1735 13.5406 20.0339 14.2637C19.6326 14.4085 19.1934 14.4085 18.7921 14.2637C16.6775 13.5406 14.5579 12.8573 12.4483 12.1292C12.3711 12.0873 12.2861 12.062 12.1986 12.0547C12.1111 12.0475 12.023 12.0586 11.94 12.0872C11.857 12.1158 11.7809 12.1613 11.7164 12.2209C11.6519 12.2805 11.6006 12.3529 11.5655 12.4334C9.62051 15.4707 9.29135 18.6575 10.8474 21.9092C11.5338 23.4583 12.6406 24.784 14.0422 25.736C15.4438 26.688 17.0841 27.2283 18.7771 27.2955C24.2631 27.7393 28.8913 23.3406 28.9113 17.5204ZM4.93247 7.12195V7.23167L5.15191 7.31645C9.8067 8.86915 14.4615 10.4152 19.1163 11.9546C19.3576 12.0136 19.611 11.9997 19.8444 11.9147C23.944 10.5582 28.0402 9.195 32.1331 7.82516L33.9933 7.18679C33.7689 7.09702 33.6592 7.04714 33.5445 7.00724C28.9362 5.47116 24.328 3.94007 19.7197 2.41396C19.4638 2.35012 19.1947 2.364 18.9467 2.45385C15.286 3.66077 11.6254 4.88765 7.9747 6.10954L4.93247 7.12195Z" fill="#0075FD"/>
</g>
<defs>
<clipPath id="clip0_546_1131">
<rect width="38.796" height="37.24" fill="white"/>
</clipPath>
</defs>
</svg>
