<svg width="30" height="25" viewBox="0 0 30 25" fill="none" xmlns="http://www.w3.org/2000/svg">
<g clip-path="url(#clip0_3365_533)">
<path d="M15.0039 0.000338808C18.0005 0.000338808 21.0019 0.000338808 23.9985 0.000338808C25.218 -0.0126832 26.4119 0.349954 27.418 1.03899C28.4242 1.72802 29.1939 2.71006 29.6226 3.85172C29.8773 4.54014 30.004 5.26928 29.9966 6.00325C29.9966 8.95128 29.9966 11.8945 29.9966 14.8425C30.0254 16.2763 29.531 17.6716 28.6059 18.7674C27.6808 19.8632 26.3882 20.5847 24.9699 20.7969C24.6064 20.8496 24.2396 20.8756 23.8723 20.8745C22.5124 20.8745 21.1476 20.8745 19.7829 20.8745C19.6659 20.8671 19.549 20.89 19.4435 20.9411C19.3379 20.9921 19.2474 21.0696 19.1807 21.166C18.525 21.9673 17.8645 22.7735 17.1797 23.5506C16.7792 24.0148 16.2402 24.3381 15.6421 24.4727C15.044 24.6074 14.4185 24.5463 13.8577 24.2986C13.3936 24.0963 12.9866 23.7826 12.6727 23.3855C12.051 22.6376 11.4196 21.8945 10.8028 21.1368C10.7395 21.0507 10.6557 20.9816 10.5591 20.9359C10.4624 20.8901 10.3559 20.869 10.2492 20.8745C8.63672 20.8745 7.01943 20.9134 5.39243 20.8357C4.09481 20.728 2.86963 20.1927 1.90896 19.3137C0.948282 18.4348 0.306431 17.2619 0.0840266 15.979C0.0259845 15.616 -0.00324723 15.249 -0.00339459 14.8814C-0.00339459 11.9382 -0.00339459 8.99015 -0.00339459 6.04697C-0.021267 4.69105 0.42956 3.37054 1.27289 2.30863C2.11622 1.24673 3.30032 0.508561 4.62506 0.218897C5.11648 0.11285 5.61825 0.062348 6.12094 0.0683401C9.11754 -0.00451081 12.0316 0.000338808 15.0039 0.000338808ZM15.0039 1.81676H6.13065C5.55753 1.79061 4.98524 1.88405 4.4502 2.09116C3.91517 2.29826 3.42911 2.6145 3.02298 3.01973C2.61684 3.42495 2.29952 3.91028 2.09121 4.44485C1.88289 4.97941 1.78815 5.55148 1.81302 6.12466C1.81302 8.99661 1.81302 11.8686 1.81302 14.7405C1.8079 15.0449 1.8323 15.3491 1.88587 15.6487C2.05602 16.609 2.56138 17.4777 3.312 18.1002C4.06262 18.7228 5.00981 19.0588 5.98495 19.0484C7.59738 19.0484 9.21467 19.0484 10.8417 19.0484C11.0356 19.0401 11.2286 19.0801 11.4033 19.1648C11.5779 19.2496 11.7288 19.3765 11.8422 19.5341C12.5804 20.4326 13.3332 21.3214 14.0763 22.215C14.1819 22.3663 14.3225 22.4899 14.4861 22.5752C14.6497 22.6605 14.8315 22.705 15.016 22.705C15.2006 22.705 15.3823 22.6605 15.546 22.5752C15.7096 22.4899 15.8502 22.3663 15.9558 22.215C16.7037 21.3262 17.4565 20.4375 18.1899 19.5341C18.3042 19.3775 18.4552 19.2513 18.6296 19.1666C18.8041 19.0819 18.9966 19.0414 19.1904 19.0484C20.764 19.0484 22.3375 19.0484 23.9111 19.0484C24.2369 19.0488 24.562 19.0195 24.8825 18.961C25.8394 18.7751 26.6994 18.2558 27.3095 17.4955C27.9195 16.7351 28.2401 15.783 28.2142 14.8085C28.2142 11.8945 28.2142 8.98042 28.2142 6.06639C28.2183 5.78318 28.1955 5.50023 28.1462 5.22132C27.9763 4.26274 27.4724 3.39533 26.7238 2.77298C25.9752 2.15062 25.0303 1.81356 24.0568 1.82161L15.0039 1.81676Z" fill="white"/>
<path d="M17.2365 7.28524H21.9475C22.1652 7.28218 22.3764 7.35912 22.5411 7.50146C22.7058 7.6438 22.8126 7.84165 22.8411 8.05748C22.8709 8.25862 22.832 8.46393 22.7307 8.6402C22.6293 8.81648 22.4714 8.9534 22.2826 9.02882C22.1848 9.06171 22.0839 9.08447 21.9815 9.09679C21.8974 9.10165 21.8131 9.10165 21.7289 9.09679H12.744C12.567 9.10274 12.39 9.08148 12.2195 9.03368C12.0259 8.96453 11.8631 8.829 11.7599 8.65117C11.6568 8.47334 11.62 8.26472 11.6561 8.06234C11.6807 7.85705 11.779 7.66765 11.9325 7.52924C12.0861 7.39082 12.2847 7.31275 12.4914 7.30952C13.2054 7.30952 13.9145 7.30952 14.6284 7.30952H17.2365V7.28524Z" fill="white"/>
<path d="M12.7637 13.5794H8.08178C7.8812 13.5873 7.68392 13.5267 7.52238 13.4075C7.36085 13.2883 7.24468 13.1177 7.193 12.9238C7.13343 12.737 7.13948 12.5355 7.21014 12.3526C7.28081 12.1698 7.41185 12.0166 7.58153 11.9184C7.75452 11.8243 7.94801 11.7743 8.14492 11.7727C11.2241 11.7727 14.3 11.7727 17.3727 11.7727C17.4972 11.7662 17.6217 11.7855 17.7385 11.8292C17.8552 11.8729 17.9617 11.9402 18.0513 12.0269C18.1409 12.1136 18.2117 12.2178 18.2593 12.3331C18.3069 12.4483 18.3302 12.5721 18.3279 12.6967C18.3256 12.8214 18.2976 12.9442 18.2457 13.0576C18.1938 13.171 18.1192 13.2725 18.0264 13.3557C17.9336 13.439 17.8246 13.5022 17.7063 13.5415C17.588 13.5809 17.4629 13.5954 17.3387 13.5843L12.7637 13.5794Z" fill="white"/>
<path d="M8.34866 7.28516H8.69349C8.9094 7.29978 9.11279 7.39184 9.26626 7.54441C9.41972 7.69699 9.51297 7.89984 9.52885 8.11567C9.54829 8.33209 9.48643 8.54798 9.35534 8.72128C9.22425 8.89457 9.03332 9.01284 8.81977 9.05301C8.50885 9.09673 8.19334 9.09673 7.88242 9.05301C7.6684 9.0184 7.47503 8.90506 7.34025 8.73524C7.20548 8.56542 7.13902 8.35137 7.15391 8.13508C7.16665 7.91382 7.26029 7.70495 7.417 7.54824C7.57372 7.39152 7.78258 7.2979 8.00384 7.28516H8.34866Z" fill="white"/>
<path d="M21.6416 13.6038C21.4449 13.5908 21.2498 13.56 21.0588 13.5116C20.8791 13.4501 20.7247 13.3312 20.6193 13.1732C20.514 13.0151 20.4636 12.8269 20.476 12.6374C20.4741 12.4465 20.5384 12.261 20.658 12.1122C20.7775 11.9634 20.9449 11.8607 21.1316 11.8214C21.4713 11.7705 21.8167 11.7705 22.1564 11.8214C22.3647 11.8625 22.5505 11.9787 22.6786 12.148C22.8067 12.3173 22.868 12.5277 22.8509 12.7393C22.8356 12.9559 22.7435 13.16 22.5913 13.3149C22.4391 13.4698 22.2367 13.5653 22.0204 13.5844C21.8942 13.5917 21.7677 13.5917 21.6416 13.5844V13.6038Z" fill="white"/>
</g>
<defs>
<clipPath id="clip0_3365_533">
<rect width="30" height="24.5168" fill="white"/>
</clipPath>
</defs>
</svg>
