<svg width="96" height="103" viewBox="0 0 96 103" fill="none" xmlns="http://www.w3.org/2000/svg">
<circle cx="55.5" cy="61.5" r="36.5" fill="#4BAE4F" fill-opacity="0.2"/>
<path d="M38.828 6.85602C41.7721 3.29738 47.2279 3.29738 50.172 6.85602C52.1687 9.2695 55.474 10.1551 58.4099 9.06335C62.7388 7.45352 67.4638 10.1815 68.2341 14.7354C68.7565 17.8238 71.1762 20.2435 74.2646 20.7659C78.8186 21.5362 81.5465 26.2612 79.9366 30.5901C78.8448 33.526 79.7305 36.8313 82.144 38.828C85.7026 41.7721 85.7026 47.2279 82.144 50.172C79.7305 52.1687 78.8448 55.474 79.9366 58.4099C81.5465 62.7388 78.8186 67.4638 74.2646 68.2341C71.1762 68.7565 68.7565 71.1762 68.2341 74.2646C67.4638 78.8186 62.7388 81.5465 58.4099 79.9366C55.474 78.8448 52.1687 79.7305 50.172 82.144C47.2279 85.7026 41.7721 85.7026 38.828 82.144C36.8313 79.7305 33.526 78.8448 30.5901 79.9366C26.2612 81.5465 21.5362 78.8186 20.7659 74.2646C20.2435 71.1762 17.8238 68.7565 14.7354 68.2341C10.1815 67.4638 7.45352 62.7388 9.06335 58.4099C10.1551 55.474 9.2695 52.1687 6.85602 50.172C3.29738 47.2279 3.29738 41.7721 6.85602 38.828C9.2695 36.8313 10.1551 33.526 9.06335 30.5901C7.45352 26.2612 10.1815 21.5362 14.7354 20.7659C17.8238 20.2435 20.2435 17.8238 20.7659 14.7354C21.5362 10.1815 26.2612 7.45352 30.5901 9.06335C33.526 10.1551 36.8313 9.2695 38.828 6.85602Z" fill="#4BAE4F"/>
<path d="M28 41.8511L39.9418 53.7929C40.3324 54.1834 40.9655 54.1834 41.356 53.7929L61.1489 34" stroke="white" stroke-width="7" stroke-linecap="round"/>
</svg>
