<svg width="21" height="21" viewBox="0 0 21 21" fill="none" xmlns="http://www.w3.org/2000/svg">
<g clip-path="url(#clip0_6737_5307)">
<path d="M3.83297 17.0947C3.23054 16.9673 2.65814 16.7254 2.14683 16.382C0.773554 15.4256 0.0410143 14.1035 0.0241529 12.4326C-0.00207604 9.87649 0.00167095 7.31854 0.0241529 4.76245C0.0244024 3.61355 0.440307 2.50361 1.19493 1.63792C1.94955 0.772241 2.99183 0.209399 4.12899 0.0534925C4.37725 0.0188325 4.62773 0.00253365 4.87838 0.00473195C8.63287 0.00473195 12.3867 0.00473195 16.14 0.00473195C17.2526 -0.0160083 18.3373 0.354546 19.2051 1.05188C20.0729 1.74922 20.6689 2.72915 20.8893 3.82103C20.96 4.16403 20.9945 4.5135 20.9923 4.86372C21.0023 7.35416 21.0023 9.84399 20.9923 12.3332C21.0123 13.4603 20.6319 14.5579 19.9189 15.4306C19.206 16.3032 18.2068 16.8943 17.0992 17.0984C16.7695 17.1556 16.4352 17.182 16.1006 17.1772C14.4145 17.1772 12.7283 17.1772 11.0291 17.1772C10.8833 17.1799 10.7411 17.2234 10.6188 17.3028C8.88765 18.448 7.15967 19.5995 5.43481 20.7572C5.22836 20.9292 4.96498 21.0176 4.69665 21.0047C4.45615 20.9856 4.23232 20.8742 4.07178 20.694C3.91123 20.5137 3.82636 20.2784 3.83485 20.0371C3.83485 19.1425 3.83485 18.248 3.83485 17.3535L3.83297 17.0947ZM10.5045 7.64109H14.6636C15.192 7.64109 15.7203 7.64109 16.2505 7.64109C16.4741 7.63716 16.6892 7.55419 16.8577 7.40686C17.0261 7.25952 17.1371 7.0573 17.1709 6.83597C17.2048 6.61464 17.1594 6.38844 17.0427 6.1974C16.926 6.00635 16.7456 5.86276 16.5334 5.79201C16.3753 5.74915 16.2119 5.72957 16.0482 5.73388H4.96268C4.88774 5.73388 4.81281 5.73388 4.73787 5.73388C4.55027 5.74131 4.36922 5.80501 4.21822 5.91669C4.06722 6.02838 3.95323 6.1829 3.89105 6.36023C3.8358 6.50769 3.81809 6.66661 3.83951 6.82263C3.86093 6.97866 3.92081 7.12689 4.01374 7.25397C4.10668 7.38105 4.22976 7.48298 4.37187 7.55056C4.51399 7.61814 4.67067 7.64925 4.8278 7.64109C6.72003 7.64359 8.61225 7.64359 10.5045 7.64109ZM10.4801 11.4536H12.7377C13.281 11.4536 13.8243 11.4649 14.3676 11.4536C14.5035 11.4485 14.6367 11.4138 14.7578 11.352C14.879 11.2902 14.9852 11.2027 15.0692 11.0956C15.1532 10.9886 15.2128 10.8645 15.2441 10.732C15.2753 10.5995 15.2773 10.4618 15.25 10.3284C15.1582 9.84461 14.7817 9.55955 14.2252 9.55955C11.7447 9.55955 9.26486 9.55955 6.7856 9.55955C6.72565 9.55955 6.6657 9.55955 6.59825 9.55955C6.34733 9.57547 6.11299 9.69052 5.9468 9.87938C5.78062 10.0682 5.69618 10.3154 5.71208 10.5666C5.72798 10.8178 5.84292 11.0523 6.03159 11.2187C6.22027 11.385 6.46723 11.4696 6.71816 11.4536C7.97902 11.4593 9.2305 11.4536 10.4801 11.4536Z" fill="url(#paint0_linear_6737_5307)"/>
</g>
<defs>
<linearGradient id="paint0_linear_6737_5307" x1="10.5028" y1="0.00390625" x2="10.5028" y2="21.006" gradientUnits="userSpaceOnUse">
<stop stop-color="#FFB388"/>
<stop offset="1" stop-color="#FF7426"/>
</linearGradient>
<clipPath id="clip0_6737_5307">
<rect width="21" height="21" fill="white"/>
</clipPath>
</defs>
</svg>
