<svg width="28" height="28" viewBox="0 0 28 28" fill="none" xmlns="http://www.w3.org/2000/svg">
<path fill-rule="evenodd" clip-rule="evenodd" d="M12.5421 3.19525C14.5873 1.37581 17.8494 2.86367 17.8494 5.59993V22.3999C17.8494 24.9878 14.7468 26.6255 12.5648 24.8231C9.80727 22.6407 7.18932 20.8222 4.47611 19.351C2.45483 18.3314 1.16602 16.1818 1.16602 13.9999C1.16602 11.7136 2.44544 9.55156 4.48613 8.52718C7.53887 6.94356 10.1474 5.13192 12.5421 3.19525ZM15.516 5.59993C15.516 4.8485 14.6075 4.47074 14.0841 4.94653C14.0676 4.96152 14.0507 4.97603 14.0334 4.99005C11.5364 7.01147 8.78737 8.92526 5.55305 10.6023L5.53777 10.6101C4.31652 11.2207 3.49935 12.556 3.49935 13.9999C3.49935 15.3115 4.30281 16.6556 5.53777 17.2731C5.54917 17.2788 5.56047 17.2847 5.57168 17.2908C8.44945 18.8496 11.1902 20.7589 14.0235 23.0019C14.028 23.0055 14.0325 23.0091 14.037 23.0127C14.0401 23.0152 14.0432 23.0178 14.0462 23.0203C14.6636 23.5348 15.516 23.0738 15.516 22.3999V5.59993Z" fill="white"/>
<path fill-rule="evenodd" clip-rule="evenodd" d="M20.1044 10.6864C20.5169 10.1914 21.2526 10.1245 21.7476 10.537C22.7709 11.3898 23.2173 12.686 23.2173 13.8833C23.2173 15.1727 22.5924 16.3915 21.8256 17.1583C21.37 17.6139 20.6313 17.6139 20.1757 17.1583C19.7201 16.7026 19.7201 15.964 20.1757 15.5083C20.5756 15.1084 20.884 14.4605 20.884 13.8833C20.884 13.2139 20.6305 12.6435 20.2538 12.3296C19.7588 11.9171 19.6919 11.1814 20.1044 10.6864Z" fill="white"/>
<path fill-rule="evenodd" clip-rule="evenodd" d="M20.0477 6.53479C20.3046 5.94389 20.9919 5.67314 21.5828 5.93006C24.6837 7.27829 26.8343 10.3764 26.8343 14C26.8343 17.6313 24.6748 20.7331 21.4497 22.0769C20.8549 22.3247 20.1719 22.0435 19.924 21.4487C19.6762 20.8539 19.9575 20.1709 20.5522 19.923C22.9271 18.9335 24.501 16.6687 24.501 14C24.501 11.3235 22.9182 9.05499 20.6524 8.06989C20.0615 7.81297 19.7908 7.12569 20.0477 6.53479Z" fill="white"/>
</svg>
