<svg width="45" height="44" viewBox="0 0 45 44" fill="none" xmlns="http://www.w3.org/2000/svg">
<path d="M22.8378 30.9375C26.6347 30.9375 29.7128 27.8595 29.7128 24.0625C29.7128 20.2655 26.6347 17.1875 22.8378 17.1875C19.0408 17.1875 15.9628 20.2655 15.9628 24.0625C15.9628 27.8595 19.0408 30.9375 22.8378 30.9375Z" stroke="#FF5722" stroke-width="1.5" stroke-linecap="round" stroke-linejoin="round"/>
<path d="M34.5253 19.9375C36.1267 19.9348 37.7066 20.3064 39.139 21.0226C40.5714 21.7388 41.8166 22.7798 42.7753 24.0625" stroke="#FF5722" stroke-width="1.5" stroke-linecap="round" stroke-linejoin="round"/>
<path d="M2.90027 24.0625C3.85899 22.7798 5.10419 21.7388 6.53656 21.0226C7.96893 20.3064 9.54883 19.9348 11.1503 19.9375" stroke="#FF5722" stroke-width="1.5" stroke-linecap="round" stroke-linejoin="round"/>
<path d="M12.9377 37.125C13.8432 35.2706 15.2513 33.7078 17.0016 32.6147C18.7519 31.5215 20.7741 30.9419 22.8377 30.9419C24.9014 30.9419 26.9235 31.5215 28.6739 32.6147C30.4242 33.7078 31.8323 35.2706 32.7377 37.125" stroke="#FF5722" stroke-width="1.5" stroke-linecap="round" stroke-linejoin="round"/>
<path d="M11.1502 19.9375C10.1063 19.9386 9.0837 19.6425 8.2018 19.084C7.31991 18.5254 6.61518 17.7274 6.16996 16.7832C5.72475 15.839 5.55743 14.7876 5.68756 13.7519C5.81769 12.7161 6.2399 11.7388 6.90484 10.9341C7.56979 10.1294 8.45002 9.5305 9.44268 9.20747C10.4353 8.88443 11.4994 8.85056 12.5106 9.10982C13.5218 9.36908 14.4383 9.91076 15.1531 10.6716C15.8679 11.4324 16.3514 12.3809 16.5471 13.4062" stroke="#FF5722" stroke-width="1.5" stroke-linecap="round" stroke-linejoin="round"/>
<path d="M29.1284 13.4062C29.3241 12.3809 29.8076 11.4324 30.5224 10.6716C31.2372 9.91076 32.1537 9.36908 33.1649 9.10982C34.1761 8.85056 35.2402 8.88443 36.2329 9.20747C37.2255 9.5305 38.1057 10.1294 38.7707 10.9341C39.4356 11.7388 39.8578 12.7161 39.988 13.7519C40.1181 14.7876 39.9508 15.839 39.5056 16.7832C39.0603 17.7274 38.3556 18.5254 37.4737 19.084C36.5918 19.6425 35.5692 19.9386 34.5253 19.9375" stroke="#FF5722" stroke-width="1.5" stroke-linecap="round" stroke-linejoin="round"/>
</svg>
