<svg width="45" height="45" viewBox="0 0 45 45" fill="none" xmlns="http://www.w3.org/2000/svg">
<path d="M4.44141 10.9707H26.4414C27.9001 10.9707 29.299 11.5502 30.3305 12.5816C31.3619 13.6131 31.9414 15.012 31.9414 16.4707V32.9707C31.9414 33.3354 31.7965 33.6851 31.5387 33.943C31.2808 34.2008 30.9311 34.3457 30.5664 34.3457H8.56641C7.10772 34.3457 5.70877 33.7662 4.67732 32.7348C3.64587 31.7033 3.06641 30.3044 3.06641 28.8457V12.3457C3.06641 11.981 3.21127 11.6313 3.46913 11.3734C3.727 11.1156 4.07673 10.9707 4.44141 10.9707V10.9707Z" stroke="#3B9A47" stroke-width="1.5" stroke-linecap="round" stroke-linejoin="round"/>
<path d="M31.9414 19.9082L41.5664 14.4082V30.9082L31.9414 25.4082" stroke="#3B9A47" stroke-width="1.5" stroke-linecap="round" stroke-linejoin="round"/>
</svg>
