<svg width="28" height="24" viewBox="0 0 28 24" fill="none" xmlns="http://www.w3.org/2000/svg">
<g clip-path="url(#clip0_5517_7372)">
<path d="M17.3475 12.008C17.3475 14.4478 17.3475 16.8866 17.3475 19.3244C17.3732 20.4491 17.0179 21.5495 16.3392 22.4468C14.9949 24.2077 12.8031 24.5036 11.0394 23.1678C8.80458 21.473 6.5707 19.7802 4.33779 18.0892C4.10946 17.9096 3.83202 17.8034 3.5421 17.7847C1.86167 17.6554 0.563288 16.4518 0.143899 14.6479C0.0664772 14.3239 0.02315 13.9927 0.0146314 13.6597C0.000268786 12.5107 -0.0140939 11.3445 0.0146314 10.1897C0.0475074 9.16862 0.434409 8.1907 1.10907 7.42349C1.40695 7.05813 1.77934 6.7605 2.20137 6.55047C2.6234 6.34045 3.08537 6.22286 3.55646 6.20554C3.83629 6.19443 4.10515 6.09373 4.32343 5.91829C6.5123 4.25509 8.74713 2.6436 10.8929 0.922949C13.1708 -0.903981 15.9629 0.176091 16.9626 2.64647C17.2225 3.30768 17.3522 4.01288 17.3446 4.7233C17.3446 7.15155 17.3456 9.57979 17.3475 12.008ZM14.6732 12.008C14.6732 9.58937 14.6732 7.17165 14.6732 4.7549C14.6949 4.27352 14.5836 3.79547 14.3514 3.37321C13.8832 2.58039 13.3001 2.46263 12.5733 3.01129L12.3981 3.14341C10.2226 4.79224 8.04719 6.44013 5.87173 8.08704C5.31238 8.54864 4.61963 8.81848 3.89542 8.85688C3.68534 8.8498 3.47815 8.90746 3.30192 9.02204C3.12569 9.13661 2.98892 9.30257 2.91014 9.49745C2.7672 9.82841 2.68639 10.1828 2.67172 10.5431C2.64013 11.5111 2.67172 12.4791 2.67172 13.4501C2.67471 13.6273 2.692 13.8041 2.72343 13.9786C2.83258 14.5933 3.26059 15.0989 3.72881 15.1132C4.57077 15.1498 5.37772 15.4605 6.02684 15.998C8.23007 17.6813 10.4448 19.3474 12.6538 21.0192C13.2857 21.496 13.8171 21.4127 14.2796 20.7664C14.5791 20.3097 14.7251 19.7692 14.6961 19.2238C14.677 16.8205 14.6693 14.4152 14.6732 12.008Z" fill="#E8E8E8"/>
<path d="M27.3746 11.2634C27.3114 14.8167 26.4726 17.583 24.4762 19.9356C24.208 20.2512 23.9202 20.5496 23.6145 20.829C23.4866 20.948 23.3365 21.0406 23.1728 21.1017C23.0091 21.1627 22.835 21.1908 22.6604 21.1846C22.4859 21.1783 22.3142 21.1377 22.1553 21.0651C21.9964 20.9925 21.8534 20.8893 21.7344 20.7614C21.6154 20.6336 21.5227 20.4835 21.4617 20.3198C21.4007 20.1561 21.3725 19.982 21.3788 19.8074C21.385 19.6329 21.4256 19.4612 21.4982 19.3023C21.5708 19.1434 21.674 19.0004 21.8019 18.8814C24.1487 16.6178 24.91 13.7999 24.6285 10.6458C24.48 8.58935 23.6385 6.64402 22.2414 5.1277C22.1064 4.98408 21.9541 4.84045 21.8162 4.71406C21.6809 4.59466 21.5711 4.44911 21.4935 4.28619C21.4158 4.12328 21.372 3.94635 21.3644 3.76604C21.3569 3.58572 21.386 3.40574 21.4498 3.23692C21.5136 3.06811 21.6109 2.91395 21.7358 2.78371C21.8591 2.65511 22.0072 2.55279 22.1711 2.48288C22.335 2.41298 22.5113 2.37695 22.6895 2.37695C22.8677 2.37695 23.044 2.41298 23.2079 2.48288C23.3718 2.55279 23.5199 2.65511 23.6432 2.78371C25.3335 4.34258 26.4995 6.38666 26.9811 8.63505C27.2022 9.64906 27.2942 10.7119 27.3746 11.2634Z" fill="#E8E8E8"/>
<path d="M22.4174 12.3212C22.4046 13.6909 21.9413 15.0184 21.0989 16.0986C20.941 16.3204 20.7174 16.4871 20.4598 16.5753C20.2021 16.6634 19.9233 16.6685 19.6626 16.5898C19.4549 16.5341 19.2639 16.4283 19.1065 16.2818C18.9491 16.1352 18.8301 15.9523 18.7598 15.749C18.6895 15.5458 18.6701 15.3284 18.7033 15.1159C18.7365 14.9034 18.8213 14.7023 18.9502 14.5302C19.8809 13.2806 19.9211 11.9104 19.5104 10.4885C19.3977 10.1536 19.2298 9.83999 19.0134 9.56068C18.5423 8.90574 18.6055 8.1043 19.1972 7.63608C19.3374 7.5269 19.4977 7.44652 19.669 7.39954C19.8403 7.35257 20.0192 7.33991 20.1954 7.36234C20.3716 7.38477 20.5416 7.44183 20.6957 7.53021C20.8497 7.6186 20.9848 7.73657 21.0931 7.87736C21.9175 8.85115 22.4174 10.3937 22.4174 12.3212Z" fill="#E8E8E8"/>
</g>
<defs>
<clipPath id="clip0_5517_7372">
<rect width="27.3752" height="24" fill="white"/>
</clipPath>
</defs>
</svg>
