<svg width="25" height="24" viewBox="0 0 25 24" fill="none" xmlns="http://www.w3.org/2000/svg">
<g clip-path="url(#clip0_536_8303)">
<path d="M23.3566 6.42C23.2378 5.94541 22.9959 5.51057 22.6552 5.15941C22.3146 4.80824 21.8873 4.55318 21.4166 4.42C19.6966 4 12.8166 4 12.8166 4C12.8166 4 5.93658 4 4.21658 4.46C3.74583 4.59318 3.31856 4.84824 2.97793 5.19941C2.6373 5.55057 2.39537 5.98541 2.27658 6.46C1.9618 8.20556 1.80782 9.97631 1.81658 11.75C1.80536 13.537 1.95935 15.3213 2.27658 17.08C2.40754 17.5398 2.65489 17.9581 2.99473 18.2945C3.33456 18.6308 3.7554 18.8738 4.21658 19C5.93658 19.46 12.8166 19.46 12.8166 19.46C12.8166 19.46 19.6966 19.46 21.4166 19C21.8873 18.8668 22.3146 18.6118 22.6552 18.2606C22.9959 17.9094 23.2378 17.4746 23.3566 17C23.6689 15.2676 23.8229 13.5103 23.8166 11.75C23.8278 9.96295 23.6738 8.1787 23.3566 6.42Z" stroke="#878787" stroke-width="2" stroke-linecap="round" stroke-linejoin="round"/>
<path d="M10.5666 15.02L16.3166 11.75L10.5666 8.47998V15.02Z" stroke="#878787" stroke-width="2" stroke-linecap="round" stroke-linejoin="round"/>
</g>
<defs>
<clipPath id="clip0_536_8303">
<rect width="24" height="24" fill="white" transform="translate(0.816589)"/>
</clipPath>
</defs>
</svg>
